M48
; DRILL file {KiCad 7.0.10} date Sun Apr  7 18:07:49 2024
; FORMAT={-:-/ absolute / metric / decimal}
; #@! TF.CreationDate,2024-04-07T18:07:49-06:00
; #@! TF.GenerationSoftware,Kicad,Pcbnew,7.0.10
; #@! TF.FileFunction,MixedPlating,1,2
FMAT,2
METRIC
; #@! TA.AperFunction,Plated,PTH,ViaDrill
T1C1.000
; #@! TA.AperFunction,Plated,PTH,ComponentDrill
T2C1.000
; #@! TA.AperFunction,NonPlated,NPTH,ComponentDrill
T3C3.099
%
G90
G05
T1
X28.163Y-44.514
X46.223Y-41.846
X48.074Y-3.035
X55.237Y-30.427
T2
X4.373Y-2.781
X6.913Y-2.781
X9.453Y-2.781
X10.219Y-49.724
X11.589Y-52.264
X11.993Y-2.781
X12.959Y-49.724
X14.329Y-52.264
X14.533Y-2.781
X15.699Y-49.724
X17.069Y-52.264
X17.073Y-2.781
X18.439Y-49.724
X19.613Y-2.781
X19.809Y-52.264
X21.179Y-49.724
X22.153Y-2.781
X28.367Y-8.903
X28.367Y-11.443
X28.367Y-13.983
X28.367Y-16.523
X28.367Y-19.063
X28.367Y-21.603
X28.367Y-24.143
X28.367Y-26.683
X28.367Y-29.223
X28.367Y-31.763
X28.367Y-34.303
X28.367Y-36.843
X28.367Y-39.383
X28.367Y-41.923
X42.029Y-3.035
X43.607Y-8.903
X43.607Y-11.443
X43.607Y-13.983
X43.607Y-16.523
X43.607Y-19.063
X43.607Y-21.603
X43.607Y-24.143
X43.607Y-26.683
X43.607Y-29.223
X43.607Y-31.763
X43.607Y-34.303
X43.607Y-36.843
X43.607Y-39.383
X43.607Y-41.923
X44.569Y-3.035
X52.722Y-3.01
X55.262Y-3.01
X57.802Y-3.01
X57.863Y-15.161
X57.863Y-30.401
X60.403Y-15.161
X60.403Y-30.401
X62.943Y-15.161
X62.943Y-30.401
X65.397Y-2.781
X65.483Y-15.161
X65.483Y-30.401
X67.937Y-2.781
X68.023Y-15.161
X68.023Y-30.401
X70.477Y-2.781
X70.563Y-15.161
X70.563Y-30.401
X73.017Y-2.781
X73.103Y-15.161
X73.103Y-30.401
X74.862Y-49.724
X75.557Y-2.781
X75.643Y-15.161
X75.643Y-30.401
X76.232Y-52.264
X77.602Y-49.724
X78.097Y-2.781
X78.183Y-15.161
X78.183Y-30.401
X78.972Y-52.264
X80.342Y-49.724
X80.637Y-2.781
X80.723Y-15.161
X80.723Y-30.401
X81.712Y-52.264
X83.082Y-49.724
X83.177Y-2.781
X83.263Y-15.161
X83.263Y-30.401
X84.452Y-52.264
X85.803Y-15.161
X85.803Y-30.401
X85.822Y-49.724
X88.343Y-15.161
X88.343Y-30.401
X90.883Y-15.161
X90.883Y-30.401
T3
X3.204Y-50.994
X28.194Y-50.994
X67.847Y-50.994
X92.837Y-50.994
M30
