M48
; DRILL file {KiCad 7.0.10} date Fri Mar 29 22:47:08 2024
; FORMAT={-:-/ absolute / metric / decimal}
; #@! TF.CreationDate,2024-03-29T22:47:08-06:00
; #@! TF.GenerationSoftware,Kicad,Pcbnew,7.0.10
; #@! TF.FileFunction,MixedPlating,1,2
FMAT,2
METRIC
; #@! TA.AperFunction,Plated,PTH,ComponentDrill
T1C1.000
; #@! TA.AperFunction,NonPlated,NPTH,ComponentDrill
T2C3.450
%
G90
G05
T1
X6.604Y-16.51
X7.874Y-19.05
X9.144Y-16.51
X10.412Y-24.24
X10.412Y-26.78
X10.412Y-29.32
X10.412Y-31.86
X10.412Y-34.4
X10.412Y-36.94
X10.412Y-39.48
X10.412Y-42.02
X10.414Y-19.05
X11.684Y-16.51
X12.954Y-19.05
X14.224Y-16.51
X15.494Y-19.05
X20.574Y-16.51
X21.844Y-19.05
X23.114Y-16.51
X24.384Y-19.05
X25.654Y-16.51
X26.924Y-19.05
X26.932Y-24.21
X26.932Y-26.75
X26.932Y-29.29
X26.932Y-31.83
X26.932Y-34.37
X26.932Y-36.91
X26.932Y-39.45
X26.932Y-41.99
X28.194Y-16.51
X29.464Y-19.05
T2
X5.334Y-10.16
X30.734Y-10.16
M30
