%TF.GenerationSoftware,KiCad,Pcbnew,7.0.10*%
%TF.CreationDate,2024-03-29T22:46:55-06:00*%
%TF.ProjectId,Electrode_Select_Breakout,456c6563-7472-46f6-9465-5f53656c6563,rev?*%
%TF.SameCoordinates,Original*%
%TF.FileFunction,Copper,L1,Top*%
%TF.FilePolarity,Positive*%
%FSLAX46Y46*%
G04 Gerber Fmt 4.6, Leading zero omitted, Abs format (unit mm)*
G04 Created by KiCad (PCBNEW 7.0.10) date 2024-03-29 22:46:55*
%MOMM*%
%LPD*%
G01*
G04 APERTURE LIST*
%TA.AperFunction,ComponentPad*%
%ADD10R,2.140000X2.140000*%
%TD*%
%TA.AperFunction,Conductor*%
%ADD11C,1.000000*%
%TD*%
G04 APERTURE END LIST*
D10*
%TO.P,J2,1_1*%
%TO.N,/CH6_1*%
X6604000Y-16510000D03*
%TO.P,J2,1_2*%
%TO.N,/CH2_1*%
X7874000Y-19050000D03*
%TO.P,J2,1_3*%
%TO.N,/CH7_1*%
X9144000Y-16510000D03*
%TO.P,J2,1_4*%
%TO.N,/CH1_1*%
X10414000Y-19050000D03*
%TO.P,J2,1_5*%
%TO.N,/CH8_1*%
X11684000Y-16510000D03*
%TO.P,J2,1_6*%
%TO.N,/CH3_1*%
X12954000Y-19050000D03*
%TO.P,J2,1_7*%
%TO.N,/CH5_1*%
X14224000Y-16510000D03*
%TO.P,J2,1_8*%
%TO.N,/CH4_1*%
X15494000Y-19050000D03*
%TO.P,J2,2_1*%
%TO.N,/CH5_2*%
X20574000Y-16510000D03*
%TO.P,J2,2_2*%
%TO.N,/CH4_2*%
X21844000Y-19050000D03*
%TO.P,J2,2_3*%
%TO.N,/CH8_2*%
X23114000Y-16510000D03*
%TO.P,J2,2_4*%
%TO.N,/CH3_2*%
X24384000Y-19050000D03*
%TO.P,J2,2_5*%
%TO.N,/CH7_2*%
X25654000Y-16510000D03*
%TO.P,J2,2_6*%
%TO.N,/CH1_2*%
X26924000Y-19050000D03*
%TO.P,J2,2_7*%
%TO.N,/CH6_2*%
X28194000Y-16510000D03*
%TO.P,J2,2_8*%
%TO.N,/CH2_2*%
X29464000Y-19050000D03*
%TD*%
%TO.P,J3,1,Pin_1*%
%TO.N,/CH1_2*%
X26932000Y-24210000D03*
%TO.P,J3,2,Pin_2*%
%TO.N,/CH2_2*%
X26932000Y-26750000D03*
%TO.P,J3,3,Pin_3*%
%TO.N,/CH3_2*%
X26932000Y-29290000D03*
%TO.P,J3,4,Pin_4*%
%TO.N,/CH4_2*%
X26932000Y-31830000D03*
%TO.P,J3,5,Pin_5*%
%TO.N,/CH5_2*%
X26932000Y-34370000D03*
%TO.P,J3,6,Pin_6*%
%TO.N,/CH6_2*%
X26932000Y-36910000D03*
%TO.P,J3,7,Pin_7*%
%TO.N,/CH7_2*%
X26932000Y-39450000D03*
%TO.P,J3,8,Pin_8*%
%TO.N,/CH8_2*%
X26932000Y-41990000D03*
%TD*%
%TO.P,J1,1,Pin_1*%
%TO.N,/CH1_1*%
X10412000Y-24240000D03*
%TO.P,J1,2,Pin_2*%
%TO.N,/CH2_1*%
X10412000Y-26780000D03*
%TO.P,J1,3,Pin_3*%
%TO.N,/CH3_1*%
X10412000Y-29320000D03*
%TO.P,J1,4,Pin_4*%
%TO.N,/CH4_1*%
X10412000Y-31860000D03*
%TO.P,J1,5,Pin_5*%
%TO.N,/CH5_1*%
X10412000Y-34400000D03*
%TO.P,J1,6,Pin_6*%
%TO.N,/CH6_1*%
X10412000Y-36940000D03*
%TO.P,J1,7,Pin_7*%
%TO.N,/CH7_1*%
X10412000Y-39480000D03*
%TO.P,J1,8,Pin_8*%
%TO.N,/CH8_1*%
X10412000Y-42020000D03*
%TD*%
D11*
%TO.N,/CH1_1*%
X10414000Y-24238000D02*
X10412000Y-24240000D01*
X10414000Y-19050000D02*
X10414000Y-24238000D01*
%TO.N,/CH2_1*%
X7874000Y-26162000D02*
X7874000Y-19050000D01*
X8492000Y-26780000D02*
X7874000Y-26162000D01*
X10412000Y-26780000D02*
X8492000Y-26780000D01*
%TO.N,/CH3_1*%
X12954000Y-19050000D02*
X12954000Y-28704000D01*
X12954000Y-28704000D02*
X12338000Y-29320000D01*
X12338000Y-29320000D02*
X10412000Y-29320000D01*
%TO.N,/CH4_1*%
X15494000Y-19050000D02*
X15494000Y-28575000D01*
X15494000Y-28575000D02*
X12209000Y-31860000D01*
X12209000Y-31860000D02*
X10412000Y-31860000D01*
%TO.N,/CH1_2*%
X26924000Y-24202000D02*
X26932000Y-24210000D01*
X26924000Y-19050000D02*
X26924000Y-24202000D01*
%TO.N,/CH2_2*%
X29464000Y-19050000D02*
X29464000Y-25968000D01*
X29464000Y-25968000D02*
X28682000Y-26750000D01*
X28682000Y-26750000D02*
X26932000Y-26750000D01*
%TO.N,/CH3_2*%
X24384000Y-19050000D02*
X24384000Y-28448000D01*
X25226000Y-29290000D02*
X26932000Y-29290000D01*
X24384000Y-28448000D02*
X25226000Y-29290000D01*
%TO.N,/CH4_2*%
X25226000Y-31830000D02*
X26932000Y-31830000D01*
X21844000Y-28448000D02*
X25226000Y-31830000D01*
X21844000Y-19050000D02*
X21844000Y-28448000D01*
%TO.N,/CH5_1*%
X14224000Y-16510000D02*
X16914000Y-16510000D01*
X16914000Y-16510000D02*
X17526000Y-17122000D01*
X17526000Y-17122000D02*
X17526000Y-29210000D01*
X12336000Y-34400000D02*
X10412000Y-34400000D01*
X17526000Y-29210000D02*
X12336000Y-34400000D01*
%TO.N,/CH5_2*%
X25226000Y-34370000D02*
X26932000Y-34370000D01*
X19558000Y-28702000D02*
X25226000Y-34370000D01*
X19558000Y-17526000D02*
X19558000Y-28702000D01*
X20574000Y-16510000D02*
X19558000Y-17526000D01*
%TO.N,/CH6_1*%
X5842000Y-17272000D02*
X5842000Y-34167000D01*
X8615000Y-36940000D02*
X10412000Y-36940000D01*
X6604000Y-16510000D02*
X5842000Y-17272000D01*
X5842000Y-34167000D02*
X8615000Y-36940000D01*
%TO.N,/CH7_1*%
X4318000Y-15240000D02*
X4318000Y-35306000D01*
X8532000Y-14478000D02*
X5080000Y-14478000D01*
X9144000Y-16510000D02*
X9144000Y-15090000D01*
X8492000Y-39480000D02*
X10412000Y-39480000D01*
X5080000Y-14478000D02*
X4318000Y-15240000D01*
X4318000Y-35306000D02*
X8492000Y-39480000D01*
X9144000Y-15090000D02*
X8532000Y-14478000D01*
%TO.N,/CH8_1*%
X2908000Y-14655959D02*
X2908000Y-36586000D01*
X11124000Y-16458000D02*
X11124000Y-14530000D01*
X11124000Y-14530000D02*
X9662000Y-13068000D01*
X11684000Y-16510000D02*
X11176000Y-16510000D01*
X8342000Y-42020000D02*
X10412000Y-42020000D01*
X2908000Y-36586000D02*
X8342000Y-42020000D01*
X4495958Y-13068000D02*
X2908000Y-14655959D01*
X9662000Y-13068000D02*
X4495958Y-13068000D01*
X11176000Y-16510000D02*
X11124000Y-16458000D01*
%TO.N,/CH8_2*%
X25136000Y-13068000D02*
X23114000Y-15090000D01*
X26932000Y-41902000D02*
X28710000Y-41902000D01*
X26932000Y-41990000D02*
X26932000Y-41902000D01*
X23114000Y-15090000D02*
X23114000Y-16510000D01*
X28710000Y-41902000D02*
X34316000Y-36296000D01*
X34316000Y-36296000D02*
X34316000Y-15953917D01*
X34316000Y-15953917D02*
X31430083Y-13068000D01*
X31430083Y-13068000D02*
X25136000Y-13068000D01*
%TO.N,/CH7_2*%
X26266000Y-14478000D02*
X25654000Y-15090000D01*
X28622000Y-39450000D02*
X32906000Y-35166000D01*
X32906000Y-16537958D02*
X30846042Y-14478000D01*
X26932000Y-39450000D02*
X28622000Y-39450000D01*
X25654000Y-15090000D02*
X25654000Y-16510000D01*
X32906000Y-35166000D02*
X32906000Y-16537958D01*
X30846042Y-14478000D02*
X26266000Y-14478000D01*
%TO.N,/CH6_2*%
X28622000Y-36910000D02*
X31496000Y-34036000D01*
X30428000Y-16510000D02*
X28194000Y-16510000D01*
X31496000Y-34036000D02*
X31496000Y-17578000D01*
X31496000Y-17578000D02*
X30428000Y-16510000D01*
X26932000Y-36910000D02*
X28622000Y-36910000D01*
%TD*%
%TA.AperFunction,NonConductor*%
G36*
X36206012Y-20702D02*
G01*
X36276994Y-77308D01*
X36316385Y-159106D01*
X36321500Y-204500D01*
X36321500Y-45962513D01*
X36301298Y-46051025D01*
X36244692Y-46122007D01*
X36162894Y-46161398D01*
X36117215Y-46166513D01*
X204215Y-46116284D01*
X115731Y-46095958D01*
X44829Y-46039253D01*
X5551Y-45957400D01*
X500Y-45912284D01*
X500Y-14703870D01*
X1993739Y-14703870D01*
X1993740Y-14703874D01*
X1994988Y-14711757D01*
X1997500Y-14743667D01*
X1997500Y-36498292D01*
X1994988Y-36530207D01*
X1993740Y-36538086D01*
X1997220Y-36604485D01*
X1997500Y-36615163D01*
X1997500Y-36633715D01*
X1999439Y-36652166D01*
X2000275Y-36662801D01*
X2003756Y-36729211D01*
X2003757Y-36729221D01*
X2005823Y-36736930D01*
X2011655Y-36768392D01*
X2012491Y-36776347D01*
X2012492Y-36776353D01*
X2033046Y-36839612D01*
X2036078Y-36849849D01*
X2053290Y-36914085D01*
X2053292Y-36914089D01*
X2053293Y-36914092D01*
X2056923Y-36921218D01*
X2069165Y-36950772D01*
X2071634Y-36958372D01*
X2104887Y-37015967D01*
X2109983Y-37025353D01*
X2140180Y-37084619D01*
X2140186Y-37084627D01*
X2145209Y-37090830D01*
X2163343Y-37117215D01*
X2167333Y-37124126D01*
X2209272Y-37170705D01*
X2211841Y-37173558D01*
X2218761Y-37181659D01*
X2230440Y-37196081D01*
X2243544Y-37209185D01*
X2250891Y-37216928D01*
X2295398Y-37266358D01*
X2295401Y-37266361D01*
X2301857Y-37271051D01*
X2326200Y-37291841D01*
X7636158Y-42601799D01*
X7656945Y-42626138D01*
X7661633Y-42632591D01*
X7661642Y-42632601D01*
X7711070Y-42677106D01*
X7718797Y-42684438D01*
X7731919Y-42697560D01*
X7746331Y-42709231D01*
X7754445Y-42716162D01*
X7803871Y-42760665D01*
X7803872Y-42760666D01*
X7810787Y-42764658D01*
X7837176Y-42782796D01*
X7843369Y-42787812D01*
X7843372Y-42787813D01*
X7843374Y-42787815D01*
X7902650Y-42818017D01*
X7912017Y-42823104D01*
X7958282Y-42849815D01*
X7969627Y-42856365D01*
X7976905Y-42858729D01*
X7977211Y-42858829D01*
X8006798Y-42871083D01*
X8013908Y-42874706D01*
X8078164Y-42891923D01*
X8088371Y-42894947D01*
X8151654Y-42915509D01*
X8159599Y-42916344D01*
X8191077Y-42922178D01*
X8198782Y-42924243D01*
X8265229Y-42927725D01*
X8275815Y-42928558D01*
X8294285Y-42930500D01*
X8312835Y-42930500D01*
X8323513Y-42930780D01*
X8389913Y-42934260D01*
X8389913Y-42934259D01*
X8389914Y-42934260D01*
X8394625Y-42933513D01*
X8397794Y-42933012D01*
X8429709Y-42930500D01*
X8727830Y-42930500D01*
X8816342Y-42950702D01*
X8887324Y-43007308D01*
X8926715Y-43089106D01*
X8931201Y-43118490D01*
X8931501Y-43122304D01*
X8946725Y-43218436D01*
X9005756Y-43334290D01*
X9005758Y-43334293D01*
X9005759Y-43334294D01*
X9097706Y-43426241D01*
X9213567Y-43485275D01*
X9213568Y-43485275D01*
X9213570Y-43485276D01*
X9255329Y-43491889D01*
X9309693Y-43500500D01*
X11514306Y-43500499D01*
X11610433Y-43485275D01*
X11610434Y-43485274D01*
X11610436Y-43485274D01*
X11726290Y-43426243D01*
X11726294Y-43426241D01*
X11818241Y-43334294D01*
X11877275Y-43218433D01*
X11892500Y-43122307D01*
X11892499Y-40917694D01*
X11877275Y-40821567D01*
X11877272Y-40821561D01*
X11874505Y-40813044D01*
X11866365Y-40722621D01*
X11874506Y-40686952D01*
X11877272Y-40678438D01*
X11877275Y-40678433D01*
X11892500Y-40582307D01*
X11892499Y-38377694D01*
X11877275Y-38281567D01*
X11877272Y-38281561D01*
X11874505Y-38273044D01*
X11866365Y-38182621D01*
X11874506Y-38146952D01*
X11877272Y-38138438D01*
X11877275Y-38138433D01*
X11892500Y-38042307D01*
X11892499Y-35837694D01*
X11877275Y-35741567D01*
X11877272Y-35741561D01*
X11874505Y-35733044D01*
X11866365Y-35642621D01*
X11874506Y-35606952D01*
X11877272Y-35598438D01*
X11877275Y-35598433D01*
X11892500Y-35502307D01*
X11892500Y-35502300D01*
X11892800Y-35498493D01*
X11893414Y-35496525D01*
X11893753Y-35494391D01*
X11894066Y-35494440D01*
X11919885Y-35411839D01*
X11981886Y-35345518D01*
X12066522Y-35312666D01*
X12096171Y-35310500D01*
X12248292Y-35310500D01*
X12280205Y-35313011D01*
X12288086Y-35314260D01*
X12354487Y-35310779D01*
X12365165Y-35310500D01*
X12383711Y-35310500D01*
X12383715Y-35310500D01*
X12402177Y-35308559D01*
X12412775Y-35307724D01*
X12479218Y-35304243D01*
X12486929Y-35302176D01*
X12518402Y-35296343D01*
X12526346Y-35295509D01*
X12589617Y-35274950D01*
X12599843Y-35271922D01*
X12664088Y-35254708D01*
X12664087Y-35254708D01*
X12664092Y-35254707D01*
X12671205Y-35251082D01*
X12700783Y-35238830D01*
X12708373Y-35236365D01*
X12765990Y-35203098D01*
X12775338Y-35198023D01*
X12834626Y-35167815D01*
X12840825Y-35162794D01*
X12867223Y-35144651D01*
X12874126Y-35140667D01*
X12923591Y-35096127D01*
X12931663Y-35089234D01*
X12946081Y-35077560D01*
X12959187Y-35064452D01*
X12966916Y-35057117D01*
X13016360Y-35012599D01*
X13021048Y-35006145D01*
X13041838Y-34981801D01*
X18107801Y-29915838D01*
X18132146Y-29895048D01*
X18138599Y-29890360D01*
X18183117Y-29840916D01*
X18190457Y-29833183D01*
X18203549Y-29820092D01*
X18203549Y-29820091D01*
X18203560Y-29820081D01*
X18215234Y-29805663D01*
X18222127Y-29797591D01*
X18266667Y-29748126D01*
X18270651Y-29741223D01*
X18288794Y-29714825D01*
X18293815Y-29708626D01*
X18324023Y-29649338D01*
X18329098Y-29639990D01*
X18362365Y-29582373D01*
X18364830Y-29574783D01*
X18377083Y-29545204D01*
X18380706Y-29538093D01*
X18380707Y-29538092D01*
X18397922Y-29473843D01*
X18400950Y-29463617D01*
X18421509Y-29400346D01*
X18422343Y-29392402D01*
X18428176Y-29360929D01*
X18430243Y-29353218D01*
X18431819Y-29323137D01*
X18456623Y-29235808D01*
X18516865Y-29167885D01*
X18600611Y-29132826D01*
X18691275Y-29137576D01*
X18770900Y-29181192D01*
X18794060Y-29205412D01*
X18795194Y-29206812D01*
X18813343Y-29233215D01*
X18817333Y-29240126D01*
X18854559Y-29281470D01*
X18861841Y-29289558D01*
X18868761Y-29297659D01*
X18880440Y-29312081D01*
X18891501Y-29323142D01*
X18893544Y-29325185D01*
X18900891Y-29332928D01*
X18945398Y-29382358D01*
X18945401Y-29382361D01*
X18951857Y-29387051D01*
X18976200Y-29407841D01*
X24520158Y-34951799D01*
X24540945Y-34976138D01*
X24545633Y-34982591D01*
X24545642Y-34982601D01*
X24595070Y-35027106D01*
X24602797Y-35034438D01*
X24615919Y-35047560D01*
X24627691Y-35057093D01*
X24630331Y-35059231D01*
X24638445Y-35066162D01*
X24687871Y-35110665D01*
X24687872Y-35110666D01*
X24694787Y-35114658D01*
X24721176Y-35132796D01*
X24727371Y-35137813D01*
X24727374Y-35137815D01*
X24786651Y-35168018D01*
X24796025Y-35173108D01*
X24853619Y-35206361D01*
X24853631Y-35206367D01*
X24861224Y-35208834D01*
X24890799Y-35221084D01*
X24897903Y-35224704D01*
X24897903Y-35224705D01*
X24897905Y-35224705D01*
X24897908Y-35224707D01*
X24962196Y-35241932D01*
X24972349Y-35244939D01*
X25035654Y-35265509D01*
X25043598Y-35266343D01*
X25075066Y-35272175D01*
X25082782Y-35274243D01*
X25149229Y-35277725D01*
X25159821Y-35278559D01*
X25178285Y-35280500D01*
X25196835Y-35280500D01*
X25207478Y-35280778D01*
X25258721Y-35283463D01*
X25346049Y-35308268D01*
X25413971Y-35368511D01*
X25449029Y-35452257D01*
X25451411Y-35471169D01*
X25451499Y-35472291D01*
X25451501Y-35472303D01*
X25451501Y-35472306D01*
X25457802Y-35512090D01*
X25466726Y-35568438D01*
X25469497Y-35576966D01*
X25477633Y-35667389D01*
X25469496Y-35703039D01*
X25466723Y-35711571D01*
X25451500Y-35807686D01*
X25451500Y-38012300D01*
X25451500Y-38012301D01*
X25451501Y-38012306D01*
X25466725Y-38108433D01*
X25466726Y-38108438D01*
X25469497Y-38116966D01*
X25477633Y-38207389D01*
X25469496Y-38243039D01*
X25466723Y-38251571D01*
X25451500Y-38347686D01*
X25451500Y-40552300D01*
X25451500Y-40552301D01*
X25451501Y-40552306D01*
X25466725Y-40648433D01*
X25466726Y-40648438D01*
X25469497Y-40656966D01*
X25477633Y-40747389D01*
X25469496Y-40783039D01*
X25466723Y-40791571D01*
X25451500Y-40887686D01*
X25451500Y-43092300D01*
X25451501Y-43092304D01*
X25466725Y-43188436D01*
X25525756Y-43304290D01*
X25525758Y-43304293D01*
X25525759Y-43304294D01*
X25617706Y-43396241D01*
X25733567Y-43455275D01*
X25733568Y-43455275D01*
X25733570Y-43455276D01*
X25775329Y-43461889D01*
X25829693Y-43470500D01*
X28034306Y-43470499D01*
X28130433Y-43455275D01*
X28130434Y-43455274D01*
X28130436Y-43455274D01*
X28246290Y-43396243D01*
X28246294Y-43396241D01*
X28338241Y-43304294D01*
X28397275Y-43188433D01*
X28407748Y-43122313D01*
X28412499Y-43092313D01*
X28412500Y-43092303D01*
X28412500Y-43016500D01*
X28432702Y-42927988D01*
X28489308Y-42857006D01*
X28571106Y-42817615D01*
X28616500Y-42812500D01*
X28622292Y-42812500D01*
X28654205Y-42815011D01*
X28662086Y-42816260D01*
X28728487Y-42812779D01*
X28739165Y-42812500D01*
X28757711Y-42812500D01*
X28757715Y-42812500D01*
X28776177Y-42810559D01*
X28786775Y-42809724D01*
X28853218Y-42806243D01*
X28860929Y-42804176D01*
X28892402Y-42798343D01*
X28900346Y-42797509D01*
X28963617Y-42776950D01*
X28973843Y-42773922D01*
X29038088Y-42756708D01*
X29038087Y-42756708D01*
X29038092Y-42756707D01*
X29045205Y-42753082D01*
X29074783Y-42740830D01*
X29082373Y-42738365D01*
X29139990Y-42705098D01*
X29149338Y-42700023D01*
X29208626Y-42669815D01*
X29214825Y-42664794D01*
X29241223Y-42646651D01*
X29248126Y-42642667D01*
X29297591Y-42598127D01*
X29305663Y-42591234D01*
X29320081Y-42579560D01*
X29333187Y-42566452D01*
X29340916Y-42559117D01*
X29390360Y-42514599D01*
X29395048Y-42508145D01*
X29415838Y-42483801D01*
X34897801Y-37001838D01*
X34922146Y-36981048D01*
X34928599Y-36976360D01*
X34973117Y-36926916D01*
X34980457Y-36919183D01*
X34985549Y-36914092D01*
X34993560Y-36906081D01*
X35005234Y-36891663D01*
X35012127Y-36883591D01*
X35056667Y-36834126D01*
X35060651Y-36827223D01*
X35078794Y-36800825D01*
X35083815Y-36794626D01*
X35114023Y-36735338D01*
X35119098Y-36725990D01*
X35152365Y-36668373D01*
X35154830Y-36660783D01*
X35167083Y-36631204D01*
X35170706Y-36624093D01*
X35170707Y-36624092D01*
X35187922Y-36559843D01*
X35190950Y-36549617D01*
X35211509Y-36486346D01*
X35212343Y-36478402D01*
X35218176Y-36446929D01*
X35220243Y-36439218D01*
X35223724Y-36372775D01*
X35224559Y-36362177D01*
X35226500Y-36343715D01*
X35226500Y-36325164D01*
X35226780Y-36314486D01*
X35230260Y-36248086D01*
X35229011Y-36240197D01*
X35226500Y-36208289D01*
X35226500Y-16041625D01*
X35229012Y-16009708D01*
X35230260Y-16001828D01*
X35226780Y-15935430D01*
X35226500Y-15924752D01*
X35226500Y-15906207D01*
X35226500Y-15906202D01*
X35224559Y-15887738D01*
X35223725Y-15877146D01*
X35220243Y-15810699D01*
X35218175Y-15802983D01*
X35212343Y-15771510D01*
X35212114Y-15769333D01*
X35211509Y-15763571D01*
X35190939Y-15700266D01*
X35187932Y-15690113D01*
X35170707Y-15625825D01*
X35167084Y-15618714D01*
X35154834Y-15589141D01*
X35152367Y-15581548D01*
X35152361Y-15581536D01*
X35119108Y-15523942D01*
X35114018Y-15514568D01*
X35083815Y-15455291D01*
X35078796Y-15449093D01*
X35060658Y-15422704D01*
X35056666Y-15415789D01*
X35056665Y-15415788D01*
X35012162Y-15366362D01*
X35005231Y-15358248D01*
X34993560Y-15343836D01*
X34980438Y-15330714D01*
X34973106Y-15322987D01*
X34928601Y-15273559D01*
X34928591Y-15273550D01*
X34922138Y-15268862D01*
X34897799Y-15248075D01*
X32135924Y-12486200D01*
X32115134Y-12461857D01*
X32110444Y-12455401D01*
X32110441Y-12455398D01*
X32061011Y-12410891D01*
X32053268Y-12403544D01*
X32040164Y-12390440D01*
X32025742Y-12378761D01*
X32017641Y-12371841D01*
X32014788Y-12369272D01*
X31968209Y-12327333D01*
X31961298Y-12323343D01*
X31934913Y-12305209D01*
X31928710Y-12300186D01*
X31928702Y-12300180D01*
X31869436Y-12269983D01*
X31860050Y-12264887D01*
X31802455Y-12231634D01*
X31794855Y-12229165D01*
X31765288Y-12216917D01*
X31759987Y-12214216D01*
X31690293Y-12156032D01*
X31652747Y-12073371D01*
X31654784Y-11982605D01*
X31696002Y-11901712D01*
X31754832Y-11853405D01*
X31804764Y-11826141D01*
X32030982Y-11656797D01*
X32230797Y-11456982D01*
X32400141Y-11230764D01*
X32535568Y-10982749D01*
X32634320Y-10717984D01*
X32694387Y-10441861D01*
X32714546Y-10160000D01*
X32694387Y-9878139D01*
X32634320Y-9602016D01*
X32535568Y-9337251D01*
X32400141Y-9089236D01*
X32230797Y-8863018D01*
X32030982Y-8663203D01*
X31917873Y-8578531D01*
X31804766Y-8493860D01*
X31742760Y-8460002D01*
X31556749Y-8358432D01*
X31556747Y-8358431D01*
X31556743Y-8358429D01*
X31556740Y-8358428D01*
X31291986Y-8259680D01*
X31015863Y-8199613D01*
X30804557Y-8184500D01*
X30804553Y-8184500D01*
X30663447Y-8184500D01*
X30663442Y-8184500D01*
X30452136Y-8199613D01*
X30176013Y-8259680D01*
X29911259Y-8358428D01*
X29911256Y-8358429D01*
X29663233Y-8493860D01*
X29437019Y-8663202D01*
X29437015Y-8663205D01*
X29237205Y-8863015D01*
X29237202Y-8863019D01*
X29067860Y-9089233D01*
X28932429Y-9337256D01*
X28932428Y-9337259D01*
X28833680Y-9602013D01*
X28773613Y-9878136D01*
X28753454Y-10159996D01*
X28753454Y-10160003D01*
X28773613Y-10441863D01*
X28833680Y-10717986D01*
X28932428Y-10982740D01*
X28932429Y-10982743D01*
X28932431Y-10982747D01*
X28932432Y-10982749D01*
X29067859Y-11230764D01*
X29237203Y-11456982D01*
X29437018Y-11656797D01*
X29531032Y-11727175D01*
X29615210Y-11790190D01*
X29673961Y-11859406D01*
X29696862Y-11947259D01*
X29679377Y-12036348D01*
X29624969Y-12109028D01*
X29544415Y-12150903D01*
X29492957Y-12157500D01*
X25223708Y-12157500D01*
X25191794Y-12154988D01*
X25190044Y-12154710D01*
X25183910Y-12153739D01*
X25117513Y-12157220D01*
X25106835Y-12157500D01*
X25088285Y-12157500D01*
X25071193Y-12159295D01*
X25069830Y-12159439D01*
X25059197Y-12160275D01*
X24992783Y-12163756D01*
X24992777Y-12163757D01*
X24985050Y-12165827D01*
X24953619Y-12171652D01*
X24945661Y-12172489D01*
X24945659Y-12172489D01*
X24882396Y-12193044D01*
X24872161Y-12196075D01*
X24807911Y-12213291D01*
X24807906Y-12213293D01*
X24800792Y-12216918D01*
X24771229Y-12229164D01*
X24763632Y-12231632D01*
X24763629Y-12231634D01*
X24706035Y-12264885D01*
X24696655Y-12269978D01*
X24637375Y-12300183D01*
X24637370Y-12300187D01*
X24631153Y-12305221D01*
X24604806Y-12323329D01*
X24597879Y-12327329D01*
X24597872Y-12327334D01*
X24548441Y-12371841D01*
X24540332Y-12378767D01*
X24525927Y-12390432D01*
X24525915Y-12390443D01*
X24512795Y-12403562D01*
X24505063Y-12410899D01*
X24455636Y-12455404D01*
X24450941Y-12461866D01*
X24430159Y-12486198D01*
X22532198Y-14384159D01*
X22507866Y-14404941D01*
X22501404Y-14409636D01*
X22456899Y-14459063D01*
X22449562Y-14466795D01*
X22436437Y-14479922D01*
X22424764Y-14494335D01*
X22417841Y-14502440D01*
X22373334Y-14551871D01*
X22373332Y-14551874D01*
X22369334Y-14558799D01*
X22351220Y-14585155D01*
X22346187Y-14591371D01*
X22346180Y-14591381D01*
X22315981Y-14650649D01*
X22310887Y-14660031D01*
X22277633Y-14717629D01*
X22275162Y-14725234D01*
X22262925Y-14754776D01*
X22259297Y-14761897D01*
X22259292Y-14761910D01*
X22242075Y-14826162D01*
X22239043Y-14836396D01*
X22222102Y-14888537D01*
X22175538Y-14966475D01*
X22099769Y-15016491D01*
X22028094Y-15029500D01*
X22011703Y-15029500D01*
X22011697Y-15029500D01*
X22011694Y-15029501D01*
X21933448Y-15041893D01*
X21915560Y-15044726D01*
X21907030Y-15047498D01*
X21816607Y-15055633D01*
X21780958Y-15047495D01*
X21772429Y-15044723D01*
X21676308Y-15029500D01*
X19471699Y-15029500D01*
X19471695Y-15029500D01*
X19471694Y-15029501D01*
X19452468Y-15032545D01*
X19375563Y-15044725D01*
X19259709Y-15103756D01*
X19167759Y-15195706D01*
X19167758Y-15195706D01*
X19108724Y-15311568D01*
X19108723Y-15311570D01*
X19093500Y-15407686D01*
X19093500Y-16618358D01*
X19073298Y-16706870D01*
X19033749Y-16762609D01*
X18976197Y-16820160D01*
X18951866Y-16840941D01*
X18945404Y-16845636D01*
X18900899Y-16895063D01*
X18893562Y-16902795D01*
X18880437Y-16915922D01*
X18868764Y-16930335D01*
X18861841Y-16938440D01*
X18817334Y-16987871D01*
X18817332Y-16987874D01*
X18813334Y-16994799D01*
X18795220Y-17021155D01*
X18783466Y-17035672D01*
X18780845Y-17033550D01*
X18730057Y-17082801D01*
X18643912Y-17111466D01*
X18553861Y-17099914D01*
X18477740Y-17050436D01*
X18430626Y-16972829D01*
X18423972Y-16942062D01*
X18423732Y-16942114D01*
X18421510Y-16931665D01*
X18421509Y-16931654D01*
X18400939Y-16868349D01*
X18397926Y-16858175D01*
X18380707Y-16793908D01*
X18377082Y-16786795D01*
X18364830Y-16757215D01*
X18362365Y-16749627D01*
X18329108Y-16692025D01*
X18324014Y-16682642D01*
X18293816Y-16623375D01*
X18288785Y-16617162D01*
X18270658Y-16590786D01*
X18266669Y-16583877D01*
X18266668Y-16583876D01*
X18266667Y-16583874D01*
X18222155Y-16534438D01*
X18215238Y-16526339D01*
X18203560Y-16511918D01*
X18190447Y-16498805D01*
X18183097Y-16491059D01*
X18138599Y-16441639D01*
X18132144Y-16436950D01*
X18107804Y-16416162D01*
X17619838Y-15928197D01*
X17599050Y-15903857D01*
X17594360Y-15897401D01*
X17544927Y-15852891D01*
X17537186Y-15845545D01*
X17524081Y-15832440D01*
X17509659Y-15820761D01*
X17501558Y-15813841D01*
X17489519Y-15803001D01*
X17452126Y-15769333D01*
X17445215Y-15765343D01*
X17418830Y-15747209D01*
X17412627Y-15742186D01*
X17412619Y-15742180D01*
X17353353Y-15711983D01*
X17343967Y-15706887D01*
X17286372Y-15673634D01*
X17278772Y-15671165D01*
X17249218Y-15658923D01*
X17242092Y-15655293D01*
X17242089Y-15655292D01*
X17242085Y-15655290D01*
X17177849Y-15638078D01*
X17167612Y-15635046D01*
X17104353Y-15614492D01*
X17104347Y-15614491D01*
X17102190Y-15614264D01*
X17096388Y-15613654D01*
X17064930Y-15607823D01*
X17057221Y-15605757D01*
X17057211Y-15605756D01*
X16990801Y-15602275D01*
X16980177Y-15601439D01*
X16961715Y-15599500D01*
X16961709Y-15599500D01*
X16943165Y-15599500D01*
X16932487Y-15599220D01*
X16866087Y-15595739D01*
X16859077Y-15596850D01*
X16858205Y-15596988D01*
X16826292Y-15599500D01*
X15908170Y-15599500D01*
X15819658Y-15579298D01*
X15748676Y-15522692D01*
X15709285Y-15440894D01*
X15704799Y-15411510D01*
X15704499Y-15407707D01*
X15704499Y-15407694D01*
X15689275Y-15311567D01*
X15689274Y-15311565D01*
X15689274Y-15311563D01*
X15630243Y-15195709D01*
X15630241Y-15195706D01*
X15538293Y-15103758D01*
X15422431Y-15044724D01*
X15422429Y-15044723D01*
X15326308Y-15029500D01*
X13121699Y-15029500D01*
X13121697Y-15029500D01*
X13121694Y-15029501D01*
X13043448Y-15041893D01*
X13025560Y-15044726D01*
X13017030Y-15047498D01*
X12926607Y-15055633D01*
X12890958Y-15047495D01*
X12882429Y-15044723D01*
X12786313Y-15029500D01*
X12786307Y-15029500D01*
X12238500Y-15029500D01*
X12149988Y-15009298D01*
X12079006Y-14952692D01*
X12039615Y-14870894D01*
X12034500Y-14825500D01*
X12034500Y-14617708D01*
X12037012Y-14585791D01*
X12038260Y-14577911D01*
X12034780Y-14511513D01*
X12034500Y-14500835D01*
X12034500Y-14482290D01*
X12034500Y-14482285D01*
X12032559Y-14463821D01*
X12031725Y-14453229D01*
X12028243Y-14386782D01*
X12026175Y-14379066D01*
X12020343Y-14347593D01*
X12019509Y-14339656D01*
X12019509Y-14339654D01*
X11998939Y-14276349D01*
X11995932Y-14266196D01*
X11978707Y-14201908D01*
X11975084Y-14194797D01*
X11962834Y-14165224D01*
X11960367Y-14157631D01*
X11960361Y-14157619D01*
X11927108Y-14100025D01*
X11922018Y-14090651D01*
X11891815Y-14031374D01*
X11886796Y-14025176D01*
X11868658Y-13998787D01*
X11864666Y-13991872D01*
X11864665Y-13991871D01*
X11820162Y-13942445D01*
X11813231Y-13934331D01*
X11801560Y-13919919D01*
X11788438Y-13906797D01*
X11781106Y-13899070D01*
X11736601Y-13849642D01*
X11736591Y-13849633D01*
X11730138Y-13844945D01*
X11705799Y-13824158D01*
X10367841Y-12486200D01*
X10347051Y-12461857D01*
X10342361Y-12455401D01*
X10342358Y-12455398D01*
X10292928Y-12410891D01*
X10285185Y-12403544D01*
X10272081Y-12390440D01*
X10257659Y-12378761D01*
X10249558Y-12371841D01*
X10246705Y-12369272D01*
X10200126Y-12327333D01*
X10193215Y-12323343D01*
X10166830Y-12305209D01*
X10160627Y-12300186D01*
X10160619Y-12300180D01*
X10101353Y-12269983D01*
X10091967Y-12264887D01*
X10034372Y-12231634D01*
X10026772Y-12229165D01*
X9997218Y-12216923D01*
X9990092Y-12213293D01*
X9990089Y-12213292D01*
X9990085Y-12213290D01*
X9925849Y-12196078D01*
X9915612Y-12193046D01*
X9852353Y-12172492D01*
X9852347Y-12172491D01*
X9850190Y-12172264D01*
X9844388Y-12171654D01*
X9812930Y-12165823D01*
X9805221Y-12163757D01*
X9805211Y-12163756D01*
X9738801Y-12160275D01*
X9728177Y-12159439D01*
X9709715Y-12157500D01*
X9709709Y-12157500D01*
X9691165Y-12157500D01*
X9680487Y-12157220D01*
X9614087Y-12153739D01*
X9607077Y-12154850D01*
X9606205Y-12154988D01*
X9574292Y-12157500D01*
X6575043Y-12157500D01*
X6486531Y-12137298D01*
X6415549Y-12080692D01*
X6376158Y-11998894D01*
X6376158Y-11908106D01*
X6415549Y-11826308D01*
X6452790Y-11790190D01*
X6507893Y-11748939D01*
X6630982Y-11656797D01*
X6830797Y-11456982D01*
X7000141Y-11230764D01*
X7135568Y-10982749D01*
X7234320Y-10717984D01*
X7294387Y-10441861D01*
X7314546Y-10160000D01*
X7294387Y-9878139D01*
X7234320Y-9602016D01*
X7135568Y-9337251D01*
X7000141Y-9089236D01*
X6830797Y-8863018D01*
X6630982Y-8663203D01*
X6517873Y-8578531D01*
X6404766Y-8493860D01*
X6342760Y-8460002D01*
X6156749Y-8358432D01*
X6156747Y-8358431D01*
X6156743Y-8358429D01*
X6156740Y-8358428D01*
X5891986Y-8259680D01*
X5615863Y-8199613D01*
X5404557Y-8184500D01*
X5404553Y-8184500D01*
X5263447Y-8184500D01*
X5263442Y-8184500D01*
X5052136Y-8199613D01*
X4776013Y-8259680D01*
X4511259Y-8358428D01*
X4511256Y-8358429D01*
X4263233Y-8493860D01*
X4037019Y-8663202D01*
X4037015Y-8663205D01*
X3837205Y-8863015D01*
X3837202Y-8863019D01*
X3667860Y-9089233D01*
X3532429Y-9337256D01*
X3532428Y-9337259D01*
X3433680Y-9602013D01*
X3373613Y-9878136D01*
X3353454Y-10159996D01*
X3353454Y-10160003D01*
X3373613Y-10441863D01*
X3433680Y-10717986D01*
X3532428Y-10982740D01*
X3532429Y-10982743D01*
X3532431Y-10982747D01*
X3532432Y-10982749D01*
X3667859Y-11230764D01*
X3837203Y-11456982D01*
X4037018Y-11656797D01*
X4172341Y-11758098D01*
X4263238Y-11826143D01*
X4269367Y-11830082D01*
X4268340Y-11831679D01*
X4328219Y-11884632D01*
X4363398Y-11968328D01*
X4358779Y-12058999D01*
X4315277Y-12138687D01*
X4241508Y-12191608D01*
X4215262Y-12200593D01*
X4167870Y-12213292D01*
X4167862Y-12213295D01*
X4160743Y-12216922D01*
X4131196Y-12229161D01*
X4123589Y-12231633D01*
X4123579Y-12231637D01*
X4065983Y-12264890D01*
X4056602Y-12269984D01*
X3997333Y-12300183D01*
X3997325Y-12300189D01*
X3991117Y-12305216D01*
X3964755Y-12323335D01*
X3957832Y-12327332D01*
X3908406Y-12371835D01*
X3900290Y-12378766D01*
X3885877Y-12390437D01*
X3885872Y-12390442D01*
X3872745Y-12403568D01*
X3865008Y-12410910D01*
X3815598Y-12455399D01*
X3810901Y-12461864D01*
X3790121Y-12486193D01*
X2326193Y-13950122D01*
X2301864Y-13970902D01*
X2295399Y-13975599D01*
X2250910Y-14025009D01*
X2243568Y-14032746D01*
X2230443Y-14045872D01*
X2230437Y-14045878D01*
X2218766Y-14060291D01*
X2211835Y-14068407D01*
X2167335Y-14117830D01*
X2167331Y-14117835D01*
X2163334Y-14124758D01*
X2145223Y-14151109D01*
X2140185Y-14157330D01*
X2109978Y-14216614D01*
X2104885Y-14225994D01*
X2071634Y-14283588D01*
X2071632Y-14283591D01*
X2069164Y-14291188D01*
X2056918Y-14320751D01*
X2053293Y-14327865D01*
X2053291Y-14327870D01*
X2036075Y-14392120D01*
X2033044Y-14402355D01*
X2012489Y-14465618D01*
X2012489Y-14465620D01*
X2011652Y-14473578D01*
X2005827Y-14505009D01*
X2003757Y-14512735D01*
X2003756Y-14512743D01*
X2000275Y-14579158D01*
X1999440Y-14589778D01*
X1997500Y-14608244D01*
X1997500Y-14608249D01*
X1997500Y-14626794D01*
X1997220Y-14637472D01*
X1993739Y-14703870D01*
X500Y-14703870D01*
X500Y-204500D01*
X20702Y-115988D01*
X77308Y-45006D01*
X159106Y-5615D01*
X204500Y-500D01*
X36117500Y-500D01*
X36206012Y-20702D01*
G37*
%TD.AperFunction*%
%TA.AperFunction,NonConductor*%
G36*
X28257045Y-20512506D02*
G01*
X28265563Y-20515274D01*
X28265565Y-20515274D01*
X28265567Y-20515275D01*
X28361693Y-20530500D01*
X28361698Y-20530499D01*
X28361699Y-20530500D01*
X28365507Y-20530800D01*
X28367474Y-20531414D01*
X28369609Y-20531753D01*
X28369559Y-20532066D01*
X28452161Y-20557885D01*
X28518482Y-20619886D01*
X28551334Y-20704522D01*
X28553500Y-20734171D01*
X28553500Y-22627390D01*
X28533298Y-22715902D01*
X28476692Y-22786884D01*
X28394894Y-22826275D01*
X28304106Y-22826275D01*
X28256887Y-22809156D01*
X28130431Y-22744724D01*
X28130429Y-22744723D01*
X28034313Y-22729500D01*
X28026313Y-22728871D01*
X28026479Y-22726756D01*
X27949988Y-22709298D01*
X27879006Y-22652692D01*
X27839615Y-22570894D01*
X27834500Y-22525500D01*
X27834500Y-20734170D01*
X27854702Y-20645658D01*
X27911308Y-20574676D01*
X27993106Y-20535285D01*
X28022490Y-20530799D01*
X28026291Y-20530499D01*
X28026306Y-20530499D01*
X28122433Y-20515275D01*
X28122438Y-20515272D01*
X28130953Y-20512506D01*
X28221376Y-20504364D01*
X28257045Y-20512506D01*
G37*
%TD.AperFunction*%
%TA.AperFunction,NonConductor*%
G36*
X25717045Y-20512506D02*
G01*
X25725563Y-20515274D01*
X25725565Y-20515274D01*
X25725567Y-20515275D01*
X25821693Y-20530500D01*
X25821698Y-20530499D01*
X25821699Y-20530500D01*
X25825507Y-20530800D01*
X25827474Y-20531414D01*
X25829609Y-20531753D01*
X25829559Y-20532066D01*
X25912161Y-20557885D01*
X25978482Y-20619886D01*
X26011334Y-20704522D01*
X26013500Y-20734171D01*
X26013500Y-22526459D01*
X25993298Y-22614971D01*
X25936692Y-22685953D01*
X25854894Y-22725344D01*
X25837568Y-22727991D01*
X25837609Y-22728248D01*
X25829696Y-22729500D01*
X25829694Y-22729501D01*
X25790273Y-22735744D01*
X25733563Y-22744725D01*
X25603401Y-22811047D01*
X25602822Y-22809910D01*
X25534915Y-22838932D01*
X25444218Y-22834853D01*
X25364272Y-22791827D01*
X25310912Y-22718375D01*
X25294500Y-22638208D01*
X25294500Y-20734170D01*
X25314702Y-20645658D01*
X25371308Y-20574676D01*
X25453106Y-20535285D01*
X25482490Y-20530799D01*
X25486291Y-20530499D01*
X25486306Y-20530499D01*
X25582433Y-20515275D01*
X25582438Y-20515272D01*
X25590953Y-20512506D01*
X25681376Y-20504364D01*
X25717045Y-20512506D01*
G37*
%TD.AperFunction*%
%TA.AperFunction,NonConductor*%
G36*
X9207045Y-20512506D02*
G01*
X9215563Y-20515274D01*
X9215565Y-20515274D01*
X9215567Y-20515275D01*
X9311693Y-20530500D01*
X9311698Y-20530499D01*
X9311699Y-20530500D01*
X9315507Y-20530800D01*
X9317474Y-20531414D01*
X9319609Y-20531753D01*
X9319559Y-20532066D01*
X9402161Y-20557885D01*
X9468482Y-20619886D01*
X9501334Y-20704522D01*
X9503500Y-20734171D01*
X9503500Y-22555672D01*
X9483298Y-22644184D01*
X9426692Y-22715166D01*
X9344894Y-22754557D01*
X9315518Y-22759042D01*
X9309704Y-22759499D01*
X9213563Y-22774725D01*
X9083401Y-22841047D01*
X9081571Y-22837456D01*
X9024891Y-22861671D01*
X8934195Y-22857582D01*
X8854254Y-22814546D01*
X8800903Y-22741088D01*
X8784500Y-22660943D01*
X8784500Y-20734170D01*
X8804702Y-20645658D01*
X8861308Y-20574676D01*
X8943106Y-20535285D01*
X8972490Y-20530799D01*
X8976291Y-20530499D01*
X8976306Y-20530499D01*
X9072433Y-20515275D01*
X9072438Y-20515272D01*
X9080953Y-20512506D01*
X9171376Y-20504364D01*
X9207045Y-20512506D01*
G37*
%TD.AperFunction*%
%TA.AperFunction,NonConductor*%
G36*
X11747045Y-20512506D02*
G01*
X11755563Y-20515274D01*
X11755565Y-20515274D01*
X11755567Y-20515275D01*
X11851693Y-20530500D01*
X11851698Y-20530499D01*
X11851699Y-20530500D01*
X11855507Y-20530800D01*
X11857474Y-20531414D01*
X11859609Y-20531753D01*
X11859559Y-20532066D01*
X11942161Y-20557885D01*
X12008482Y-20619886D01*
X12041334Y-20704522D01*
X12043500Y-20734171D01*
X12043500Y-22663849D01*
X12023298Y-22752361D01*
X11966692Y-22823343D01*
X11884894Y-22862734D01*
X11794106Y-22862734D01*
X11741681Y-22838924D01*
X11740600Y-22841048D01*
X11610431Y-22774724D01*
X11610429Y-22774723D01*
X11514304Y-22759499D01*
X11512484Y-22759356D01*
X11511544Y-22759062D01*
X11506391Y-22758246D01*
X11506510Y-22757488D01*
X11425831Y-22732267D01*
X11359513Y-22670264D01*
X11326665Y-22585626D01*
X11324500Y-22555986D01*
X11324500Y-20734170D01*
X11344702Y-20645658D01*
X11401308Y-20574676D01*
X11483106Y-20535285D01*
X11512490Y-20530799D01*
X11516291Y-20530499D01*
X11516306Y-20530499D01*
X11612433Y-20515275D01*
X11612438Y-20515272D01*
X11620953Y-20512506D01*
X11711376Y-20504364D01*
X11747045Y-20512506D01*
G37*
%TD.AperFunction*%
%TA.AperFunction,NonConductor*%
G36*
X23177045Y-20512506D02*
G01*
X23185563Y-20515274D01*
X23185565Y-20515274D01*
X23185567Y-20515275D01*
X23281693Y-20530500D01*
X23281698Y-20530499D01*
X23281699Y-20530500D01*
X23285507Y-20530800D01*
X23287474Y-20531414D01*
X23289609Y-20531753D01*
X23289559Y-20532066D01*
X23372161Y-20557885D01*
X23438482Y-20619886D01*
X23471334Y-20704522D01*
X23473500Y-20734171D01*
X23473500Y-28297359D01*
X23453298Y-28385871D01*
X23396692Y-28456853D01*
X23314894Y-28496244D01*
X23224106Y-28496244D01*
X23142308Y-28456853D01*
X23125250Y-28441609D01*
X22814250Y-28130609D01*
X22765948Y-28053736D01*
X22754500Y-27986359D01*
X22754500Y-20734170D01*
X22774702Y-20645658D01*
X22831308Y-20574676D01*
X22913106Y-20535285D01*
X22942490Y-20530799D01*
X22946291Y-20530499D01*
X22946306Y-20530499D01*
X23042433Y-20515275D01*
X23042438Y-20515272D01*
X23050953Y-20512506D01*
X23141376Y-20504364D01*
X23177045Y-20512506D01*
G37*
%TD.AperFunction*%
%TA.AperFunction,NonConductor*%
G36*
X20741693Y-20530500D02*
G01*
X20741706Y-20530499D01*
X20745507Y-20530800D01*
X20747477Y-20531415D01*
X20749612Y-20531754D01*
X20749562Y-20532067D01*
X20832161Y-20557885D01*
X20898482Y-20619886D01*
X20931334Y-20704522D01*
X20933500Y-20734171D01*
X20933500Y-28297359D01*
X20913298Y-28385871D01*
X20856692Y-28456853D01*
X20774894Y-28496244D01*
X20684106Y-28496244D01*
X20602308Y-28456853D01*
X20585250Y-28441609D01*
X20528250Y-28384609D01*
X20479948Y-28307736D01*
X20468500Y-28240359D01*
X20468500Y-20726083D01*
X20488702Y-20637571D01*
X20545308Y-20566589D01*
X20627106Y-20527198D01*
X20704411Y-20524595D01*
X20741693Y-20530500D01*
G37*
%TD.AperFunction*%
%TA.AperFunction,NonConductor*%
G36*
X14287045Y-20512506D02*
G01*
X14295563Y-20515274D01*
X14295565Y-20515274D01*
X14295567Y-20515275D01*
X14391693Y-20530500D01*
X14391698Y-20530499D01*
X14391699Y-20530500D01*
X14395507Y-20530800D01*
X14397474Y-20531414D01*
X14399609Y-20531753D01*
X14399559Y-20532066D01*
X14482161Y-20557885D01*
X14548482Y-20619886D01*
X14581334Y-20704522D01*
X14583500Y-20734171D01*
X14583500Y-28113357D01*
X14563298Y-28201869D01*
X14523750Y-28257607D01*
X14212750Y-28568607D01*
X14135877Y-28616909D01*
X14045659Y-28627074D01*
X13959965Y-28597089D01*
X13895768Y-28532892D01*
X13865783Y-28447198D01*
X13864500Y-28424357D01*
X13864500Y-20734170D01*
X13884702Y-20645658D01*
X13941308Y-20574676D01*
X14023106Y-20535285D01*
X14052490Y-20530799D01*
X14056291Y-20530499D01*
X14056306Y-20530499D01*
X14152433Y-20515275D01*
X14152438Y-20515272D01*
X14160953Y-20512506D01*
X14251376Y-20504364D01*
X14287045Y-20512506D01*
G37*
%TD.AperFunction*%
%TA.AperFunction,NonConductor*%
G36*
X30441618Y-26412901D02*
G01*
X30520246Y-26458290D01*
X30571394Y-26533300D01*
X30585500Y-26607841D01*
X30585500Y-33574358D01*
X30565298Y-33662870D01*
X30525750Y-33718608D01*
X28760749Y-35483608D01*
X28683876Y-35531910D01*
X28593658Y-35542075D01*
X28507964Y-35512090D01*
X28443767Y-35447892D01*
X28413782Y-35362199D01*
X28412499Y-35339374D01*
X28412499Y-33267694D01*
X28397275Y-33171567D01*
X28397272Y-33171561D01*
X28394505Y-33163044D01*
X28386365Y-33072621D01*
X28394506Y-33036952D01*
X28397272Y-33028438D01*
X28397275Y-33028433D01*
X28412500Y-32932307D01*
X28412499Y-30727694D01*
X28397275Y-30631567D01*
X28397272Y-30631561D01*
X28394505Y-30623044D01*
X28386365Y-30532621D01*
X28394506Y-30496952D01*
X28397272Y-30488438D01*
X28397275Y-30488433D01*
X28412500Y-30392307D01*
X28412499Y-28187694D01*
X28397275Y-28091567D01*
X28397272Y-28091561D01*
X28394505Y-28083044D01*
X28386365Y-27992621D01*
X28394506Y-27956952D01*
X28397272Y-27948438D01*
X28397275Y-27948433D01*
X28412500Y-27852307D01*
X28412500Y-27852288D01*
X28412554Y-27851603D01*
X28412669Y-27851234D01*
X28413753Y-27844391D01*
X28414757Y-27844550D01*
X28439630Y-27764946D01*
X28501624Y-27698618D01*
X28586257Y-27665757D01*
X28626607Y-27663868D01*
X28634085Y-27664259D01*
X28634086Y-27664260D01*
X28634086Y-27664259D01*
X28634088Y-27664260D01*
X28700487Y-27660780D01*
X28711165Y-27660500D01*
X28729711Y-27660500D01*
X28729715Y-27660500D01*
X28748177Y-27658559D01*
X28758775Y-27657724D01*
X28825218Y-27654243D01*
X28832929Y-27652176D01*
X28864402Y-27646343D01*
X28872346Y-27645509D01*
X28935617Y-27624950D01*
X28945843Y-27621922D01*
X29010088Y-27604708D01*
X29010087Y-27604708D01*
X29010092Y-27604707D01*
X29017205Y-27601082D01*
X29046783Y-27588830D01*
X29054373Y-27586365D01*
X29111990Y-27553098D01*
X29121338Y-27548023D01*
X29180626Y-27517815D01*
X29186825Y-27512794D01*
X29213223Y-27494651D01*
X29220126Y-27490667D01*
X29269591Y-27446127D01*
X29277663Y-27439234D01*
X29292081Y-27427560D01*
X29305187Y-27414452D01*
X29312916Y-27407117D01*
X29362360Y-27362599D01*
X29367048Y-27356145D01*
X29387838Y-27331801D01*
X30045801Y-26673838D01*
X30070146Y-26653048D01*
X30076599Y-26648360D01*
X30121117Y-26598916D01*
X30128457Y-26591183D01*
X30141549Y-26578092D01*
X30141549Y-26578091D01*
X30141560Y-26578081D01*
X30153234Y-26563663D01*
X30160127Y-26555591D01*
X30204667Y-26506126D01*
X30204825Y-26505851D01*
X30205010Y-26505651D01*
X30210948Y-26497479D01*
X30211930Y-26498192D01*
X30266573Y-26439295D01*
X30351083Y-26406121D01*
X30441618Y-26412901D01*
G37*
%TD.AperFunction*%
%TA.AperFunction,NonConductor*%
G36*
X7083692Y-26642348D02*
G01*
X7126379Y-26691954D01*
X7127045Y-26691471D01*
X7132911Y-26699544D01*
X7133173Y-26699849D01*
X7133330Y-26700122D01*
X7133331Y-26700123D01*
X7133333Y-26700126D01*
X7145222Y-26713330D01*
X7177841Y-26749558D01*
X7184761Y-26757659D01*
X7196440Y-26772081D01*
X7209544Y-26785185D01*
X7216891Y-26792928D01*
X7261398Y-26842358D01*
X7261401Y-26842361D01*
X7267857Y-26847051D01*
X7292200Y-26867841D01*
X7786158Y-27361799D01*
X7806945Y-27386138D01*
X7811633Y-27392591D01*
X7811642Y-27392601D01*
X7861070Y-27437106D01*
X7868797Y-27444438D01*
X7881919Y-27457560D01*
X7896331Y-27469231D01*
X7904445Y-27476162D01*
X7953871Y-27520665D01*
X7953872Y-27520666D01*
X7960787Y-27524658D01*
X7987176Y-27542796D01*
X7993371Y-27547813D01*
X7993374Y-27547815D01*
X8052651Y-27578018D01*
X8062025Y-27583108D01*
X8119619Y-27616361D01*
X8119631Y-27616367D01*
X8127224Y-27618834D01*
X8156799Y-27631084D01*
X8163903Y-27634704D01*
X8163903Y-27634705D01*
X8163905Y-27634705D01*
X8163908Y-27634707D01*
X8228196Y-27651932D01*
X8238349Y-27654939D01*
X8301654Y-27675509D01*
X8309598Y-27676343D01*
X8341066Y-27682175D01*
X8348782Y-27684243D01*
X8415229Y-27687725D01*
X8425821Y-27688559D01*
X8444285Y-27690500D01*
X8462835Y-27690500D01*
X8473513Y-27690780D01*
X8539912Y-27694260D01*
X8539912Y-27694259D01*
X8539914Y-27694260D01*
X8547794Y-27693011D01*
X8579708Y-27690500D01*
X8727830Y-27690500D01*
X8816342Y-27710702D01*
X8887324Y-27767308D01*
X8926715Y-27849106D01*
X8931201Y-27878490D01*
X8931501Y-27882302D01*
X8931501Y-27882306D01*
X8941974Y-27948433D01*
X8946726Y-27978438D01*
X8949497Y-27986966D01*
X8957633Y-28077389D01*
X8949496Y-28113039D01*
X8946723Y-28121571D01*
X8931500Y-28217686D01*
X8931500Y-30422300D01*
X8931500Y-30422301D01*
X8931501Y-30422306D01*
X8941974Y-30488433D01*
X8946726Y-30518438D01*
X8949497Y-30526966D01*
X8957633Y-30617389D01*
X8949496Y-30653039D01*
X8946723Y-30661571D01*
X8931500Y-30757686D01*
X8931500Y-32962300D01*
X8931500Y-32962301D01*
X8931501Y-32962306D01*
X8941974Y-33028433D01*
X8946726Y-33058438D01*
X8949497Y-33066966D01*
X8957633Y-33157389D01*
X8949496Y-33193039D01*
X8946723Y-33201571D01*
X8931500Y-33297686D01*
X8931500Y-35476359D01*
X8911298Y-35564871D01*
X8854692Y-35635853D01*
X8772894Y-35675244D01*
X8682106Y-35675244D01*
X8600308Y-35635853D01*
X8583250Y-35620609D01*
X6812250Y-33849609D01*
X6763948Y-33772736D01*
X6752500Y-33705359D01*
X6752500Y-26801842D01*
X6772702Y-26713330D01*
X6829308Y-26642348D01*
X6911106Y-26602957D01*
X7001894Y-26602957D01*
X7083692Y-26642348D01*
G37*
%TD.AperFunction*%
%TA.AperFunction,NonConductor*%
G36*
X8816342Y-40410702D02*
G01*
X8887324Y-40467308D01*
X8926715Y-40549106D01*
X8931201Y-40578490D01*
X8931501Y-40582302D01*
X8931501Y-40582306D01*
X8941974Y-40648433D01*
X8946726Y-40678438D01*
X8949497Y-40686966D01*
X8957633Y-40777389D01*
X8949496Y-40813039D01*
X8946724Y-40821569D01*
X8938870Y-40871156D01*
X8905069Y-40955418D01*
X8838056Y-41016669D01*
X8751103Y-41042779D01*
X8661432Y-41028576D01*
X8593132Y-40983491D01*
X8350039Y-40740398D01*
X8301737Y-40663525D01*
X8291572Y-40573307D01*
X8321557Y-40487613D01*
X8385754Y-40423416D01*
X8471448Y-40393431D01*
X8504962Y-40392428D01*
X8539914Y-40394260D01*
X8547794Y-40393012D01*
X8579709Y-40390500D01*
X8727830Y-40390500D01*
X8816342Y-40410702D01*
G37*
%TD.AperFunction*%
M02*
