M48
; DRILL file {KiCad 7.0.10} date Wed Mar 13 00:07:12 2024
; FORMAT={-:-/ absolute / metric / decimal}
; #@! TF.CreationDate,2024-03-13T00:07:12-06:00
; #@! TF.GenerationSoftware,Kicad,Pcbnew,7.0.10
; #@! TF.FileFunction,Plated,1,2,PTH
FMAT,2
METRIC
; #@! TA.AperFunction,Plated,PTH,ComponentDrill
T1C1.000
%
G90
G05
T1
X4.572Y-19.05
X5.842Y-16.51
X7.107Y-22.777
X7.107Y-25.317
X7.107Y-27.857
X7.107Y-30.397
X7.107Y-32.937
X7.107Y-35.477
X7.112Y-19.05
X8.382Y-16.51
X9.652Y-19.05
X10.922Y-16.51
X12.192Y-19.05
X13.462Y-16.51
X18.542Y-19.05
X19.812Y-16.51
X21.082Y-19.05
X21.082Y-22.86
X21.082Y-25.4
X21.082Y-27.94
X21.082Y-30.48
X21.082Y-33.02
X21.082Y-35.56
X22.352Y-16.51
X23.622Y-19.05
X24.892Y-16.51
X26.162Y-19.05
X27.432Y-16.51
M30
