M48
; DRILL file {KiCad 7.0.10} date Mon Mar 18 19:04:10 2024
; FORMAT={-:-/ absolute / metric / decimal}
; #@! TF.CreationDate,2024-03-18T19:04:10-06:00
; #@! TF.GenerationSoftware,Kicad,Pcbnew,7.0.10
; #@! TF.FileFunction,MixedPlating,1,2
FMAT,2
METRIC
; #@! TA.AperFunction,Plated,PTH,ComponentDrill
T1C1.000
%
G90
G05
T1
X3.302Y-2.794
X3.302Y-9.652
X3.302Y-12.192
X3.302Y-14.732
X3.302Y-17.272
X3.302Y-19.812
X3.302Y-22.352
X3.302Y-24.892
X3.302Y-27.432
X3.302Y-29.972
X3.302Y-32.512
X3.302Y-35.052
X3.302Y-37.592
X3.302Y-40.132
X3.302Y-42.672
X3.302Y-45.212
X3.302Y-47.752
X7.902Y-2.794
X7.902Y-9.652
X7.902Y-12.192
X7.902Y-14.732
X7.902Y-17.272
X7.902Y-19.812
X7.902Y-22.352
X7.902Y-24.892
X7.902Y-27.432
X7.902Y-29.972
X7.902Y-32.512
X7.902Y-35.052
X7.902Y-37.592
X7.902Y-40.132
X7.902Y-42.672
X7.902Y-45.212
X7.902Y-47.752
X12.502Y-2.794
X12.502Y-9.652
X12.502Y-12.192
X12.502Y-14.732
X12.502Y-17.272
X12.502Y-19.812
X12.502Y-22.352
X12.502Y-24.892
X12.502Y-27.432
X12.502Y-29.972
X12.502Y-32.512
X12.502Y-35.052
X12.502Y-37.592
X12.502Y-40.132
X12.502Y-42.672
X12.502Y-45.212
X12.502Y-47.752
M30
