M48
; DRILL file {KiCad 7.0.10} date Sun Mar 17 21:03:22 2024
; FORMAT={-:-/ absolute / metric / decimal}
; #@! TF.CreationDate,2024-03-17T21:03:22-06:00
; #@! TF.GenerationSoftware,Kicad,Pcbnew,7.0.10
; #@! TF.FileFunction,MixedPlating,1,2
FMAT,2
METRIC
; #@! TA.AperFunction,Plated,PTH,ComponentDrill
T1C1.000
; #@! TA.AperFunction,NonPlated,NPTH,ComponentDrill
T2C3.450
%
G90
G05
T1
X4.572Y-16.51
X5.842Y-19.05
X7.112Y-16.51
X8.382Y-19.05
X9.652Y-16.51
X10.922Y-19.05
X10.922Y-22.6
X10.922Y-25.14
X10.922Y-27.68
X10.922Y-30.22
X10.922Y-32.76
X10.922Y-35.3
X12.192Y-16.51
X13.462Y-19.05
X18.542Y-16.51
X19.812Y-19.05
X21.082Y-16.51
X22.352Y-19.05
X23.622Y-16.51
X24.89Y-22.59
X24.89Y-25.13
X24.89Y-27.67
X24.89Y-30.21
X24.89Y-32.75
X24.89Y-35.29
X24.892Y-19.05
X26.162Y-16.51
X27.432Y-19.05
T2
X3.302Y-10.16
X28.702Y-10.16
M30
