%TF.GenerationSoftware,KiCad,Pcbnew,7.0.10*%
%TF.CreationDate,2024-03-31T17:35:58-06:00*%
%TF.ProjectId,Electrode_Select_Breakout,456c6563-7472-46f6-9465-5f53656c6563,rev?*%
%TF.SameCoordinates,Original*%
%TF.FileFunction,Copper,L1,Top*%
%TF.FilePolarity,Positive*%
%FSLAX46Y46*%
G04 Gerber Fmt 4.6, Leading zero omitted, Abs format (unit mm)*
G04 Created by KiCad (PCBNEW 7.0.10) date 2024-03-31 17:35:58*
%MOMM*%
%LPD*%
G01*
G04 APERTURE LIST*
%TA.AperFunction,ComponentPad*%
%ADD10R,2.140000X2.140000*%
%TD*%
%TA.AperFunction,Conductor*%
%ADD11C,1.000000*%
%TD*%
G04 APERTURE END LIST*
D10*
%TO.P,J2,1_1*%
%TO.N,/CH6_1*%
X6604000Y-16510000D03*
%TO.P,J2,1_2*%
%TO.N,/CH2_1*%
X7874000Y-19050000D03*
%TO.P,J2,1_3*%
%TO.N,/CH7_1*%
X9144000Y-16510000D03*
%TO.P,J2,1_4*%
%TO.N,/CH1_1*%
X10414000Y-19050000D03*
%TO.P,J2,1_5*%
%TO.N,/CH8_1*%
X11684000Y-16510000D03*
%TO.P,J2,1_6*%
%TO.N,/CH3_1*%
X12954000Y-19050000D03*
%TO.P,J2,1_7*%
%TO.N,/CH5_1*%
X14224000Y-16510000D03*
%TO.P,J2,1_8*%
%TO.N,/CH4_1*%
X15494000Y-19050000D03*
%TO.P,J2,2_1*%
%TO.N,/CH5_2*%
X20574000Y-16510000D03*
%TO.P,J2,2_2*%
%TO.N,/CH4_2*%
X21844000Y-19050000D03*
%TO.P,J2,2_3*%
%TO.N,/CH8_2*%
X23114000Y-16510000D03*
%TO.P,J2,2_4*%
%TO.N,/CH3_2*%
X24384000Y-19050000D03*
%TO.P,J2,2_5*%
%TO.N,/CH7_2*%
X25654000Y-16510000D03*
%TO.P,J2,2_6*%
%TO.N,/CH1_2*%
X26924000Y-19050000D03*
%TO.P,J2,2_7*%
%TO.N,/CH6_2*%
X28194000Y-16510000D03*
%TO.P,J2,2_8*%
%TO.N,/CH2_2*%
X29464000Y-19050000D03*
%TD*%
%TO.P,J3,1,Pin_1*%
%TO.N,/CH1_2*%
X26932000Y-24210000D03*
%TO.P,J3,2,Pin_2*%
%TO.N,/CH2_2*%
X26932000Y-26750000D03*
%TO.P,J3,3,Pin_3*%
%TO.N,/CH3_2*%
X26932000Y-29290000D03*
%TO.P,J3,4,Pin_4*%
%TO.N,/CH4_2*%
X26932000Y-31830000D03*
%TO.P,J3,5,Pin_5*%
%TO.N,/CH5_2*%
X26932000Y-34370000D03*
%TO.P,J3,6,Pin_6*%
%TO.N,/CH6_2*%
X26932000Y-36910000D03*
%TO.P,J3,7,Pin_7*%
%TO.N,/CH7_2*%
X26932000Y-39450000D03*
%TO.P,J3,8,Pin_8*%
%TO.N,/CH8_2*%
X26932000Y-41990000D03*
%TD*%
%TO.P,J1,1,Pin_1*%
%TO.N,/CH1_1*%
X10412000Y-24240000D03*
%TO.P,J1,2,Pin_2*%
%TO.N,/CH2_1*%
X10412000Y-26780000D03*
%TO.P,J1,3,Pin_3*%
%TO.N,/CH3_1*%
X10412000Y-29320000D03*
%TO.P,J1,4,Pin_4*%
%TO.N,/CH4_1*%
X10412000Y-31860000D03*
%TO.P,J1,5,Pin_5*%
%TO.N,/CH5_1*%
X10412000Y-34400000D03*
%TO.P,J1,6,Pin_6*%
%TO.N,/CH6_1*%
X10412000Y-36940000D03*
%TO.P,J1,7,Pin_7*%
%TO.N,/CH7_1*%
X10412000Y-39480000D03*
%TO.P,J1,8,Pin_8*%
%TO.N,/CH8_1*%
X10412000Y-42020000D03*
%TD*%
D11*
%TO.N,/CH5_1*%
X12336000Y-34400000D02*
X10412000Y-34400000D01*
X17526000Y-29210000D02*
X12336000Y-34400000D01*
X17526000Y-17627600D02*
X17526000Y-29210000D01*
X16408400Y-16510000D02*
X17526000Y-17627600D01*
X14224000Y-16510000D02*
X16408400Y-16510000D01*
%TO.N,/CH7_2*%
X25654000Y-14808200D02*
X25654000Y-16510000D01*
X32906000Y-35166000D02*
X32906000Y-16537958D01*
X28622000Y-39450000D02*
X32906000Y-35166000D01*
X32906000Y-16537958D02*
X30592042Y-14224000D01*
X30592042Y-14224000D02*
X26238200Y-14224000D01*
X26932000Y-39450000D02*
X28622000Y-39450000D01*
X26238200Y-14224000D02*
X25654000Y-14808200D01*
%TO.N,/CH7_1*%
X4318000Y-15240000D02*
X4318000Y-35306000D01*
X8559800Y-14224000D02*
X5334000Y-14224000D01*
X5334000Y-14224000D02*
X4318000Y-15240000D01*
X9144000Y-14808200D02*
X8559800Y-14224000D01*
X4318000Y-35306000D02*
X8492000Y-39480000D01*
X8492000Y-39480000D02*
X10412000Y-39480000D01*
X9144000Y-16510000D02*
X9144000Y-14808200D01*
%TO.N,/CH5_2*%
X25226000Y-34370000D02*
X26932000Y-34370000D01*
X19812000Y-28956000D02*
X25226000Y-34370000D01*
X19812000Y-17272000D02*
X19812000Y-28956000D01*
X20574000Y-16510000D02*
X19812000Y-17272000D01*
%TO.N,/CH6_1*%
X8615000Y-36940000D02*
X10412000Y-36940000D01*
X6604000Y-16510000D02*
X5842000Y-17272000D01*
X5842000Y-17272000D02*
X5842000Y-34167000D01*
X5842000Y-34167000D02*
X8615000Y-36940000D01*
%TO.N,/CH1_1*%
X10414000Y-24238000D02*
X10412000Y-24240000D01*
X10414000Y-19050000D02*
X10414000Y-24238000D01*
%TO.N,/CH2_1*%
X7874000Y-26162000D02*
X7874000Y-19050000D01*
X8492000Y-26780000D02*
X7874000Y-26162000D01*
X10412000Y-26780000D02*
X8492000Y-26780000D01*
%TO.N,/CH3_1*%
X12954000Y-19050000D02*
X12954000Y-28704000D01*
X12954000Y-28704000D02*
X12338000Y-29320000D01*
X12338000Y-29320000D02*
X10412000Y-29320000D01*
%TO.N,/CH4_1*%
X15494000Y-19050000D02*
X15494000Y-28575000D01*
X15494000Y-28575000D02*
X12209000Y-31860000D01*
X12209000Y-31860000D02*
X10412000Y-31860000D01*
%TO.N,/CH1_2*%
X26924000Y-24202000D02*
X26932000Y-24210000D01*
X26924000Y-19050000D02*
X26924000Y-24202000D01*
%TO.N,/CH2_2*%
X29464000Y-19050000D02*
X29464000Y-25968000D01*
X29464000Y-25968000D02*
X28682000Y-26750000D01*
X28682000Y-26750000D02*
X26932000Y-26750000D01*
%TO.N,/CH3_2*%
X24384000Y-19050000D02*
X24384000Y-28448000D01*
X25226000Y-29290000D02*
X26932000Y-29290000D01*
X24384000Y-28448000D02*
X25226000Y-29290000D01*
%TO.N,/CH4_2*%
X25226000Y-31830000D02*
X26932000Y-31830000D01*
X21844000Y-28448000D02*
X25226000Y-31830000D01*
X21844000Y-19050000D02*
X21844000Y-28448000D01*
%TO.N,/CH8_1*%
X11684000Y-12979400D02*
X6389600Y-7685000D01*
X11684000Y-16510000D02*
X11684000Y-12979400D01*
X8342000Y-42020000D02*
X10412000Y-42020000D01*
X2859000Y-9134821D02*
X2859000Y-36537000D01*
X2859000Y-36537000D02*
X8342000Y-42020000D01*
X4308821Y-7685000D02*
X2859000Y-9134821D01*
X6389600Y-7685000D02*
X4308821Y-7685000D01*
%TO.N,/CH8_2*%
X34316000Y-36296000D02*
X34316000Y-9932000D01*
X26932000Y-41990000D02*
X26932000Y-41902000D01*
X28710000Y-41902000D02*
X34316000Y-36296000D01*
X23114000Y-14124910D02*
X23114000Y-16510000D01*
X34316000Y-9932000D02*
X32004000Y-7620000D01*
X32004000Y-7620000D02*
X29618910Y-7620000D01*
X26932000Y-41902000D02*
X28710000Y-41902000D01*
X29618910Y-7620000D02*
X23114000Y-14124910D01*
%TO.N,/CH6_2*%
X28622000Y-36910000D02*
X31496000Y-34036000D01*
X30428000Y-16510000D02*
X28194000Y-16510000D01*
X31496000Y-34036000D02*
X31496000Y-17578000D01*
X31496000Y-17578000D02*
X30428000Y-16510000D01*
X26932000Y-36910000D02*
X28622000Y-36910000D01*
%TD*%
M02*
