M48
; DRILL file {KiCad 7.0.10} date Wed Mar 20 01:01:04 2024
; FORMAT={-:-/ absolute / metric / decimal}
; #@! TF.CreationDate,2024-03-20T01:01:04-06:00
; #@! TF.GenerationSoftware,Kicad,Pcbnew,7.0.10
; #@! TF.FileFunction,MixedPlating,1,2
FMAT,2
METRIC
; #@! TA.AperFunction,Plated,PTH,ViaDrill
T1C1.000
; #@! TA.AperFunction,Plated,PTH,ComponentDrill
T2C1.000
; #@! TA.AperFunction,NonPlated,NPTH,ComponentDrill
T3C3.450
%
G90
G05
T1
X26.507Y-45.287
X44.567Y-42.62
X49.63Y-3.809
X56.8Y-31.7
T2
X5.929Y-3.555
X8.469Y-3.555
X11.009Y-3.555
X13.549Y-3.555
X14.862Y-37.438
X14.862Y-39.978
X14.862Y-42.518
X14.862Y-45.058
X14.862Y-51.408
X14.862Y-53.948
X14.862Y-56.488
X14.862Y-59.028
X16.089Y-3.555
X17.402Y-36.168
X17.402Y-38.708
X17.402Y-41.248
X17.402Y-43.788
X17.402Y-50.138
X17.402Y-52.678
X17.402Y-55.218
X17.402Y-57.758
X18.629Y-3.555
X21.169Y-3.555
X23.709Y-3.555
X26.711Y-9.676
X26.711Y-12.216
X26.711Y-14.756
X26.711Y-17.296
X26.711Y-19.836
X26.711Y-22.376
X26.711Y-24.916
X26.711Y-27.456
X26.711Y-29.996
X26.711Y-32.536
X26.711Y-35.076
X26.711Y-37.616
X26.711Y-40.156
X26.711Y-42.696
X41.951Y-9.676
X41.951Y-12.216
X41.951Y-14.756
X41.951Y-17.296
X41.951Y-19.836
X41.951Y-22.376
X41.951Y-24.916
X41.951Y-27.456
X41.951Y-29.996
X41.951Y-32.536
X41.951Y-35.076
X41.951Y-37.616
X41.951Y-40.156
X41.951Y-42.696
X43.585Y-3.809
X46.125Y-3.809
X54.278Y-3.783
X56.818Y-3.783
X59.358Y-3.783
X59.419Y-15.935
X59.419Y-31.175
X61.959Y-15.935
X61.959Y-31.175
X64.499Y-15.935
X64.499Y-31.175
X66.953Y-3.555
X67.039Y-15.935
X67.039Y-31.175
X69.493Y-3.555
X69.579Y-15.935
X69.579Y-31.175
X72.033Y-3.555
X72.119Y-15.935
X72.119Y-31.175
X74.573Y-3.555
X74.659Y-15.935
X74.659Y-31.175
X77.113Y-3.555
X77.199Y-15.935
X77.199Y-31.175
X79.653Y-3.555
X79.739Y-15.935
X79.739Y-31.175
X82.193Y-3.555
X82.279Y-15.935
X82.279Y-31.175
X84.733Y-3.555
X84.819Y-15.935
X84.819Y-31.175
X87.359Y-15.935
X87.359Y-31.175
X89.899Y-15.935
X89.899Y-31.175
X92.439Y-15.935
X92.439Y-31.175
T3
X8.512Y-34.898
X8.512Y-60.298
M30
