%TF.GenerationSoftware,KiCad,Pcbnew,7.0.10*%
%TF.CreationDate,2024-03-20T01:01:01-06:00*%
%TF.ProjectId,Duel_Mux,4475656c-5f4d-4757-982e-6b696361645f,rev?*%
%TF.SameCoordinates,PX16e360PY16e360*%
%TF.FileFunction,Copper,L1,Top*%
%TF.FilePolarity,Positive*%
%FSLAX46Y46*%
G04 Gerber Fmt 4.6, Leading zero omitted, Abs format (unit mm)*
G04 Created by KiCad (PCBNEW 7.0.10) date 2024-03-20 01:01:01*
%MOMM*%
%LPD*%
G01*
G04 APERTURE LIST*
%TA.AperFunction,ComponentPad*%
%ADD10R,2.140000X2.140000*%
%TD*%
%TA.AperFunction,ViaPad*%
%ADD11C,2.200000*%
%TD*%
%TA.AperFunction,Conductor*%
%ADD12C,0.900000*%
%TD*%
G04 APERTURE END LIST*
D10*
%TO.P,U1,28,D*%
%TO.N,/D2*%
X26710600Y-9676000D03*
%TO.P,U1,27,VSS*%
%TO.N,/-12V*%
X26710600Y-12216000D03*
%TO.P,U1,26,S8*%
%TO.N,/CH8*%
X26710600Y-14756000D03*
%TO.P,U1,25,S7*%
%TO.N,/CH7*%
X26710600Y-17296000D03*
%TO.P,U1,24,S6*%
%TO.N,/CH6*%
X26710600Y-19836000D03*
%TO.P,U1,23,S5*%
%TO.N,/CH5*%
X26710600Y-22376000D03*
%TO.P,U1,22,S4*%
%TO.N,/CH4*%
X26710600Y-24916000D03*
%TO.P,U1,21,S3*%
%TO.N,/CH3*%
X26710600Y-27456000D03*
%TO.P,U1,20,S2*%
%TO.N,/CH2*%
X26710600Y-29996000D03*
%TO.P,U1,19,S1*%
%TO.N,/CH1*%
X26710600Y-32536000D03*
%TO.P,U1,18,EN*%
%TO.N,/EN_2*%
X26710600Y-35076000D03*
%TO.P,U1,17,A0*%
%TO.N,/A0_2*%
X26710600Y-37616000D03*
%TO.P,U1,16,A1*%
%TO.N,/A1_2*%
X26710600Y-40156000D03*
%TO.P,U1,15,A2*%
%TO.N,/A2_2*%
X26710600Y-42696000D03*
%TO.P,U1,14,A3*%
%TO.N,/A3_2*%
X41950600Y-42696000D03*
%TO.P,U1,13,NC*%
%TO.N,unconnected-(U1-NC-Pad13)*%
X41950600Y-40156000D03*
%TO.P,U1,12,GND*%
%TO.N,GND*%
X41950600Y-37616000D03*
%TO.P,U1,11,S9*%
%TO.N,/CH9*%
X41950600Y-35076000D03*
%TO.P,U1,10,S10*%
%TO.N,/CH10*%
X41950600Y-32536000D03*
%TO.P,U1,9,S11*%
%TO.N,/CH11*%
X41950600Y-29996000D03*
%TO.P,U1,8,S12*%
%TO.N,/CH12*%
X41950600Y-27456000D03*
%TO.P,U1,7,S13*%
%TO.N,/CH13*%
X41950600Y-24916000D03*
%TO.P,U1,6,S14*%
%TO.N,/CH14*%
X41950600Y-22376000D03*
%TO.P,U1,5,S15*%
%TO.N,/CH15*%
X41950600Y-19836000D03*
%TO.P,U1,4,S16*%
%TO.N,/CH16*%
X41950600Y-17296000D03*
%TO.P,U1,3,NC*%
%TO.N,unconnected-(U1-NC-Pad3)*%
X41950600Y-14756000D03*
%TO.P,U1,2,NC*%
%TO.N,unconnected-(U1-NC-Pad2)*%
X41950600Y-12216000D03*
%TO.P,U1,1,VDD*%
%TO.N,/+12V*%
X41950600Y-9676000D03*
%TD*%
%TO.P,J3,1_1*%
%TO.N,/A3_1*%
X14862000Y-59028200D03*
%TO.P,J3,1_2*%
%TO.N,/A2_1*%
X17402000Y-57758200D03*
%TO.P,J3,1_3*%
%TO.N,unconnected-(J3-Pad1_3)*%
X14862000Y-56488200D03*
%TO.P,J3,1_4*%
%TO.N,/A1_1*%
X17402000Y-55218200D03*
%TO.P,J3,1_5*%
%TO.N,unconnected-(J3-Pad1_5)*%
X14862000Y-53948200D03*
%TO.P,J3,1_6*%
%TO.N,/A0_1*%
X17402000Y-52678200D03*
%TO.P,J3,1_7*%
%TO.N,GND*%
X14862000Y-51408200D03*
%TO.P,J3,1_8*%
%TO.N,/EN_1*%
X17402000Y-50138200D03*
%TO.P,J3,2_1*%
%TO.N,GND*%
X14862000Y-45058200D03*
%TO.P,J3,2_2*%
%TO.N,/A3_2*%
X17402000Y-43788200D03*
%TO.P,J3,2_3*%
%TO.N,unconnected-(J3-Pad2_3)*%
X14862000Y-42518200D03*
%TO.P,J3,2_4*%
%TO.N,/A2_2*%
X17402000Y-41248200D03*
%TO.P,J3,2_5*%
%TO.N,unconnected-(J3-Pad2_5)*%
X14862000Y-39978200D03*
%TO.P,J3,2_6*%
%TO.N,/A1_2*%
X17402000Y-38708200D03*
%TO.P,J3,2_7*%
%TO.N,/EN_2*%
X14862000Y-37438200D03*
%TO.P,J3,2_8*%
%TO.N,/A0_2*%
X17402000Y-36168200D03*
%TD*%
%TO.P,J1,1,Pin_1*%
%TO.N,/CH9*%
X84733000Y-3554600D03*
%TO.P,J1,2,Pin_2*%
%TO.N,/CH10*%
X82193000Y-3554600D03*
%TO.P,J1,3,Pin_3*%
%TO.N,/CH11*%
X79653000Y-3554600D03*
%TO.P,J1,4,Pin_4*%
%TO.N,/CH12*%
X77113000Y-3554600D03*
%TO.P,J1,5,Pin_5*%
%TO.N,/CH13*%
X74573000Y-3554600D03*
%TO.P,J1,6,Pin_6*%
%TO.N,/CH14*%
X72033000Y-3554600D03*
%TO.P,J1,7,Pin_7*%
%TO.N,/CH15*%
X69493000Y-3554600D03*
%TO.P,J1,8,Pin_8*%
%TO.N,/CH16*%
X66953000Y-3554600D03*
%TD*%
%TO.P,J5,1,Pin_1*%
%TO.N,/-12V*%
X54278400Y-3783200D03*
%TO.P,J5,2,Pin_2*%
%TO.N,GND*%
X56818400Y-3783200D03*
%TO.P,J5,3,Pin_3*%
%TO.N,/+12V*%
X59358400Y-3783200D03*
%TD*%
%TO.P,J4,1,Pin_1*%
%TO.N,/CH1*%
X5929000Y-3554600D03*
%TO.P,J4,2,Pin_2*%
%TO.N,/CH2*%
X8469000Y-3554600D03*
%TO.P,J4,3,Pin_3*%
%TO.N,/CH3*%
X11009000Y-3554600D03*
%TO.P,J4,4,Pin_4*%
%TO.N,/CH4*%
X13549000Y-3554600D03*
%TO.P,J4,5,Pin_5*%
%TO.N,/CH5*%
X16089000Y-3554600D03*
%TO.P,J4,6,Pin_6*%
%TO.N,/CH6*%
X18629000Y-3554600D03*
%TO.P,J4,7,Pin_7*%
%TO.N,/CH7*%
X21169000Y-3554600D03*
%TO.P,J4,8,Pin_8*%
%TO.N,/CH8*%
X23709000Y-3554600D03*
%TD*%
%TO.P,J2,1,Pin_1*%
%TO.N,/D1*%
X46125000Y-3808600D03*
%TO.P,J2,2,Pin_2*%
%TO.N,/D2*%
X43585000Y-3808600D03*
%TD*%
%TO.P,U2,1,VDD*%
%TO.N,/+12V*%
X59419000Y-15934600D03*
%TO.P,U2,2,NC*%
%TO.N,unconnected-(U2-NC-Pad2)*%
X61959000Y-15934600D03*
%TO.P,U2,3,NC*%
%TO.N,unconnected-(U2-NC-Pad3)*%
X64499000Y-15934600D03*
%TO.P,U2,4,S16*%
%TO.N,/CH16*%
X67039000Y-15934600D03*
%TO.P,U2,5,S15*%
%TO.N,/CH15*%
X69579000Y-15934600D03*
%TO.P,U2,6,S14*%
%TO.N,/CH14*%
X72119000Y-15934600D03*
%TO.P,U2,7,S13*%
%TO.N,/CH13*%
X74659000Y-15934600D03*
%TO.P,U2,8,S12*%
%TO.N,/CH12*%
X77199000Y-15934600D03*
%TO.P,U2,9,S11*%
%TO.N,/CH11*%
X79739000Y-15934600D03*
%TO.P,U2,10,S10*%
%TO.N,/CH10*%
X82279000Y-15934600D03*
%TO.P,U2,11,S9*%
%TO.N,/CH9*%
X84819000Y-15934600D03*
%TO.P,U2,12,GND*%
%TO.N,GND*%
X87359000Y-15934600D03*
%TO.P,U2,13,NC*%
%TO.N,unconnected-(U2-NC-Pad13)*%
X89899000Y-15934600D03*
%TO.P,U2,14,A3*%
%TO.N,/A3_1*%
X92439000Y-15934600D03*
%TO.P,U2,15,A2*%
%TO.N,/A2_1*%
X92439000Y-31174600D03*
%TO.P,U2,16,A1*%
%TO.N,/A1_1*%
X89899000Y-31174600D03*
%TO.P,U2,17,A0*%
%TO.N,/A0_1*%
X87359000Y-31174600D03*
%TO.P,U2,18,EN*%
%TO.N,/EN_1*%
X84819000Y-31174600D03*
%TO.P,U2,19,S1*%
%TO.N,/CH1*%
X82279000Y-31174600D03*
%TO.P,U2,20,S2*%
%TO.N,/CH2*%
X79739000Y-31174600D03*
%TO.P,U2,21,S3*%
%TO.N,/CH3*%
X77199000Y-31174600D03*
%TO.P,U2,22,S4*%
%TO.N,/CH4*%
X74659000Y-31174600D03*
%TO.P,U2,23,S5*%
%TO.N,/CH5*%
X72119000Y-31174600D03*
%TO.P,U2,24,S6*%
%TO.N,/CH6*%
X69579000Y-31174600D03*
%TO.P,U2,25,S7*%
%TO.N,/CH7*%
X67039000Y-31174600D03*
%TO.P,U2,26,S8*%
%TO.N,/CH8*%
X64499000Y-31174600D03*
%TO.P,U2,27,VSS*%
%TO.N,/-12V*%
X61959000Y-31174600D03*
%TO.P,U2,28,D*%
%TO.N,/D1*%
X59419000Y-31174600D03*
%TD*%
D11*
%TO.N,/D1*%
X49630200Y-3808600D03*
X56800000Y-31700000D03*
%TO.N,/A3_2*%
X44566800Y-42619800D03*
X26507400Y-45286800D03*
%TD*%
D12*
%TO.N,/D1*%
X59393600Y-31200000D02*
X59419000Y-31174600D01*
X57300000Y-31200000D02*
X59393600Y-31200000D01*
X56800000Y-31700000D02*
X57300000Y-31200000D01*
%TO.N,/A3_2*%
X18900600Y-45286800D02*
X26507400Y-45286800D01*
X17402000Y-43788200D02*
X18900600Y-45286800D01*
%TO.N,/A2_2*%
X20819800Y-42696000D02*
X26710600Y-42696000D01*
X19372000Y-41248200D02*
X20819800Y-42696000D01*
X17402000Y-41248200D02*
X19372000Y-41248200D01*
%TO.N,/A1_2*%
X17402000Y-38708200D02*
X19372000Y-38708200D01*
X19372000Y-38708200D02*
X20819800Y-40156000D01*
X20819800Y-40156000D02*
X26710600Y-40156000D01*
%TO.N,/A0_2*%
X20819800Y-37616000D02*
X26710600Y-37616000D01*
X19372000Y-36168200D02*
X20819800Y-37616000D01*
X17402000Y-36168200D02*
X19372000Y-36168200D01*
%TO.N,/EN_2*%
X24740600Y-35076000D02*
X26710600Y-35076000D01*
X15472000Y-34238200D02*
X23902800Y-34238200D01*
X23902800Y-34238200D02*
X24740600Y-35076000D01*
%TO.N,/CH1*%
X5929000Y-13824400D02*
X5929000Y-3554600D01*
X24640600Y-32536000D02*
X5929000Y-13824400D01*
%TO.N,/CH2*%
X8469000Y-13435400D02*
X8469000Y-3554600D01*
X25029600Y-29996000D02*
X8469000Y-13435400D01*
%TO.N,/CH3*%
X11009000Y-13435400D02*
X11009000Y-3554600D01*
X25029600Y-27456000D02*
X11009000Y-13435400D01*
%TO.N,/CH4*%
X13549000Y-13451449D02*
X13549000Y-3554600D01*
X25013551Y-24916000D02*
X13549000Y-13451449D01*
%TO.N,/CH5*%
X16089000Y-13460800D02*
X16089000Y-3554600D01*
X25004200Y-22376000D02*
X16089000Y-13460800D01*
%TO.N,/CH6*%
X25004200Y-19836000D02*
X18629000Y-13460800D01*
X18629000Y-13460800D02*
X18629000Y-3554600D01*
%TO.N,/CH7*%
X21169000Y-13460800D02*
X21169000Y-3554600D01*
X25004200Y-17296000D02*
X21169000Y-13460800D01*
%TO.N,/CH8*%
X23709000Y-13435400D02*
X23709000Y-3554600D01*
X25029600Y-14756000D02*
X23709000Y-13435400D01*
%TO.N,/D1*%
X48080800Y-3808600D02*
X49630200Y-3808600D01*
X46125000Y-3808600D02*
X48080800Y-3808600D01*
%TO.N,/D2*%
X26710600Y-7009000D02*
X26710600Y-9676000D01*
X29911000Y-3808600D02*
X26710600Y-7009000D01*
X43585000Y-3808600D02*
X29911000Y-3808600D01*
%TO.N,/+12V*%
X59358400Y-15874000D02*
X59419000Y-15934600D01*
X59358400Y-3783200D02*
X59358400Y-15874000D01*
%TO.N,/-12V*%
X40486200Y-7669400D02*
X39944000Y-8211600D01*
X50392200Y-7669400D02*
X40486200Y-7669400D01*
X54278400Y-3783200D02*
X50392200Y-7669400D01*
X39944000Y-8211600D02*
X39944000Y-10615800D01*
%TO.N,/CH15*%
X52709680Y-19433000D02*
X52306680Y-19836000D01*
X67765600Y-19433000D02*
X52709680Y-19433000D01*
X69579000Y-17619600D02*
X67765600Y-19433000D01*
X52306680Y-19836000D02*
X41950600Y-19836000D01*
X69579000Y-15934600D02*
X69579000Y-17619600D01*
%TO.N,/+12V*%
X49894400Y-15934600D02*
X59419000Y-15934600D01*
X43635800Y-9676000D02*
X49894400Y-15934600D01*
X41950600Y-9676000D02*
X43635800Y-9676000D01*
%TO.N,/CH16*%
X66715600Y-17943000D02*
X44282800Y-17943000D01*
X43635800Y-17296000D02*
X41950600Y-17296000D01*
X67039000Y-17619600D02*
X66715600Y-17943000D01*
X44282800Y-17943000D02*
X43635800Y-17296000D01*
X67039000Y-15934600D02*
X67039000Y-17619600D01*
%TO.N,/CH14*%
X53252300Y-20743000D02*
X51619300Y-22376000D01*
X69021000Y-20743000D02*
X53252300Y-20743000D01*
X51619300Y-22376000D02*
X41950600Y-22376000D01*
%TO.N,/CH13*%
X50931920Y-24916000D02*
X41950600Y-24916000D01*
X70135600Y-22143000D02*
X53704920Y-22143000D01*
X53704920Y-22143000D02*
X50931920Y-24916000D01*
%TO.N,/CH12*%
X77199000Y-17619600D02*
X77199000Y-15934600D01*
X71095600Y-23723000D02*
X77199000Y-17619600D01*
X53977540Y-23723000D02*
X71095600Y-23723000D01*
X41950600Y-27456000D02*
X50244540Y-27456000D01*
X50244540Y-27456000D02*
X53977540Y-23723000D01*
%TO.N,/CH11*%
X79739000Y-17619600D02*
X79739000Y-15934600D01*
X72325600Y-25033000D02*
X79739000Y-17619600D01*
X54520160Y-25033000D02*
X72325600Y-25033000D01*
X49557160Y-29996000D02*
X54520160Y-25033000D01*
X41950600Y-29996000D02*
X49557160Y-29996000D01*
%TO.N,/CH10*%
X73555600Y-26343000D02*
X82279000Y-17619600D01*
X55062780Y-26343000D02*
X73555600Y-26343000D01*
X48869780Y-32536000D02*
X55062780Y-26343000D01*
X41950600Y-32536000D02*
X48869780Y-32536000D01*
X82279000Y-17619600D02*
X82279000Y-15934600D01*
%TO.N,/CH9*%
X84819000Y-17619600D02*
X84819000Y-15934600D01*
X74695600Y-27743000D02*
X84819000Y-17619600D01*
X55515400Y-27743000D02*
X74695600Y-27743000D01*
X48182400Y-35076000D02*
X55515400Y-27743000D01*
X41950600Y-35076000D02*
X48182400Y-35076000D01*
%TO.N,/A3_1*%
X65075600Y-62478000D02*
X18311800Y-62478000D01*
X94452400Y-33101200D02*
X65075600Y-62478000D01*
X18311800Y-62478000D02*
X17869800Y-62036000D01*
X92439000Y-15934600D02*
X92439000Y-17618700D01*
X92439000Y-17618700D02*
X94452400Y-19632100D01*
X94452400Y-19632100D02*
X94452400Y-33101200D01*
%TO.N,/A2_1*%
X64130600Y-61168000D02*
X20811800Y-61168000D01*
X92439000Y-32859600D02*
X64130600Y-61168000D01*
X20811800Y-61168000D02*
X20369800Y-60726000D01*
X92439000Y-31174600D02*
X92439000Y-32859600D01*
%TO.N,/A1_1*%
X23715000Y-59858000D02*
X23273000Y-59416000D01*
X62900600Y-59858000D02*
X23715000Y-59858000D01*
X89899000Y-32859600D02*
X62900600Y-59858000D01*
X89899000Y-31174600D02*
X89899000Y-32859600D01*
%TO.N,/A0_1*%
X24945000Y-58548000D02*
X24503000Y-58106000D01*
X61670600Y-58548000D02*
X24945000Y-58548000D01*
X87359000Y-32859600D02*
X61670600Y-58548000D01*
X87359000Y-31174600D02*
X87359000Y-32859600D01*
%TO.N,/EN_1*%
X26200400Y-57238000D02*
X25758400Y-56796000D01*
X60440600Y-57238000D02*
X26200400Y-57238000D01*
X84819000Y-32859600D02*
X60440600Y-57238000D01*
X84819000Y-31174600D02*
X84819000Y-32859600D01*
%TO.N,/CH1*%
X82279000Y-32860200D02*
X82279000Y-31174600D01*
X59211200Y-55928000D02*
X82279000Y-32860200D01*
X36652690Y-55928000D02*
X59211200Y-55928000D01*
%TO.N,/CH2*%
X79739000Y-32860200D02*
X79739000Y-31174600D01*
X58071200Y-54528000D02*
X79739000Y-32860200D01*
X37105309Y-54528000D02*
X58071200Y-54528000D01*
%TO.N,/CH3*%
X77199000Y-32860200D02*
X77199000Y-31174600D01*
X56931200Y-53128000D02*
X77199000Y-32860200D01*
X37557928Y-53128000D02*
X56931200Y-53128000D01*
%TO.N,/CH4*%
X74659000Y-32860200D02*
X74659000Y-31174600D01*
X55791200Y-51728000D02*
X74659000Y-32860200D01*
X38010547Y-51728000D02*
X55791200Y-51728000D01*
%TO.N,/CH5*%
X72119000Y-32860200D02*
X72119000Y-31174600D01*
X54651200Y-50328000D02*
X72119000Y-32860200D01*
X38463166Y-50328000D02*
X54651200Y-50328000D01*
%TO.N,/CH6*%
X53536600Y-48928000D02*
X69579000Y-32885600D01*
X69579000Y-32885600D02*
X69579000Y-31174600D01*
X38915785Y-48928000D02*
X53536600Y-48928000D01*
%TO.N,/CH7*%
X67039000Y-32860200D02*
X67039000Y-31174600D01*
X52371200Y-47528000D02*
X67039000Y-32860200D01*
X39368404Y-47528000D02*
X52371200Y-47528000D01*
%TO.N,/CH8*%
X64499000Y-32881800D02*
X64499000Y-31174600D01*
X51252800Y-46128000D02*
X64499000Y-32881800D01*
X39948302Y-46128000D02*
X51252800Y-46128000D01*
%TO.N,/-12V*%
X61959000Y-32881800D02*
X50112800Y-44728000D01*
X50112800Y-44728000D02*
X40528200Y-44728000D01*
X61959000Y-31174600D02*
X61959000Y-32881800D01*
%TO.N,/A3_1*%
X17869800Y-62036000D02*
X14862000Y-59028200D01*
%TO.N,/A2_1*%
X20369800Y-60726000D02*
X17402000Y-57758200D01*
%TO.N,/A1_1*%
X19075200Y-55218200D02*
X17402000Y-55218200D01*
X23273000Y-59416000D02*
X19075200Y-55218200D01*
%TO.N,/A0_1*%
X24503000Y-58106000D02*
X19075200Y-52678200D01*
X19075200Y-52678200D02*
X17402000Y-52678200D01*
%TO.N,/EN_1*%
X19100600Y-50138200D02*
X17402000Y-50138200D01*
X25758400Y-56796000D02*
X19100600Y-50138200D01*
%TO.N,/EN_2*%
X26314800Y-34680200D02*
X26710600Y-35076000D01*
X14862000Y-37438200D02*
X14862000Y-34848200D01*
X14862000Y-34848200D02*
X15472000Y-34238200D01*
%TO.N,/CH9*%
X84733000Y-3554600D02*
X84733000Y-15848600D01*
X84733000Y-15848600D02*
X84819000Y-15934600D01*
%TO.N,/CH10*%
X82193000Y-3554600D02*
X82193000Y-15848600D01*
X82193000Y-15848600D02*
X82279000Y-15934600D01*
%TO.N,/CH11*%
X79653000Y-15848600D02*
X79739000Y-15934600D01*
X79653000Y-3554600D02*
X79653000Y-15848600D01*
%TO.N,/CH12*%
X77113000Y-3554600D02*
X77113000Y-15848600D01*
X77113000Y-15848600D02*
X77199000Y-15934600D01*
%TO.N,/CH13*%
X74573000Y-3554600D02*
X74573000Y-15848600D01*
X74659000Y-15934600D02*
X74659000Y-17619600D01*
X74659000Y-17619600D02*
X70135600Y-22143000D01*
X74573000Y-15848600D02*
X74659000Y-15934600D01*
%TO.N,/CH14*%
X72119000Y-17645000D02*
X69021000Y-20743000D01*
X72033000Y-15848600D02*
X72119000Y-15934600D01*
X72033000Y-3554600D02*
X72033000Y-15848600D01*
X72119000Y-15934600D02*
X72119000Y-17645000D01*
%TO.N,/CH15*%
X69493000Y-3554600D02*
X69493000Y-15848600D01*
X69493000Y-15848600D02*
X69579000Y-15934600D01*
%TO.N,/CH16*%
X67039000Y-3640600D02*
X66953000Y-3554600D01*
X67039000Y-15934600D02*
X67039000Y-3640600D01*
%TO.N,/A3_2*%
X44490600Y-42696000D02*
X41950600Y-42696000D01*
X44566800Y-42619800D02*
X44490600Y-42696000D01*
%TO.N,/CH1*%
X28744000Y-32867600D02*
X28744000Y-48019325D01*
X28744000Y-48019325D02*
X36652690Y-55928000D01*
X28412400Y-32536000D02*
X28744000Y-32867600D01*
X26710600Y-32536000D02*
X24640600Y-32536000D01*
X26710600Y-32536000D02*
X28412400Y-32536000D01*
%TO.N,/CH2*%
X26710600Y-29996000D02*
X28412400Y-29996000D01*
X26710600Y-29996000D02*
X25029600Y-29996000D01*
X28412400Y-29996000D02*
X30144000Y-31727600D01*
X30144000Y-47566704D02*
X37105309Y-54528000D01*
X30144000Y-31727600D02*
X30144000Y-47566704D01*
%TO.N,/CH3*%
X26710600Y-27456000D02*
X28412400Y-27456000D01*
X26710600Y-27456000D02*
X25029600Y-27456000D01*
X31544000Y-30587600D02*
X31544000Y-47114083D01*
X28412400Y-27456000D02*
X31544000Y-30587600D01*
X31544000Y-47114083D02*
X37557928Y-53128000D01*
%TO.N,/CH4*%
X32944000Y-29447600D02*
X32944000Y-46661462D01*
X26710600Y-24916000D02*
X28412400Y-24916000D01*
X32944000Y-46661462D02*
X38010547Y-51728000D01*
X26710600Y-24916000D02*
X25013551Y-24916000D01*
X28412400Y-24916000D02*
X32944000Y-29447600D01*
%TO.N,/CH5*%
X34344000Y-28307600D02*
X34344000Y-46208841D01*
X26710600Y-22376000D02*
X25004200Y-22376000D01*
X34344000Y-46208841D02*
X38463166Y-50328000D01*
X28412400Y-22376000D02*
X34344000Y-28307600D01*
X26710600Y-22376000D02*
X28412400Y-22376000D01*
%TO.N,/CH6*%
X35744000Y-45756220D02*
X38915785Y-48928000D01*
X26710600Y-19836000D02*
X25004200Y-19836000D01*
X35744000Y-27167600D02*
X35744000Y-45756220D01*
X28412400Y-19836000D02*
X35744000Y-27167600D01*
X26710600Y-19836000D02*
X28412400Y-19836000D01*
%TO.N,/CH7*%
X37144000Y-45303599D02*
X39368404Y-47528000D01*
X26710600Y-17296000D02*
X25004200Y-17296000D01*
X26710600Y-17296000D02*
X28412400Y-17296000D01*
X37144000Y-26027600D02*
X37144000Y-45303599D01*
X28412400Y-17296000D02*
X37144000Y-26027600D01*
%TO.N,/CH8*%
X26710600Y-14756000D02*
X25029600Y-14756000D01*
X38544000Y-44723699D02*
X39948302Y-46128000D01*
X28412400Y-14756000D02*
X38544000Y-24887600D01*
X38544000Y-24887600D02*
X38544000Y-44723699D01*
X26710600Y-14756000D02*
X28412400Y-14756000D01*
%TO.N,/-12V*%
X39944000Y-44143800D02*
X39944000Y-10615800D01*
X40528200Y-44728000D02*
X39944000Y-44143800D01*
X26710600Y-12216000D02*
X38343800Y-12216000D01*
X38343800Y-12216000D02*
X39944000Y-10615800D01*
%TD*%
%TA.AperFunction,Conductor*%
%TO.N,GND*%
G36*
X15362000Y-51704200D02*
G01*
X15341798Y-51792712D01*
X15285192Y-51863694D01*
X15203394Y-51903085D01*
X15158000Y-51908200D01*
X14897763Y-51908200D01*
X15004315Y-51892880D01*
X15135100Y-51833152D01*
X15243761Y-51738998D01*
X15321493Y-51618044D01*
X15362000Y-51480089D01*
X15362000Y-51704200D01*
G37*
%TD.AperFunction*%
%TA.AperFunction,Conductor*%
G36*
X15246512Y-44578402D02*
G01*
X15317494Y-44635008D01*
X15356885Y-44716806D01*
X15362000Y-44762200D01*
X15362000Y-44986311D01*
X15321493Y-44848356D01*
X15243761Y-44727402D01*
X15135100Y-44633248D01*
X15004315Y-44573520D01*
X14897763Y-44558200D01*
X15158000Y-44558200D01*
X15246512Y-44578402D01*
G37*
%TD.AperFunction*%
%TA.AperFunction,Conductor*%
G36*
X87859000Y-17414599D02*
G01*
X88461262Y-17414599D01*
X88461266Y-17414598D01*
X88557274Y-17399393D01*
X88565137Y-17396839D01*
X88655559Y-17388699D01*
X88691226Y-17396839D01*
X88700560Y-17399871D01*
X88700567Y-17399875D01*
X88796693Y-17415100D01*
X91001306Y-17415099D01*
X91097433Y-17399875D01*
X91097438Y-17399872D01*
X91105953Y-17397106D01*
X91196376Y-17388964D01*
X91232045Y-17397106D01*
X91240563Y-17399874D01*
X91240565Y-17399874D01*
X91240567Y-17399875D01*
X91336693Y-17415100D01*
X91370941Y-17415099D01*
X91459451Y-17435299D01*
X91530434Y-17491903D01*
X91569827Y-17573700D01*
X91574271Y-17635649D01*
X91573742Y-17642138D01*
X91584432Y-17720599D01*
X91585103Y-17726077D01*
X91593663Y-17804771D01*
X91596040Y-17815570D01*
X91595483Y-17815692D01*
X91595790Y-17816999D01*
X91596342Y-17816862D01*
X91599012Y-17827598D01*
X91626310Y-17901904D01*
X91628144Y-17907113D01*
X91653424Y-17982141D01*
X91658068Y-17992179D01*
X91657550Y-17992418D01*
X91658131Y-17993631D01*
X91658642Y-17993378D01*
X91663554Y-18003282D01*
X91706212Y-18070020D01*
X91709117Y-18074705D01*
X91709670Y-18075623D01*
X91749924Y-18142526D01*
X91756615Y-18151327D01*
X91756161Y-18151672D01*
X91756987Y-18152729D01*
X91757432Y-18152372D01*
X91764361Y-18160992D01*
X91820346Y-18216977D01*
X91824200Y-18220937D01*
X91878640Y-18278409D01*
X91887067Y-18285567D01*
X91886696Y-18286003D01*
X91902098Y-18298729D01*
X93532150Y-19928781D01*
X93580452Y-20005654D01*
X93591900Y-20073031D01*
X93591900Y-29490100D01*
X93571698Y-29578612D01*
X93515092Y-29649594D01*
X93433294Y-29688985D01*
X93387900Y-29694100D01*
X91336699Y-29694100D01*
X91336697Y-29694100D01*
X91336694Y-29694101D01*
X91258448Y-29706493D01*
X91240560Y-29709326D01*
X91232030Y-29712098D01*
X91141607Y-29720233D01*
X91105958Y-29712095D01*
X91097429Y-29709323D01*
X91001308Y-29694100D01*
X88796699Y-29694100D01*
X88796697Y-29694100D01*
X88796694Y-29694101D01*
X88718448Y-29706493D01*
X88700560Y-29709326D01*
X88692030Y-29712098D01*
X88601607Y-29720233D01*
X88565958Y-29712095D01*
X88557429Y-29709323D01*
X88461308Y-29694100D01*
X86256699Y-29694100D01*
X86256697Y-29694100D01*
X86256694Y-29694101D01*
X86178448Y-29706493D01*
X86160560Y-29709326D01*
X86152030Y-29712098D01*
X86061607Y-29720233D01*
X86025958Y-29712095D01*
X86017429Y-29709323D01*
X85921308Y-29694100D01*
X83716699Y-29694100D01*
X83716697Y-29694100D01*
X83716694Y-29694101D01*
X83638448Y-29706493D01*
X83620560Y-29709326D01*
X83612030Y-29712098D01*
X83521607Y-29720233D01*
X83485958Y-29712095D01*
X83477429Y-29709323D01*
X83381308Y-29694100D01*
X81176699Y-29694100D01*
X81176697Y-29694100D01*
X81176694Y-29694101D01*
X81098448Y-29706493D01*
X81080560Y-29709326D01*
X81072030Y-29712098D01*
X80981607Y-29720233D01*
X80945958Y-29712095D01*
X80937429Y-29709323D01*
X80841308Y-29694100D01*
X78636699Y-29694100D01*
X78636697Y-29694100D01*
X78636694Y-29694101D01*
X78558448Y-29706493D01*
X78540560Y-29709326D01*
X78532030Y-29712098D01*
X78441607Y-29720233D01*
X78405958Y-29712095D01*
X78397429Y-29709323D01*
X78301308Y-29694100D01*
X76096699Y-29694100D01*
X76096697Y-29694100D01*
X76096694Y-29694101D01*
X76018448Y-29706493D01*
X76000560Y-29709326D01*
X75992030Y-29712098D01*
X75901607Y-29720233D01*
X75865958Y-29712095D01*
X75857429Y-29709323D01*
X75761308Y-29694100D01*
X73556699Y-29694100D01*
X73556697Y-29694100D01*
X73556694Y-29694101D01*
X73478448Y-29706493D01*
X73460560Y-29709326D01*
X73452030Y-29712098D01*
X73361607Y-29720233D01*
X73325958Y-29712095D01*
X73317429Y-29709323D01*
X73221308Y-29694100D01*
X71016699Y-29694100D01*
X71016697Y-29694100D01*
X71016694Y-29694101D01*
X70938448Y-29706493D01*
X70920560Y-29709326D01*
X70912030Y-29712098D01*
X70821607Y-29720233D01*
X70785958Y-29712095D01*
X70777429Y-29709323D01*
X70681308Y-29694100D01*
X68476699Y-29694100D01*
X68476697Y-29694100D01*
X68476694Y-29694101D01*
X68398448Y-29706493D01*
X68380560Y-29709326D01*
X68372030Y-29712098D01*
X68281607Y-29720233D01*
X68245958Y-29712095D01*
X68237429Y-29709323D01*
X68141308Y-29694100D01*
X65936699Y-29694100D01*
X65936697Y-29694100D01*
X65936694Y-29694101D01*
X65858448Y-29706493D01*
X65840560Y-29709326D01*
X65832030Y-29712098D01*
X65741607Y-29720233D01*
X65705958Y-29712095D01*
X65697429Y-29709323D01*
X65601308Y-29694100D01*
X63396699Y-29694100D01*
X63396697Y-29694100D01*
X63396694Y-29694101D01*
X63318448Y-29706493D01*
X63300560Y-29709326D01*
X63292030Y-29712098D01*
X63201607Y-29720233D01*
X63165958Y-29712095D01*
X63157429Y-29709323D01*
X63061308Y-29694100D01*
X60856699Y-29694100D01*
X60856697Y-29694100D01*
X60856694Y-29694101D01*
X60778448Y-29706493D01*
X60760560Y-29709326D01*
X60752030Y-29712098D01*
X60661607Y-29720233D01*
X60625958Y-29712095D01*
X60617429Y-29709323D01*
X60521308Y-29694100D01*
X58316699Y-29694100D01*
X58316695Y-29694100D01*
X58316694Y-29694101D01*
X58297468Y-29697145D01*
X58220563Y-29709325D01*
X58104709Y-29768356D01*
X58012759Y-29860306D01*
X58012758Y-29860306D01*
X57953724Y-29976168D01*
X57953723Y-29976170D01*
X57938500Y-30072286D01*
X57938500Y-30135500D01*
X57918298Y-30224012D01*
X57861692Y-30294994D01*
X57779894Y-30334385D01*
X57734500Y-30339500D01*
X57503167Y-30339500D01*
X57425099Y-30323971D01*
X57268218Y-30258988D01*
X57037033Y-30203484D01*
X57037025Y-30203483D01*
X56800001Y-30184829D01*
X56799999Y-30184829D01*
X56562974Y-30203483D01*
X56562966Y-30203484D01*
X56331781Y-30258988D01*
X56112127Y-30349972D01*
X55909402Y-30474202D01*
X55728616Y-30628607D01*
X55728607Y-30628616D01*
X55574202Y-30809402D01*
X55449972Y-31012127D01*
X55358988Y-31231781D01*
X55303484Y-31462966D01*
X55303483Y-31462974D01*
X55284829Y-31699998D01*
X55284829Y-31700001D01*
X55303483Y-31937025D01*
X55303484Y-31937033D01*
X55358988Y-32168218D01*
X55449972Y-32387872D01*
X55574202Y-32590597D01*
X55728607Y-32771383D01*
X55728616Y-32771392D01*
X55909402Y-32925797D01*
X55909404Y-32925798D01*
X55909405Y-32925799D01*
X56112127Y-33050027D01*
X56331786Y-33141013D01*
X56511213Y-33184090D01*
X56562966Y-33196515D01*
X56562967Y-33196515D01*
X56562975Y-33196517D01*
X56781345Y-33213702D01*
X56799999Y-33215171D01*
X56800000Y-33215171D01*
X56800001Y-33215171D01*
X56817293Y-33213809D01*
X57037025Y-33196517D01*
X57268214Y-33141013D01*
X57487873Y-33050027D01*
X57690595Y-32925799D01*
X57871388Y-32771388D01*
X57951085Y-32678074D01*
X58023930Y-32623889D01*
X58113072Y-32606677D01*
X58198820Y-32628795D01*
X58220564Y-32639874D01*
X58220570Y-32639876D01*
X58262329Y-32646489D01*
X58316693Y-32655100D01*
X60476269Y-32655099D01*
X60564781Y-32675301D01*
X60635763Y-32731907D01*
X60675154Y-32813705D01*
X60675154Y-32904493D01*
X60635763Y-32986291D01*
X60620519Y-33003349D01*
X49816119Y-43807750D01*
X49739246Y-43856052D01*
X49671869Y-43867500D01*
X45930113Y-43867500D01*
X45841601Y-43847298D01*
X45770619Y-43790692D01*
X45731228Y-43708894D01*
X45731228Y-43618106D01*
X45770619Y-43536308D01*
X45774990Y-43531013D01*
X45790602Y-43512733D01*
X45792599Y-43510395D01*
X45916827Y-43307673D01*
X46007813Y-43088014D01*
X46063317Y-42856825D01*
X46081971Y-42619800D01*
X46063317Y-42382775D01*
X46007813Y-42151586D01*
X45916827Y-41931927D01*
X45792599Y-41729205D01*
X45792598Y-41729204D01*
X45792597Y-41729202D01*
X45638192Y-41548416D01*
X45638183Y-41548407D01*
X45457397Y-41394002D01*
X45254672Y-41269772D01*
X45035018Y-41178788D01*
X44803833Y-41123284D01*
X44803825Y-41123283D01*
X44566801Y-41104629D01*
X44566799Y-41104629D01*
X44329774Y-41123283D01*
X44329766Y-41123284D01*
X44098581Y-41178788D01*
X43878921Y-41269775D01*
X43741687Y-41353871D01*
X43655662Y-41382893D01*
X43565565Y-41371716D01*
X43489239Y-41322553D01*
X43441802Y-41245143D01*
X43431099Y-41179937D01*
X43431099Y-39053694D01*
X43415875Y-38957567D01*
X43415872Y-38957561D01*
X43412839Y-38948227D01*
X43404698Y-38857804D01*
X43412839Y-38822138D01*
X43415393Y-38814276D01*
X43430600Y-38718264D01*
X43430600Y-38116000D01*
X41986363Y-38116000D01*
X42092915Y-38100680D01*
X42223700Y-38040952D01*
X42332361Y-37946798D01*
X42410093Y-37825844D01*
X42450600Y-37687889D01*
X42450600Y-37544111D01*
X42410093Y-37406156D01*
X42332361Y-37285202D01*
X42223700Y-37191048D01*
X42092915Y-37131320D01*
X41986363Y-37116000D01*
X43430599Y-37116000D01*
X43430599Y-36513738D01*
X43430598Y-36513733D01*
X43415393Y-36417726D01*
X43412838Y-36409861D01*
X43404699Y-36319438D01*
X43412840Y-36283772D01*
X43415872Y-36274438D01*
X43415875Y-36274433D01*
X43431100Y-36178307D01*
X43431100Y-36140500D01*
X43451302Y-36051988D01*
X43507908Y-35981006D01*
X43589706Y-35941615D01*
X43635100Y-35936500D01*
X48139128Y-35936500D01*
X48155685Y-35937172D01*
X48205839Y-35941257D01*
X48284335Y-35930561D01*
X48289738Y-35929899D01*
X48368473Y-35921337D01*
X48368474Y-35921336D01*
X48379281Y-35918958D01*
X48379405Y-35919521D01*
X48380702Y-35919217D01*
X48380563Y-35918657D01*
X48391296Y-35915988D01*
X48398901Y-35913194D01*
X48465658Y-35888668D01*
X48470768Y-35886869D01*
X48545845Y-35861574D01*
X48545854Y-35861568D01*
X48555890Y-35856926D01*
X48556133Y-35857451D01*
X48557332Y-35856876D01*
X48557075Y-35856358D01*
X48566973Y-35851448D01*
X48566985Y-35851444D01*
X48629821Y-35811279D01*
X48633731Y-35808780D01*
X48638366Y-35805904D01*
X48706223Y-35765077D01*
X48706229Y-35765070D01*
X48715027Y-35758384D01*
X48715376Y-35758843D01*
X48716430Y-35758019D01*
X48716069Y-35757570D01*
X48724686Y-35750643D01*
X48724691Y-35750640D01*
X48780712Y-35694617D01*
X48784639Y-35690797D01*
X48842104Y-35636365D01*
X48842104Y-35636363D01*
X48842108Y-35636361D01*
X48842110Y-35636357D01*
X48849265Y-35627934D01*
X48849702Y-35628305D01*
X48862426Y-35612903D01*
X55812081Y-28663250D01*
X55888954Y-28614948D01*
X55956331Y-28603500D01*
X74652328Y-28603500D01*
X74668885Y-28604172D01*
X74719039Y-28608257D01*
X74797535Y-28597561D01*
X74802938Y-28596899D01*
X74881673Y-28588337D01*
X74881674Y-28588336D01*
X74892481Y-28585958D01*
X74892605Y-28586521D01*
X74893902Y-28586217D01*
X74893763Y-28585657D01*
X74904496Y-28582988D01*
X74978858Y-28555668D01*
X74983968Y-28553869D01*
X75059045Y-28528574D01*
X75059054Y-28528568D01*
X75069090Y-28523926D01*
X75069333Y-28524451D01*
X75070532Y-28523876D01*
X75070275Y-28523358D01*
X75080173Y-28518448D01*
X75080185Y-28518444D01*
X75146931Y-28475780D01*
X75151566Y-28472904D01*
X75219423Y-28432077D01*
X75219429Y-28432070D01*
X75228227Y-28425384D01*
X75228576Y-28425843D01*
X75229630Y-28425019D01*
X75229269Y-28424570D01*
X75237886Y-28417643D01*
X75237891Y-28417640D01*
X75293912Y-28361617D01*
X75297839Y-28357797D01*
X75355304Y-28303365D01*
X75355304Y-28303363D01*
X75355308Y-28303361D01*
X75355310Y-28303357D01*
X75362465Y-28294934D01*
X75362902Y-28295305D01*
X75375626Y-28279903D01*
X85396881Y-18258648D01*
X85409055Y-18247427D01*
X85440243Y-18220937D01*
X85447403Y-18214855D01*
X85495353Y-18151777D01*
X85498713Y-18147480D01*
X85548317Y-18085770D01*
X85548318Y-18085767D01*
X85554277Y-18076446D01*
X85554762Y-18076756D01*
X85555465Y-18075623D01*
X85554971Y-18075326D01*
X85560672Y-18065851D01*
X85560671Y-18065851D01*
X85560673Y-18065850D01*
X85593954Y-17993911D01*
X85596254Y-17989109D01*
X85631479Y-17918090D01*
X85631480Y-17918082D01*
X85635297Y-17907698D01*
X85635836Y-17907896D01*
X85636277Y-17906641D01*
X85635733Y-17906458D01*
X85639264Y-17895978D01*
X85656283Y-17818658D01*
X85657531Y-17813325D01*
X85676650Y-17736452D01*
X85676650Y-17736444D01*
X85678144Y-17725486D01*
X85678715Y-17725563D01*
X85678876Y-17724249D01*
X85678303Y-17724187D01*
X85679500Y-17713182D01*
X85679500Y-17634013D01*
X85679575Y-17628489D01*
X85679979Y-17613575D01*
X85702571Y-17525642D01*
X85761078Y-17456220D01*
X85843912Y-17419057D01*
X85883904Y-17415099D01*
X85921301Y-17415099D01*
X85921306Y-17415099D01*
X86017433Y-17399875D01*
X86017440Y-17399871D01*
X86026773Y-17396839D01*
X86117196Y-17388698D01*
X86152862Y-17396839D01*
X86160723Y-17399393D01*
X86256735Y-17414599D01*
X86859000Y-17414599D01*
X86859000Y-16006489D01*
X86899507Y-16144444D01*
X86977239Y-16265398D01*
X87085900Y-16359552D01*
X87216685Y-16419280D01*
X87323237Y-16434600D01*
X87394763Y-16434600D01*
X87501315Y-16419280D01*
X87632100Y-16359552D01*
X87740761Y-16265398D01*
X87818493Y-16144444D01*
X87859000Y-16006489D01*
X87859000Y-17414599D01*
G37*
%TD.AperFunction*%
%TA.AperFunction,Conductor*%
G36*
X41491107Y-37825844D02*
G01*
X41568839Y-37946798D01*
X41677500Y-38040952D01*
X41808285Y-38100680D01*
X41914837Y-38116000D01*
X41654600Y-38116000D01*
X41566088Y-38095798D01*
X41495106Y-38039192D01*
X41455715Y-37957394D01*
X41450600Y-37912000D01*
X41450600Y-37687889D01*
X41491107Y-37825844D01*
G37*
%TD.AperFunction*%
%TA.AperFunction,Conductor*%
G36*
X41808285Y-37131320D02*
G01*
X41677500Y-37191048D01*
X41568839Y-37285202D01*
X41491107Y-37406156D01*
X41450600Y-37544111D01*
X41450600Y-37320000D01*
X41470802Y-37231488D01*
X41527408Y-37160506D01*
X41609206Y-37121115D01*
X41654600Y-37116000D01*
X41914837Y-37116000D01*
X41808285Y-37131320D01*
G37*
%TD.AperFunction*%
%TA.AperFunction,Conductor*%
G36*
X57318400Y-5263199D02*
G01*
X57920662Y-5263199D01*
X57920666Y-5263198D01*
X58016674Y-5247993D01*
X58024537Y-5245439D01*
X58114959Y-5237299D01*
X58150626Y-5245439D01*
X58159960Y-5248471D01*
X58159967Y-5248475D01*
X58256093Y-5263700D01*
X58293899Y-5263699D01*
X58382408Y-5283899D01*
X58453391Y-5340504D01*
X58492784Y-5422300D01*
X58497900Y-5467699D01*
X58497900Y-14251264D01*
X58477698Y-14339776D01*
X58421092Y-14410758D01*
X58339294Y-14450149D01*
X58324538Y-14452404D01*
X58324609Y-14452848D01*
X58316696Y-14454100D01*
X58316694Y-14454101D01*
X58277273Y-14460344D01*
X58220563Y-14469325D01*
X58104709Y-14528356D01*
X58012759Y-14620306D01*
X58012758Y-14620306D01*
X57953724Y-14736168D01*
X57953723Y-14736170D01*
X57938500Y-14832286D01*
X57938500Y-14870100D01*
X57918298Y-14958612D01*
X57861692Y-15029594D01*
X57779894Y-15068985D01*
X57734500Y-15074100D01*
X50335331Y-15074100D01*
X50246819Y-15053898D01*
X50191081Y-15014350D01*
X44274853Y-9098122D01*
X44263633Y-9085951D01*
X44231055Y-9047597D01*
X44168005Y-8999667D01*
X44163688Y-8996292D01*
X44101970Y-8946683D01*
X44092649Y-8940725D01*
X44092956Y-8940244D01*
X44091821Y-8939540D01*
X44091528Y-8940029D01*
X44082049Y-8934326D01*
X44049020Y-8919045D01*
X43977172Y-8863545D01*
X43936519Y-8782366D01*
X43935114Y-8691589D01*
X43973235Y-8609191D01*
X44043332Y-8551494D01*
X44131521Y-8529924D01*
X44134678Y-8529900D01*
X50348928Y-8529900D01*
X50365485Y-8530572D01*
X50415639Y-8534657D01*
X50494135Y-8523961D01*
X50499538Y-8523299D01*
X50578273Y-8514737D01*
X50578274Y-8514736D01*
X50589081Y-8512358D01*
X50589205Y-8512921D01*
X50590502Y-8512617D01*
X50590363Y-8512057D01*
X50601096Y-8509388D01*
X50675458Y-8482068D01*
X50680568Y-8480269D01*
X50755645Y-8454974D01*
X50755654Y-8454968D01*
X50765690Y-8450326D01*
X50765933Y-8450851D01*
X50767132Y-8450276D01*
X50766875Y-8449758D01*
X50776773Y-8444848D01*
X50776785Y-8444844D01*
X50843531Y-8402180D01*
X50848166Y-8399304D01*
X50916023Y-8358477D01*
X50916029Y-8358470D01*
X50924827Y-8351784D01*
X50925176Y-8352243D01*
X50926230Y-8351419D01*
X50925869Y-8350970D01*
X50934486Y-8344043D01*
X50934491Y-8344040D01*
X50990512Y-8288017D01*
X50994439Y-8284197D01*
X51009682Y-8269759D01*
X51051908Y-8229761D01*
X51051910Y-8229757D01*
X51059065Y-8221334D01*
X51059502Y-8221705D01*
X51072226Y-8206303D01*
X53955081Y-5323449D01*
X54031954Y-5275147D01*
X54099331Y-5263699D01*
X55380701Y-5263699D01*
X55380706Y-5263699D01*
X55476833Y-5248475D01*
X55476840Y-5248471D01*
X55486173Y-5245439D01*
X55576596Y-5237298D01*
X55612262Y-5245439D01*
X55620123Y-5247993D01*
X55716135Y-5263199D01*
X56318400Y-5263199D01*
X56318400Y-3855089D01*
X56358907Y-3993044D01*
X56436639Y-4113998D01*
X56545300Y-4208152D01*
X56676085Y-4267880D01*
X56782637Y-4283200D01*
X56854163Y-4283200D01*
X56960715Y-4267880D01*
X57091500Y-4208152D01*
X57200161Y-4113998D01*
X57277893Y-3993044D01*
X57318400Y-3855089D01*
X57318400Y-5263199D01*
G37*
%TD.AperFunction*%
%TA.AperFunction,Conductor*%
G36*
X96884012Y-20702D02*
G01*
X96954994Y-77308D01*
X96994385Y-159106D01*
X96999500Y-204500D01*
X96999500Y-64795500D01*
X96979298Y-64884012D01*
X96922692Y-64954994D01*
X96840894Y-64994385D01*
X96795500Y-64999500D01*
X204500Y-64999500D01*
X115988Y-64979298D01*
X45006Y-64922692D01*
X5615Y-64840894D01*
X500Y-64795500D01*
X500Y-60298203D01*
X6531454Y-60298203D01*
X6551613Y-60580063D01*
X6611680Y-60856186D01*
X6710428Y-61120940D01*
X6710429Y-61120943D01*
X6845860Y-61368966D01*
X6930531Y-61482073D01*
X7015203Y-61595182D01*
X7215018Y-61794997D01*
X7441236Y-61964341D01*
X7689251Y-62099768D01*
X7954016Y-62198520D01*
X8230139Y-62258587D01*
X8441447Y-62273700D01*
X8582553Y-62273700D01*
X8793861Y-62258587D01*
X9069984Y-62198520D01*
X9334749Y-62099768D01*
X9582764Y-61964341D01*
X9808982Y-61794997D01*
X10008797Y-61595182D01*
X10178141Y-61368964D01*
X10313568Y-61120949D01*
X10412320Y-60856184D01*
X10472387Y-60580061D01*
X10492546Y-60298200D01*
X10491766Y-60287298D01*
X10477265Y-60084545D01*
X10472387Y-60016339D01*
X10412320Y-59740216D01*
X10313568Y-59475451D01*
X10178141Y-59227436D01*
X10008797Y-59001218D01*
X9808982Y-58801403D01*
X9695873Y-58716731D01*
X9582766Y-58632060D01*
X9520760Y-58598202D01*
X9334749Y-58496632D01*
X9334747Y-58496631D01*
X9334743Y-58496629D01*
X9334740Y-58496628D01*
X9069986Y-58397880D01*
X8793863Y-58337813D01*
X8582557Y-58322700D01*
X8582553Y-58322700D01*
X8441447Y-58322700D01*
X8441442Y-58322700D01*
X8230136Y-58337813D01*
X7954013Y-58397880D01*
X7689259Y-58496628D01*
X7689256Y-58496629D01*
X7441233Y-58632060D01*
X7215019Y-58801402D01*
X7215015Y-58801405D01*
X7015205Y-59001215D01*
X7015202Y-59001219D01*
X6845860Y-59227433D01*
X6710429Y-59475456D01*
X6710428Y-59475459D01*
X6611680Y-59740213D01*
X6551613Y-60016336D01*
X6531454Y-60298196D01*
X6531454Y-60298203D01*
X500Y-60298203D01*
X500Y-50908200D01*
X13382000Y-50908200D01*
X14362000Y-50908200D01*
X14362000Y-49928200D01*
X13759738Y-49928200D01*
X13759733Y-49928201D01*
X13663720Y-49943407D01*
X13548007Y-50002365D01*
X13456168Y-50094204D01*
X13456167Y-50094204D01*
X13397206Y-50209923D01*
X13382000Y-50305935D01*
X13382000Y-50908200D01*
X500Y-50908200D01*
X500Y-45558200D01*
X13382001Y-45558200D01*
X13382001Y-46160466D01*
X13397207Y-46256479D01*
X13456165Y-46372192D01*
X13456168Y-46372196D01*
X13548004Y-46464032D01*
X13663723Y-46522993D01*
X13759735Y-46538199D01*
X14362000Y-46538199D01*
X14362000Y-45558200D01*
X13382001Y-45558200D01*
X500Y-45558200D01*
X500Y-34898203D01*
X6531454Y-34898203D01*
X6551613Y-35180063D01*
X6611680Y-35456186D01*
X6710428Y-35720940D01*
X6710429Y-35720943D01*
X6710431Y-35720947D01*
X6710432Y-35720949D01*
X6760135Y-35811972D01*
X6827791Y-35935876D01*
X6845859Y-35968964D01*
X7015203Y-36195182D01*
X7215018Y-36394997D01*
X7245381Y-36417726D01*
X7430761Y-36556500D01*
X7441236Y-36564341D01*
X7689251Y-36699768D01*
X7689255Y-36699769D01*
X7689256Y-36699770D01*
X7689259Y-36699771D01*
X7838674Y-36755500D01*
X7954016Y-36798520D01*
X8230139Y-36858587D01*
X8441447Y-36873700D01*
X8582553Y-36873700D01*
X8793861Y-36858587D01*
X9069984Y-36798520D01*
X9334749Y-36699768D01*
X9582764Y-36564341D01*
X9808982Y-36394997D01*
X10008797Y-36195182D01*
X10178141Y-35968964D01*
X10313568Y-35720949D01*
X10412320Y-35456184D01*
X10472387Y-35180061D01*
X10492546Y-34898200D01*
X10472387Y-34616339D01*
X10412320Y-34340216D01*
X10365803Y-34215500D01*
X10313571Y-34075459D01*
X10313570Y-34075456D01*
X10313569Y-34075455D01*
X10313568Y-34075451D01*
X10178141Y-33827436D01*
X10008797Y-33601218D01*
X9808982Y-33401403D01*
X9670257Y-33297555D01*
X9582766Y-33232060D01*
X9494916Y-33184090D01*
X9334749Y-33096632D01*
X9334747Y-33096631D01*
X9334743Y-33096629D01*
X9334740Y-33096628D01*
X9069986Y-32997880D01*
X8793863Y-32937813D01*
X8582557Y-32922700D01*
X8582553Y-32922700D01*
X8441447Y-32922700D01*
X8441442Y-32922700D01*
X8230136Y-32937813D01*
X7954013Y-32997880D01*
X7689259Y-33096628D01*
X7689256Y-33096629D01*
X7441233Y-33232060D01*
X7215019Y-33401402D01*
X7215015Y-33401405D01*
X7015205Y-33601215D01*
X7015202Y-33601219D01*
X6845860Y-33827433D01*
X6710429Y-34075456D01*
X6710428Y-34075459D01*
X6611680Y-34340213D01*
X6551613Y-34616336D01*
X6531454Y-34898196D01*
X6531454Y-34898203D01*
X500Y-34898203D01*
X500Y-4656900D01*
X4448500Y-4656900D01*
X4448501Y-4656904D01*
X4463725Y-4753036D01*
X4522756Y-4868890D01*
X4522758Y-4868893D01*
X4522759Y-4868894D01*
X4614706Y-4960841D01*
X4730567Y-5019875D01*
X4730568Y-5019875D01*
X4730570Y-5019876D01*
X4778630Y-5027487D01*
X4826693Y-5035100D01*
X4864499Y-5035099D01*
X4953008Y-5055299D01*
X5023991Y-5111904D01*
X5063384Y-5193700D01*
X5068500Y-5239099D01*
X5068500Y-13781127D01*
X5067827Y-13797685D01*
X5063742Y-13847838D01*
X5074432Y-13926299D01*
X5075103Y-13931777D01*
X5083663Y-14010471D01*
X5086040Y-14021270D01*
X5085483Y-14021392D01*
X5085790Y-14022699D01*
X5086342Y-14022562D01*
X5089012Y-14033298D01*
X5116310Y-14107604D01*
X5118144Y-14112813D01*
X5143424Y-14187841D01*
X5148068Y-14197879D01*
X5147550Y-14198118D01*
X5148131Y-14199331D01*
X5148642Y-14199078D01*
X5153554Y-14208982D01*
X5196212Y-14275720D01*
X5199124Y-14280415D01*
X5239924Y-14348226D01*
X5246615Y-14357027D01*
X5246161Y-14357372D01*
X5246987Y-14358429D01*
X5247432Y-14358072D01*
X5254361Y-14366692D01*
X5310346Y-14422677D01*
X5314200Y-14426637D01*
X5355092Y-14469807D01*
X5368640Y-14484109D01*
X5377067Y-14491267D01*
X5376696Y-14491703D01*
X5392098Y-14504429D01*
X23917120Y-33029450D01*
X23965422Y-33106323D01*
X23975587Y-33196541D01*
X23945602Y-33282235D01*
X23881405Y-33346432D01*
X23795711Y-33376417D01*
X23772870Y-33377700D01*
X15515272Y-33377700D01*
X15498714Y-33377027D01*
X15448560Y-33372942D01*
X15370102Y-33383631D01*
X15364628Y-33384302D01*
X15310180Y-33390225D01*
X15285927Y-33392863D01*
X15285925Y-33392863D01*
X15285920Y-33392864D01*
X15275131Y-33395239D01*
X15275008Y-33394683D01*
X15273693Y-33394992D01*
X15273831Y-33395544D01*
X15263105Y-33398211D01*
X15188804Y-33425507D01*
X15183600Y-33427339D01*
X15108553Y-33452626D01*
X15098518Y-33457269D01*
X15098280Y-33456755D01*
X15097066Y-33457337D01*
X15097318Y-33457844D01*
X15087415Y-33462755D01*
X15020708Y-33505393D01*
X15016019Y-33508302D01*
X14948175Y-33549123D01*
X14939379Y-33555811D01*
X14939035Y-33555358D01*
X14937976Y-33556186D01*
X14938332Y-33556628D01*
X14929705Y-33563563D01*
X14873698Y-33619568D01*
X14869744Y-33623417D01*
X14812286Y-33677844D01*
X14805130Y-33686269D01*
X14804696Y-33685900D01*
X14791973Y-33701294D01*
X14284125Y-34209142D01*
X14271946Y-34220370D01*
X14233595Y-34252946D01*
X14185680Y-34315976D01*
X14182283Y-34320320D01*
X14132687Y-34382023D01*
X14126730Y-34391344D01*
X14126252Y-34391038D01*
X14125543Y-34392181D01*
X14126029Y-34392473D01*
X14120325Y-34401953D01*
X14087088Y-34473792D01*
X14084703Y-34478769D01*
X14049522Y-34549706D01*
X14045707Y-34560091D01*
X14045175Y-34559895D01*
X14044730Y-34561160D01*
X14045267Y-34561341D01*
X14041735Y-34571822D01*
X14024713Y-34649152D01*
X14023454Y-34654524D01*
X14004349Y-34731351D01*
X14002857Y-34742305D01*
X14002295Y-34742228D01*
X14002132Y-34743557D01*
X14002696Y-34743619D01*
X14001500Y-34754618D01*
X14001500Y-34833785D01*
X14001425Y-34839311D01*
X13999280Y-34918441D01*
X14000179Y-34929468D01*
X13999608Y-34929514D01*
X14001500Y-34949407D01*
X14001500Y-35753700D01*
X13981298Y-35842212D01*
X13924692Y-35913194D01*
X13842894Y-35952585D01*
X13797504Y-35957700D01*
X13759701Y-35957700D01*
X13759695Y-35957700D01*
X13759694Y-35957701D01*
X13740468Y-35960745D01*
X13663563Y-35972925D01*
X13547709Y-36031956D01*
X13455759Y-36123906D01*
X13455758Y-36123906D01*
X13396724Y-36239768D01*
X13396723Y-36239770D01*
X13381500Y-36335886D01*
X13381500Y-38540500D01*
X13381500Y-38540501D01*
X13381501Y-38540506D01*
X13383529Y-38553308D01*
X13396726Y-38636638D01*
X13399497Y-38645166D01*
X13407633Y-38735589D01*
X13399496Y-38771239D01*
X13396723Y-38779771D01*
X13381500Y-38875886D01*
X13381500Y-41080500D01*
X13381500Y-41080501D01*
X13381501Y-41080506D01*
X13386679Y-41113200D01*
X13396726Y-41176638D01*
X13399497Y-41185166D01*
X13407633Y-41275589D01*
X13399496Y-41311239D01*
X13396723Y-41319771D01*
X13381500Y-41415886D01*
X13381500Y-43620500D01*
X13381500Y-43620501D01*
X13381501Y-43620506D01*
X13383529Y-43633308D01*
X13396726Y-43716641D01*
X13399764Y-43725990D01*
X13407897Y-43816413D01*
X13399764Y-43852047D01*
X13397207Y-43859915D01*
X13382000Y-43955935D01*
X13382000Y-44558200D01*
X14826237Y-44558200D01*
X14719685Y-44573520D01*
X14588900Y-44633248D01*
X14480239Y-44727402D01*
X14402507Y-44848356D01*
X14362000Y-44986311D01*
X14362000Y-45130089D01*
X14402507Y-45268044D01*
X14480239Y-45388998D01*
X14588900Y-45483152D01*
X14719685Y-45542880D01*
X14826237Y-45558200D01*
X14897763Y-45558200D01*
X15004315Y-45542880D01*
X15135100Y-45483152D01*
X15243761Y-45388998D01*
X15321493Y-45268044D01*
X15362000Y-45130089D01*
X15362000Y-46538199D01*
X15964262Y-46538199D01*
X15964266Y-46538198D01*
X16060279Y-46522992D01*
X16175992Y-46464034D01*
X16175996Y-46464032D01*
X16267832Y-46372196D01*
X16267832Y-46372195D01*
X16326793Y-46256476D01*
X16341999Y-46160464D01*
X16341999Y-45472699D01*
X16362201Y-45384187D01*
X16418807Y-45313206D01*
X16500604Y-45273814D01*
X16545991Y-45268699D01*
X17581068Y-45268699D01*
X17669580Y-45288901D01*
X17725318Y-45328449D01*
X18261535Y-45864665D01*
X18272767Y-45876849D01*
X18305342Y-45915200D01*
X18305344Y-45915202D01*
X18368392Y-45963130D01*
X18372744Y-45966533D01*
X18434423Y-46016112D01*
X18434426Y-46016114D01*
X18434430Y-46016117D01*
X18434433Y-46016118D01*
X18443747Y-46022071D01*
X18443436Y-46022556D01*
X18444569Y-46023259D01*
X18444866Y-46022767D01*
X18454346Y-46028471D01*
X18454349Y-46028472D01*
X18454350Y-46028473D01*
X18526216Y-46061721D01*
X18531166Y-46064094D01*
X18602109Y-46099279D01*
X18612501Y-46103097D01*
X18612303Y-46103634D01*
X18613558Y-46104076D01*
X18613742Y-46103533D01*
X18624220Y-46107064D01*
X18659755Y-46114885D01*
X18701551Y-46124085D01*
X18706880Y-46125333D01*
X18783747Y-46144450D01*
X18783750Y-46144450D01*
X18794714Y-46145944D01*
X18794636Y-46146515D01*
X18795954Y-46146676D01*
X18796017Y-46146104D01*
X18807011Y-46147300D01*
X18807015Y-46147300D01*
X18886186Y-46147300D01*
X18891710Y-46147374D01*
X18897729Y-46147538D01*
X18970841Y-46149519D01*
X18970842Y-46149518D01*
X18970849Y-46149519D01*
X18970854Y-46149517D01*
X18981868Y-46148621D01*
X18981914Y-46149191D01*
X19001807Y-46147300D01*
X25161852Y-46147300D01*
X25250364Y-46167502D01*
X25316975Y-46218813D01*
X25436008Y-46358184D01*
X25436016Y-46358192D01*
X25616802Y-46512597D01*
X25616804Y-46512598D01*
X25616805Y-46512599D01*
X25819527Y-46636827D01*
X26039186Y-46727813D01*
X26231673Y-46774025D01*
X26270366Y-46783315D01*
X26270367Y-46783315D01*
X26270375Y-46783317D01*
X26488745Y-46800502D01*
X26507399Y-46801971D01*
X26507400Y-46801971D01*
X26507401Y-46801971D01*
X26524693Y-46800609D01*
X26744425Y-46783317D01*
X26975614Y-46727813D01*
X27195273Y-46636827D01*
X27397995Y-46512599D01*
X27547013Y-46385325D01*
X27627438Y-46343204D01*
X27718175Y-46340149D01*
X27801252Y-46376765D01*
X27860215Y-46445801D01*
X27883384Y-46533584D01*
X27883500Y-46540449D01*
X27883500Y-47976053D01*
X27882827Y-47992610D01*
X27878742Y-48042767D01*
X27889430Y-48121206D01*
X27890102Y-48126688D01*
X27898663Y-48205401D01*
X27901041Y-48216204D01*
X27900485Y-48216326D01*
X27900790Y-48217625D01*
X27901342Y-48217488D01*
X27904011Y-48228221D01*
X27931315Y-48302542D01*
X27933149Y-48307752D01*
X27958424Y-48382766D01*
X27963069Y-48392806D01*
X27962551Y-48393045D01*
X27963129Y-48394251D01*
X27963640Y-48393998D01*
X27968554Y-48403907D01*
X28011189Y-48470607D01*
X28014101Y-48475302D01*
X28054924Y-48543150D01*
X28061619Y-48551957D01*
X28061165Y-48552301D01*
X28061984Y-48553350D01*
X28062429Y-48552993D01*
X28069356Y-48561610D01*
X28069359Y-48561613D01*
X28069361Y-48561616D01*
X28125327Y-48617582D01*
X28129179Y-48621540D01*
X28183639Y-48679033D01*
X28183644Y-48679036D01*
X28192069Y-48686193D01*
X28191698Y-48686629D01*
X28207099Y-48699354D01*
X35537009Y-56029250D01*
X35585311Y-56106123D01*
X35595476Y-56196341D01*
X35565491Y-56282034D01*
X35501294Y-56346232D01*
X35415600Y-56376217D01*
X35392759Y-56377500D01*
X26641331Y-56377500D01*
X26552819Y-56357298D01*
X26497081Y-56317750D01*
X19739653Y-49560322D01*
X19728433Y-49548151D01*
X19695855Y-49509797D01*
X19632805Y-49461867D01*
X19628488Y-49458492D01*
X19566770Y-49408883D01*
X19557449Y-49402925D01*
X19557756Y-49402444D01*
X19556621Y-49401740D01*
X19556328Y-49402229D01*
X19546849Y-49396526D01*
X19474977Y-49363274D01*
X19469996Y-49360887D01*
X19399089Y-49325720D01*
X19388705Y-49321905D01*
X19388900Y-49321373D01*
X19387640Y-49320929D01*
X19387459Y-49321467D01*
X19376976Y-49317935D01*
X19299656Y-49300915D01*
X19294281Y-49299656D01*
X19290827Y-49298797D01*
X19217452Y-49280550D01*
X19217449Y-49280549D01*
X19217446Y-49280549D01*
X19206495Y-49279057D01*
X19206571Y-49278494D01*
X19205245Y-49278331D01*
X19205184Y-49278896D01*
X19194185Y-49277700D01*
X19194184Y-49277700D01*
X19115013Y-49277700D01*
X19109490Y-49277625D01*
X19105226Y-49277509D01*
X19080971Y-49276852D01*
X18993038Y-49254259D01*
X18923617Y-49195750D01*
X18886457Y-49112915D01*
X18882499Y-49072927D01*
X18882499Y-49035899D01*
X18882499Y-49035894D01*
X18867275Y-48939767D01*
X18867274Y-48939765D01*
X18867274Y-48939763D01*
X18808243Y-48823909D01*
X18808241Y-48823906D01*
X18716293Y-48731958D01*
X18600431Y-48672924D01*
X18600429Y-48672923D01*
X18504308Y-48657700D01*
X16299699Y-48657700D01*
X16299695Y-48657700D01*
X16299694Y-48657701D01*
X16280468Y-48660745D01*
X16203563Y-48672925D01*
X16087709Y-48731956D01*
X15995759Y-48823906D01*
X15995758Y-48823906D01*
X15936724Y-48939768D01*
X15936723Y-48939770D01*
X15921500Y-49035886D01*
X15921500Y-49724200D01*
X15901298Y-49812712D01*
X15844692Y-49883694D01*
X15762894Y-49923085D01*
X15717500Y-49928200D01*
X15362000Y-49928200D01*
X15362000Y-51336311D01*
X15321493Y-51198356D01*
X15243761Y-51077402D01*
X15135100Y-50983248D01*
X15004315Y-50923520D01*
X14897763Y-50908200D01*
X14826237Y-50908200D01*
X14719685Y-50923520D01*
X14588900Y-50983248D01*
X14480239Y-51077402D01*
X14402507Y-51198356D01*
X14362000Y-51336311D01*
X14362000Y-51480089D01*
X14402507Y-51618044D01*
X14480239Y-51738998D01*
X14588900Y-51833152D01*
X14719685Y-51892880D01*
X14826237Y-51908200D01*
X13382001Y-51908200D01*
X13382001Y-52510466D01*
X13397207Y-52606480D01*
X13399763Y-52614347D01*
X13407899Y-52704770D01*
X13399762Y-52740419D01*
X13396724Y-52749769D01*
X13381500Y-52845886D01*
X13381500Y-55050500D01*
X13381500Y-55050501D01*
X13381501Y-55050506D01*
X13396725Y-55146633D01*
X13396726Y-55146638D01*
X13399497Y-55155166D01*
X13407633Y-55245589D01*
X13399496Y-55281239D01*
X13396723Y-55289771D01*
X13381500Y-55385886D01*
X13381500Y-57590500D01*
X13381500Y-57590501D01*
X13381501Y-57590506D01*
X13396725Y-57686633D01*
X13396726Y-57686638D01*
X13399497Y-57695166D01*
X13407633Y-57785589D01*
X13399496Y-57821239D01*
X13396723Y-57829771D01*
X13381500Y-57925886D01*
X13381500Y-60130500D01*
X13381501Y-60130504D01*
X13396725Y-60226636D01*
X13455756Y-60342490D01*
X13455759Y-60342494D01*
X13547706Y-60434441D01*
X13663567Y-60493475D01*
X13663568Y-60493475D01*
X13663570Y-60493476D01*
X13705329Y-60500089D01*
X13759693Y-60508700D01*
X15041068Y-60508699D01*
X15129580Y-60528901D01*
X15185318Y-60568449D01*
X17195160Y-62578291D01*
X17672735Y-63055865D01*
X17683967Y-63068049D01*
X17716542Y-63106400D01*
X17716544Y-63106402D01*
X17779592Y-63154330D01*
X17783944Y-63157733D01*
X17845623Y-63207312D01*
X17845626Y-63207314D01*
X17845630Y-63207317D01*
X17845633Y-63207318D01*
X17854947Y-63213271D01*
X17854636Y-63213756D01*
X17855769Y-63214459D01*
X17856066Y-63213967D01*
X17865546Y-63219671D01*
X17865549Y-63219672D01*
X17865550Y-63219673D01*
X17937416Y-63252921D01*
X17942366Y-63255294D01*
X18013309Y-63290479D01*
X18023701Y-63294297D01*
X18023503Y-63294834D01*
X18024758Y-63295276D01*
X18024942Y-63294733D01*
X18035420Y-63298264D01*
X18070955Y-63306085D01*
X18112751Y-63315285D01*
X18118080Y-63316533D01*
X18194947Y-63335650D01*
X18194950Y-63335650D01*
X18205914Y-63337144D01*
X18205836Y-63337715D01*
X18207154Y-63337876D01*
X18207217Y-63337304D01*
X18218211Y-63338500D01*
X18218215Y-63338500D01*
X18297386Y-63338500D01*
X18302910Y-63338574D01*
X18308929Y-63338738D01*
X18382041Y-63340719D01*
X18382042Y-63340718D01*
X18382049Y-63340719D01*
X18382054Y-63340717D01*
X18393068Y-63339821D01*
X18393114Y-63340391D01*
X18413007Y-63338500D01*
X65032328Y-63338500D01*
X65048885Y-63339172D01*
X65099039Y-63343257D01*
X65177535Y-63332561D01*
X65182938Y-63331899D01*
X65261673Y-63323337D01*
X65261674Y-63323336D01*
X65272481Y-63320958D01*
X65272605Y-63321521D01*
X65273902Y-63321217D01*
X65273763Y-63320657D01*
X65284496Y-63317988D01*
X65288432Y-63316542D01*
X65358858Y-63290668D01*
X65363968Y-63288869D01*
X65439045Y-63263574D01*
X65439054Y-63263568D01*
X65449090Y-63258926D01*
X65449333Y-63259451D01*
X65450532Y-63258876D01*
X65450275Y-63258358D01*
X65460173Y-63253448D01*
X65460185Y-63253444D01*
X65523034Y-63213271D01*
X65526931Y-63210780D01*
X65531566Y-63207904D01*
X65599423Y-63167077D01*
X65599429Y-63167070D01*
X65608227Y-63160384D01*
X65608576Y-63160843D01*
X65609630Y-63160019D01*
X65609269Y-63159570D01*
X65617886Y-63152643D01*
X65617891Y-63152640D01*
X65673912Y-63096617D01*
X65677839Y-63092797D01*
X65735304Y-63038365D01*
X65735304Y-63038363D01*
X65735308Y-63038361D01*
X65735310Y-63038357D01*
X65742465Y-63029934D01*
X65742902Y-63030305D01*
X65755626Y-63014903D01*
X95030281Y-33740248D01*
X95042455Y-33729027D01*
X95080804Y-33696454D01*
X95125009Y-33638302D01*
X95128753Y-33633377D01*
X95132113Y-33629080D01*
X95181717Y-33567370D01*
X95181718Y-33567367D01*
X95187677Y-33558046D01*
X95188162Y-33558356D01*
X95188865Y-33557223D01*
X95188371Y-33556926D01*
X95194072Y-33547451D01*
X95194071Y-33547451D01*
X95194073Y-33547450D01*
X95227354Y-33475511D01*
X95229654Y-33470709D01*
X95264879Y-33399690D01*
X95264880Y-33399682D01*
X95268697Y-33389298D01*
X95269236Y-33389496D01*
X95269677Y-33388241D01*
X95269133Y-33388058D01*
X95272664Y-33377578D01*
X95272786Y-33377027D01*
X95289683Y-33300254D01*
X95290931Y-33294925D01*
X95310050Y-33218052D01*
X95310050Y-33218044D01*
X95311544Y-33207086D01*
X95312115Y-33207163D01*
X95312276Y-33205849D01*
X95311703Y-33205787D01*
X95312900Y-33194782D01*
X95312900Y-33115613D01*
X95312975Y-33110087D01*
X95315119Y-33030949D01*
X95314222Y-33019926D01*
X95314790Y-33019879D01*
X95312900Y-32999990D01*
X95312900Y-19675371D01*
X95313573Y-19658813D01*
X95317657Y-19608660D01*
X95316005Y-19596543D01*
X95306959Y-19530149D01*
X95306294Y-19524713D01*
X95297737Y-19446027D01*
X95295358Y-19435218D01*
X95295918Y-19435094D01*
X95295616Y-19433806D01*
X95295060Y-19433945D01*
X95292390Y-19423209D01*
X95292389Y-19423205D01*
X95265075Y-19348860D01*
X95263253Y-19343683D01*
X95237975Y-19268659D01*
X95237974Y-19268655D01*
X95237970Y-19268648D01*
X95233329Y-19258616D01*
X95233846Y-19258376D01*
X95233269Y-19257171D01*
X95232758Y-19257425D01*
X95227845Y-19247519D01*
X95227844Y-19247516D01*
X95185202Y-19180803D01*
X95182292Y-19176111D01*
X95141476Y-19108275D01*
X95134784Y-19099472D01*
X95135238Y-19099126D01*
X95134412Y-19098069D01*
X95133967Y-19098427D01*
X95127039Y-19089808D01*
X95071052Y-19033821D01*
X95067199Y-19029862D01*
X95066716Y-19029352D01*
X95012761Y-18972392D01*
X95012756Y-18972388D01*
X95004331Y-18965232D01*
X95004700Y-18964796D01*
X94989302Y-18952071D01*
X93703267Y-17666036D01*
X93654965Y-17589163D01*
X93644800Y-17498945D01*
X93674785Y-17413251D01*
X93738982Y-17349054D01*
X93752709Y-17341265D01*
X93753294Y-17340841D01*
X93845241Y-17248894D01*
X93904275Y-17133033D01*
X93919500Y-17036907D01*
X93919499Y-14832294D01*
X93904275Y-14736167D01*
X93904274Y-14736165D01*
X93904274Y-14736163D01*
X93845243Y-14620309D01*
X93845241Y-14620306D01*
X93753293Y-14528358D01*
X93637431Y-14469324D01*
X93637429Y-14469323D01*
X93541308Y-14454100D01*
X91336699Y-14454100D01*
X91336697Y-14454100D01*
X91336694Y-14454101D01*
X91258448Y-14466493D01*
X91240560Y-14469326D01*
X91232030Y-14472098D01*
X91141607Y-14480233D01*
X91105958Y-14472095D01*
X91097429Y-14469323D01*
X91001308Y-14454100D01*
X88796699Y-14454100D01*
X88796697Y-14454100D01*
X88796694Y-14454101D01*
X88718448Y-14466493D01*
X88700560Y-14469326D01*
X88691211Y-14472364D01*
X88600788Y-14480499D01*
X88565138Y-14472361D01*
X88557276Y-14469806D01*
X88461264Y-14454600D01*
X87859000Y-14454600D01*
X87859000Y-15862711D01*
X87818493Y-15724756D01*
X87740761Y-15603802D01*
X87632100Y-15509648D01*
X87501315Y-15449920D01*
X87394763Y-15434600D01*
X87323237Y-15434600D01*
X87216685Y-15449920D01*
X87085900Y-15509648D01*
X86977239Y-15603802D01*
X86899507Y-15724756D01*
X86859000Y-15862711D01*
X86859000Y-14454600D01*
X86256738Y-14454600D01*
X86256733Y-14454601D01*
X86160720Y-14469807D01*
X86152850Y-14472364D01*
X86062427Y-14480499D01*
X86026778Y-14472361D01*
X86017431Y-14469324D01*
X85921313Y-14454100D01*
X85921307Y-14454100D01*
X85797500Y-14454100D01*
X85708988Y-14433898D01*
X85638006Y-14377292D01*
X85598615Y-14295494D01*
X85593500Y-14250100D01*
X85593500Y-5239099D01*
X85613702Y-5150587D01*
X85670308Y-5079605D01*
X85752106Y-5040214D01*
X85797500Y-5035099D01*
X85835301Y-5035099D01*
X85835306Y-5035099D01*
X85931433Y-5019875D01*
X85931434Y-5019874D01*
X85931436Y-5019874D01*
X86047290Y-4960843D01*
X86047294Y-4960841D01*
X86139241Y-4868894D01*
X86198275Y-4753033D01*
X86199404Y-4745908D01*
X86213499Y-4656913D01*
X86213500Y-4656907D01*
X86213499Y-2452294D01*
X86198275Y-2356167D01*
X86198274Y-2356165D01*
X86198274Y-2356163D01*
X86139243Y-2240309D01*
X86139241Y-2240306D01*
X86047293Y-2148358D01*
X85931431Y-2089324D01*
X85931429Y-2089323D01*
X85835308Y-2074100D01*
X83630699Y-2074100D01*
X83630697Y-2074100D01*
X83630694Y-2074101D01*
X83552448Y-2086493D01*
X83534560Y-2089326D01*
X83526030Y-2092098D01*
X83435607Y-2100233D01*
X83399958Y-2092095D01*
X83391429Y-2089323D01*
X83295308Y-2074100D01*
X81090699Y-2074100D01*
X81090697Y-2074100D01*
X81090694Y-2074101D01*
X81012448Y-2086493D01*
X80994560Y-2089326D01*
X80986030Y-2092098D01*
X80895607Y-2100233D01*
X80859958Y-2092095D01*
X80851429Y-2089323D01*
X80755308Y-2074100D01*
X78550699Y-2074100D01*
X78550697Y-2074100D01*
X78550694Y-2074101D01*
X78472448Y-2086493D01*
X78454560Y-2089326D01*
X78446030Y-2092098D01*
X78355607Y-2100233D01*
X78319958Y-2092095D01*
X78311429Y-2089323D01*
X78215308Y-2074100D01*
X76010699Y-2074100D01*
X76010697Y-2074100D01*
X76010694Y-2074101D01*
X75932448Y-2086493D01*
X75914560Y-2089326D01*
X75906030Y-2092098D01*
X75815607Y-2100233D01*
X75779958Y-2092095D01*
X75771429Y-2089323D01*
X75675308Y-2074100D01*
X73470699Y-2074100D01*
X73470697Y-2074100D01*
X73470694Y-2074101D01*
X73392448Y-2086493D01*
X73374560Y-2089326D01*
X73366030Y-2092098D01*
X73275607Y-2100233D01*
X73239958Y-2092095D01*
X73231429Y-2089323D01*
X73135308Y-2074100D01*
X70930699Y-2074100D01*
X70930697Y-2074100D01*
X70930694Y-2074101D01*
X70852448Y-2086493D01*
X70834560Y-2089326D01*
X70826030Y-2092098D01*
X70735607Y-2100233D01*
X70699958Y-2092095D01*
X70691429Y-2089323D01*
X70595308Y-2074100D01*
X68390699Y-2074100D01*
X68390697Y-2074100D01*
X68390694Y-2074101D01*
X68312448Y-2086493D01*
X68294560Y-2089326D01*
X68286030Y-2092098D01*
X68195607Y-2100233D01*
X68159958Y-2092095D01*
X68151429Y-2089323D01*
X68055308Y-2074100D01*
X65850699Y-2074100D01*
X65850695Y-2074100D01*
X65850694Y-2074101D01*
X65831468Y-2077145D01*
X65754563Y-2089325D01*
X65638709Y-2148356D01*
X65546759Y-2240306D01*
X65546758Y-2240306D01*
X65487724Y-2356168D01*
X65487723Y-2356170D01*
X65472500Y-2452286D01*
X65472500Y-4656900D01*
X65472501Y-4656904D01*
X65487725Y-4753036D01*
X65546756Y-4868890D01*
X65546758Y-4868893D01*
X65546759Y-4868894D01*
X65638706Y-4960841D01*
X65754567Y-5019875D01*
X65754568Y-5019875D01*
X65754570Y-5019876D01*
X65796329Y-5026489D01*
X65850693Y-5035100D01*
X65974500Y-5035099D01*
X66063011Y-5055301D01*
X66133993Y-5111906D01*
X66173385Y-5193703D01*
X66178500Y-5239099D01*
X66178500Y-14250100D01*
X66158298Y-14338612D01*
X66101692Y-14409594D01*
X66019894Y-14448985D01*
X65974504Y-14454100D01*
X65936701Y-14454100D01*
X65936697Y-14454100D01*
X65936694Y-14454101D01*
X65858448Y-14466493D01*
X65840560Y-14469326D01*
X65832030Y-14472098D01*
X65741607Y-14480233D01*
X65705958Y-14472095D01*
X65697429Y-14469323D01*
X65601308Y-14454100D01*
X63396699Y-14454100D01*
X63396697Y-14454100D01*
X63396694Y-14454101D01*
X63318448Y-14466493D01*
X63300560Y-14469326D01*
X63292030Y-14472098D01*
X63201607Y-14480233D01*
X63165958Y-14472095D01*
X63157429Y-14469323D01*
X63061308Y-14454100D01*
X60856699Y-14454100D01*
X60856697Y-14454100D01*
X60856694Y-14454101D01*
X60778448Y-14466493D01*
X60760560Y-14469326D01*
X60752030Y-14472098D01*
X60661607Y-14480233D01*
X60625958Y-14472095D01*
X60617429Y-14469323D01*
X60521313Y-14454100D01*
X60521307Y-14454100D01*
X60422900Y-14454100D01*
X60334388Y-14433898D01*
X60263406Y-14377292D01*
X60224015Y-14295494D01*
X60218900Y-14250100D01*
X60218900Y-5467699D01*
X60239102Y-5379187D01*
X60295708Y-5308205D01*
X60377506Y-5268814D01*
X60422900Y-5263699D01*
X60460701Y-5263699D01*
X60460706Y-5263699D01*
X60556833Y-5248475D01*
X60556834Y-5248474D01*
X60556836Y-5248474D01*
X60672690Y-5189443D01*
X60672694Y-5189441D01*
X60764641Y-5097494D01*
X60823675Y-4981633D01*
X60834878Y-4910904D01*
X60838899Y-4885513D01*
X60838900Y-4885507D01*
X60838899Y-2680894D01*
X60823675Y-2584767D01*
X60823674Y-2584765D01*
X60823674Y-2584763D01*
X60764643Y-2468909D01*
X60764641Y-2468906D01*
X60672693Y-2376958D01*
X60556831Y-2317924D01*
X60556829Y-2317923D01*
X60460708Y-2302700D01*
X58256099Y-2302700D01*
X58256097Y-2302700D01*
X58256094Y-2302701D01*
X58177848Y-2315093D01*
X58159960Y-2317926D01*
X58150611Y-2320964D01*
X58060188Y-2329099D01*
X58024538Y-2320961D01*
X58016676Y-2318406D01*
X57920664Y-2303200D01*
X57318400Y-2303200D01*
X57318400Y-3711311D01*
X57277893Y-3573356D01*
X57200161Y-3452402D01*
X57091500Y-3358248D01*
X56960715Y-3298520D01*
X56854163Y-3283200D01*
X56782637Y-3283200D01*
X56676085Y-3298520D01*
X56545300Y-3358248D01*
X56436639Y-3452402D01*
X56358907Y-3573356D01*
X56318400Y-3711311D01*
X56318400Y-2303200D01*
X55716138Y-2303200D01*
X55716133Y-2303201D01*
X55620120Y-2318407D01*
X55612250Y-2320964D01*
X55521827Y-2329099D01*
X55486178Y-2320961D01*
X55476831Y-2317924D01*
X55380708Y-2302700D01*
X53176099Y-2302700D01*
X53176095Y-2302700D01*
X53176094Y-2302701D01*
X53156868Y-2305745D01*
X53079963Y-2317925D01*
X52964109Y-2376956D01*
X52872159Y-2468906D01*
X52872158Y-2468906D01*
X52813124Y-2584768D01*
X52813123Y-2584770D01*
X52797900Y-2680886D01*
X52797900Y-3962268D01*
X52777698Y-4050780D01*
X52738150Y-4106518D01*
X50095519Y-6749150D01*
X50018646Y-6797452D01*
X49951269Y-6808900D01*
X40529472Y-6808900D01*
X40512914Y-6808227D01*
X40462760Y-6804142D01*
X40384282Y-6814834D01*
X40378806Y-6815505D01*
X40300123Y-6824063D01*
X40289328Y-6826440D01*
X40289205Y-6825885D01*
X40287900Y-6826191D01*
X40288037Y-6826742D01*
X40277303Y-6829411D01*
X40202987Y-6856713D01*
X40197817Y-6858534D01*
X40122755Y-6883826D01*
X40122753Y-6883826D01*
X40122747Y-6883829D01*
X40112716Y-6888470D01*
X40112477Y-6887955D01*
X40111272Y-6888532D01*
X40111525Y-6889041D01*
X40101619Y-6893954D01*
X40101616Y-6893956D01*
X40034894Y-6936602D01*
X40030226Y-6939497D01*
X39962374Y-6980323D01*
X39953572Y-6987015D01*
X39953228Y-6986563D01*
X39952176Y-6987386D01*
X39952532Y-6987828D01*
X39943905Y-6994763D01*
X39887898Y-7050768D01*
X39883944Y-7054617D01*
X39826486Y-7109044D01*
X39819330Y-7117469D01*
X39818896Y-7117100D01*
X39806173Y-7132494D01*
X39366125Y-7572542D01*
X39353946Y-7583770D01*
X39315595Y-7616346D01*
X39267680Y-7679376D01*
X39264283Y-7683720D01*
X39214687Y-7745423D01*
X39208730Y-7754744D01*
X39208252Y-7754438D01*
X39207543Y-7755581D01*
X39208029Y-7755873D01*
X39202325Y-7765353D01*
X39169088Y-7837192D01*
X39166703Y-7842169D01*
X39131522Y-7913106D01*
X39127707Y-7923491D01*
X39127175Y-7923295D01*
X39126730Y-7924560D01*
X39127267Y-7924741D01*
X39123735Y-7935222D01*
X39106713Y-8012552D01*
X39105454Y-8017924D01*
X39086349Y-8094751D01*
X39084857Y-8105705D01*
X39084295Y-8105628D01*
X39084132Y-8106957D01*
X39084696Y-8107019D01*
X39083500Y-8118018D01*
X39083500Y-8197185D01*
X39083425Y-8202711D01*
X39081280Y-8281841D01*
X39082179Y-8292868D01*
X39081608Y-8292914D01*
X39083500Y-8312807D01*
X39083500Y-10174869D01*
X39063298Y-10263381D01*
X39023750Y-10319119D01*
X38047119Y-11295750D01*
X37970246Y-11344052D01*
X37902869Y-11355500D01*
X28395099Y-11355500D01*
X28306587Y-11335298D01*
X28235605Y-11278692D01*
X28196214Y-11196894D01*
X28191099Y-11151500D01*
X28191099Y-11113699D01*
X28191099Y-11113694D01*
X28175875Y-11017567D01*
X28175872Y-11017561D01*
X28173105Y-11009044D01*
X28164965Y-10918621D01*
X28173106Y-10882952D01*
X28175872Y-10874438D01*
X28175875Y-10874433D01*
X28191100Y-10778307D01*
X28191099Y-8573694D01*
X28175875Y-8477567D01*
X28175874Y-8477565D01*
X28175874Y-8477563D01*
X28116843Y-8361709D01*
X28116841Y-8361706D01*
X28024893Y-8269758D01*
X27909031Y-8210724D01*
X27909029Y-8210723D01*
X27812913Y-8195500D01*
X27812907Y-8195500D01*
X27775100Y-8195500D01*
X27686588Y-8175298D01*
X27615606Y-8118692D01*
X27576215Y-8036894D01*
X27571100Y-7991500D01*
X27571100Y-7449931D01*
X27591302Y-7361419D01*
X27630850Y-7305681D01*
X30207681Y-4728850D01*
X30284554Y-4680548D01*
X30351931Y-4669100D01*
X41900501Y-4669100D01*
X41989013Y-4689302D01*
X42059995Y-4745908D01*
X42099386Y-4827706D01*
X42104501Y-4873100D01*
X42104501Y-4910904D01*
X42119725Y-5007036D01*
X42178756Y-5122890D01*
X42178758Y-5122893D01*
X42178759Y-5122894D01*
X42270706Y-5214841D01*
X42386567Y-5273875D01*
X42386568Y-5273875D01*
X42386570Y-5273876D01*
X42428329Y-5280489D01*
X42482693Y-5289100D01*
X44687306Y-5289099D01*
X44783433Y-5273875D01*
X44783438Y-5273872D01*
X44791953Y-5271106D01*
X44882376Y-5262964D01*
X44918045Y-5271106D01*
X44926563Y-5273874D01*
X44926565Y-5273874D01*
X44926567Y-5273875D01*
X45022693Y-5289100D01*
X47227306Y-5289099D01*
X47323433Y-5273875D01*
X47323434Y-5273874D01*
X47323436Y-5273874D01*
X47439290Y-5214843D01*
X47439294Y-5214841D01*
X47531241Y-5122894D01*
X47590275Y-5007033D01*
X47594299Y-4981631D01*
X47605499Y-4910913D01*
X47605500Y-4910903D01*
X47605500Y-4873100D01*
X47625702Y-4784588D01*
X47682308Y-4713606D01*
X47764106Y-4674215D01*
X47809500Y-4669100D01*
X47987215Y-4669100D01*
X48284652Y-4669100D01*
X48373164Y-4689302D01*
X48439775Y-4740613D01*
X48558808Y-4879984D01*
X48558816Y-4879992D01*
X48739602Y-5034397D01*
X48739604Y-5034398D01*
X48739605Y-5034399D01*
X48749094Y-5040214D01*
X48942327Y-5158627D01*
X49159238Y-5248475D01*
X49161986Y-5249613D01*
X49326452Y-5289098D01*
X49393166Y-5305115D01*
X49393167Y-5305115D01*
X49393175Y-5305117D01*
X49611545Y-5322302D01*
X49630199Y-5323771D01*
X49630200Y-5323771D01*
X49630201Y-5323771D01*
X49647493Y-5322409D01*
X49867225Y-5305117D01*
X50098414Y-5249613D01*
X50318073Y-5158627D01*
X50520795Y-5034399D01*
X50701588Y-4879988D01*
X50855999Y-4699195D01*
X50980227Y-4496473D01*
X51071213Y-4276814D01*
X51126717Y-4045625D01*
X51145371Y-3808600D01*
X51126717Y-3571575D01*
X51071213Y-3340386D01*
X51053871Y-3298520D01*
X50980227Y-3120727D01*
X50952691Y-3075793D01*
X50855999Y-2918005D01*
X50855998Y-2918004D01*
X50855997Y-2918002D01*
X50701592Y-2737216D01*
X50701583Y-2737207D01*
X50520797Y-2582802D01*
X50318072Y-2458572D01*
X50098418Y-2367588D01*
X49867233Y-2312084D01*
X49867225Y-2312083D01*
X49630201Y-2293429D01*
X49630199Y-2293429D01*
X49393174Y-2312083D01*
X49393166Y-2312084D01*
X49161981Y-2367588D01*
X48942327Y-2458572D01*
X48739602Y-2582802D01*
X48558816Y-2737207D01*
X48558808Y-2737215D01*
X48439775Y-2876587D01*
X48366930Y-2930772D01*
X48284652Y-2948100D01*
X47809499Y-2948100D01*
X47720987Y-2927898D01*
X47650005Y-2871292D01*
X47610614Y-2789494D01*
X47605499Y-2744100D01*
X47605499Y-2706299D01*
X47605499Y-2706294D01*
X47590275Y-2610167D01*
X47590274Y-2610165D01*
X47590274Y-2610163D01*
X47531243Y-2494309D01*
X47531241Y-2494306D01*
X47439293Y-2402358D01*
X47323431Y-2343324D01*
X47323429Y-2343323D01*
X47227308Y-2328100D01*
X45022699Y-2328100D01*
X45022697Y-2328100D01*
X45022694Y-2328101D01*
X44944448Y-2340493D01*
X44926560Y-2343326D01*
X44918030Y-2346098D01*
X44827607Y-2354233D01*
X44791958Y-2346095D01*
X44783429Y-2343323D01*
X44687308Y-2328100D01*
X42482699Y-2328100D01*
X42482695Y-2328100D01*
X42482694Y-2328101D01*
X42463468Y-2331145D01*
X42386563Y-2343325D01*
X42270709Y-2402356D01*
X42178759Y-2494306D01*
X42178758Y-2494306D01*
X42119724Y-2610168D01*
X42119723Y-2610170D01*
X42104500Y-2706286D01*
X42104500Y-2744100D01*
X42084298Y-2832612D01*
X42027692Y-2903594D01*
X41945894Y-2942985D01*
X41900500Y-2948100D01*
X29954272Y-2948100D01*
X29937714Y-2947427D01*
X29887560Y-2943342D01*
X29809102Y-2954031D01*
X29803628Y-2954702D01*
X29747927Y-2960761D01*
X29724927Y-2963263D01*
X29724925Y-2963263D01*
X29724920Y-2963264D01*
X29714131Y-2965639D01*
X29714008Y-2965083D01*
X29712693Y-2965392D01*
X29712831Y-2965944D01*
X29702105Y-2968611D01*
X29627804Y-2995907D01*
X29622600Y-2997739D01*
X29547553Y-3023026D01*
X29537518Y-3027669D01*
X29537280Y-3027155D01*
X29536066Y-3027737D01*
X29536318Y-3028244D01*
X29526415Y-3033155D01*
X29459708Y-3075793D01*
X29455019Y-3078702D01*
X29387175Y-3119523D01*
X29378379Y-3126211D01*
X29378035Y-3125758D01*
X29376976Y-3126586D01*
X29377332Y-3127028D01*
X29368705Y-3133963D01*
X29312698Y-3189968D01*
X29308744Y-3193817D01*
X29251286Y-3248244D01*
X29244130Y-3256669D01*
X29243696Y-3256300D01*
X29230973Y-3271694D01*
X26132725Y-6369942D01*
X26120546Y-6381170D01*
X26082195Y-6413746D01*
X26034280Y-6476776D01*
X26030883Y-6481120D01*
X25981287Y-6542823D01*
X25975330Y-6552144D01*
X25974852Y-6551838D01*
X25974143Y-6552981D01*
X25974629Y-6553273D01*
X25968925Y-6562753D01*
X25935688Y-6634592D01*
X25933303Y-6639569D01*
X25898122Y-6710506D01*
X25894307Y-6720891D01*
X25893775Y-6720695D01*
X25893330Y-6721960D01*
X25893867Y-6722141D01*
X25890335Y-6732622D01*
X25873313Y-6809952D01*
X25872054Y-6815324D01*
X25852949Y-6892151D01*
X25851457Y-6903105D01*
X25850895Y-6903028D01*
X25850732Y-6904357D01*
X25851296Y-6904419D01*
X25850100Y-6915418D01*
X25850100Y-6994585D01*
X25850025Y-7000111D01*
X25847880Y-7079241D01*
X25848779Y-7090268D01*
X25848208Y-7090314D01*
X25850100Y-7110207D01*
X25850100Y-7991500D01*
X25829898Y-8080012D01*
X25773292Y-8150994D01*
X25691494Y-8190385D01*
X25646104Y-8195500D01*
X25608301Y-8195500D01*
X25608295Y-8195500D01*
X25608294Y-8195501D01*
X25597661Y-8197185D01*
X25512163Y-8210725D01*
X25396309Y-8269756D01*
X25304359Y-8361706D01*
X25304358Y-8361706D01*
X25245324Y-8477568D01*
X25245323Y-8477570D01*
X25230100Y-8573686D01*
X25230100Y-10778300D01*
X25230100Y-10778301D01*
X25230101Y-10778306D01*
X25245325Y-10874430D01*
X25245326Y-10874438D01*
X25248097Y-10882966D01*
X25256233Y-10973389D01*
X25248096Y-11009039D01*
X25245323Y-11017571D01*
X25230100Y-11113686D01*
X25230100Y-13247069D01*
X25209898Y-13335581D01*
X25153292Y-13406563D01*
X25071494Y-13445954D01*
X24980706Y-13445954D01*
X24898908Y-13406563D01*
X24881850Y-13391319D01*
X24629250Y-13138719D01*
X24580948Y-13061846D01*
X24569500Y-12994469D01*
X24569500Y-5239099D01*
X24589702Y-5150587D01*
X24646308Y-5079605D01*
X24728106Y-5040214D01*
X24773500Y-5035099D01*
X24811301Y-5035099D01*
X24811306Y-5035099D01*
X24907433Y-5019875D01*
X24907434Y-5019874D01*
X24907436Y-5019874D01*
X25023290Y-4960843D01*
X25023294Y-4960841D01*
X25115241Y-4868894D01*
X25174275Y-4753033D01*
X25175404Y-4745908D01*
X25189499Y-4656913D01*
X25189500Y-4656907D01*
X25189499Y-2452294D01*
X25174275Y-2356167D01*
X25174274Y-2356165D01*
X25174274Y-2356163D01*
X25115243Y-2240309D01*
X25115241Y-2240306D01*
X25023293Y-2148358D01*
X24907431Y-2089324D01*
X24907429Y-2089323D01*
X24811308Y-2074100D01*
X22606699Y-2074100D01*
X22606697Y-2074100D01*
X22606694Y-2074101D01*
X22528448Y-2086493D01*
X22510560Y-2089326D01*
X22502030Y-2092098D01*
X22411607Y-2100233D01*
X22375958Y-2092095D01*
X22367429Y-2089323D01*
X22271308Y-2074100D01*
X20066699Y-2074100D01*
X20066697Y-2074100D01*
X20066694Y-2074101D01*
X19988448Y-2086493D01*
X19970560Y-2089326D01*
X19962030Y-2092098D01*
X19871607Y-2100233D01*
X19835958Y-2092095D01*
X19827429Y-2089323D01*
X19731308Y-2074100D01*
X17526699Y-2074100D01*
X17526697Y-2074100D01*
X17526694Y-2074101D01*
X17448448Y-2086493D01*
X17430560Y-2089326D01*
X17422030Y-2092098D01*
X17331607Y-2100233D01*
X17295958Y-2092095D01*
X17287429Y-2089323D01*
X17191308Y-2074100D01*
X14986699Y-2074100D01*
X14986697Y-2074100D01*
X14986694Y-2074101D01*
X14908448Y-2086493D01*
X14890560Y-2089326D01*
X14882030Y-2092098D01*
X14791607Y-2100233D01*
X14755958Y-2092095D01*
X14747429Y-2089323D01*
X14651308Y-2074100D01*
X12446699Y-2074100D01*
X12446697Y-2074100D01*
X12446694Y-2074101D01*
X12368448Y-2086493D01*
X12350560Y-2089326D01*
X12342030Y-2092098D01*
X12251607Y-2100233D01*
X12215958Y-2092095D01*
X12207429Y-2089323D01*
X12111308Y-2074100D01*
X9906699Y-2074100D01*
X9906697Y-2074100D01*
X9906694Y-2074101D01*
X9828448Y-2086493D01*
X9810560Y-2089326D01*
X9802030Y-2092098D01*
X9711607Y-2100233D01*
X9675958Y-2092095D01*
X9667429Y-2089323D01*
X9571308Y-2074100D01*
X7366699Y-2074100D01*
X7366697Y-2074100D01*
X7366694Y-2074101D01*
X7288448Y-2086493D01*
X7270560Y-2089326D01*
X7262030Y-2092098D01*
X7171607Y-2100233D01*
X7135958Y-2092095D01*
X7127429Y-2089323D01*
X7031308Y-2074100D01*
X4826699Y-2074100D01*
X4826695Y-2074100D01*
X4826694Y-2074101D01*
X4807468Y-2077145D01*
X4730563Y-2089325D01*
X4614709Y-2148356D01*
X4522759Y-2240306D01*
X4522758Y-2240306D01*
X4463724Y-2356168D01*
X4463723Y-2356170D01*
X4448500Y-2452286D01*
X4448500Y-4656900D01*
X500Y-4656900D01*
X500Y-204500D01*
X20702Y-115988D01*
X77308Y-45006D01*
X159106Y-5615D01*
X204500Y-500D01*
X96795500Y-500D01*
X96884012Y-20702D01*
G37*
%TD.AperFunction*%
%TD*%
M02*
