M48
; DRILL file {KiCad 7.0.10} date Fri Mar 29 20:45:00 2024
; FORMAT={-:-/ absolute / metric / decimal}
; #@! TF.CreationDate,2024-03-29T20:45:00-06:00
; #@! TF.GenerationSoftware,Kicad,Pcbnew,7.0.10
; #@! TF.FileFunction,Plated,1,2,PTH
FMAT,2
METRIC
; #@! TA.AperFunction,Plated,PTH,ViaDrill
T1C1.000
; #@! TA.AperFunction,Plated,PTH,ComponentDrill
T2C1.000
%
G90
G05
T1
X6.831Y-16.268
X6.835Y-8.87
T2
X3.08Y-10.922
X3.08Y-13.462
X6.833Y-19.304
X6.833Y-22.352
X9.405Y-8.362
X9.405Y-16.302
X11.833Y-19.304
X11.833Y-22.352
X11.945Y-8.362
X11.945Y-16.302
X12.71Y-5.766
X14.485Y-8.362
X14.485Y-16.302
X16.246Y-2.23
X16.47Y-23.343
X17.025Y-8.362
X17.025Y-16.302
X18.898Y-2.261
X19.09Y-20.285
X20.574Y-11.927
X20.574Y-16.927
X24.09Y-20.285
X24.09Y-23.343
X24.638Y-11.938
X24.638Y-16.938
X26.518Y-2.261
X29.38Y-8.636
X29.38Y-16.256
X31.92Y-8.636
X31.92Y-16.256
X34.46Y-8.636
X34.46Y-16.256
X37.0Y-8.636
X37.0Y-16.256
X39.54Y-8.636
X39.54Y-16.256
X42.08Y-8.636
X42.08Y-16.256
X44.62Y-8.636
X44.62Y-16.256
X47.16Y-8.636
X47.16Y-16.256
X54.077Y-2.779
X54.077Y-5.319
X54.077Y-7.859
X54.077Y-10.399
X54.077Y-12.939
X54.077Y-15.479
X54.077Y-18.019
X54.077Y-20.559
X54.077Y-23.099
M30
