M48
; DRILL file {KiCad 7.0.10} date Sun Mar 10 17:31:59 2024
; FORMAT={-:-/ absolute / metric / decimal}
; #@! TF.CreationDate,2024-03-10T17:31:59-06:00
; #@! TF.GenerationSoftware,Kicad,Pcbnew,7.0.10
; #@! TF.FileFunction,Plated,1,2,PTH
FMAT,2
METRIC
; #@! TA.AperFunction,Plated,PTH,ViaDrill
T1C1.000
; #@! TA.AperFunction,Plated,PTH,ComponentDrill
T2C1.000
%
G90
G05
T1
X7.874Y-10.922
X7.874Y-18.354
T2
X4.089Y-12.974
X4.089Y-15.514
X5.334Y-18.542
X5.334Y-23.542
X8.128Y-21.082
X8.128Y-26.082
X10.414Y-10.414
X10.414Y-18.354
X12.954Y-2.834
X12.954Y-7.834
X12.954Y-10.414
X12.954Y-18.354
X15.494Y-10.414
X15.494Y-18.354
X18.034Y-10.414
X18.034Y-18.354
X19.822Y-23.886
X21.082Y-13.756
X21.082Y-18.756
X23.358Y-27.422
X23.876Y-13.716
X23.876Y-18.716
X27.856Y-10.668
X27.856Y-18.288
X30.396Y-10.668
X30.396Y-18.288
X32.936Y-10.668
X32.936Y-18.288
X35.476Y-10.668
X35.476Y-18.288
X35.64Y-21.082
X38.016Y-10.668
X38.016Y-18.288
X40.556Y-10.668
X40.556Y-18.288
X40.64Y-2.326
X40.64Y-7.326
X40.64Y-21.082
X43.096Y-10.668
X43.096Y-18.288
X43.434Y-2.326
X43.434Y-7.326
X45.332Y-21.082
X45.636Y-10.668
X45.636Y-18.288
X50.332Y-21.082
X56.642Y-4.826
X56.642Y-7.366
X56.642Y-9.906
X56.642Y-12.446
X56.642Y-14.986
X56.642Y-17.526
X56.642Y-20.066
X56.642Y-22.606
X56.642Y-25.146
M30
