%TF.GenerationSoftware,KiCad,Pcbnew,7.0.10*%
%TF.CreationDate,2024-03-10T19:32:54-06:00*%
%TF.ProjectId,Active_Electrode,41637469-7665-45f4-956c-656374726f64,rev?*%
%TF.SameCoordinates,Original*%
%TF.FileFunction,Copper,L1,Top*%
%TF.FilePolarity,Positive*%
%FSLAX46Y46*%
G04 Gerber Fmt 4.6, Leading zero omitted, Abs format (unit mm)*
G04 Created by KiCad (PCBNEW 7.0.10) date 2024-03-10 19:32:54*
%MOMM*%
%LPD*%
G01*
G04 APERTURE LIST*
%TA.AperFunction,ComponentPad*%
%ADD10R,2.200000X2.200000*%
%TD*%
%TA.AperFunction,ComponentPad*%
%ADD11C,2.200000*%
%TD*%
%TA.AperFunction,ViaPad*%
%ADD12C,2.200000*%
%TD*%
%TA.AperFunction,Conductor*%
%ADD13C,1.000000*%
%TD*%
G04 APERTURE END LIST*
D10*
%TO.P,J1,1,Pin_1*%
%TO.N,/CH1*%
X4089000Y-12974000D03*
%TO.P,J1,2,Pin_2*%
%TO.N,/CH2*%
X4089000Y-15514000D03*
%TD*%
D11*
%TO.P,C10,1*%
%TO.N,/+15V*%
X5334000Y-18542000D03*
%TO.P,C10,2*%
%TO.N,GND*%
X5334000Y-23542000D03*
%TD*%
%TO.P,C5,1*%
%TO.N,/-15V*%
X23876000Y-13716000D03*
%TO.P,C5,2*%
%TO.N,GND*%
X23876000Y-18716000D03*
%TD*%
%TO.P,C9,1*%
%TO.N,/+15V*%
X8128000Y-21082000D03*
%TO.P,C9,2*%
%TO.N,GND*%
X8128000Y-26082000D03*
%TD*%
%TO.P,C7,1*%
%TO.N,/-15V*%
X45331862Y-21082000D03*
%TO.P,C7,2*%
%TO.N,GND*%
X50331862Y-21082000D03*
%TD*%
%TO.P,C1,1*%
%TO.N,Net-(U2-NEG_A)*%
X12954000Y-7834000D03*
%TO.P,C1,2*%
%TO.N,/ADC_CH1*%
X12954000Y-2834000D03*
%TD*%
%TO.P,C4,1*%
%TO.N,/-15V*%
X21082000Y-13756000D03*
%TO.P,C4,2*%
%TO.N,GND*%
X21082000Y-18756000D03*
%TD*%
%TO.P,C2,1*%
%TO.N,Net-(U2-NEG_B)*%
X19822233Y-23886233D03*
%TO.P,C2,2*%
%TO.N,/ADC_CH2*%
X23357767Y-27421767D03*
%TD*%
%TO.P,C3,1*%
%TO.N,/+15V*%
X40640000Y-7326000D03*
%TO.P,C3,2*%
%TO.N,GND*%
X40640000Y-2326000D03*
%TD*%
D10*
%TO.P,J2,1,Pin_1*%
%TO.N,/ADC_CH1*%
X56642000Y-4826000D03*
%TO.P,J2,2,Pin_2*%
%TO.N,/+15V*%
X56642000Y-7366000D03*
%TO.P,J2,3,Pin_3*%
%TO.N,/CURR_CH1*%
X56642000Y-9906000D03*
%TO.P,J2,4,Pin_4*%
%TO.N,/DigiSelect1*%
X56642000Y-12446000D03*
%TO.P,J2,5,Pin_5*%
%TO.N,/-15V*%
X56642000Y-14986000D03*
%TO.P,J2,6,Pin_6*%
%TO.N,GND*%
X56642000Y-17526000D03*
%TO.P,J2,7,Pin_7*%
%TO.N,/CURR_CH2*%
X56642000Y-20066000D03*
%TO.P,J2,8,Pin_8*%
%TO.N,/DigiSelect2*%
X56642000Y-22606000D03*
%TO.P,J2,9,Pin_9*%
%TO.N,/ADC_CH2*%
X56642000Y-25146000D03*
%TD*%
D11*
%TO.P,C6,1*%
%TO.N,/+15V*%
X43434000Y-7326000D03*
%TO.P,C6,2*%
%TO.N,GND*%
X43434000Y-2326000D03*
%TD*%
%TO.P,C8,1*%
%TO.N,/-15V*%
X40640000Y-21082000D03*
%TO.P,C8,2*%
%TO.N,GND*%
X35640000Y-21082000D03*
%TD*%
D10*
%TO.P,U1,1,IN1*%
%TO.N,/DigiSelect1*%
X45636000Y-18288000D03*
%TO.P,U1,2,D1*%
%TO.N,/CURR_CH1*%
X43096000Y-18288000D03*
%TO.P,U1,3,S1*%
%TO.N,/CH1*%
X40556000Y-18288000D03*
%TO.P,U1,4,VSS*%
%TO.N,/-15V*%
X38016000Y-18288000D03*
%TO.P,U1,5,GND*%
%TO.N,GND*%
X35476000Y-18288000D03*
%TO.P,U1,6,S4*%
%TO.N,/CH2*%
X32936000Y-18288000D03*
%TO.P,U1,7,D4*%
%TO.N,/CURR_CH2*%
X30396000Y-18288000D03*
%TO.P,U1,8,IN4*%
%TO.N,/DigiSelect2*%
X27856000Y-18288000D03*
%TO.P,U1,9,IN3*%
%TO.N,unconnected-(U1-IN3-Pad9)*%
X27856000Y-10668000D03*
%TO.P,U1,10,D3*%
%TO.N,unconnected-(U1-D3-Pad10)*%
X30396000Y-10668000D03*
%TO.P,U1,11,S3*%
%TO.N,unconnected-(U1-S3-Pad11)*%
X32936000Y-10668000D03*
%TO.P,U1,12,NC*%
%TO.N,unconnected-(U1-NC-Pad12)*%
X35476000Y-10668000D03*
%TO.P,U1,13,VDD*%
%TO.N,/+15V*%
X38016000Y-10668000D03*
%TO.P,U1,14,S2*%
%TO.N,unconnected-(U1-S2-Pad14)*%
X40556000Y-10668000D03*
%TO.P,U1,15,D2*%
%TO.N,unconnected-(U1-D2-Pad15)*%
X43096000Y-10668000D03*
%TO.P,U1,16,IN2*%
%TO.N,unconnected-(U1-IN2-Pad16)*%
X45636000Y-10668000D03*
%TD*%
%TO.P,U2,1,OUT_A*%
%TO.N,Net-(U2-NEG_A)*%
X10414000Y-10414000D03*
%TO.P,U2,2,NEG_A*%
X12954000Y-10414000D03*
%TO.P,U2,3,POS_A*%
%TO.N,/CH1*%
X15494000Y-10414000D03*
%TO.P,U2,4,V-*%
%TO.N,/-15V*%
X18034000Y-10414000D03*
%TO.P,U2,5,POS_B*%
%TO.N,/CH2*%
X18034000Y-18354000D03*
%TO.P,U2,6,NEG_B*%
%TO.N,Net-(U2-NEG_B)*%
X15494000Y-18354000D03*
%TO.P,U2,7,OUT_B*%
X12954000Y-18354000D03*
%TO.P,U2,8,V+*%
%TO.N,/+15V*%
X10414000Y-18354000D03*
%TD*%
D12*
%TO.N,/+15V*%
X7874000Y-10922000D03*
X7874000Y-18354000D03*
%TD*%
D13*
%TO.N,/DigiSelect1*%
X47498000Y-18288000D02*
X53340000Y-12446000D01*
X45636000Y-18288000D02*
X47498000Y-18288000D01*
X53340000Y-12446000D02*
X56642000Y-12446000D01*
%TO.N,GND*%
X35476000Y-18288000D02*
X35476000Y-20918000D01*
X35476000Y-20918000D02*
X35640000Y-21082000D01*
X35640000Y-18452000D02*
X35476000Y-18288000D01*
%TO.N,/DigiSelect2*%
X33782000Y-26416000D02*
X51308000Y-26416000D01*
X27856000Y-20490000D02*
X33782000Y-26416000D01*
X55118000Y-22606000D02*
X56642000Y-22606000D01*
X51308000Y-26416000D02*
X55118000Y-22606000D01*
X27856000Y-18288000D02*
X27856000Y-20490000D01*
%TO.N,/-15V*%
X21082000Y-13462000D02*
X18034000Y-10414000D01*
X39650000Y-21082000D02*
X38016000Y-19448000D01*
X38016000Y-18288000D02*
X38016000Y-17128000D01*
X35366000Y-14478000D02*
X24638000Y-14478000D01*
X24638000Y-14478000D02*
X23876000Y-13716000D01*
X38016000Y-19448000D02*
X38016000Y-18288000D01*
X21122000Y-13716000D02*
X21082000Y-13756000D01*
X23876000Y-13716000D02*
X21122000Y-13716000D01*
X21082000Y-13756000D02*
X21082000Y-13462000D01*
X40640000Y-21082000D02*
X39650000Y-21082000D01*
X56642000Y-14986000D02*
X53340000Y-14986000D01*
X38016000Y-17128000D02*
X35366000Y-14478000D01*
X53340000Y-14986000D02*
X47244000Y-21082000D01*
X47244000Y-21082000D02*
X45331862Y-21082000D01*
X40640000Y-21082000D02*
X45331862Y-21082000D01*
%TO.N,/+15V*%
X38016000Y-9308000D02*
X38016000Y-10668000D01*
X43434000Y-7326000D02*
X56602000Y-7326000D01*
X7874000Y-9398000D02*
X7874000Y-10922000D01*
X39998000Y-7326000D02*
X38016000Y-9308000D01*
X43434000Y-7326000D02*
X23328000Y-7326000D01*
X10414000Y-18354000D02*
X7874000Y-18354000D01*
X22352000Y-6350000D02*
X14986000Y-6350000D01*
X23328000Y-7326000D02*
X22352000Y-6350000D01*
X14986000Y-6350000D02*
X13970000Y-5334000D01*
X11938000Y-5334000D02*
X7874000Y-9398000D01*
X7686000Y-18542000D02*
X7874000Y-18354000D01*
X56602000Y-7326000D02*
X56642000Y-7366000D01*
X8128000Y-21082000D02*
X7874000Y-20828000D01*
X13970000Y-5334000D02*
X11938000Y-5334000D01*
X40640000Y-7326000D02*
X39998000Y-7326000D01*
X5334000Y-18542000D02*
X7686000Y-18542000D01*
X7874000Y-20828000D02*
X7874000Y-18354000D01*
%TO.N,/CURR_CH1*%
X43096000Y-16894000D02*
X44242000Y-15748000D01*
X53086000Y-9906000D02*
X56642000Y-9906000D01*
X47244000Y-15748000D02*
X53086000Y-9906000D01*
X43096000Y-18288000D02*
X43096000Y-16894000D01*
X44242000Y-15748000D02*
X47244000Y-15748000D01*
%TO.N,/CURR_CH2*%
X55218610Y-20066000D02*
X56642000Y-20066000D01*
X30396000Y-18288000D02*
X30396000Y-19982000D01*
X50646610Y-24638000D02*
X55218610Y-20066000D01*
X35052000Y-24638000D02*
X50646610Y-24638000D01*
X30396000Y-19982000D02*
X35052000Y-24638000D01*
%TO.N,/ADC_CH1*%
X14986000Y-3556000D02*
X16002000Y-4572000D01*
X23114000Y-4572000D02*
X23368000Y-4826000D01*
X23368000Y-4826000D02*
X56642000Y-4826000D01*
X13676000Y-3556000D02*
X14986000Y-3556000D01*
X12954000Y-2834000D02*
X13676000Y-3556000D01*
X16002000Y-4572000D02*
X23114000Y-4572000D01*
%TO.N,/ADC_CH2*%
X24130000Y-28194000D02*
X52070000Y-28194000D01*
X23357767Y-27421767D02*
X24130000Y-28194000D01*
X55118000Y-25146000D02*
X56642000Y-25146000D01*
X52070000Y-28194000D02*
X55118000Y-25146000D01*
%TO.N,/CH1*%
X15494000Y-11774000D02*
X15494000Y-10414000D01*
X40556000Y-15988000D02*
X37522000Y-12954000D01*
X37522000Y-12954000D02*
X26162000Y-12954000D01*
X15494000Y-9054000D02*
X15494000Y-10414000D01*
X14294000Y-12974000D02*
X15494000Y-11774000D01*
X16420000Y-8128000D02*
X15494000Y-9054000D01*
X4089000Y-12974000D02*
X14294000Y-12974000D01*
X21336000Y-8128000D02*
X20066000Y-8128000D01*
X26162000Y-12954000D02*
X21336000Y-8128000D01*
X20066000Y-8128000D02*
X16420000Y-8128000D01*
X40556000Y-18288000D02*
X40556000Y-15988000D01*
%TO.N,/CH2*%
X17042000Y-16002000D02*
X16554000Y-15514000D01*
X32936000Y-18288000D02*
X32936000Y-17128000D01*
X18034000Y-16994000D02*
X18034000Y-18354000D01*
X31810000Y-16002000D02*
X17042000Y-16002000D01*
X16948000Y-15908000D02*
X18034000Y-16994000D01*
X4089000Y-15514000D02*
X16554000Y-15514000D01*
X16554000Y-15514000D02*
X16948000Y-15908000D01*
X32936000Y-17128000D02*
X31810000Y-16002000D01*
%TO.N,Net-(U2-NEG_A)*%
X12954000Y-10414000D02*
X12954000Y-7834000D01*
X10414000Y-10414000D02*
X12954000Y-10414000D01*
%TO.N,Net-(U2-NEG_B)*%
X19822233Y-23886233D02*
X19822233Y-23842233D01*
X15494000Y-19514000D02*
X15494000Y-18354000D01*
X19822233Y-23842233D02*
X15494000Y-19514000D01*
X12954000Y-18354000D02*
X15494000Y-18354000D01*
%TD*%
%TA.AperFunction,Conductor*%
%TO.N,GND*%
G36*
X35022499Y-15348431D02*
G01*
X35064674Y-15379463D01*
X35804471Y-16119260D01*
X36101569Y-16416357D01*
X36144653Y-16487628D01*
X36149682Y-16570758D01*
X36115502Y-16646703D01*
X36101569Y-16662430D01*
X36076000Y-16687999D01*
X36076000Y-18714000D01*
X36056069Y-18794862D01*
X36000843Y-18857199D01*
X35922973Y-18886731D01*
X35902000Y-18888000D01*
X35050000Y-18888000D01*
X34969138Y-18868069D01*
X34906801Y-18812843D01*
X34877269Y-18734973D01*
X34876000Y-18714000D01*
X34876000Y-18359889D01*
X34976000Y-18359889D01*
X35016507Y-18497844D01*
X35094239Y-18618798D01*
X35202900Y-18712952D01*
X35333685Y-18772680D01*
X35440237Y-18788000D01*
X35511763Y-18788000D01*
X35618315Y-18772680D01*
X35749100Y-18712952D01*
X35857761Y-18618798D01*
X35935493Y-18497844D01*
X35976000Y-18359889D01*
X35976000Y-18216111D01*
X35935493Y-18078156D01*
X35857761Y-17957202D01*
X35749100Y-17863048D01*
X35618315Y-17803320D01*
X35511763Y-17788000D01*
X35440237Y-17788000D01*
X35333685Y-17803320D01*
X35202900Y-17863048D01*
X35094239Y-17957202D01*
X35016507Y-18078156D01*
X34976000Y-18216111D01*
X34976000Y-18359889D01*
X34876000Y-18359889D01*
X34876000Y-16688001D01*
X34875999Y-16688000D01*
X34328171Y-16688000D01*
X34268626Y-16694401D01*
X34268623Y-16694401D01*
X34133913Y-16744645D01*
X34133911Y-16744646D01*
X34056237Y-16802794D01*
X33979560Y-16835297D01*
X33951962Y-16837500D01*
X33854806Y-16837500D01*
X33773944Y-16817569D01*
X33711607Y-16762343D01*
X33707704Y-16755714D01*
X33707515Y-16755836D01*
X33660084Y-16681632D01*
X33657599Y-16677625D01*
X33617067Y-16610259D01*
X33611359Y-16602750D01*
X33611626Y-16602546D01*
X33608970Y-16599147D01*
X33608706Y-16599360D01*
X33602799Y-16592011D01*
X33547207Y-16536419D01*
X33543921Y-16533042D01*
X33489848Y-16475958D01*
X33482656Y-16469849D01*
X33482873Y-16469592D01*
X33468518Y-16457730D01*
X32636326Y-15625537D01*
X32593242Y-15554265D01*
X32588213Y-15471136D01*
X32622393Y-15395191D01*
X32687951Y-15343829D01*
X32759363Y-15328500D01*
X34941637Y-15328500D01*
X35022499Y-15348431D01*
G37*
%TD.AperFunction*%
%TA.AperFunction,Conductor*%
G36*
X59596862Y-19931D02*
G01*
X59659199Y-75157D01*
X59688731Y-153027D01*
X59690000Y-174000D01*
X59690000Y-30052000D01*
X59670069Y-30132862D01*
X59614843Y-30195199D01*
X59536973Y-30224731D01*
X59516000Y-30226000D01*
X174000Y-30226000D01*
X93138Y-30206069D01*
X30801Y-30150843D01*
X1269Y-30072973D01*
X0Y-30052000D01*
X0Y-27555115D01*
X7503413Y-27555115D01*
X7632040Y-27608394D01*
X7632050Y-27608397D01*
X7876921Y-27667185D01*
X7876930Y-27667187D01*
X8128000Y-27686947D01*
X8379069Y-27667187D01*
X8379078Y-27667185D01*
X8623949Y-27608397D01*
X8623959Y-27608394D01*
X8752586Y-27555114D01*
X8128000Y-26930528D01*
X7503413Y-27555115D01*
X0Y-27555115D01*
X0Y-26082000D01*
X6523052Y-26082000D01*
X6542812Y-26333069D01*
X6542814Y-26333078D01*
X6601602Y-26577949D01*
X6601607Y-26577964D01*
X6654883Y-26706585D01*
X6654884Y-26706585D01*
X7207581Y-26153889D01*
X7628000Y-26153889D01*
X7668507Y-26291844D01*
X7746239Y-26412798D01*
X7854900Y-26506952D01*
X7985685Y-26566680D01*
X8092237Y-26582000D01*
X8163763Y-26582000D01*
X8270315Y-26566680D01*
X8401100Y-26506952D01*
X8509761Y-26412798D01*
X8587493Y-26291844D01*
X8628000Y-26153889D01*
X8628000Y-26082000D01*
X8976528Y-26082000D01*
X9601114Y-26706585D01*
X9654394Y-26577959D01*
X9654397Y-26577949D01*
X9713185Y-26333078D01*
X9713187Y-26333069D01*
X9732947Y-26082000D01*
X9713187Y-25830930D01*
X9713185Y-25830921D01*
X9654397Y-25586050D01*
X9654394Y-25586040D01*
X9601114Y-25457413D01*
X8976528Y-26082000D01*
X8628000Y-26082000D01*
X8628000Y-26010111D01*
X8587493Y-25872156D01*
X8509761Y-25751202D01*
X8401100Y-25657048D01*
X8270315Y-25597320D01*
X8163763Y-25582000D01*
X8092237Y-25582000D01*
X7985685Y-25597320D01*
X7854900Y-25657048D01*
X7746239Y-25751202D01*
X7668507Y-25872156D01*
X7628000Y-26010111D01*
X7628000Y-26153889D01*
X7207581Y-26153889D01*
X7279470Y-26082000D01*
X6654883Y-25457413D01*
X6601608Y-25586034D01*
X6601601Y-25586056D01*
X6542814Y-25830921D01*
X6542812Y-25830930D01*
X6523052Y-26082000D01*
X0Y-26082000D01*
X0Y-25015115D01*
X4709413Y-25015115D01*
X4838040Y-25068394D01*
X4838050Y-25068397D01*
X5082921Y-25127185D01*
X5082930Y-25127187D01*
X5334000Y-25146947D01*
X5585069Y-25127187D01*
X5585078Y-25127185D01*
X5829949Y-25068397D01*
X5829959Y-25068394D01*
X5958586Y-25015114D01*
X5552355Y-24608883D01*
X7503413Y-24608883D01*
X8128000Y-25233470D01*
X8752585Y-24608884D01*
X8752585Y-24608883D01*
X8623964Y-24555607D01*
X8623949Y-24555602D01*
X8379078Y-24496814D01*
X8379069Y-24496812D01*
X8128000Y-24477052D01*
X7876930Y-24496812D01*
X7876921Y-24496814D01*
X7632056Y-24555601D01*
X7632034Y-24555608D01*
X7503413Y-24608883D01*
X5552355Y-24608883D01*
X5334000Y-24390528D01*
X4709413Y-25015115D01*
X0Y-25015115D01*
X0Y-23542000D01*
X3729052Y-23542000D01*
X3748812Y-23793069D01*
X3748814Y-23793078D01*
X3807602Y-24037949D01*
X3807607Y-24037964D01*
X3860883Y-24166585D01*
X3860884Y-24166585D01*
X4413581Y-23613889D01*
X4834000Y-23613889D01*
X4874507Y-23751844D01*
X4952239Y-23872798D01*
X5060900Y-23966952D01*
X5191685Y-24026680D01*
X5298237Y-24042000D01*
X5369763Y-24042000D01*
X5476315Y-24026680D01*
X5607100Y-23966952D01*
X5715761Y-23872798D01*
X5793493Y-23751844D01*
X5834000Y-23613889D01*
X5834000Y-23542000D01*
X6182528Y-23542000D01*
X6807114Y-24166585D01*
X6860394Y-24037959D01*
X6860397Y-24037949D01*
X6919185Y-23793078D01*
X6919187Y-23793069D01*
X6938947Y-23542000D01*
X6919187Y-23290930D01*
X6919185Y-23290921D01*
X6860397Y-23046050D01*
X6860394Y-23046040D01*
X6807114Y-22917413D01*
X6182528Y-23542000D01*
X5834000Y-23542000D01*
X5834000Y-23470111D01*
X5793493Y-23332156D01*
X5715761Y-23211202D01*
X5607100Y-23117048D01*
X5476315Y-23057320D01*
X5369763Y-23042000D01*
X5298237Y-23042000D01*
X5191685Y-23057320D01*
X5060900Y-23117048D01*
X4952239Y-23211202D01*
X4874507Y-23332156D01*
X4834000Y-23470111D01*
X4834000Y-23613889D01*
X4413581Y-23613889D01*
X4485470Y-23542000D01*
X3860883Y-22917413D01*
X3807608Y-23046034D01*
X3807601Y-23046056D01*
X3748814Y-23290921D01*
X3748812Y-23290930D01*
X3729052Y-23542000D01*
X0Y-23542000D01*
X0Y-22068883D01*
X4709413Y-22068883D01*
X5334000Y-22693470D01*
X5958585Y-22068884D01*
X5958585Y-22068883D01*
X5829964Y-22015607D01*
X5829949Y-22015602D01*
X5585078Y-21956814D01*
X5585069Y-21956812D01*
X5334000Y-21937052D01*
X5082930Y-21956812D01*
X5082921Y-21956814D01*
X4838056Y-22015601D01*
X4838034Y-22015608D01*
X4709413Y-22068883D01*
X0Y-22068883D01*
X0Y-16647261D01*
X2638500Y-16647261D01*
X2648426Y-16715391D01*
X2648427Y-16715393D01*
X2699800Y-16820480D01*
X2699801Y-16820481D01*
X2699802Y-16820483D01*
X2782517Y-16903198D01*
X2887607Y-16954573D01*
X2921673Y-16959536D01*
X2955739Y-16964500D01*
X4514248Y-16964500D01*
X4595110Y-16984431D01*
X4657447Y-17039657D01*
X4686979Y-17117527D01*
X4676941Y-17200201D01*
X4629631Y-17268741D01*
X4597063Y-17291528D01*
X4537934Y-17323526D01*
X4537925Y-17323532D01*
X4348239Y-17471171D01*
X4348231Y-17471179D01*
X4185426Y-17648033D01*
X4053948Y-17849275D01*
X3957390Y-18069409D01*
X3957389Y-18069413D01*
X3919246Y-18220040D01*
X3898380Y-18302437D01*
X3878529Y-18542000D01*
X3898380Y-18781563D01*
X3957390Y-19014591D01*
X3974866Y-19054432D01*
X4053948Y-19234724D01*
X4185426Y-19435966D01*
X4348231Y-19612820D01*
X4348239Y-19612828D01*
X4537925Y-19760467D01*
X4537934Y-19760473D01*
X4749343Y-19874882D01*
X4976693Y-19952931D01*
X4976700Y-19952933D01*
X4976703Y-19952934D01*
X5213808Y-19992500D01*
X5213812Y-19992500D01*
X5454188Y-19992500D01*
X5454192Y-19992500D01*
X5691297Y-19952934D01*
X5728714Y-19940089D01*
X5918656Y-19874882D01*
X6067056Y-19794572D01*
X6130067Y-19760472D01*
X6130069Y-19760469D01*
X6130074Y-19760467D01*
X6319760Y-19612828D01*
X6319759Y-19612828D01*
X6319764Y-19612825D01*
X6412445Y-19512146D01*
X6470894Y-19448654D01*
X6540323Y-19402660D01*
X6598910Y-19392500D01*
X6786971Y-19392500D01*
X6867833Y-19412431D01*
X6893837Y-19429184D01*
X6956375Y-19477859D01*
X7007943Y-19543252D01*
X7023500Y-19615168D01*
X7023500Y-20072262D01*
X7003569Y-20153124D01*
X6983285Y-20181921D01*
X6983845Y-20182357D01*
X6979430Y-20188028D01*
X6847948Y-20389275D01*
X6751390Y-20609409D01*
X6751389Y-20609413D01*
X6692380Y-20842436D01*
X6677170Y-21025989D01*
X6672529Y-21082000D01*
X6692380Y-21321563D01*
X6751390Y-21554591D01*
X6763413Y-21582000D01*
X6847948Y-21774724D01*
X6979426Y-21975966D01*
X7142231Y-22152820D01*
X7142239Y-22152828D01*
X7331925Y-22300467D01*
X7331934Y-22300473D01*
X7543343Y-22414882D01*
X7770693Y-22492931D01*
X7770700Y-22492933D01*
X7770703Y-22492934D01*
X8007808Y-22532500D01*
X8007812Y-22532500D01*
X8248188Y-22532500D01*
X8248192Y-22532500D01*
X8485297Y-22492934D01*
X8536661Y-22475301D01*
X8712656Y-22414882D01*
X8924067Y-22300472D01*
X8924069Y-22300469D01*
X8924074Y-22300467D01*
X9113760Y-22152828D01*
X9113759Y-22152828D01*
X9113764Y-22152825D01*
X9276571Y-21975969D01*
X9408049Y-21774728D01*
X9417976Y-21752098D01*
X9439468Y-21703099D01*
X9504610Y-21554591D01*
X9563620Y-21321563D01*
X9583471Y-21082000D01*
X9563620Y-20842437D01*
X9504610Y-20609409D01*
X9440162Y-20462483D01*
X9408051Y-20389275D01*
X9276573Y-20188033D01*
X9212349Y-20118267D01*
X9192169Y-20096346D01*
X9152067Y-20023356D01*
X9150479Y-19940089D01*
X9187768Y-19865622D01*
X9255393Y-19817014D01*
X9320186Y-19804500D01*
X11547261Y-19804500D01*
X11569971Y-19801191D01*
X11615393Y-19794573D01*
X11615396Y-19794571D01*
X11628302Y-19790584D01*
X11629265Y-19793703D01*
X11688957Y-19780783D01*
X11738921Y-19793097D01*
X11739698Y-19790584D01*
X11752605Y-19794572D01*
X11752607Y-19794573D01*
X11786673Y-19799536D01*
X11820739Y-19804500D01*
X11820740Y-19804500D01*
X14087261Y-19804500D01*
X14109971Y-19801191D01*
X14155393Y-19794573D01*
X14155396Y-19794571D01*
X14168302Y-19790584D01*
X14169265Y-19793703D01*
X14228957Y-19780783D01*
X14278921Y-19793097D01*
X14279698Y-19790584D01*
X14292605Y-19794572D01*
X14292607Y-19794573D01*
X14326673Y-19799536D01*
X14360739Y-19804500D01*
X14360740Y-19804500D01*
X14575195Y-19804500D01*
X14656057Y-19824431D01*
X14718394Y-19879657D01*
X14722300Y-19886290D01*
X14722489Y-19886170D01*
X14769924Y-19960383D01*
X14772381Y-19964343D01*
X14812930Y-20031736D01*
X14812932Y-20031738D01*
X14812935Y-20031743D01*
X14818641Y-20039250D01*
X14818373Y-20039453D01*
X14821031Y-20042853D01*
X14821294Y-20042642D01*
X14827197Y-20049986D01*
X14882807Y-20105596D01*
X14886094Y-20108974D01*
X14940146Y-20166037D01*
X14947337Y-20172144D01*
X14947118Y-20172401D01*
X14961477Y-20184266D01*
X16670490Y-21893279D01*
X18332436Y-23555224D01*
X18375520Y-23626495D01*
X18382804Y-23692627D01*
X18366762Y-23886233D01*
X18386613Y-24125796D01*
X18445623Y-24358824D01*
X18452961Y-24375553D01*
X18542181Y-24578957D01*
X18673659Y-24780199D01*
X18836464Y-24957053D01*
X18836472Y-24957061D01*
X19026158Y-25104700D01*
X19026167Y-25104706D01*
X19237576Y-25219115D01*
X19464926Y-25297164D01*
X19464933Y-25297166D01*
X19464936Y-25297167D01*
X19702041Y-25336733D01*
X19702045Y-25336733D01*
X19942421Y-25336733D01*
X19942425Y-25336733D01*
X20179530Y-25297167D01*
X20406889Y-25219115D01*
X20618300Y-25104705D01*
X20618302Y-25104702D01*
X20618307Y-25104700D01*
X20807993Y-24957061D01*
X20807992Y-24957061D01*
X20807997Y-24957058D01*
X20970804Y-24780202D01*
X21102282Y-24578961D01*
X21198843Y-24358824D01*
X21257853Y-24125796D01*
X21277704Y-23886233D01*
X21257853Y-23646670D01*
X21198843Y-23413642D01*
X21110045Y-23211202D01*
X21102284Y-23193508D01*
X20970806Y-22992266D01*
X20808001Y-22815412D01*
X20807993Y-22815404D01*
X20618307Y-22667765D01*
X20618298Y-22667759D01*
X20406889Y-22553350D01*
X20179539Y-22475301D01*
X20179532Y-22475299D01*
X20100495Y-22462110D01*
X19942425Y-22435733D01*
X19702041Y-22435733D01*
X19694845Y-22435733D01*
X19694845Y-22433789D01*
X19623052Y-22422276D01*
X19567884Y-22385095D01*
X17411904Y-20229115D01*
X20457413Y-20229115D01*
X20586040Y-20282394D01*
X20586050Y-20282397D01*
X20830921Y-20341185D01*
X20830930Y-20341187D01*
X21082000Y-20360947D01*
X21333069Y-20341187D01*
X21333078Y-20341185D01*
X21577949Y-20282397D01*
X21577959Y-20282394D01*
X21706586Y-20229114D01*
X21666587Y-20189115D01*
X23251413Y-20189115D01*
X23380040Y-20242394D01*
X23380050Y-20242397D01*
X23624921Y-20301185D01*
X23624930Y-20301187D01*
X23876000Y-20320947D01*
X24127069Y-20301187D01*
X24127078Y-20301185D01*
X24371949Y-20242397D01*
X24371959Y-20242394D01*
X24500586Y-20189114D01*
X23876000Y-19564528D01*
X23251413Y-20189115D01*
X21666587Y-20189115D01*
X21082000Y-19604528D01*
X20457413Y-20229115D01*
X17411904Y-20229115D01*
X17284326Y-20101537D01*
X17241242Y-20030266D01*
X17236213Y-19947136D01*
X17270393Y-19871191D01*
X17335951Y-19819829D01*
X17407363Y-19804500D01*
X19167261Y-19804500D01*
X19189971Y-19801191D01*
X19235393Y-19794573D01*
X19340483Y-19743198D01*
X19423198Y-19660483D01*
X19474573Y-19555393D01*
X19476690Y-19540865D01*
X19508069Y-19463721D01*
X19571705Y-19409996D01*
X19581682Y-19407787D01*
X20161581Y-18827889D01*
X20582000Y-18827889D01*
X20622507Y-18965844D01*
X20700239Y-19086798D01*
X20808900Y-19180952D01*
X20939685Y-19240680D01*
X21046237Y-19256000D01*
X21117763Y-19256000D01*
X21224315Y-19240680D01*
X21355100Y-19180952D01*
X21463761Y-19086798D01*
X21541493Y-18965844D01*
X21582000Y-18827889D01*
X21582000Y-18756000D01*
X21930529Y-18756000D01*
X22458999Y-19284470D01*
X22955581Y-18787889D01*
X23376000Y-18787889D01*
X23416507Y-18925844D01*
X23494239Y-19046798D01*
X23602900Y-19140952D01*
X23733685Y-19200680D01*
X23840237Y-19216000D01*
X23911763Y-19216000D01*
X24018315Y-19200680D01*
X24149100Y-19140952D01*
X24257761Y-19046798D01*
X24335493Y-18925844D01*
X24376000Y-18787889D01*
X24376000Y-18716000D01*
X24724528Y-18716000D01*
X25349114Y-19340585D01*
X25402394Y-19211959D01*
X25402397Y-19211949D01*
X25461185Y-18967078D01*
X25461187Y-18967069D01*
X25480947Y-18716000D01*
X25461187Y-18464930D01*
X25461185Y-18464921D01*
X25402397Y-18220050D01*
X25402394Y-18220040D01*
X25349114Y-18091413D01*
X24724528Y-18716000D01*
X24376000Y-18716000D01*
X24376000Y-18644111D01*
X24335493Y-18506156D01*
X24257761Y-18385202D01*
X24149100Y-18291048D01*
X24018315Y-18231320D01*
X23911763Y-18216000D01*
X23840237Y-18216000D01*
X23733685Y-18231320D01*
X23602900Y-18291048D01*
X23494239Y-18385202D01*
X23416507Y-18506156D01*
X23376000Y-18644111D01*
X23376000Y-18787889D01*
X22955581Y-18787889D01*
X23027471Y-18715999D01*
X22499000Y-18187528D01*
X21930529Y-18756000D01*
X21582000Y-18756000D01*
X21582000Y-18684111D01*
X21541493Y-18546156D01*
X21463761Y-18425202D01*
X21355100Y-18331048D01*
X21224315Y-18271320D01*
X21117763Y-18256000D01*
X21046237Y-18256000D01*
X20939685Y-18271320D01*
X20808900Y-18331048D01*
X20700239Y-18425202D01*
X20622507Y-18546156D01*
X20582000Y-18684111D01*
X20582000Y-18827889D01*
X20161581Y-18827889D01*
X20233470Y-18756000D01*
X19559329Y-18081859D01*
X19537322Y-18069002D01*
X19493173Y-17998384D01*
X19484500Y-17944134D01*
X19484500Y-17220738D01*
X19474573Y-17152608D01*
X19474571Y-17152603D01*
X19450283Y-17102919D01*
X19432674Y-17021520D01*
X19454911Y-16941262D01*
X19511898Y-16880531D01*
X19590582Y-16853239D01*
X19606603Y-16852500D01*
X20686678Y-16852500D01*
X20767540Y-16872431D01*
X20829877Y-16927657D01*
X20859409Y-17005527D01*
X20849371Y-17088201D01*
X20802061Y-17156741D01*
X20728319Y-17195444D01*
X20727298Y-17195692D01*
X20586053Y-17229601D01*
X20586034Y-17229608D01*
X20457413Y-17282883D01*
X21082000Y-17907470D01*
X21706585Y-17282884D01*
X21706585Y-17282883D01*
X21577964Y-17229607D01*
X21577952Y-17229603D01*
X21436702Y-17195692D01*
X21362728Y-17157435D01*
X21315005Y-17089183D01*
X21304467Y-17006570D01*
X21333528Y-16928524D01*
X21395531Y-16872922D01*
X21476271Y-16852503D01*
X21477322Y-16852500D01*
X23319129Y-16852500D01*
X23399991Y-16872431D01*
X23462328Y-16927657D01*
X23491860Y-17005527D01*
X23481822Y-17088201D01*
X23434512Y-17156741D01*
X23385715Y-17187255D01*
X23251413Y-17242883D01*
X23876000Y-17867470D01*
X24500585Y-17242884D01*
X24500585Y-17242883D01*
X24366285Y-17187255D01*
X24299206Y-17137897D01*
X24262748Y-17063020D01*
X24265263Y-16979776D01*
X24306175Y-16907236D01*
X24376112Y-16862018D01*
X24432872Y-16852500D01*
X26251882Y-16852500D01*
X26332744Y-16872431D01*
X26395081Y-16927657D01*
X26424613Y-17005527D01*
X26418127Y-17077868D01*
X26415426Y-17086607D01*
X26405500Y-17154738D01*
X26405500Y-19421261D01*
X26415426Y-19489391D01*
X26415427Y-19489393D01*
X26466800Y-19594480D01*
X26466801Y-19594481D01*
X26466802Y-19594483D01*
X26549517Y-19677198D01*
X26654607Y-19728573D01*
X26673873Y-19731380D01*
X26722739Y-19738500D01*
X26722740Y-19738500D01*
X26831500Y-19738500D01*
X26912362Y-19758431D01*
X26974699Y-19813657D01*
X27004231Y-19891527D01*
X27005500Y-19912500D01*
X27005500Y-20448361D01*
X27004926Y-20462483D01*
X27000798Y-20513168D01*
X27011409Y-20591047D01*
X27011982Y-20595722D01*
X27020485Y-20673907D01*
X27022514Y-20683121D01*
X27022185Y-20683193D01*
X27023170Y-20687396D01*
X27023497Y-20687315D01*
X27025775Y-20696475D01*
X27052887Y-20770276D01*
X27054450Y-20774715D01*
X27079554Y-20849216D01*
X27083519Y-20857787D01*
X27083213Y-20857928D01*
X27085075Y-20861812D01*
X27085376Y-20861663D01*
X27089571Y-20870122D01*
X27131924Y-20936383D01*
X27134381Y-20940343D01*
X27174930Y-21007736D01*
X27174932Y-21007738D01*
X27174935Y-21007743D01*
X27180641Y-21015250D01*
X27180373Y-21015453D01*
X27183031Y-21018853D01*
X27183294Y-21018642D01*
X27189197Y-21025986D01*
X27244807Y-21081596D01*
X27248094Y-21084974D01*
X27302146Y-21142037D01*
X27309337Y-21148144D01*
X27309118Y-21148401D01*
X27323477Y-21160266D01*
X33151164Y-26987952D01*
X33160744Y-26998345D01*
X33193661Y-27037099D01*
X33200072Y-27043171D01*
X33245075Y-27113247D01*
X33252357Y-27196210D01*
X33220250Y-27273054D01*
X33156109Y-27326175D01*
X33080419Y-27343500D01*
X24966930Y-27343500D01*
X24886068Y-27323569D01*
X24823731Y-27268343D01*
X24794199Y-27190473D01*
X24793526Y-27183892D01*
X24793387Y-27182204D01*
X24734377Y-26949176D01*
X24677040Y-26818461D01*
X24637818Y-26729042D01*
X24506340Y-26527800D01*
X24343535Y-26350946D01*
X24343527Y-26350938D01*
X24153841Y-26203299D01*
X24153832Y-26203293D01*
X23942423Y-26088884D01*
X23715073Y-26010835D01*
X23715066Y-26010833D01*
X23636029Y-25997644D01*
X23477959Y-25971267D01*
X23237575Y-25971267D01*
X23102086Y-25993876D01*
X23000467Y-26010833D01*
X23000460Y-26010835D01*
X22773110Y-26088884D01*
X22561701Y-26203293D01*
X22561692Y-26203299D01*
X22372006Y-26350938D01*
X22371998Y-26350946D01*
X22209193Y-26527800D01*
X22077715Y-26729042D01*
X21981157Y-26949176D01*
X21981156Y-26949180D01*
X21922147Y-27182203D01*
X21902296Y-27421767D01*
X21922147Y-27661330D01*
X21981156Y-27894353D01*
X21981157Y-27894357D01*
X22077715Y-28114491D01*
X22209193Y-28315733D01*
X22371998Y-28492587D01*
X22372006Y-28492595D01*
X22561692Y-28640234D01*
X22561701Y-28640240D01*
X22773110Y-28754649D01*
X23000460Y-28832698D01*
X23000467Y-28832700D01*
X23000470Y-28832701D01*
X23237575Y-28872267D01*
X23237579Y-28872267D01*
X23477958Y-28872267D01*
X23477959Y-28872267D01*
X23515607Y-28865984D01*
X23598646Y-28872331D01*
X23653263Y-28901993D01*
X23669246Y-28914841D01*
X23669247Y-28914841D01*
X23669249Y-28914843D01*
X23677195Y-28919922D01*
X23677012Y-28920207D01*
X23680673Y-28922478D01*
X23680849Y-28922188D01*
X23688933Y-28927052D01*
X23688936Y-28927054D01*
X23760359Y-28960097D01*
X23764545Y-28962104D01*
X23834979Y-28997036D01*
X23834983Y-28997037D01*
X23843832Y-29000288D01*
X23843714Y-29000606D01*
X23847785Y-29002039D01*
X23847893Y-29001720D01*
X23856827Y-29004730D01*
X23856830Y-29004730D01*
X23856833Y-29004732D01*
X23933691Y-29021649D01*
X23938153Y-29022695D01*
X24014505Y-29041684D01*
X24014512Y-29041684D01*
X24023858Y-29042958D01*
X24023812Y-29043293D01*
X24028086Y-29043816D01*
X24028123Y-29043480D01*
X24037502Y-29044500D01*
X24037503Y-29044500D01*
X24116120Y-29044500D01*
X24120832Y-29044564D01*
X24199431Y-29046693D01*
X24199431Y-29046692D01*
X24199432Y-29046693D01*
X24199432Y-29046692D01*
X24208827Y-29045928D01*
X24208854Y-29046263D01*
X24227402Y-29044500D01*
X52028362Y-29044500D01*
X52042483Y-29045073D01*
X52052972Y-29045928D01*
X52093165Y-29049201D01*
X52093165Y-29049200D01*
X52093167Y-29049201D01*
X52171113Y-29038580D01*
X52175718Y-29038017D01*
X52234903Y-29031580D01*
X52253911Y-29029514D01*
X52263129Y-29027485D01*
X52263201Y-29027815D01*
X52267396Y-29026832D01*
X52267315Y-29026503D01*
X52276468Y-29024227D01*
X52350323Y-28997093D01*
X52354656Y-28995567D01*
X52429221Y-28970444D01*
X52429223Y-28970442D01*
X52429225Y-28970442D01*
X52437786Y-28966482D01*
X52437928Y-28966789D01*
X52441811Y-28964928D01*
X52441661Y-28964625D01*
X52450113Y-28960433D01*
X52450112Y-28960433D01*
X52450116Y-28960432D01*
X52516416Y-28918052D01*
X52520337Y-28915621D01*
X52587736Y-28875070D01*
X52587742Y-28875063D01*
X52595249Y-28869359D01*
X52595454Y-28869628D01*
X52598841Y-28866980D01*
X52598629Y-28866717D01*
X52605980Y-28860807D01*
X52605983Y-28860803D01*
X52605989Y-28860800D01*
X52661631Y-28805156D01*
X52664975Y-28801904D01*
X52722036Y-28747854D01*
X52722037Y-28747852D01*
X52722041Y-28747849D01*
X52722043Y-28747844D01*
X52728149Y-28740657D01*
X52728407Y-28740876D01*
X52740267Y-28726519D01*
X55010520Y-26456267D01*
X55081787Y-26413186D01*
X55164917Y-26408157D01*
X55240862Y-26442337D01*
X55256581Y-26456262D01*
X55335517Y-26535198D01*
X55440607Y-26586573D01*
X55474673Y-26591536D01*
X55508739Y-26596500D01*
X55508740Y-26596500D01*
X57775261Y-26596500D01*
X57797971Y-26593191D01*
X57843393Y-26586573D01*
X57948483Y-26535198D01*
X58031198Y-26452483D01*
X58082573Y-26347393D01*
X58092500Y-26279260D01*
X58092500Y-24012740D01*
X58082573Y-23944607D01*
X58082572Y-23944605D01*
X58078584Y-23931698D01*
X58081703Y-23930734D01*
X58068783Y-23871043D01*
X58081097Y-23821078D01*
X58078584Y-23820302D01*
X58082571Y-23807396D01*
X58082573Y-23807393D01*
X58092500Y-23739260D01*
X58092500Y-21472740D01*
X58082573Y-21404607D01*
X58082572Y-21404605D01*
X58078584Y-21391698D01*
X58081703Y-21390734D01*
X58068783Y-21331043D01*
X58081097Y-21281078D01*
X58078584Y-21280302D01*
X58082571Y-21267396D01*
X58082573Y-21267393D01*
X58092500Y-21199260D01*
X58092500Y-19050038D01*
X58112431Y-18969176D01*
X58127206Y-18945763D01*
X58185353Y-18868088D01*
X58185354Y-18868086D01*
X58235598Y-18733376D01*
X58235598Y-18733373D01*
X58242000Y-18673828D01*
X58242000Y-18126001D01*
X58241999Y-18126000D01*
X55042001Y-18126000D01*
X55042000Y-18126001D01*
X55042000Y-18673828D01*
X55048401Y-18733373D01*
X55048401Y-18733376D01*
X55098645Y-18868086D01*
X55098646Y-18868088D01*
X55156794Y-18945763D01*
X55189297Y-19022440D01*
X55191500Y-19050038D01*
X55191500Y-19057330D01*
X55171569Y-19138192D01*
X55116343Y-19200529D01*
X55043817Y-19228034D01*
X55043911Y-19228459D01*
X55041018Y-19229095D01*
X55038473Y-19230061D01*
X55036325Y-19230309D01*
X55034703Y-19230485D01*
X55025487Y-19232514D01*
X55025415Y-19232187D01*
X55021215Y-19233171D01*
X55021296Y-19233496D01*
X55012147Y-19235771D01*
X54938355Y-19262880D01*
X54933917Y-19264442D01*
X54859392Y-19289554D01*
X54850831Y-19293515D01*
X54850691Y-19293213D01*
X54846795Y-19295080D01*
X54846943Y-19295378D01*
X54838490Y-19299570D01*
X54772247Y-19341912D01*
X54768244Y-19344395D01*
X54700868Y-19384933D01*
X54693361Y-19390640D01*
X54693160Y-19390376D01*
X54689763Y-19393033D01*
X54689971Y-19393292D01*
X54682627Y-19399195D01*
X54627027Y-19454793D01*
X54623655Y-19458074D01*
X54566573Y-19512146D01*
X54560465Y-19519338D01*
X54560208Y-19519120D01*
X54548345Y-19533475D01*
X51995355Y-22086465D01*
X51924084Y-22129549D01*
X51840954Y-22134578D01*
X51765009Y-22100398D01*
X51713647Y-22034840D01*
X51698635Y-21952922D01*
X51723412Y-21873411D01*
X51723959Y-21872512D01*
X51761882Y-21810627D01*
X51761883Y-21810626D01*
X51858256Y-21577960D01*
X51858259Y-21577949D01*
X51917047Y-21333078D01*
X51917049Y-21333069D01*
X51936809Y-21082000D01*
X51917049Y-20830930D01*
X51917047Y-20830921D01*
X51858259Y-20586050D01*
X51858256Y-20586040D01*
X51804976Y-20457413D01*
X51120348Y-21142040D01*
X51120349Y-21142041D01*
X49707275Y-22555115D01*
X49835902Y-22608394D01*
X49835912Y-22608397D01*
X50080783Y-22667185D01*
X50080792Y-22667187D01*
X50331862Y-22686947D01*
X50582931Y-22667187D01*
X50582940Y-22667185D01*
X50827811Y-22608397D01*
X50827822Y-22608394D01*
X51060488Y-22512021D01*
X51060489Y-22512020D01*
X51122374Y-22474097D01*
X51201734Y-22448840D01*
X51283741Y-22463356D01*
X51349608Y-22514320D01*
X51384247Y-22590057D01*
X51379721Y-22673216D01*
X51337069Y-22744746D01*
X51336327Y-22745493D01*
X50345284Y-23736537D01*
X50274013Y-23779621D01*
X50222247Y-23787500D01*
X35476362Y-23787500D01*
X35395500Y-23767569D01*
X35353325Y-23736537D01*
X34171903Y-22555115D01*
X35015413Y-22555115D01*
X35144040Y-22608394D01*
X35144050Y-22608397D01*
X35388921Y-22667185D01*
X35388930Y-22667187D01*
X35640000Y-22686947D01*
X35891069Y-22667187D01*
X35891078Y-22667185D01*
X36135949Y-22608397D01*
X36135959Y-22608394D01*
X36264586Y-22555114D01*
X35640000Y-21930528D01*
X35015413Y-22555115D01*
X34171903Y-22555115D01*
X31649807Y-20033018D01*
X31606723Y-19961747D01*
X31601694Y-19878617D01*
X31635874Y-19802672D01*
X31701432Y-19751310D01*
X31783350Y-19736298D01*
X31797929Y-19737799D01*
X31802740Y-19738500D01*
X31802741Y-19738500D01*
X33951962Y-19738500D01*
X34032824Y-19758431D01*
X34056237Y-19773206D01*
X34133909Y-19831351D01*
X34258377Y-19877775D01*
X34327176Y-19924707D01*
X34366283Y-19998236D01*
X34366741Y-20081517D01*
X34343548Y-20131829D01*
X34345142Y-20132806D01*
X34209982Y-20353366D01*
X34209978Y-20353373D01*
X34113605Y-20586039D01*
X34113602Y-20586050D01*
X34054814Y-20830921D01*
X34054812Y-20830930D01*
X34035052Y-21082000D01*
X34054812Y-21333069D01*
X34054814Y-21333078D01*
X34113602Y-21577949D01*
X34113607Y-21577964D01*
X34166883Y-21706585D01*
X34719580Y-21153889D01*
X35140000Y-21153889D01*
X35180507Y-21291844D01*
X35258239Y-21412798D01*
X35366900Y-21506952D01*
X35497685Y-21566680D01*
X35604237Y-21582000D01*
X35675763Y-21582000D01*
X35782315Y-21566680D01*
X35913100Y-21506952D01*
X36021761Y-21412798D01*
X36099493Y-21291844D01*
X36140000Y-21153889D01*
X36140000Y-21010111D01*
X36099493Y-20872156D01*
X36021761Y-20751202D01*
X35913100Y-20657048D01*
X35782315Y-20597320D01*
X35675763Y-20582000D01*
X35604237Y-20582000D01*
X35497685Y-20597320D01*
X35366900Y-20657048D01*
X35258239Y-20751202D01*
X35180507Y-20872156D01*
X35140000Y-21010111D01*
X35140000Y-21153889D01*
X34719580Y-21153889D01*
X35516962Y-20356508D01*
X35588234Y-20313424D01*
X35671363Y-20308395D01*
X35747308Y-20342575D01*
X35763035Y-20356508D01*
X37113114Y-21706585D01*
X37166394Y-21577959D01*
X37166397Y-21577949D01*
X37225185Y-21333078D01*
X37225187Y-21333069D01*
X37244947Y-21082000D01*
X37225187Y-20830930D01*
X37225185Y-20830921D01*
X37166397Y-20586050D01*
X37166394Y-20586039D01*
X37070021Y-20353373D01*
X37070017Y-20353366D01*
X36938431Y-20138636D01*
X36938425Y-20138628D01*
X36851916Y-20037340D01*
X36814555Y-19962909D01*
X36816064Y-19879641D01*
X36856097Y-19806612D01*
X36879956Y-19785039D01*
X36895768Y-19773203D01*
X36972446Y-19740702D01*
X37000038Y-19738500D01*
X37097195Y-19738500D01*
X37178057Y-19758431D01*
X37240394Y-19813657D01*
X37244300Y-19820290D01*
X37244489Y-19820170D01*
X37291924Y-19894383D01*
X37294381Y-19898343D01*
X37334930Y-19965736D01*
X37334932Y-19965738D01*
X37334935Y-19965743D01*
X37340641Y-19973250D01*
X37340373Y-19973453D01*
X37343031Y-19976853D01*
X37343294Y-19976642D01*
X37349197Y-19983986D01*
X37404807Y-20039596D01*
X37408093Y-20042973D01*
X37462151Y-20100041D01*
X37469344Y-20106151D01*
X37469125Y-20106407D01*
X37483478Y-20118267D01*
X39019166Y-21653954D01*
X39028745Y-21664346D01*
X39061663Y-21703100D01*
X39124287Y-21750705D01*
X39127918Y-21753544D01*
X39189246Y-21802842D01*
X39189251Y-21802844D01*
X39197196Y-21807923D01*
X39197013Y-21808207D01*
X39200675Y-21810479D01*
X39200850Y-21810189D01*
X39208933Y-21815052D01*
X39208936Y-21815054D01*
X39208938Y-21815055D01*
X39208940Y-21815056D01*
X39280311Y-21848076D01*
X39284537Y-21850100D01*
X39354979Y-21885036D01*
X39354984Y-21885037D01*
X39363830Y-21888287D01*
X39363713Y-21888605D01*
X39367785Y-21890039D01*
X39367893Y-21889720D01*
X39376829Y-21892731D01*
X39376832Y-21892731D01*
X39376833Y-21892732D01*
X39377204Y-21892813D01*
X39377759Y-21892936D01*
X39378454Y-21893279D01*
X39385778Y-21895747D01*
X39385447Y-21896728D01*
X39452447Y-21929781D01*
X39486025Y-21967698D01*
X39491427Y-21975967D01*
X39654231Y-22152820D01*
X39654239Y-22152828D01*
X39843925Y-22300467D01*
X39843934Y-22300473D01*
X40055343Y-22414882D01*
X40282693Y-22492931D01*
X40282700Y-22492933D01*
X40282703Y-22492934D01*
X40519808Y-22532500D01*
X40519812Y-22532500D01*
X40760188Y-22532500D01*
X40760192Y-22532500D01*
X40997297Y-22492934D01*
X41048661Y-22475301D01*
X41224656Y-22414882D01*
X41436067Y-22300472D01*
X41436069Y-22300469D01*
X41436074Y-22300467D01*
X41625760Y-22152828D01*
X41625759Y-22152828D01*
X41625764Y-22152825D01*
X41752082Y-22015607D01*
X41776894Y-21988654D01*
X41846323Y-21942660D01*
X41904910Y-21932500D01*
X44066952Y-21932500D01*
X44147814Y-21952431D01*
X44194968Y-21988654D01*
X44346087Y-22152814D01*
X44346101Y-22152828D01*
X44535787Y-22300467D01*
X44535796Y-22300473D01*
X44747205Y-22414882D01*
X44974555Y-22492931D01*
X44974562Y-22492933D01*
X44974565Y-22492934D01*
X45211670Y-22532500D01*
X45211674Y-22532500D01*
X45452050Y-22532500D01*
X45452054Y-22532500D01*
X45689159Y-22492934D01*
X45740523Y-22475301D01*
X45916518Y-22414882D01*
X46127929Y-22300472D01*
X46127931Y-22300469D01*
X46127936Y-22300467D01*
X46317622Y-22152828D01*
X46317621Y-22152828D01*
X46317626Y-22152825D01*
X46443944Y-22015607D01*
X46468756Y-21988654D01*
X46538185Y-21942660D01*
X46596772Y-21932500D01*
X47202362Y-21932500D01*
X47216483Y-21933073D01*
X47231295Y-21934280D01*
X47267165Y-21937201D01*
X47267165Y-21937200D01*
X47267167Y-21937201D01*
X47345113Y-21926580D01*
X47349718Y-21926017D01*
X47408903Y-21919580D01*
X47427911Y-21917514D01*
X47437129Y-21915485D01*
X47437201Y-21915815D01*
X47441396Y-21914832D01*
X47441315Y-21914503D01*
X47450468Y-21912227D01*
X47524323Y-21885093D01*
X47528656Y-21883567D01*
X47603221Y-21858444D01*
X47603223Y-21858442D01*
X47603225Y-21858442D01*
X47611786Y-21854482D01*
X47611928Y-21854789D01*
X47615811Y-21852928D01*
X47615661Y-21852625D01*
X47624113Y-21848433D01*
X47624112Y-21848433D01*
X47624116Y-21848432D01*
X47690416Y-21806052D01*
X47694337Y-21803621D01*
X47761736Y-21763070D01*
X47761742Y-21763063D01*
X47769249Y-21757359D01*
X47769454Y-21757628D01*
X47772841Y-21754980D01*
X47772629Y-21754717D01*
X47779980Y-21748807D01*
X47779983Y-21748803D01*
X47779989Y-21748800D01*
X47835631Y-21693156D01*
X47838974Y-21689905D01*
X47896041Y-21635849D01*
X47896046Y-21635840D01*
X47902151Y-21628655D01*
X47902408Y-21628873D01*
X47914264Y-21614523D01*
X48439591Y-21089196D01*
X48510860Y-21046114D01*
X48593990Y-21041085D01*
X48669935Y-21075265D01*
X48721297Y-21140823D01*
X48736090Y-21198583D01*
X48746674Y-21333069D01*
X48746676Y-21333078D01*
X48805464Y-21577949D01*
X48805469Y-21577964D01*
X48858745Y-21706585D01*
X48858746Y-21706585D01*
X49411444Y-21153889D01*
X49831862Y-21153889D01*
X49872369Y-21291844D01*
X49950101Y-21412798D01*
X50058762Y-21506952D01*
X50189547Y-21566680D01*
X50296099Y-21582000D01*
X50367625Y-21582000D01*
X50474177Y-21566680D01*
X50604962Y-21506952D01*
X50713623Y-21412798D01*
X50791355Y-21291844D01*
X50831862Y-21153889D01*
X50831862Y-21010111D01*
X50791355Y-20872156D01*
X50713623Y-20751202D01*
X50604962Y-20657048D01*
X50474177Y-20597320D01*
X50367625Y-20582000D01*
X50296099Y-20582000D01*
X50189547Y-20597320D01*
X50058762Y-20657048D01*
X49950101Y-20751202D01*
X49872369Y-20872156D01*
X49831862Y-21010111D01*
X49831862Y-21153889D01*
X49411444Y-21153889D01*
X50264147Y-20301188D01*
X50956447Y-19608884D01*
X50956447Y-19608883D01*
X50827826Y-19555607D01*
X50827811Y-19555602D01*
X50582940Y-19496814D01*
X50582920Y-19496810D01*
X50448443Y-19486226D01*
X50369395Y-19460012D01*
X50311583Y-19400065D01*
X50288253Y-19320118D01*
X50304747Y-19238486D01*
X50339055Y-19189732D01*
X51930898Y-17597889D01*
X56142000Y-17597889D01*
X56182507Y-17735844D01*
X56260239Y-17856798D01*
X56368900Y-17950952D01*
X56499685Y-18010680D01*
X56606237Y-18026000D01*
X56677763Y-18026000D01*
X56784315Y-18010680D01*
X56915100Y-17950952D01*
X57023761Y-17856798D01*
X57101493Y-17735844D01*
X57142000Y-17597889D01*
X57142000Y-17454111D01*
X57101493Y-17316156D01*
X57023761Y-17195202D01*
X56915100Y-17101048D01*
X56784315Y-17041320D01*
X56677763Y-17026000D01*
X56606237Y-17026000D01*
X56499685Y-17041320D01*
X56368900Y-17101048D01*
X56260239Y-17195202D01*
X56182507Y-17316156D01*
X56142000Y-17454111D01*
X56142000Y-17597889D01*
X51930898Y-17597889D01*
X53641325Y-15887463D01*
X53712597Y-15844379D01*
X53764362Y-15836500D01*
X55011109Y-15836500D01*
X55091971Y-15856431D01*
X55154308Y-15911657D01*
X55183840Y-15989527D01*
X55173802Y-16072201D01*
X55150402Y-16114776D01*
X55098647Y-16183910D01*
X55098645Y-16183913D01*
X55048401Y-16318623D01*
X55048401Y-16318626D01*
X55042000Y-16378171D01*
X55042000Y-16925999D01*
X55042001Y-16926000D01*
X58241999Y-16926000D01*
X58242000Y-16925999D01*
X58242000Y-16378171D01*
X58235598Y-16318626D01*
X58235598Y-16318623D01*
X58185354Y-16183913D01*
X58185353Y-16183911D01*
X58127206Y-16106237D01*
X58094703Y-16029560D01*
X58092500Y-16001962D01*
X58092500Y-13852738D01*
X58082573Y-13784608D01*
X58078584Y-13771698D01*
X58081703Y-13770734D01*
X58068783Y-13711043D01*
X58081097Y-13661078D01*
X58078584Y-13660302D01*
X58082571Y-13647396D01*
X58082573Y-13647393D01*
X58092500Y-13579260D01*
X58092500Y-11312740D01*
X58082573Y-11244607D01*
X58082572Y-11244605D01*
X58078584Y-11231698D01*
X58081703Y-11230734D01*
X58068783Y-11171043D01*
X58081097Y-11121078D01*
X58078584Y-11120302D01*
X58082571Y-11107396D01*
X58082573Y-11107393D01*
X58092500Y-11039260D01*
X58092500Y-8772740D01*
X58092416Y-8772165D01*
X58084767Y-8719663D01*
X58082573Y-8704607D01*
X58082572Y-8704605D01*
X58078584Y-8691698D01*
X58081703Y-8690734D01*
X58068783Y-8631043D01*
X58081097Y-8581078D01*
X58078584Y-8580302D01*
X58082571Y-8567396D01*
X58082573Y-8567393D01*
X58092500Y-8499260D01*
X58092500Y-6232740D01*
X58082573Y-6164607D01*
X58082572Y-6164605D01*
X58078584Y-6151698D01*
X58081703Y-6150734D01*
X58068783Y-6091043D01*
X58081097Y-6041078D01*
X58078584Y-6040302D01*
X58082571Y-6027396D01*
X58082573Y-6027393D01*
X58092500Y-5959260D01*
X58092500Y-3692740D01*
X58082573Y-3624607D01*
X58031198Y-3519517D01*
X57948483Y-3436802D01*
X57948481Y-3436801D01*
X57948480Y-3436800D01*
X57843393Y-3385427D01*
X57843391Y-3385426D01*
X57775261Y-3375500D01*
X57775260Y-3375500D01*
X55508740Y-3375500D01*
X55508739Y-3375500D01*
X55440608Y-3385426D01*
X55440606Y-3385427D01*
X55335519Y-3436800D01*
X55252800Y-3519519D01*
X55201427Y-3624606D01*
X55201426Y-3624608D01*
X55191500Y-3692738D01*
X55191500Y-3801500D01*
X55171569Y-3882362D01*
X55116343Y-3944699D01*
X55038473Y-3974231D01*
X55017500Y-3975500D01*
X44235521Y-3975500D01*
X44154659Y-3955569D01*
X44092322Y-3900343D01*
X44062790Y-3822473D01*
X44063487Y-3804015D01*
X43434000Y-3174528D01*
X42801338Y-3807190D01*
X42799364Y-3850749D01*
X42757361Y-3922663D01*
X42686749Y-3966820D01*
X42632479Y-3975500D01*
X41441521Y-3975500D01*
X41360659Y-3955569D01*
X41298322Y-3900343D01*
X41268790Y-3822473D01*
X41269487Y-3804015D01*
X40640000Y-3174528D01*
X40007338Y-3807190D01*
X40005364Y-3850749D01*
X39963361Y-3922663D01*
X39892749Y-3966820D01*
X39838479Y-3975500D01*
X23793325Y-3975500D01*
X23712463Y-3955569D01*
X23688028Y-3940022D01*
X23639746Y-3903319D01*
X23636072Y-3900447D01*
X23574754Y-3851158D01*
X23574753Y-3851157D01*
X23574749Y-3851154D01*
X23566804Y-3846076D01*
X23566984Y-3845793D01*
X23563320Y-3843520D01*
X23563147Y-3843809D01*
X23555064Y-3838945D01*
X23483700Y-3805929D01*
X23479453Y-3803894D01*
X23409024Y-3768965D01*
X23400165Y-3765711D01*
X23400280Y-3765396D01*
X23396213Y-3763963D01*
X23396107Y-3764280D01*
X23387169Y-3761268D01*
X23310356Y-3744360D01*
X23305784Y-3743288D01*
X23229495Y-3724316D01*
X23229493Y-3724315D01*
X23229486Y-3724314D01*
X23220151Y-3723042D01*
X23220195Y-3722712D01*
X23215907Y-3722187D01*
X23215871Y-3722519D01*
X23206500Y-3721500D01*
X23206497Y-3721500D01*
X23127880Y-3721500D01*
X23123168Y-3721436D01*
X23044568Y-3719306D01*
X23035173Y-3720072D01*
X23035145Y-3719736D01*
X23016598Y-3721500D01*
X16426363Y-3721500D01*
X16345501Y-3701569D01*
X16303326Y-3670537D01*
X15616827Y-2984038D01*
X15607260Y-2973660D01*
X15574337Y-2934900D01*
X15571404Y-2932670D01*
X15511764Y-2887332D01*
X15508054Y-2884432D01*
X15446749Y-2835154D01*
X15438804Y-2830076D01*
X15438984Y-2829793D01*
X15435320Y-2827520D01*
X15435147Y-2827809D01*
X15427064Y-2822945D01*
X15355700Y-2789929D01*
X15351453Y-2787894D01*
X15281024Y-2752965D01*
X15272165Y-2749711D01*
X15272280Y-2749396D01*
X15268213Y-2747963D01*
X15268107Y-2748280D01*
X15259169Y-2745268D01*
X15182356Y-2728360D01*
X15177784Y-2727288D01*
X15101495Y-2708316D01*
X15101493Y-2708315D01*
X15101486Y-2708314D01*
X15092151Y-2707042D01*
X15092195Y-2706712D01*
X15087907Y-2706187D01*
X15087871Y-2706519D01*
X15078500Y-2705500D01*
X15078497Y-2705500D01*
X14999880Y-2705500D01*
X14995168Y-2705436D01*
X14916568Y-2703306D01*
X14907173Y-2704072D01*
X14907145Y-2703736D01*
X14888598Y-2705500D01*
X14553174Y-2705500D01*
X14472312Y-2685569D01*
X14409975Y-2630343D01*
X14384499Y-2574216D01*
X14330610Y-2361409D01*
X14315078Y-2326000D01*
X39035052Y-2326000D01*
X39054812Y-2577069D01*
X39054814Y-2577078D01*
X39113602Y-2821949D01*
X39113607Y-2821964D01*
X39166883Y-2950585D01*
X39166884Y-2950585D01*
X39719581Y-2397889D01*
X40140000Y-2397889D01*
X40180507Y-2535844D01*
X40258239Y-2656798D01*
X40366900Y-2750952D01*
X40497685Y-2810680D01*
X40604237Y-2826000D01*
X40675763Y-2826000D01*
X40782315Y-2810680D01*
X40913100Y-2750952D01*
X41021761Y-2656798D01*
X41099493Y-2535844D01*
X41140000Y-2397889D01*
X41140000Y-2326000D01*
X41488528Y-2326000D01*
X42036999Y-2874470D01*
X42513581Y-2397889D01*
X42934000Y-2397889D01*
X42974507Y-2535844D01*
X43052239Y-2656798D01*
X43160900Y-2750952D01*
X43291685Y-2810680D01*
X43398237Y-2826000D01*
X43469763Y-2826000D01*
X43576315Y-2810680D01*
X43707100Y-2750952D01*
X43815761Y-2656798D01*
X43893493Y-2535844D01*
X43934000Y-2397889D01*
X43934000Y-2326000D01*
X44282528Y-2326000D01*
X44907114Y-2950585D01*
X44960394Y-2821959D01*
X44960397Y-2821949D01*
X45019185Y-2577078D01*
X45019187Y-2577069D01*
X45038947Y-2326000D01*
X45019187Y-2074930D01*
X45019185Y-2074921D01*
X44960397Y-1830050D01*
X44960394Y-1830040D01*
X44907114Y-1701413D01*
X44282528Y-2326000D01*
X43934000Y-2326000D01*
X43934000Y-2254111D01*
X43893493Y-2116156D01*
X43815761Y-1995202D01*
X43707100Y-1901048D01*
X43576315Y-1841320D01*
X43469763Y-1826000D01*
X43398237Y-1826000D01*
X43291685Y-1841320D01*
X43160900Y-1901048D01*
X43052239Y-1995202D01*
X42974507Y-2116156D01*
X42934000Y-2254111D01*
X42934000Y-2397889D01*
X42513581Y-2397889D01*
X42585471Y-2325999D01*
X42037000Y-1777528D01*
X41488528Y-2326000D01*
X41140000Y-2326000D01*
X41140000Y-2254111D01*
X41099493Y-2116156D01*
X41021761Y-1995202D01*
X40913100Y-1901048D01*
X40782315Y-1841320D01*
X40675763Y-1826000D01*
X40604237Y-1826000D01*
X40497685Y-1841320D01*
X40366900Y-1901048D01*
X40258239Y-1995202D01*
X40180507Y-2116156D01*
X40140000Y-2254111D01*
X40140000Y-2397889D01*
X39719581Y-2397889D01*
X39791470Y-2326000D01*
X39166883Y-1701413D01*
X39113608Y-1830034D01*
X39113601Y-1830056D01*
X39054814Y-2074921D01*
X39054812Y-2074930D01*
X39035052Y-2326000D01*
X14315078Y-2326000D01*
X14273273Y-2230694D01*
X14234051Y-2141275D01*
X14102573Y-1940033D01*
X13939768Y-1763179D01*
X13939760Y-1763171D01*
X13750074Y-1615532D01*
X13750065Y-1615526D01*
X13538656Y-1501117D01*
X13311306Y-1423068D01*
X13311299Y-1423066D01*
X13232262Y-1409877D01*
X13074192Y-1383500D01*
X12833808Y-1383500D01*
X12698319Y-1406109D01*
X12596700Y-1423066D01*
X12596693Y-1423068D01*
X12369343Y-1501117D01*
X12157934Y-1615526D01*
X12157925Y-1615532D01*
X11968239Y-1763171D01*
X11968231Y-1763179D01*
X11805426Y-1940033D01*
X11673948Y-2141275D01*
X11577390Y-2361409D01*
X11577389Y-2361413D01*
X11518380Y-2594436D01*
X11498529Y-2834000D01*
X11518380Y-3073563D01*
X11577389Y-3306586D01*
X11577390Y-3306590D01*
X11673948Y-3526724D01*
X11805426Y-3727966D01*
X11968231Y-3904820D01*
X11968239Y-3904828D01*
X12157925Y-4052467D01*
X12157930Y-4052470D01*
X12157933Y-4052472D01*
X12253084Y-4103965D01*
X12350107Y-4156472D01*
X12411737Y-4212486D01*
X12440276Y-4290726D01*
X12429187Y-4373266D01*
X12381009Y-4441198D01*
X12306780Y-4478960D01*
X12267292Y-4483500D01*
X11979638Y-4483500D01*
X11965516Y-4482926D01*
X11961373Y-4482588D01*
X11914830Y-4478798D01*
X11836950Y-4489409D01*
X11832277Y-4489982D01*
X11754089Y-4498486D01*
X11744877Y-4500514D01*
X11744805Y-4500187D01*
X11740605Y-4501171D01*
X11740686Y-4501496D01*
X11731537Y-4503771D01*
X11657745Y-4530880D01*
X11653307Y-4532442D01*
X11578782Y-4557554D01*
X11570221Y-4561515D01*
X11570081Y-4561213D01*
X11566181Y-4563081D01*
X11566329Y-4563379D01*
X11557881Y-4567568D01*
X11491647Y-4609904D01*
X11487647Y-4612386D01*
X11420261Y-4652932D01*
X11412756Y-4658637D01*
X11412555Y-4658373D01*
X11409153Y-4661032D01*
X11409361Y-4661291D01*
X11402017Y-4667194D01*
X11346398Y-4722811D01*
X11343026Y-4726092D01*
X11285958Y-4780151D01*
X11279851Y-4787341D01*
X11279595Y-4787123D01*
X11267735Y-4801474D01*
X7302041Y-8767168D01*
X7291653Y-8776744D01*
X7252901Y-8809662D01*
X7205340Y-8872225D01*
X7202441Y-8875934D01*
X7153156Y-8937247D01*
X7148079Y-8945191D01*
X7147798Y-8945011D01*
X7145520Y-8948684D01*
X7145807Y-8948857D01*
X7140945Y-8956936D01*
X7121748Y-8998431D01*
X7107922Y-9028313D01*
X7105902Y-9032528D01*
X7070963Y-9102977D01*
X7067713Y-9111827D01*
X7067398Y-9111711D01*
X7065962Y-9115790D01*
X7066279Y-9115897D01*
X7063266Y-9124838D01*
X7046363Y-9201625D01*
X7045289Y-9206210D01*
X7026314Y-9282508D01*
X7025042Y-9291849D01*
X7024712Y-9291804D01*
X7024188Y-9296087D01*
X7024519Y-9296123D01*
X7023500Y-9305498D01*
X7023500Y-9384119D01*
X7023436Y-9388831D01*
X7021306Y-9467423D01*
X7022073Y-9476830D01*
X7021736Y-9476857D01*
X7023500Y-9495403D01*
X7023500Y-9660830D01*
X7003569Y-9741692D01*
X6956374Y-9798140D01*
X6888235Y-9851175D01*
X6725426Y-10028033D01*
X6593948Y-10229275D01*
X6497390Y-10449409D01*
X6438380Y-10682437D01*
X6418529Y-10922000D01*
X6438380Y-11161563D01*
X6497390Y-11394591D01*
X6522539Y-11451926D01*
X6593948Y-11614724D01*
X6725426Y-11815966D01*
X6739869Y-11831655D01*
X6779970Y-11904646D01*
X6781558Y-11987913D01*
X6744268Y-12062380D01*
X6676643Y-12110987D01*
X6611851Y-12123500D01*
X5713500Y-12123500D01*
X5632638Y-12103569D01*
X5570301Y-12048343D01*
X5540769Y-11970473D01*
X5539500Y-11949500D01*
X5539500Y-11840738D01*
X5532882Y-11795318D01*
X5529573Y-11772607D01*
X5478198Y-11667517D01*
X5395483Y-11584802D01*
X5395481Y-11584801D01*
X5395480Y-11584800D01*
X5290393Y-11533427D01*
X5290391Y-11533426D01*
X5222261Y-11523500D01*
X5222260Y-11523500D01*
X2955740Y-11523500D01*
X2955739Y-11523500D01*
X2887608Y-11533426D01*
X2887606Y-11533427D01*
X2782519Y-11584800D01*
X2699800Y-11667519D01*
X2648427Y-11772606D01*
X2648426Y-11772608D01*
X2638500Y-11840738D01*
X2638500Y-14107260D01*
X2648426Y-14175390D01*
X2652416Y-14188301D01*
X2649300Y-14189263D01*
X2662215Y-14249006D01*
X2649911Y-14298924D01*
X2652416Y-14299699D01*
X2648426Y-14312609D01*
X2638500Y-14380739D01*
X2638500Y-16647261D01*
X0Y-16647261D01*
X0Y-852883D01*
X40015413Y-852883D01*
X40640000Y-1477470D01*
X41264585Y-852884D01*
X41264585Y-852883D01*
X42809413Y-852883D01*
X43434000Y-1477470D01*
X44058585Y-852884D01*
X44058585Y-852883D01*
X43929964Y-799607D01*
X43929949Y-799602D01*
X43685078Y-740814D01*
X43685069Y-740812D01*
X43434000Y-721052D01*
X43182930Y-740812D01*
X43182921Y-740814D01*
X42938056Y-799601D01*
X42938034Y-799608D01*
X42809413Y-852883D01*
X41264585Y-852883D01*
X41135964Y-799607D01*
X41135949Y-799602D01*
X40891078Y-740814D01*
X40891069Y-740812D01*
X40640000Y-721052D01*
X40388930Y-740812D01*
X40388921Y-740814D01*
X40144056Y-799601D01*
X40144034Y-799608D01*
X40015413Y-852883D01*
X0Y-852883D01*
X0Y-174000D01*
X19931Y-93138D01*
X75157Y-30801D01*
X153027Y-1269D01*
X174000Y0D01*
X59516000Y0D01*
X59596862Y-19931D01*
G37*
%TD.AperFunction*%
%TD*%
M02*
