%TF.GenerationSoftware,KiCad,Pcbnew,7.0.10*%
%TF.CreationDate,2024-03-31T23:05:41-06:00*%
%TF.ProjectId,Electrode_Breakout,456c6563-7472-46f6-9465-5f427265616b,rev?*%
%TF.SameCoordinates,Original*%
%TF.FileFunction,Copper,L1,Top*%
%TF.FilePolarity,Positive*%
%FSLAX46Y46*%
G04 Gerber Fmt 4.6, Leading zero omitted, Abs format (unit mm)*
G04 Created by KiCad (PCBNEW 7.0.10) date 2024-03-31 23:05:41*
%MOMM*%
%LPD*%
G01*
G04 APERTURE LIST*
%TA.AperFunction,ComponentPad*%
%ADD10R,2.140000X2.140000*%
%TD*%
%TA.AperFunction,Conductor*%
%ADD11C,1.000000*%
%TD*%
G04 APERTURE END LIST*
D10*
%TO.P,J6,3,Pin_3*%
%TO.N,/+12V*%
X19714751Y-31242000D03*
%TO.P,J6,2,Pin_2*%
%TO.N,/-12V*%
X22254751Y-31242000D03*
%TO.P,J6,1,Pin_1*%
%TO.N,GND*%
X24794751Y-31242000D03*
%TD*%
%TO.P,J5,3,Pin_3*%
%TO.N,/+12V*%
X19714751Y-34798000D03*
%TO.P,J5,2,Pin_2*%
%TO.N,/-12V*%
X22254751Y-34798000D03*
%TO.P,J5,1,Pin_1*%
%TO.N,GND*%
X24794751Y-34798000D03*
%TD*%
%TO.P,J4,6,Pin_6*%
%TO.N,/ADC4*%
X23905751Y-57307001D03*
%TO.P,J4,5,Pin_5*%
%TO.N,/ADC3*%
X23905751Y-54767001D03*
%TO.P,J4,4,Pin_4*%
%TO.N,/CUR3*%
X23905751Y-52227001D03*
%TO.P,J4,3,Pin_3*%
%TO.N,/CUR4*%
X23905751Y-49687001D03*
%TO.P,J4,2,Pin_2*%
%TO.N,/SEL3*%
X23905751Y-47147001D03*
%TO.P,J4,1,Pin_1*%
%TO.N,/SEL4*%
X23905751Y-44607001D03*
%TD*%
%TO.P,J3,1,Pin_1*%
%TO.N,/ADC1*%
X23905751Y-8534400D03*
%TO.P,J3,2,Pin_2*%
%TO.N,/ADC2*%
X23905751Y-11074400D03*
%TO.P,J3,3,Pin_3*%
%TO.N,/SEL2*%
X23905751Y-13614400D03*
%TO.P,J3,4,Pin_4*%
%TO.N,/SEL1*%
X23905751Y-16154400D03*
%TO.P,J3,5,Pin_5*%
%TO.N,/CUR2*%
X23905751Y-18694400D03*
%TO.P,J3,6,Pin_6*%
%TO.N,/CUR1*%
X23905751Y-21234400D03*
%TD*%
%TO.P,J1,9,9*%
%TO.N,/ADC1*%
X10500000Y-11640751D03*
%TO.P,J1,8,8*%
%TO.N,/+12V*%
X10500000Y-14380750D03*
%TO.P,J1,7,7*%
%TO.N,/-12V*%
X10500000Y-17120750D03*
%TO.P,J1,6,6*%
%TO.N,GND*%
X10500000Y-19860749D03*
%TO.P,J1,5,5*%
%TO.N,/ADC2*%
X13040000Y-10270751D03*
%TO.P,J1,4,4*%
%TO.N,/SEL2*%
X13040000Y-13010750D03*
%TO.P,J1,3,3*%
%TO.N,/SEL1*%
X13040000Y-15750750D03*
%TO.P,J1,2,2*%
%TO.N,/CUR2*%
X13040000Y-18490750D03*
%TO.P,J1,1,1*%
%TO.N,/CUR1*%
X13040000Y-21230749D03*
%TD*%
%TO.P,J2,9,9*%
%TO.N,GND*%
X10500000Y-45977001D03*
%TO.P,J2,8,8*%
%TO.N,/-12V*%
X10500000Y-48717000D03*
%TO.P,J2,7,7*%
%TO.N,/+12V*%
X10500000Y-51457000D03*
%TO.P,J2,6,6*%
%TO.N,/ADC4*%
X10500000Y-54196999D03*
%TO.P,J2,5,5*%
%TO.N,/SEL4*%
X13040000Y-44607001D03*
%TO.P,J2,4,4*%
%TO.N,/SEL3*%
X13040000Y-47347000D03*
%TO.P,J2,3,3*%
%TO.N,/CUR4*%
X13040000Y-50087000D03*
%TO.P,J2,2,2*%
%TO.N,/CUR3*%
X13040000Y-52827000D03*
%TO.P,J2,1,1*%
%TO.N,/ADC3*%
X13040000Y-55566999D03*
%TD*%
D11*
%TO.N,/-12V*%
X8787250Y-17120750D02*
X10500000Y-17120750D01*
X8128000Y-17780000D02*
X8787250Y-17120750D01*
X16002000Y-30734000D02*
X10160000Y-30734000D01*
X18034000Y-28702000D02*
X16002000Y-30734000D01*
X21590000Y-28702000D02*
X18034000Y-28702000D01*
X22254751Y-29366751D02*
X21590000Y-28702000D01*
X10160000Y-30734000D02*
X8128000Y-28702000D01*
X8128000Y-28702000D02*
X8128000Y-17780000D01*
X22254751Y-31242000D02*
X22254751Y-29366751D01*
X8712000Y-48717000D02*
X10500000Y-48717000D01*
X8128000Y-48133000D02*
X8712000Y-48717000D01*
X15748000Y-35052000D02*
X10414000Y-35052000D01*
X18034000Y-37338000D02*
X15748000Y-35052000D01*
X10414000Y-35052000D02*
X8128000Y-37338000D01*
X22254751Y-36673249D02*
X21590000Y-37338000D01*
X21590000Y-37338000D02*
X18034000Y-37338000D01*
X22254751Y-34798000D02*
X22254751Y-36673249D01*
X8128000Y-37338000D02*
X8128000Y-48133000D01*
%TO.N,/+12V*%
X6718000Y-30340000D02*
X9398000Y-33020000D01*
X6718000Y-16092750D02*
X6718000Y-30340000D01*
X8430000Y-14380750D02*
X6718000Y-16092750D01*
X10500000Y-14380750D02*
X8430000Y-14380750D01*
X9398000Y-33020000D02*
X10538998Y-33020000D01*
X6718000Y-35700000D02*
X9398000Y-33020000D01*
X6718000Y-48717041D02*
X6718000Y-35700000D01*
X9457959Y-51457000D02*
X6718000Y-48717041D01*
X10500000Y-51457000D02*
X9457959Y-51457000D01*
X10538998Y-33020000D02*
X17936751Y-33020000D01*
%TO.N,/ADC1*%
X21704200Y-8204200D02*
X22034400Y-8534400D01*
X10500000Y-9080752D02*
X11376552Y-8204200D01*
X22034400Y-8534400D02*
X23905751Y-8534400D01*
X10500000Y-11640751D02*
X10500000Y-9080752D01*
X11376552Y-8204200D02*
X21704200Y-8204200D01*
%TO.N,/ADC4*%
X11636150Y-57606650D02*
X10500000Y-56470500D01*
X10500000Y-56470500D02*
X10500000Y-54196999D01*
X21968799Y-57307001D02*
X21669150Y-57606650D01*
X23905751Y-57307001D02*
X21968799Y-57307001D01*
X21669150Y-57606650D02*
X11636150Y-57606650D01*
%TO.N,/ADC3*%
X21168801Y-55566999D02*
X21968799Y-54767001D01*
X13040000Y-55566999D02*
X21168801Y-55566999D01*
X21968799Y-54767001D02*
X23905751Y-54767001D01*
%TO.N,/CUR3*%
X21368800Y-52827000D02*
X21968799Y-52227001D01*
X13040000Y-52827000D02*
X21368800Y-52827000D01*
X21968799Y-52227001D02*
X23905751Y-52227001D01*
%TO.N,/CUR4*%
X21968799Y-49687001D02*
X23905751Y-49687001D01*
X21568800Y-50087000D02*
X21968799Y-49687001D01*
X13040000Y-50087000D02*
X21568800Y-50087000D01*
%TO.N,/SEL3*%
X21718000Y-47347000D02*
X21917999Y-47147001D01*
X21917999Y-47147001D02*
X23905751Y-47147001D01*
X13040000Y-47347000D02*
X21718000Y-47347000D01*
%TO.N,/SEL4*%
X13040000Y-44607001D02*
X23905751Y-44607001D01*
%TO.N,/ADC2*%
X21238751Y-11074400D02*
X23905751Y-11074400D01*
X20435102Y-10270751D02*
X21238751Y-11074400D01*
X13040000Y-10270751D02*
X20435102Y-10270751D01*
%TO.N,/SEL2*%
X21187951Y-13614400D02*
X23905751Y-13614400D01*
X20584301Y-13010750D02*
X21187951Y-13614400D01*
X13040000Y-13010750D02*
X20584301Y-13010750D01*
%TO.N,/SEL1*%
X20733501Y-15750750D02*
X21137151Y-16154400D01*
X13040000Y-15750750D02*
X20733501Y-15750750D01*
X21137151Y-16154400D02*
X23905751Y-16154400D01*
%TO.N,/CUR1*%
X23902100Y-21230749D02*
X23905751Y-21234400D01*
X13040000Y-21230749D02*
X23902100Y-21230749D01*
%TO.N,/CUR2*%
X20883151Y-18694400D02*
X23905751Y-18694400D01*
X20679501Y-18490750D02*
X20883151Y-18694400D01*
X13040000Y-18490750D02*
X20679501Y-18490750D01*
%TO.N,/-12V*%
X22254751Y-34798000D02*
X22254751Y-31242000D01*
%TO.N,/+12V*%
X17936751Y-33020000D02*
X19714751Y-31242000D01*
X19714751Y-34798000D02*
X17936751Y-33020000D01*
%TD*%
%TA.AperFunction,Conductor*%
%TO.N,GND*%
G36*
X10040507Y-46186845D02*
G01*
X10118239Y-46307799D01*
X10226900Y-46401953D01*
X10357685Y-46461681D01*
X10464237Y-46477001D01*
X10204000Y-46477001D01*
X10115488Y-46456799D01*
X10044506Y-46400193D01*
X10005115Y-46318395D01*
X10000000Y-46273001D01*
X10000000Y-46048890D01*
X10040507Y-46186845D01*
G37*
%TD.AperFunction*%
%TA.AperFunction,Conductor*%
G36*
X11000000Y-46273001D02*
G01*
X10979798Y-46361513D01*
X10923192Y-46432495D01*
X10841394Y-46471886D01*
X10796000Y-46477001D01*
X10535763Y-46477001D01*
X10642315Y-46461681D01*
X10773100Y-46401953D01*
X10881761Y-46307799D01*
X10959493Y-46186845D01*
X11000000Y-46048890D01*
X11000000Y-46273001D01*
G37*
%TD.AperFunction*%
%TA.AperFunction,Conductor*%
G36*
X10357685Y-19376069D02*
G01*
X10226900Y-19435797D01*
X10118239Y-19529951D01*
X10040507Y-19650905D01*
X10000000Y-19788860D01*
X10000000Y-19564749D01*
X10020202Y-19476237D01*
X10076808Y-19405255D01*
X10158606Y-19365864D01*
X10204000Y-19360749D01*
X10464237Y-19360749D01*
X10357685Y-19376069D01*
G37*
%TD.AperFunction*%
%TA.AperFunction,Conductor*%
G36*
X10884512Y-19380951D02*
G01*
X10955494Y-19437557D01*
X10994885Y-19519355D01*
X11000000Y-19564749D01*
X11000000Y-19788860D01*
X10959493Y-19650905D01*
X10881761Y-19529951D01*
X10773100Y-19435797D01*
X10642315Y-19376069D01*
X10535763Y-19360749D01*
X10796000Y-19360749D01*
X10884512Y-19380951D01*
G37*
%TD.AperFunction*%
%TA.AperFunction,Conductor*%
G36*
X30134012Y-20702D02*
G01*
X30204994Y-77308D01*
X30244385Y-159106D01*
X30249500Y-204500D01*
X30249500Y-65545500D01*
X30229298Y-65634012D01*
X30172692Y-65704994D01*
X30090894Y-65744385D01*
X30045500Y-65749500D01*
X204500Y-65749500D01*
X115988Y-65729298D01*
X45006Y-65672692D01*
X5615Y-65590894D01*
X500Y-65545500D01*
X500Y-62716886D01*
X9970099Y-62716886D01*
X10010304Y-62983634D01*
X10089821Y-63241422D01*
X10206869Y-63484473D01*
X10206871Y-63484478D01*
X10358831Y-63707361D01*
X10358834Y-63707365D01*
X10542324Y-63905122D01*
X10542326Y-63905124D01*
X10753231Y-64073314D01*
X10753235Y-64073316D01*
X10753236Y-64073317D01*
X10986862Y-64208201D01*
X10986863Y-64208201D01*
X10986866Y-64208203D01*
X10986865Y-64208203D01*
X11185934Y-64286330D01*
X11237982Y-64306758D01*
X11237984Y-64306759D01*
X11500977Y-64366785D01*
X11500986Y-64366787D01*
X11702652Y-64381900D01*
X11702656Y-64381900D01*
X11837342Y-64381900D01*
X11837346Y-64381900D01*
X12039012Y-64366787D01*
X12132566Y-64345433D01*
X12302013Y-64306759D01*
X12302014Y-64306758D01*
X12302016Y-64306758D01*
X12449041Y-64249055D01*
X12553132Y-64208203D01*
X12553134Y-64208201D01*
X12553136Y-64208201D01*
X12786762Y-64073317D01*
X12786766Y-64073314D01*
X12997671Y-63905124D01*
X12997673Y-63905122D01*
X13181159Y-63707370D01*
X13181163Y-63707366D01*
X13333129Y-63484474D01*
X13450177Y-63241421D01*
X13529692Y-62983638D01*
X13569899Y-62716884D01*
X13569899Y-62447116D01*
X13569899Y-62447113D01*
X13529693Y-62180365D01*
X13450176Y-61922577D01*
X13333129Y-61679527D01*
X13333127Y-61679524D01*
X13333126Y-61679521D01*
X13181166Y-61456638D01*
X13181163Y-61456634D01*
X12997673Y-61258877D01*
X12997671Y-61258875D01*
X12786766Y-61090685D01*
X12786759Y-61090681D01*
X12553131Y-60955796D01*
X12553132Y-60955796D01*
X12302017Y-60857242D01*
X12302013Y-60857240D01*
X12039020Y-60797214D01*
X12039014Y-60797213D01*
X12039012Y-60797213D01*
X11837346Y-60782100D01*
X11702652Y-60782100D01*
X11702651Y-60782100D01*
X11664911Y-60784928D01*
X11500986Y-60797213D01*
X11500983Y-60797213D01*
X11500977Y-60797214D01*
X11237984Y-60857240D01*
X11237980Y-60857242D01*
X10986865Y-60955796D01*
X10753238Y-61090681D01*
X10753231Y-61090685D01*
X10542326Y-61258875D01*
X10542324Y-61258877D01*
X10358838Y-61456629D01*
X10358834Y-61456634D01*
X10206867Y-61679529D01*
X10089821Y-61922577D01*
X10010304Y-62180365D01*
X9970099Y-62447113D01*
X9970099Y-62716886D01*
X500Y-62716886D01*
X500Y-35747910D01*
X5803739Y-35747910D01*
X5803740Y-35747914D01*
X5804988Y-35755797D01*
X5807500Y-35787707D01*
X5807500Y-48629333D01*
X5804988Y-48661248D01*
X5803740Y-48669127D01*
X5807220Y-48735526D01*
X5807500Y-48746204D01*
X5807500Y-48764756D01*
X5809392Y-48782758D01*
X5809439Y-48783207D01*
X5810275Y-48793842D01*
X5813756Y-48860252D01*
X5813757Y-48860262D01*
X5815823Y-48867971D01*
X5821655Y-48899433D01*
X5822491Y-48907388D01*
X5822492Y-48907394D01*
X5843046Y-48970653D01*
X5846078Y-48980890D01*
X5863290Y-49045126D01*
X5863292Y-49045130D01*
X5863293Y-49045133D01*
X5866923Y-49052259D01*
X5879165Y-49081813D01*
X5881634Y-49089413D01*
X5914887Y-49147008D01*
X5919983Y-49156394D01*
X5950180Y-49215660D01*
X5950186Y-49215668D01*
X5955209Y-49221871D01*
X5973343Y-49248256D01*
X5977333Y-49255167D01*
X6019272Y-49301746D01*
X6021841Y-49304599D01*
X6028761Y-49312700D01*
X6040440Y-49327122D01*
X6053544Y-49340226D01*
X6060891Y-49347969D01*
X6105398Y-49397399D01*
X6105401Y-49397402D01*
X6111857Y-49402092D01*
X6136200Y-49422882D01*
X8752117Y-52038799D01*
X8772904Y-52063138D01*
X8777592Y-52069591D01*
X8777601Y-52069601D01*
X8827029Y-52114106D01*
X8834756Y-52121438D01*
X8847878Y-52134560D01*
X8862290Y-52146231D01*
X8870404Y-52153162D01*
X8919830Y-52197665D01*
X8928480Y-52203949D01*
X8927368Y-52205478D01*
X8984047Y-52258064D01*
X9017220Y-52342575D01*
X9019500Y-52372988D01*
X9019500Y-52559300D01*
X9019501Y-52559304D01*
X9034725Y-52655433D01*
X9074953Y-52734385D01*
X9097136Y-52822422D01*
X9078924Y-52911365D01*
X9074953Y-52919611D01*
X9034725Y-52998563D01*
X9034723Y-52998569D01*
X9019500Y-53094685D01*
X9019500Y-55299299D01*
X9019501Y-55299303D01*
X9034725Y-55395435D01*
X9093756Y-55511289D01*
X9093759Y-55511293D01*
X9185706Y-55603240D01*
X9301567Y-55662274D01*
X9301568Y-55662274D01*
X9301570Y-55662275D01*
X9389374Y-55676181D01*
X9397693Y-55677499D01*
X9397699Y-55677498D01*
X9401507Y-55677799D01*
X9403480Y-55678415D01*
X9405609Y-55678753D01*
X9405559Y-55679065D01*
X9488161Y-55704884D01*
X9554482Y-55766885D01*
X9587334Y-55851521D01*
X9589500Y-55881170D01*
X9589500Y-56382792D01*
X9586988Y-56414705D01*
X9585740Y-56422586D01*
X9586668Y-56440302D01*
X9589220Y-56488985D01*
X9589500Y-56499663D01*
X9589500Y-56518215D01*
X9591439Y-56536666D01*
X9592275Y-56547301D01*
X9595756Y-56613711D01*
X9595757Y-56613721D01*
X9597823Y-56621430D01*
X9603655Y-56652892D01*
X9604491Y-56660847D01*
X9604492Y-56660853D01*
X9625046Y-56724112D01*
X9628078Y-56734349D01*
X9645290Y-56798585D01*
X9645292Y-56798589D01*
X9645293Y-56798592D01*
X9648923Y-56805718D01*
X9661165Y-56835272D01*
X9663634Y-56842872D01*
X9696887Y-56900467D01*
X9701983Y-56909853D01*
X9732180Y-56969119D01*
X9732186Y-56969127D01*
X9737209Y-56975330D01*
X9755343Y-57001715D01*
X9759333Y-57008626D01*
X9801272Y-57055205D01*
X9803841Y-57058058D01*
X9810761Y-57066159D01*
X9822440Y-57080581D01*
X9835544Y-57093685D01*
X9842891Y-57101428D01*
X9887398Y-57150858D01*
X9887401Y-57150861D01*
X9893857Y-57155551D01*
X9918200Y-57176341D01*
X10930311Y-58188453D01*
X10951099Y-58212793D01*
X10955789Y-58219248D01*
X10955792Y-58219251D01*
X11005208Y-58263746D01*
X11012955Y-58271097D01*
X11026068Y-58284210D01*
X11040489Y-58295888D01*
X11048588Y-58302805D01*
X11098024Y-58347317D01*
X11098026Y-58347318D01*
X11098027Y-58347319D01*
X11104936Y-58351308D01*
X11131312Y-58369435D01*
X11137525Y-58374466D01*
X11196790Y-58404663D01*
X11196792Y-58404664D01*
X11206178Y-58409760D01*
X11263773Y-58443013D01*
X11263774Y-58443013D01*
X11263777Y-58443015D01*
X11271365Y-58445480D01*
X11300945Y-58457732D01*
X11308058Y-58461357D01*
X11372325Y-58478576D01*
X11382499Y-58481589D01*
X11445804Y-58502159D01*
X11453748Y-58502993D01*
X11485216Y-58508825D01*
X11492932Y-58510893D01*
X11559379Y-58514375D01*
X11569971Y-58515209D01*
X11588435Y-58517150D01*
X11606985Y-58517150D01*
X11617663Y-58517430D01*
X11684062Y-58520910D01*
X11684062Y-58520909D01*
X11684064Y-58520910D01*
X11691944Y-58519661D01*
X11723858Y-58517150D01*
X21581442Y-58517150D01*
X21613355Y-58519661D01*
X21621236Y-58520910D01*
X21687637Y-58517429D01*
X21698315Y-58517150D01*
X21716861Y-58517150D01*
X21716865Y-58517150D01*
X21735327Y-58515209D01*
X21745925Y-58514374D01*
X21812368Y-58510893D01*
X21820079Y-58508826D01*
X21851552Y-58502993D01*
X21859496Y-58502159D01*
X21922767Y-58481600D01*
X21932993Y-58478572D01*
X21997238Y-58461358D01*
X21997237Y-58461358D01*
X21997242Y-58461357D01*
X22004355Y-58457732D01*
X22033933Y-58445480D01*
X22041523Y-58443015D01*
X22099140Y-58409748D01*
X22108485Y-58404674D01*
X22152415Y-58382291D01*
X22240449Y-58360109D01*
X22329393Y-58378321D01*
X22401626Y-58433320D01*
X22439044Y-58501025D01*
X22440478Y-58505440D01*
X22499507Y-58621291D01*
X22499509Y-58621294D01*
X22499510Y-58621295D01*
X22591457Y-58713242D01*
X22707318Y-58772276D01*
X22707319Y-58772276D01*
X22707321Y-58772277D01*
X22749080Y-58778890D01*
X22803444Y-58787501D01*
X25008057Y-58787500D01*
X25104184Y-58772276D01*
X25104185Y-58772275D01*
X25104187Y-58772275D01*
X25220041Y-58713244D01*
X25220045Y-58713242D01*
X25311992Y-58621295D01*
X25371026Y-58505434D01*
X25371725Y-58501025D01*
X25386250Y-58409314D01*
X25386251Y-58409308D01*
X25386250Y-56204695D01*
X25371026Y-56108568D01*
X25371023Y-56108562D01*
X25368256Y-56100045D01*
X25360116Y-56009622D01*
X25368257Y-55973953D01*
X25371023Y-55965439D01*
X25371026Y-55965434D01*
X25386251Y-55869308D01*
X25386250Y-53664695D01*
X25371026Y-53568568D01*
X25371023Y-53568562D01*
X25368256Y-53560045D01*
X25360116Y-53469622D01*
X25368257Y-53433953D01*
X25371023Y-53425439D01*
X25371026Y-53425434D01*
X25386251Y-53329308D01*
X25386250Y-51124695D01*
X25371026Y-51028568D01*
X25371023Y-51028562D01*
X25368256Y-51020045D01*
X25360116Y-50929622D01*
X25368257Y-50893953D01*
X25371023Y-50885439D01*
X25371026Y-50885434D01*
X25386251Y-50789308D01*
X25386250Y-48584695D01*
X25371026Y-48488568D01*
X25371023Y-48488562D01*
X25368256Y-48480045D01*
X25360116Y-48389622D01*
X25368257Y-48353953D01*
X25371023Y-48345439D01*
X25371026Y-48345434D01*
X25386251Y-48249308D01*
X25386250Y-46044695D01*
X25371026Y-45948568D01*
X25371023Y-45948562D01*
X25368256Y-45940045D01*
X25360116Y-45849622D01*
X25368257Y-45813953D01*
X25371025Y-45805435D01*
X25371026Y-45805434D01*
X25386251Y-45709308D01*
X25386250Y-43504695D01*
X25371026Y-43408568D01*
X25371025Y-43408566D01*
X25371025Y-43408564D01*
X25311994Y-43292710D01*
X25311992Y-43292707D01*
X25220044Y-43200759D01*
X25104182Y-43141725D01*
X25104180Y-43141724D01*
X25008059Y-43126501D01*
X22803450Y-43126501D01*
X22803446Y-43126501D01*
X22803445Y-43126502D01*
X22784219Y-43129546D01*
X22707314Y-43141726D01*
X22591460Y-43200757D01*
X22499510Y-43292707D01*
X22499509Y-43292707D01*
X22440475Y-43408569D01*
X22440474Y-43408571D01*
X22425251Y-43504688D01*
X22424951Y-43508508D01*
X22424334Y-43510481D01*
X22423997Y-43512610D01*
X22423684Y-43512560D01*
X22397866Y-43595162D01*
X22335865Y-43661483D01*
X22251229Y-43694335D01*
X22221580Y-43696501D01*
X14724170Y-43696501D01*
X14635658Y-43676299D01*
X14564676Y-43619693D01*
X14525285Y-43537895D01*
X14520799Y-43508511D01*
X14520499Y-43504708D01*
X14520499Y-43504695D01*
X14505275Y-43408568D01*
X14505274Y-43408566D01*
X14505274Y-43408564D01*
X14446243Y-43292710D01*
X14446241Y-43292707D01*
X14354293Y-43200759D01*
X14238431Y-43141725D01*
X14238429Y-43141724D01*
X14142308Y-43126501D01*
X11937699Y-43126501D01*
X11937695Y-43126501D01*
X11937694Y-43126502D01*
X11918468Y-43129546D01*
X11841563Y-43141726D01*
X11725709Y-43200757D01*
X11633759Y-43292707D01*
X11633758Y-43292707D01*
X11574724Y-43408569D01*
X11574723Y-43408571D01*
X11559500Y-43504687D01*
X11559500Y-44293001D01*
X11539298Y-44381513D01*
X11482692Y-44452495D01*
X11400894Y-44491886D01*
X11355500Y-44497001D01*
X11000000Y-44497001D01*
X11000000Y-45905112D01*
X10959493Y-45767157D01*
X10881761Y-45646203D01*
X10773100Y-45552049D01*
X10642315Y-45492321D01*
X10535763Y-45477001D01*
X10464237Y-45477001D01*
X10357685Y-45492321D01*
X10226900Y-45552049D01*
X10118239Y-45646203D01*
X10040507Y-45767157D01*
X10000000Y-45905112D01*
X10000000Y-44497001D01*
X9397738Y-44497001D01*
X9397733Y-44497002D01*
X9285866Y-44514719D01*
X9285556Y-44512767D01*
X9215096Y-44519102D01*
X9130100Y-44487193D01*
X9067366Y-44421565D01*
X9039319Y-44335217D01*
X9038500Y-44316951D01*
X9038500Y-37799641D01*
X9058702Y-37711129D01*
X9098250Y-37655391D01*
X9374548Y-37379093D01*
X9651274Y-37102366D01*
X9728145Y-37054066D01*
X9818363Y-37043901D01*
X9904056Y-37073886D01*
X9968254Y-37138083D01*
X9998239Y-37223777D01*
X9997243Y-37277022D01*
X9970100Y-37457113D01*
X9970099Y-37457119D01*
X9970099Y-37726886D01*
X10010304Y-37993634D01*
X10089821Y-38251422D01*
X10206869Y-38494473D01*
X10206871Y-38494478D01*
X10358831Y-38717361D01*
X10358834Y-38717365D01*
X10542324Y-38915122D01*
X10542326Y-38915124D01*
X10753231Y-39083314D01*
X10753235Y-39083316D01*
X10753236Y-39083317D01*
X10986862Y-39218201D01*
X10986863Y-39218201D01*
X10986866Y-39218203D01*
X10986865Y-39218203D01*
X11185934Y-39296330D01*
X11237982Y-39316758D01*
X11237984Y-39316759D01*
X11500977Y-39376785D01*
X11500986Y-39376787D01*
X11702652Y-39391900D01*
X11702656Y-39391900D01*
X11837342Y-39391900D01*
X11837346Y-39391900D01*
X12039012Y-39376787D01*
X12132566Y-39355433D01*
X12302013Y-39316759D01*
X12302014Y-39316758D01*
X12302016Y-39316758D01*
X12449041Y-39259055D01*
X12553132Y-39218203D01*
X12553134Y-39218201D01*
X12553136Y-39218201D01*
X12786762Y-39083317D01*
X12786766Y-39083314D01*
X12997671Y-38915124D01*
X12997673Y-38915122D01*
X13181159Y-38717370D01*
X13181163Y-38717366D01*
X13333129Y-38494474D01*
X13450177Y-38251421D01*
X13529692Y-37993638D01*
X13536180Y-37950599D01*
X13569899Y-37726886D01*
X13569899Y-37457113D01*
X13529693Y-37190365D01*
X13513566Y-37138083D01*
X13450177Y-36932579D01*
X13333129Y-36689527D01*
X13333127Y-36689524D01*
X13333126Y-36689521D01*
X13181166Y-36466638D01*
X13181163Y-36466634D01*
X13031426Y-36305255D01*
X12986032Y-36226629D01*
X12979248Y-36136095D01*
X13012417Y-36051582D01*
X13078970Y-35989830D01*
X13165725Y-35963070D01*
X13180969Y-35962500D01*
X15286359Y-35962500D01*
X15374871Y-35982702D01*
X15430609Y-36022250D01*
X17328158Y-37919799D01*
X17348945Y-37944138D01*
X17353633Y-37950591D01*
X17353642Y-37950601D01*
X17403070Y-37995106D01*
X17410797Y-38002438D01*
X17423919Y-38015560D01*
X17438317Y-38027220D01*
X17438331Y-38027231D01*
X17446445Y-38034162D01*
X17495871Y-38078665D01*
X17495872Y-38078666D01*
X17502787Y-38082658D01*
X17529176Y-38100796D01*
X17535371Y-38105813D01*
X17535374Y-38105815D01*
X17594651Y-38136018D01*
X17604025Y-38141108D01*
X17661619Y-38174361D01*
X17661631Y-38174367D01*
X17669224Y-38176834D01*
X17698795Y-38189083D01*
X17705903Y-38192704D01*
X17705903Y-38192705D01*
X17705905Y-38192705D01*
X17705908Y-38192707D01*
X17770196Y-38209932D01*
X17780349Y-38212939D01*
X17843654Y-38233509D01*
X17851598Y-38234343D01*
X17883066Y-38240175D01*
X17890782Y-38242243D01*
X17957229Y-38245725D01*
X17967821Y-38246559D01*
X17986285Y-38248500D01*
X18004835Y-38248500D01*
X18015513Y-38248780D01*
X18081912Y-38252260D01*
X18081912Y-38252259D01*
X18081914Y-38252260D01*
X18089794Y-38251011D01*
X18121708Y-38248500D01*
X21502292Y-38248500D01*
X21534205Y-38251011D01*
X21542086Y-38252260D01*
X21608487Y-38248779D01*
X21619165Y-38248500D01*
X21637711Y-38248500D01*
X21637715Y-38248500D01*
X21656177Y-38246559D01*
X21666775Y-38245724D01*
X21733218Y-38242243D01*
X21740929Y-38240176D01*
X21772402Y-38234343D01*
X21780346Y-38233509D01*
X21843617Y-38212950D01*
X21853843Y-38209922D01*
X21918088Y-38192708D01*
X21918087Y-38192708D01*
X21918092Y-38192707D01*
X21925205Y-38189082D01*
X21954783Y-38176830D01*
X21962373Y-38174365D01*
X22019990Y-38141098D01*
X22029338Y-38136023D01*
X22088626Y-38105815D01*
X22094825Y-38100794D01*
X22121223Y-38082651D01*
X22128126Y-38078667D01*
X22177591Y-38034127D01*
X22185668Y-38027231D01*
X22200081Y-38015560D01*
X22213187Y-38002452D01*
X22220916Y-37995117D01*
X22270360Y-37950599D01*
X22275048Y-37944145D01*
X22295841Y-37919799D01*
X22836552Y-37379087D01*
X22860897Y-37358297D01*
X22867350Y-37353609D01*
X22911868Y-37304165D01*
X22919208Y-37296432D01*
X22932311Y-37283330D01*
X22943989Y-37268907D01*
X22950899Y-37260816D01*
X22995418Y-37211375D01*
X22999409Y-37204460D01*
X23017542Y-37178078D01*
X23022567Y-37171874D01*
X23052789Y-37112558D01*
X23057836Y-37103262D01*
X23091116Y-37045622D01*
X23093579Y-37038037D01*
X23105837Y-37008444D01*
X23109458Y-37001341D01*
X23126674Y-36937083D01*
X23129708Y-36926845D01*
X23150259Y-36863597D01*
X23150260Y-36863595D01*
X23151094Y-36855651D01*
X23156927Y-36824178D01*
X23158994Y-36816467D01*
X23162475Y-36750024D01*
X23163310Y-36739426D01*
X23165251Y-36720964D01*
X23165251Y-36702413D01*
X23165531Y-36691735D01*
X23169011Y-36625335D01*
X23167762Y-36617446D01*
X23165251Y-36585538D01*
X23165251Y-36482170D01*
X23185453Y-36393658D01*
X23242059Y-36322676D01*
X23323857Y-36283285D01*
X23353241Y-36278799D01*
X23357042Y-36278499D01*
X23357057Y-36278499D01*
X23453184Y-36263275D01*
X23453191Y-36263271D01*
X23462524Y-36260239D01*
X23552947Y-36252098D01*
X23588613Y-36260239D01*
X23596474Y-36262793D01*
X23692486Y-36277999D01*
X24294751Y-36277999D01*
X24294751Y-34869889D01*
X24335258Y-35007844D01*
X24412990Y-35128798D01*
X24521651Y-35222952D01*
X24652436Y-35282680D01*
X24758988Y-35298000D01*
X24830514Y-35298000D01*
X25294751Y-35298000D01*
X25294751Y-36277999D01*
X25897013Y-36277999D01*
X25897017Y-36277998D01*
X25993030Y-36262792D01*
X26108743Y-36203834D01*
X26108747Y-36203832D01*
X26200583Y-36111996D01*
X26200583Y-36111995D01*
X26259544Y-35996276D01*
X26274751Y-35900264D01*
X26274751Y-35298000D01*
X25294751Y-35298000D01*
X24830514Y-35298000D01*
X24937066Y-35282680D01*
X25067851Y-35222952D01*
X25176512Y-35128798D01*
X25254244Y-35007844D01*
X25294751Y-34869889D01*
X25294751Y-34726111D01*
X25254244Y-34588156D01*
X25176512Y-34467202D01*
X25067851Y-34373048D01*
X24937066Y-34313320D01*
X24830514Y-34298000D01*
X24758988Y-34298000D01*
X24652436Y-34313320D01*
X24521651Y-34373048D01*
X24412990Y-34467202D01*
X24335258Y-34588156D01*
X24294751Y-34726111D01*
X24294751Y-33318000D01*
X25294751Y-33318000D01*
X25294751Y-34298000D01*
X26274750Y-34298000D01*
X26274750Y-33695738D01*
X26274749Y-33695733D01*
X26259543Y-33599720D01*
X26200585Y-33484007D01*
X26200583Y-33484004D01*
X26108746Y-33392167D01*
X25993027Y-33333206D01*
X25897015Y-33318000D01*
X25294751Y-33318000D01*
X24294751Y-33318000D01*
X23692489Y-33318000D01*
X23692484Y-33318001D01*
X23596471Y-33333207D01*
X23588601Y-33335764D01*
X23498178Y-33343899D01*
X23462529Y-33335761D01*
X23453182Y-33332724D01*
X23357059Y-33317499D01*
X23353227Y-33317198D01*
X23351250Y-33316579D01*
X23349142Y-33316246D01*
X23349191Y-33315936D01*
X23266575Y-33290105D01*
X23200259Y-33228099D01*
X23167415Y-33143460D01*
X23165251Y-33113828D01*
X23165251Y-32926170D01*
X23185453Y-32837658D01*
X23242059Y-32766676D01*
X23323857Y-32727285D01*
X23353241Y-32722799D01*
X23357042Y-32722499D01*
X23357057Y-32722499D01*
X23453184Y-32707275D01*
X23453191Y-32707271D01*
X23462524Y-32704239D01*
X23552947Y-32696098D01*
X23588613Y-32704239D01*
X23596474Y-32706793D01*
X23692486Y-32721999D01*
X24294751Y-32721999D01*
X24294751Y-31313889D01*
X24335258Y-31451844D01*
X24412990Y-31572798D01*
X24521651Y-31666952D01*
X24652436Y-31726680D01*
X24758988Y-31742000D01*
X24830514Y-31742000D01*
X25294751Y-31742000D01*
X25294751Y-32721999D01*
X25897013Y-32721999D01*
X25897017Y-32721998D01*
X25993030Y-32706792D01*
X26108743Y-32647834D01*
X26108747Y-32647832D01*
X26200583Y-32555996D01*
X26200583Y-32555995D01*
X26259544Y-32440276D01*
X26274751Y-32344264D01*
X26274751Y-31742000D01*
X25294751Y-31742000D01*
X24830514Y-31742000D01*
X24937066Y-31726680D01*
X25067851Y-31666952D01*
X25176512Y-31572798D01*
X25254244Y-31451844D01*
X25294751Y-31313889D01*
X25294751Y-31170111D01*
X25254244Y-31032156D01*
X25176512Y-30911202D01*
X25067851Y-30817048D01*
X24937066Y-30757320D01*
X24830514Y-30742000D01*
X24758988Y-30742000D01*
X24652436Y-30757320D01*
X24521651Y-30817048D01*
X24412990Y-30911202D01*
X24335258Y-31032156D01*
X24294751Y-31170111D01*
X24294751Y-29762000D01*
X25294751Y-29762000D01*
X25294751Y-30742000D01*
X26274750Y-30742000D01*
X26274750Y-30139738D01*
X26274749Y-30139733D01*
X26259543Y-30043720D01*
X26200585Y-29928007D01*
X26200583Y-29928004D01*
X26108746Y-29836167D01*
X25993027Y-29777206D01*
X25897015Y-29762000D01*
X25294751Y-29762000D01*
X24294751Y-29762000D01*
X23692489Y-29762000D01*
X23692484Y-29762001D01*
X23596471Y-29777207D01*
X23588601Y-29779764D01*
X23498178Y-29787899D01*
X23462529Y-29779761D01*
X23453182Y-29776724D01*
X23357059Y-29761499D01*
X23353227Y-29761198D01*
X23351250Y-29760579D01*
X23349142Y-29760246D01*
X23349191Y-29759936D01*
X23266575Y-29734105D01*
X23200259Y-29672099D01*
X23167415Y-29587460D01*
X23165251Y-29557828D01*
X23165251Y-29454459D01*
X23167763Y-29422542D01*
X23169011Y-29414662D01*
X23165531Y-29348264D01*
X23165251Y-29337586D01*
X23165251Y-29319041D01*
X23165251Y-29319036D01*
X23163310Y-29300572D01*
X23162476Y-29289980D01*
X23158994Y-29223533D01*
X23156926Y-29215817D01*
X23151094Y-29184344D01*
X23150260Y-29176407D01*
X23150260Y-29176405D01*
X23129690Y-29113100D01*
X23126677Y-29102926D01*
X23109458Y-29038659D01*
X23105833Y-29031546D01*
X23093581Y-29001966D01*
X23091116Y-28994378D01*
X23057841Y-28936744D01*
X23052780Y-28927424D01*
X23022567Y-28868126D01*
X23017540Y-28861918D01*
X22999410Y-28835539D01*
X22995419Y-28828627D01*
X22995418Y-28828625D01*
X22950906Y-28779189D01*
X22943978Y-28771078D01*
X22932313Y-28756673D01*
X22932311Y-28756670D01*
X22919189Y-28743548D01*
X22911857Y-28735821D01*
X22867352Y-28686393D01*
X22867342Y-28686384D01*
X22860889Y-28681696D01*
X22836550Y-28660909D01*
X22295841Y-28120200D01*
X22275051Y-28095857D01*
X22270361Y-28089401D01*
X22270358Y-28089398D01*
X22220928Y-28044891D01*
X22213185Y-28037544D01*
X22200081Y-28024440D01*
X22185659Y-28012761D01*
X22177558Y-28005841D01*
X22174705Y-28003272D01*
X22128126Y-27961333D01*
X22121215Y-27957343D01*
X22094830Y-27939209D01*
X22088627Y-27934186D01*
X22088619Y-27934180D01*
X22029353Y-27903983D01*
X22019967Y-27898887D01*
X21962372Y-27865634D01*
X21954772Y-27863165D01*
X21925218Y-27850923D01*
X21918092Y-27847293D01*
X21918089Y-27847292D01*
X21918085Y-27847290D01*
X21853849Y-27830078D01*
X21843612Y-27827046D01*
X21780353Y-27806492D01*
X21780347Y-27806491D01*
X21778190Y-27806264D01*
X21772388Y-27805654D01*
X21740930Y-27799823D01*
X21733221Y-27797757D01*
X21733211Y-27797756D01*
X21666801Y-27794275D01*
X21656177Y-27793439D01*
X21637715Y-27791500D01*
X21637709Y-27791500D01*
X21619165Y-27791500D01*
X21608487Y-27791220D01*
X21542087Y-27787739D01*
X21535077Y-27788850D01*
X21534205Y-27788988D01*
X21502292Y-27791500D01*
X18121708Y-27791500D01*
X18089794Y-27788988D01*
X18088044Y-27788710D01*
X18081910Y-27787739D01*
X18015513Y-27791220D01*
X18004835Y-27791500D01*
X17986285Y-27791500D01*
X17969193Y-27793295D01*
X17967830Y-27793439D01*
X17957197Y-27794275D01*
X17890783Y-27797756D01*
X17890777Y-27797757D01*
X17883050Y-27799827D01*
X17851619Y-27805652D01*
X17843661Y-27806489D01*
X17843658Y-27806489D01*
X17780395Y-27827044D01*
X17770162Y-27830075D01*
X17705910Y-27847292D01*
X17705897Y-27847297D01*
X17698776Y-27850925D01*
X17669234Y-27863162D01*
X17661629Y-27865633D01*
X17604031Y-27898887D01*
X17594649Y-27903981D01*
X17535381Y-27934180D01*
X17535371Y-27934187D01*
X17529155Y-27939220D01*
X17502799Y-27957334D01*
X17495874Y-27961332D01*
X17495871Y-27961334D01*
X17446440Y-28005841D01*
X17438335Y-28012764D01*
X17423922Y-28024437D01*
X17410795Y-28037562D01*
X17403063Y-28044899D01*
X17353636Y-28089404D01*
X17348941Y-28095866D01*
X17328159Y-28120198D01*
X15684609Y-29763750D01*
X15607736Y-29812052D01*
X15540359Y-29823500D01*
X13228986Y-29823500D01*
X13140474Y-29803298D01*
X13069492Y-29746692D01*
X13030101Y-29664894D01*
X13030101Y-29574106D01*
X13069492Y-29492308D01*
X13079443Y-29480745D01*
X13181159Y-29371120D01*
X13181163Y-29371116D01*
X13333129Y-29148224D01*
X13450177Y-28905171D01*
X13529692Y-28647388D01*
X13569899Y-28380634D01*
X13569899Y-28110866D01*
X13569595Y-28108848D01*
X13529693Y-27844115D01*
X13450176Y-27586327D01*
X13333129Y-27343277D01*
X13333127Y-27343274D01*
X13333126Y-27343271D01*
X13181166Y-27120388D01*
X13181163Y-27120384D01*
X12997673Y-26922627D01*
X12997671Y-26922625D01*
X12786766Y-26754435D01*
X12786759Y-26754431D01*
X12553131Y-26619546D01*
X12553132Y-26619546D01*
X12302017Y-26520992D01*
X12302013Y-26520990D01*
X12039020Y-26460964D01*
X12039014Y-26460963D01*
X12039012Y-26460963D01*
X11837346Y-26445850D01*
X11702652Y-26445850D01*
X11702651Y-26445850D01*
X11664911Y-26448678D01*
X11500986Y-26460963D01*
X11500983Y-26460963D01*
X11500977Y-26460964D01*
X11237984Y-26520990D01*
X11237980Y-26520992D01*
X10986865Y-26619546D01*
X10753238Y-26754431D01*
X10753231Y-26754435D01*
X10542326Y-26922625D01*
X10542324Y-26922627D01*
X10358838Y-27120379D01*
X10358834Y-27120384D01*
X10206867Y-27343279D01*
X10089821Y-27586327D01*
X10010304Y-27844115D01*
X9970099Y-28110863D01*
X9970099Y-28380636D01*
X10010304Y-28647384D01*
X10057457Y-28800249D01*
X10064241Y-28890784D01*
X10031073Y-28975297D01*
X9964520Y-29037048D01*
X9877765Y-29063809D01*
X9787990Y-29050277D01*
X9718270Y-29004629D01*
X9098250Y-28384609D01*
X9049948Y-28307736D01*
X9038500Y-28240359D01*
X9038500Y-21520798D01*
X9058702Y-21432286D01*
X9115308Y-21361304D01*
X9197106Y-21321913D01*
X9287894Y-21321913D01*
X9300134Y-21325290D01*
X9397735Y-21340748D01*
X10000000Y-21340748D01*
X10000000Y-19932638D01*
X10040507Y-20070593D01*
X10118239Y-20191547D01*
X10226900Y-20285701D01*
X10357685Y-20345429D01*
X10464237Y-20360749D01*
X10535763Y-20360749D01*
X10642315Y-20345429D01*
X10773100Y-20285701D01*
X10881761Y-20191547D01*
X10959493Y-20070593D01*
X11000000Y-19932638D01*
X11000000Y-21340748D01*
X11355500Y-21340748D01*
X11444012Y-21360950D01*
X11514994Y-21417556D01*
X11554385Y-21499354D01*
X11559500Y-21544748D01*
X11559500Y-22333049D01*
X11559500Y-22333052D01*
X11559501Y-22333055D01*
X11565590Y-22371505D01*
X11574725Y-22429185D01*
X11633756Y-22545039D01*
X11633758Y-22545042D01*
X11633759Y-22545043D01*
X11725706Y-22636990D01*
X11841567Y-22696024D01*
X11841568Y-22696024D01*
X11841570Y-22696025D01*
X11883329Y-22702638D01*
X11937693Y-22711249D01*
X14142306Y-22711248D01*
X14238433Y-22696024D01*
X14238434Y-22696023D01*
X14238436Y-22696023D01*
X14354290Y-22636992D01*
X14354294Y-22636990D01*
X14446241Y-22545043D01*
X14505275Y-22429182D01*
X14520500Y-22333056D01*
X14520500Y-22333048D01*
X14520800Y-22329242D01*
X14521416Y-22327268D01*
X14521754Y-22325140D01*
X14522066Y-22325189D01*
X14547885Y-22242588D01*
X14609886Y-22176267D01*
X14694522Y-22143415D01*
X14724171Y-22141249D01*
X22221294Y-22141249D01*
X22309806Y-22161451D01*
X22380788Y-22218057D01*
X22420179Y-22299855D01*
X22424665Y-22329245D01*
X22425251Y-22336701D01*
X22440476Y-22432836D01*
X22499507Y-22548690D01*
X22499509Y-22548693D01*
X22499510Y-22548694D01*
X22591457Y-22640641D01*
X22707318Y-22699675D01*
X22707319Y-22699675D01*
X22707321Y-22699676D01*
X22749080Y-22706289D01*
X22803444Y-22714900D01*
X25008057Y-22714899D01*
X25104184Y-22699675D01*
X25104185Y-22699674D01*
X25104187Y-22699674D01*
X25220041Y-22640643D01*
X25220045Y-22640641D01*
X25311992Y-22548694D01*
X25371026Y-22432833D01*
X25371605Y-22429182D01*
X25386250Y-22336713D01*
X25386251Y-22336707D01*
X25386250Y-20132094D01*
X25371026Y-20035967D01*
X25371023Y-20035961D01*
X25368256Y-20027444D01*
X25360116Y-19937021D01*
X25368257Y-19901352D01*
X25371023Y-19892838D01*
X25371026Y-19892833D01*
X25386251Y-19796707D01*
X25386250Y-17592094D01*
X25371026Y-17495967D01*
X25371023Y-17495961D01*
X25368256Y-17487444D01*
X25360116Y-17397021D01*
X25368257Y-17361352D01*
X25371023Y-17352838D01*
X25371026Y-17352833D01*
X25386251Y-17256707D01*
X25386250Y-15052094D01*
X25371026Y-14955967D01*
X25371023Y-14955961D01*
X25368256Y-14947444D01*
X25360116Y-14857021D01*
X25368257Y-14821352D01*
X25371023Y-14812838D01*
X25371026Y-14812833D01*
X25386251Y-14716707D01*
X25386250Y-12512094D01*
X25371026Y-12415967D01*
X25371023Y-12415961D01*
X25368256Y-12407444D01*
X25360116Y-12317021D01*
X25368257Y-12281352D01*
X25371023Y-12272838D01*
X25371026Y-12272833D01*
X25386251Y-12176707D01*
X25386250Y-9972094D01*
X25371026Y-9875967D01*
X25371023Y-9875961D01*
X25368256Y-9867444D01*
X25360116Y-9777021D01*
X25368257Y-9741352D01*
X25371023Y-9732838D01*
X25371026Y-9732833D01*
X25386251Y-9636707D01*
X25386250Y-7432094D01*
X25371026Y-7335967D01*
X25371025Y-7335965D01*
X25371025Y-7335963D01*
X25311994Y-7220109D01*
X25311992Y-7220106D01*
X25220044Y-7128158D01*
X25104182Y-7069124D01*
X25104180Y-7069123D01*
X25008059Y-7053900D01*
X22803450Y-7053900D01*
X22803446Y-7053900D01*
X22803445Y-7053901D01*
X22784219Y-7056945D01*
X22707314Y-7069125D01*
X22591460Y-7128156D01*
X22499510Y-7220106D01*
X22499508Y-7220107D01*
X22443488Y-7330054D01*
X22385304Y-7399747D01*
X22302643Y-7437293D01*
X22211877Y-7435256D01*
X22169111Y-7419206D01*
X22168125Y-7418703D01*
X22143535Y-7406174D01*
X22134167Y-7401087D01*
X22131846Y-7399747D01*
X22111629Y-7388074D01*
X22076572Y-7367834D01*
X22068972Y-7365365D01*
X22039418Y-7353123D01*
X22032292Y-7349493D01*
X22032289Y-7349492D01*
X22032285Y-7349490D01*
X21968049Y-7332278D01*
X21957812Y-7329246D01*
X21894553Y-7308692D01*
X21894547Y-7308691D01*
X21892390Y-7308464D01*
X21886588Y-7307854D01*
X21855130Y-7302023D01*
X21847421Y-7299957D01*
X21847411Y-7299956D01*
X21781001Y-7296475D01*
X21770377Y-7295639D01*
X21751915Y-7293700D01*
X21751909Y-7293700D01*
X21733365Y-7293700D01*
X21722687Y-7293420D01*
X21656287Y-7289939D01*
X21649277Y-7291050D01*
X21648405Y-7291188D01*
X21616492Y-7293700D01*
X11464260Y-7293700D01*
X11432346Y-7291188D01*
X11430596Y-7290910D01*
X11424462Y-7289939D01*
X11358065Y-7293420D01*
X11347387Y-7293700D01*
X11328837Y-7293700D01*
X11311745Y-7295495D01*
X11310382Y-7295639D01*
X11299749Y-7296475D01*
X11233335Y-7299956D01*
X11233329Y-7299957D01*
X11225602Y-7302027D01*
X11194171Y-7307852D01*
X11186213Y-7308689D01*
X11186211Y-7308689D01*
X11122948Y-7329244D01*
X11112713Y-7332275D01*
X11048463Y-7349491D01*
X11048458Y-7349493D01*
X11041344Y-7353118D01*
X11011781Y-7365364D01*
X11004184Y-7367832D01*
X11004181Y-7367834D01*
X11004179Y-7367834D01*
X11004179Y-7367835D01*
X10946587Y-7401085D01*
X10937207Y-7406178D01*
X10877923Y-7436385D01*
X10871702Y-7441423D01*
X10845351Y-7459534D01*
X10838428Y-7463531D01*
X10838423Y-7463535D01*
X10789000Y-7508035D01*
X10780884Y-7514966D01*
X10766474Y-7526634D01*
X10753344Y-7539765D01*
X10745602Y-7547111D01*
X10696192Y-7591600D01*
X10696187Y-7591605D01*
X10691498Y-7598060D01*
X10670715Y-7622393D01*
X9918196Y-8374913D01*
X9893865Y-8395694D01*
X9887406Y-8400387D01*
X9887399Y-8400393D01*
X9842898Y-8449815D01*
X9835563Y-8457546D01*
X9822437Y-8470674D01*
X9810764Y-8485087D01*
X9803841Y-8493192D01*
X9759334Y-8542623D01*
X9759332Y-8542626D01*
X9755334Y-8549551D01*
X9737220Y-8575907D01*
X9732187Y-8582123D01*
X9732180Y-8582133D01*
X9701981Y-8641401D01*
X9696887Y-8650783D01*
X9663633Y-8708381D01*
X9661162Y-8715986D01*
X9648925Y-8745528D01*
X9645297Y-8752649D01*
X9645292Y-8752662D01*
X9628075Y-8816914D01*
X9625044Y-8827147D01*
X9604489Y-8890410D01*
X9604489Y-8890413D01*
X9603652Y-8898371D01*
X9597827Y-8929802D01*
X9595757Y-8937529D01*
X9595756Y-8937535D01*
X9592275Y-9003949D01*
X9591439Y-9014582D01*
X9589500Y-9033040D01*
X9589500Y-9051587D01*
X9589220Y-9062265D01*
X9585739Y-9128662D01*
X9585740Y-9128666D01*
X9586988Y-9136549D01*
X9589500Y-9168459D01*
X9589500Y-9956580D01*
X9569298Y-10045092D01*
X9512692Y-10116074D01*
X9430894Y-10155465D01*
X9401527Y-10159949D01*
X9397712Y-10160249D01*
X9301563Y-10175476D01*
X9185709Y-10234507D01*
X9093759Y-10326457D01*
X9093758Y-10326457D01*
X9034724Y-10442319D01*
X9034723Y-10442321D01*
X9019500Y-10538437D01*
X9019500Y-12743051D01*
X9019501Y-12743055D01*
X9034725Y-12839184D01*
X9074953Y-12918136D01*
X9097136Y-13006173D01*
X9078924Y-13095116D01*
X9074953Y-13103362D01*
X9034725Y-13182314D01*
X9034723Y-13182320D01*
X9019500Y-13278437D01*
X9019200Y-13282257D01*
X9018583Y-13284230D01*
X9018246Y-13286359D01*
X9017933Y-13286309D01*
X8992115Y-13368911D01*
X8930114Y-13435232D01*
X8845478Y-13468084D01*
X8815829Y-13470250D01*
X8517710Y-13470250D01*
X8485795Y-13467738D01*
X8477911Y-13466489D01*
X8411514Y-13469970D01*
X8400836Y-13470250D01*
X8382285Y-13470250D01*
X8363819Y-13472190D01*
X8353199Y-13473025D01*
X8286784Y-13476506D01*
X8286776Y-13476507D01*
X8279050Y-13478577D01*
X8247619Y-13484402D01*
X8239661Y-13485239D01*
X8239659Y-13485239D01*
X8176396Y-13505794D01*
X8166161Y-13508825D01*
X8101911Y-13526041D01*
X8101906Y-13526043D01*
X8094792Y-13529668D01*
X8065229Y-13541914D01*
X8057632Y-13544382D01*
X8057629Y-13544384D01*
X8000035Y-13577635D01*
X7990655Y-13582728D01*
X7931371Y-13612935D01*
X7925150Y-13617973D01*
X7898799Y-13636084D01*
X7891876Y-13640081D01*
X7891871Y-13640085D01*
X7842448Y-13684585D01*
X7834332Y-13691516D01*
X7819919Y-13703187D01*
X7819913Y-13703193D01*
X7806787Y-13716318D01*
X7799050Y-13723660D01*
X7749640Y-13768149D01*
X7744943Y-13774614D01*
X7724163Y-13798943D01*
X6136194Y-15386912D01*
X6111867Y-15407690D01*
X6105404Y-15412386D01*
X6105403Y-15412387D01*
X6060899Y-15461813D01*
X6053562Y-15469545D01*
X6040437Y-15482672D01*
X6028764Y-15497085D01*
X6021841Y-15505190D01*
X5977334Y-15554621D01*
X5977332Y-15554624D01*
X5973334Y-15561549D01*
X5955220Y-15587905D01*
X5950187Y-15594121D01*
X5950180Y-15594131D01*
X5919981Y-15653399D01*
X5914887Y-15662781D01*
X5881633Y-15720379D01*
X5879162Y-15727984D01*
X5866925Y-15757526D01*
X5863297Y-15764647D01*
X5863292Y-15764660D01*
X5846075Y-15828912D01*
X5843044Y-15839145D01*
X5822489Y-15902408D01*
X5822489Y-15902411D01*
X5821652Y-15910369D01*
X5815827Y-15941800D01*
X5813757Y-15949527D01*
X5813756Y-15949533D01*
X5810275Y-16015947D01*
X5809439Y-16026580D01*
X5807500Y-16045038D01*
X5807500Y-16063585D01*
X5807220Y-16074263D01*
X5803739Y-16140660D01*
X5803740Y-16140664D01*
X5804988Y-16148547D01*
X5807500Y-16180457D01*
X5807500Y-30252292D01*
X5804988Y-30284207D01*
X5803740Y-30292086D01*
X5807220Y-30358485D01*
X5807500Y-30369163D01*
X5807500Y-30387715D01*
X5809439Y-30406166D01*
X5810275Y-30416801D01*
X5813756Y-30483211D01*
X5813757Y-30483221D01*
X5815823Y-30490930D01*
X5821655Y-30522392D01*
X5822491Y-30530347D01*
X5822492Y-30530353D01*
X5843046Y-30593612D01*
X5846078Y-30603849D01*
X5863290Y-30668085D01*
X5863292Y-30668089D01*
X5863293Y-30668092D01*
X5866923Y-30675218D01*
X5879165Y-30704772D01*
X5881634Y-30712372D01*
X5914887Y-30769967D01*
X5919983Y-30779353D01*
X5950180Y-30838619D01*
X5950186Y-30838627D01*
X5955209Y-30844830D01*
X5973343Y-30871215D01*
X5977333Y-30878126D01*
X6019272Y-30924705D01*
X6021841Y-30927558D01*
X6028761Y-30935659D01*
X6040440Y-30950081D01*
X6053544Y-30963185D01*
X6060891Y-30970928D01*
X6105398Y-31020358D01*
X6105401Y-31020361D01*
X6111857Y-31025051D01*
X6136200Y-31045841D01*
X7966108Y-32875749D01*
X8014410Y-32952622D01*
X8024575Y-33042840D01*
X7994590Y-33128534D01*
X7966108Y-33164249D01*
X6136198Y-34994159D01*
X6111866Y-35014941D01*
X6105404Y-35019636D01*
X6060899Y-35069063D01*
X6053562Y-35076795D01*
X6040437Y-35089922D01*
X6028764Y-35104335D01*
X6021841Y-35112440D01*
X5977334Y-35161871D01*
X5977332Y-35161874D01*
X5973334Y-35168799D01*
X5955220Y-35195155D01*
X5950187Y-35201371D01*
X5950180Y-35201381D01*
X5919981Y-35260649D01*
X5914887Y-35270031D01*
X5881633Y-35327629D01*
X5879162Y-35335234D01*
X5866925Y-35364776D01*
X5863297Y-35371897D01*
X5863292Y-35371910D01*
X5846075Y-35436162D01*
X5843044Y-35446395D01*
X5822489Y-35509658D01*
X5822489Y-35509661D01*
X5821652Y-35517619D01*
X5815827Y-35549050D01*
X5813757Y-35556777D01*
X5813756Y-35556783D01*
X5810275Y-35623197D01*
X5809439Y-35633830D01*
X5807500Y-35652288D01*
X5807500Y-35670835D01*
X5807220Y-35681513D01*
X5803739Y-35747910D01*
X500Y-35747910D01*
X500Y-3390636D01*
X9970099Y-3390636D01*
X10010304Y-3657384D01*
X10089821Y-3915172D01*
X10206869Y-4158223D01*
X10206871Y-4158228D01*
X10358831Y-4381111D01*
X10358834Y-4381115D01*
X10542324Y-4578872D01*
X10542326Y-4578874D01*
X10753231Y-4747064D01*
X10753235Y-4747066D01*
X10753236Y-4747067D01*
X10986862Y-4881951D01*
X10986863Y-4881951D01*
X10986866Y-4881953D01*
X10986865Y-4881953D01*
X11185934Y-4960080D01*
X11237982Y-4980508D01*
X11237984Y-4980509D01*
X11500977Y-5040535D01*
X11500986Y-5040537D01*
X11702652Y-5055650D01*
X11702656Y-5055650D01*
X11837342Y-5055650D01*
X11837346Y-5055650D01*
X12039012Y-5040537D01*
X12132566Y-5019183D01*
X12302013Y-4980509D01*
X12302014Y-4980508D01*
X12302016Y-4980508D01*
X12449041Y-4922805D01*
X12553132Y-4881953D01*
X12553134Y-4881951D01*
X12553136Y-4881951D01*
X12786762Y-4747067D01*
X12786766Y-4747064D01*
X12997671Y-4578874D01*
X12997673Y-4578872D01*
X13181159Y-4381120D01*
X13181163Y-4381116D01*
X13333129Y-4158224D01*
X13450177Y-3915171D01*
X13529692Y-3657388D01*
X13569899Y-3390634D01*
X13569899Y-3120866D01*
X13569899Y-3120863D01*
X13529693Y-2854115D01*
X13450176Y-2596327D01*
X13333129Y-2353277D01*
X13333127Y-2353274D01*
X13333126Y-2353271D01*
X13181166Y-2130388D01*
X13181163Y-2130384D01*
X12997673Y-1932627D01*
X12997671Y-1932625D01*
X12786766Y-1764435D01*
X12786759Y-1764431D01*
X12553131Y-1629546D01*
X12553132Y-1629546D01*
X12302017Y-1530992D01*
X12302013Y-1530990D01*
X12039020Y-1470964D01*
X12039014Y-1470963D01*
X12039012Y-1470963D01*
X11837346Y-1455850D01*
X11702652Y-1455850D01*
X11702651Y-1455850D01*
X11664911Y-1458678D01*
X11500986Y-1470963D01*
X11500983Y-1470963D01*
X11500977Y-1470964D01*
X11237984Y-1530990D01*
X11237980Y-1530992D01*
X10986865Y-1629546D01*
X10753238Y-1764431D01*
X10753231Y-1764435D01*
X10542326Y-1932625D01*
X10542324Y-1932627D01*
X10358838Y-2130379D01*
X10358834Y-2130384D01*
X10206867Y-2353279D01*
X10089821Y-2596327D01*
X10010304Y-2854115D01*
X9970099Y-3120863D01*
X9970099Y-3390636D01*
X500Y-3390636D01*
X500Y-204500D01*
X20702Y-115988D01*
X77308Y-45006D01*
X159106Y-5615D01*
X204500Y-500D01*
X30045500Y-500D01*
X30134012Y-20702D01*
G37*
%TD.AperFunction*%
%TD*%
M02*
