M48
; DRILL file {KiCad 7.0.10} date Sun Mar 31 23:05:43 2024
; FORMAT={-:-/ absolute / metric / decimal}
; #@! TF.CreationDate,2024-03-31T23:05:43-06:00
; #@! TF.GenerationSoftware,Kicad,Pcbnew,7.0.10
; #@! TF.FileFunction,MixedPlating,1,2
FMAT,2
METRIC
; #@! TA.AperFunction,Plated,PTH,ComponentDrill
T1C1.000
; #@! TA.AperFunction,NonPlated,NPTH,ComponentDrill
T2C3.099
%
G90
G05
T1
X10.5Y-11.641
X10.5Y-14.381
X10.5Y-17.121
X10.5Y-19.861
X10.5Y-45.977
X10.5Y-48.717
X10.5Y-51.457
X10.5Y-54.197
X13.04Y-10.271
X13.04Y-13.011
X13.04Y-15.751
X13.04Y-18.491
X13.04Y-21.231
X13.04Y-44.607
X13.04Y-47.347
X13.04Y-50.087
X13.04Y-52.827
X13.04Y-55.567
X19.715Y-31.242
X19.715Y-34.798
X22.255Y-31.242
X22.255Y-34.798
X23.906Y-8.534
X23.906Y-11.074
X23.906Y-13.614
X23.906Y-16.154
X23.906Y-18.694
X23.906Y-21.234
X23.906Y-44.607
X23.906Y-47.147
X23.906Y-49.687
X23.906Y-52.227
X23.906Y-54.767
X23.906Y-57.307
X24.795Y-31.242
X24.795Y-34.798
T2
X11.77Y-3.256
X11.77Y-28.246
X11.77Y-37.592
X11.77Y-62.582
M30
