M48
; DRILL file {KiCad 7.0.10} date Mon Mar 18 21:22:38 2024
; FORMAT={-:-/ absolute / metric / decimal}
; #@! TF.CreationDate,2024-03-18T21:22:38-06:00
; #@! TF.GenerationSoftware,Kicad,Pcbnew,7.0.10
; #@! TF.FileFunction,MixedPlating,1,2
FMAT,2
METRIC
; #@! TA.AperFunction,Plated,PTH,ViaDrill
T1C1.000
; #@! TA.AperFunction,Plated,PTH,ComponentDrill
T2C1.000
%
G90
G05
T1
X6.831Y-16.268
X6.835Y-8.87
T2
X3.08Y-10.922
X3.08Y-13.462
X6.833Y-19.304
X6.833Y-22.352
X9.405Y-8.362
X9.405Y-16.302
X11.833Y-19.304
X11.833Y-22.352
X11.945Y-5.782
X11.945Y-8.362
X11.945Y-16.302
X14.485Y-8.362
X14.485Y-16.302
X15.481Y-2.246
X17.025Y-8.362
X17.025Y-16.302
X19.09Y-20.285
X20.574Y-11.958
X20.574Y-16.958
X23.165Y-11.938
X23.165Y-16.938
X24.09Y-20.285
X26.847Y-8.616
X26.847Y-16.236
X29.387Y-8.616
X29.387Y-16.236
X31.927Y-8.616
X31.927Y-16.236
X34.467Y-8.616
X34.467Y-16.236
X37.007Y-8.616
X37.007Y-16.236
X39.547Y-8.616
X39.547Y-16.236
X42.087Y-8.616
X42.087Y-16.236
X44.627Y-8.616
X44.627Y-16.236
X55.633Y-2.774
X55.633Y-5.314
X55.633Y-7.854
X55.633Y-10.394
X55.633Y-12.934
X55.633Y-15.474
X55.633Y-18.014
X55.633Y-20.554
X55.633Y-23.094
M30
