%TF.GenerationSoftware,KiCad,Pcbnew,7.0.10*%
%TF.CreationDate,2024-03-29T20:44:44-06:00*%
%TF.ProjectId,Active_Electrode,41637469-7665-45f4-956c-656374726f64,rev?*%
%TF.SameCoordinates,Original*%
%TF.FileFunction,Copper,L1,Top*%
%TF.FilePolarity,Positive*%
%FSLAX46Y46*%
G04 Gerber Fmt 4.6, Leading zero omitted, Abs format (unit mm)*
G04 Created by KiCad (PCBNEW 7.0.10) date 2024-03-29 20:44:44*
%MOMM*%
%LPD*%
G01*
G04 APERTURE LIST*
%TA.AperFunction,ComponentPad*%
%ADD10R,2.140000X2.140000*%
%TD*%
%TA.AperFunction,ComponentPad*%
%ADD11C,2.200000*%
%TD*%
%TA.AperFunction,ViaPad*%
%ADD12C,2.200000*%
%TD*%
%TA.AperFunction,Conductor*%
%ADD13C,1.000000*%
%TD*%
G04 APERTURE END LIST*
D10*
%TO.P,J1,1,Pin_1*%
%TO.N,/CH1*%
X3080000Y-10922000D03*
%TO.P,J1,2,Pin_2*%
%TO.N,/CH2*%
X3080000Y-13462000D03*
%TD*%
D11*
%TO.P,C10,1*%
%TO.N,/+12V*%
X6832600Y-19304000D03*
%TO.P,C10,2*%
%TO.N,GND*%
X11832600Y-19304000D03*
%TD*%
%TO.P,R2,1*%
%TO.N,/ADC_CH1*%
X18897600Y-2260600D03*
%TO.P,R2,2*%
%TO.N,GND*%
X26517600Y-2260600D03*
%TD*%
%TO.P,C9,1*%
%TO.N,/+12V*%
X6832600Y-22352000D03*
%TO.P,C9,2*%
%TO.N,GND*%
X11832600Y-22352000D03*
%TD*%
%TO.P,C7,1*%
%TO.N,/-12V*%
X24638000Y-11938000D03*
%TO.P,C7,2*%
%TO.N,GND*%
X24638000Y-16938000D03*
%TD*%
%TO.P,C1,1*%
%TO.N,/Neg1_Feedback*%
X12710233Y-5765800D03*
%TO.P,C1,2*%
%TO.N,/ADC_CH1*%
X16245767Y-2230266D03*
%TD*%
D10*
%TO.P,U1,1,IN1*%
%TO.N,/DigiSelect1*%
X47160000Y-16256000D03*
%TO.P,U1,2,D1*%
%TO.N,/CURR_CH1*%
X44620000Y-16256000D03*
%TO.P,U1,3,S1*%
%TO.N,/CH1*%
X42080000Y-16256000D03*
%TO.P,U1,4,VSS*%
%TO.N,/-12V*%
X39540000Y-16256000D03*
%TO.P,U1,5,GND*%
%TO.N,GND*%
X37000000Y-16256000D03*
%TO.P,U1,6,S4*%
%TO.N,/CH2*%
X34460000Y-16256000D03*
%TO.P,U1,7,D4*%
%TO.N,/CURR_CH2*%
X31920000Y-16256000D03*
%TO.P,U1,8,IN4*%
%TO.N,/DigiSelect2*%
X29380000Y-16256000D03*
%TO.P,U1,9,IN3*%
%TO.N,unconnected-(U1-IN3-Pad9)*%
X29380000Y-8636000D03*
%TO.P,U1,10,D3*%
%TO.N,unconnected-(U1-D3-Pad10)*%
X31920000Y-8636000D03*
%TO.P,U1,11,S3*%
%TO.N,unconnected-(U1-S3-Pad11)*%
X34460000Y-8636000D03*
%TO.P,U1,12,NC*%
%TO.N,unconnected-(U1-NC-Pad12)*%
X37000000Y-8636000D03*
%TO.P,U1,13,VDD*%
%TO.N,/+12V*%
X39540000Y-8636000D03*
%TO.P,U1,14,S2*%
%TO.N,unconnected-(U1-S2-Pad14)*%
X42080000Y-8636000D03*
%TO.P,U1,15,D2*%
%TO.N,unconnected-(U1-D2-Pad15)*%
X44620000Y-8636000D03*
%TO.P,U1,16,IN2*%
%TO.N,unconnected-(U1-IN2-Pad16)*%
X47160000Y-8636000D03*
%TD*%
%TO.P,U2,1,OUT_A*%
%TO.N,/Neg1_Feedback*%
X9405000Y-8362000D03*
%TO.P,U2,2,NEG_A*%
X11945000Y-8362000D03*
%TO.P,U2,3,POS_A*%
%TO.N,/CH1*%
X14485000Y-8362000D03*
%TO.P,U2,4,V-*%
%TO.N,/-12V*%
X17025000Y-8362000D03*
%TO.P,U2,5,POS_B*%
%TO.N,/CH2*%
X17025000Y-16302000D03*
%TO.P,U2,6,NEG_B*%
%TO.N,/Neg2_FeedBack*%
X14485000Y-16302000D03*
%TO.P,U2,7,OUT_B*%
X11945000Y-16302000D03*
%TO.P,U2,8,V+*%
%TO.N,/+12V*%
X9405000Y-16302000D03*
%TD*%
D11*
%TO.P,C2,1*%
%TO.N,/Neg2_FeedBack*%
X19090000Y-20285400D03*
%TO.P,C2,2*%
%TO.N,/ADC_CH2*%
X24090000Y-20285400D03*
%TD*%
D10*
%TO.P,J2,1,Pin_1*%
%TO.N,/ADC_CH1*%
X54077000Y-2778600D03*
%TO.P,J2,2,Pin_2*%
%TO.N,/+12V*%
X54077000Y-5318600D03*
%TO.P,J2,3,Pin_3*%
%TO.N,/CURR_CH1*%
X54077000Y-7858600D03*
%TO.P,J2,4,Pin_4*%
%TO.N,/DigiSelect1*%
X54077000Y-10398600D03*
%TO.P,J2,5,Pin_5*%
%TO.N,/-12V*%
X54077000Y-12938600D03*
%TO.P,J2,6,Pin_6*%
%TO.N,GND*%
X54077000Y-15478600D03*
%TO.P,J2,7,Pin_7*%
%TO.N,/CURR_CH2*%
X54077000Y-18018600D03*
%TO.P,J2,8,Pin_8*%
%TO.N,/DigiSelect2*%
X54077000Y-20558600D03*
%TO.P,J2,9,Pin_9*%
%TO.N,/ADC_CH2*%
X54077000Y-23098600D03*
%TD*%
D11*
%TO.P,R1,1*%
%TO.N,/ADC_CH2*%
X24090000Y-23342600D03*
%TO.P,R1,2*%
%TO.N,GND*%
X16470000Y-23342600D03*
%TD*%
%TO.P,C8,1*%
%TO.N,/-12V*%
X20574000Y-11927200D03*
%TO.P,C8,2*%
%TO.N,GND*%
X20574000Y-16927200D03*
%TD*%
D12*
%TO.N,/+12V*%
X6834998Y-8870000D03*
X6831000Y-16268000D03*
%TD*%
D13*
%TO.N,/DigiSelect1*%
X51323400Y-10398600D02*
X54077000Y-10398600D01*
X47160000Y-16256000D02*
X47160000Y-14562000D01*
X47160000Y-14562000D02*
X51323400Y-10398600D01*
%TO.N,/DigiSelect2*%
X50635200Y-22288200D02*
X33342200Y-22288200D01*
X54077000Y-20558600D02*
X52364800Y-20558600D01*
X52364800Y-20558600D02*
X50635200Y-22288200D01*
X29380000Y-18326000D02*
X29380000Y-16256000D01*
X33342200Y-22288200D02*
X29380000Y-18326000D01*
%TO.N,/CURR_CH1*%
X51399600Y-7858600D02*
X44620000Y-14638200D01*
X44620000Y-14638200D02*
X44620000Y-16256000D01*
X54077000Y-7858600D02*
X51399600Y-7858600D01*
%TO.N,/CURR_CH2*%
X54077000Y-18018600D02*
X52364800Y-18018600D01*
X49505200Y-20878200D02*
X34772000Y-20878200D01*
X31920000Y-18026200D02*
X31920000Y-16256000D01*
X34772000Y-20878200D02*
X31920000Y-18026200D01*
X52364800Y-18018600D02*
X49505200Y-20878200D01*
%TO.N,/ADC_CH1*%
X52603958Y-2778600D02*
X54077000Y-2778600D01*
X16245767Y-2255666D02*
X18892666Y-2255666D01*
X18897600Y-2260600D02*
X21209000Y-4572000D01*
X18892666Y-2255666D02*
X18897600Y-2260600D01*
X50801358Y-4572000D02*
X50805958Y-4576600D01*
X50805958Y-4576600D02*
X52603958Y-2778600D01*
X21209000Y-4572000D02*
X50801358Y-4572000D01*
%TO.N,/ADC_CH2*%
X51765200Y-23698200D02*
X27502800Y-23698200D01*
X54077000Y-23098600D02*
X52364800Y-23098600D01*
X24090000Y-20285400D02*
X24104600Y-20300000D01*
X24104600Y-20300000D02*
X24104600Y-23328000D01*
X27502800Y-23698200D02*
X24090000Y-20285400D01*
X52364800Y-23098600D02*
X51765200Y-23698200D01*
X24104600Y-23328000D02*
X24090000Y-23342600D01*
%TO.N,/CH1*%
X42080000Y-16256000D02*
X42080000Y-14186000D01*
X15411000Y-6076000D02*
X14485000Y-7002000D01*
X14485000Y-9722000D02*
X14485000Y-8362000D01*
X42080000Y-14186000D02*
X38612800Y-10718800D01*
X25603200Y-9829800D02*
X22059758Y-9829800D01*
X38612800Y-10718800D02*
X26492200Y-10718800D01*
X13285000Y-10922000D02*
X14485000Y-9722000D01*
X18305958Y-6076000D02*
X15411000Y-6076000D01*
X26492200Y-10718800D02*
X25603200Y-9829800D01*
X22059758Y-9829800D02*
X18305958Y-6076000D01*
X3080000Y-10922000D02*
X13285000Y-10922000D01*
X14485000Y-7002000D02*
X14485000Y-8362000D01*
%TO.N,/CH2*%
X15545000Y-13462000D02*
X15875000Y-13462000D01*
X17025000Y-14612000D02*
X17025000Y-16302000D01*
X15875000Y-13462000D02*
X17025000Y-14612000D01*
X34460000Y-14546400D02*
X33871600Y-13958000D01*
X3080000Y-13462000D02*
X15545000Y-13462000D01*
X34460000Y-16256000D02*
X34460000Y-14546400D01*
X16371000Y-13958000D02*
X15875000Y-13462000D01*
X33871600Y-13958000D02*
X16371000Y-13958000D01*
%TO.N,/+12V*%
X51390000Y-5986600D02*
X41406600Y-5986600D01*
X20206000Y-5982000D02*
X18890000Y-4666000D01*
X18890000Y-4666000D02*
X14470400Y-4666000D01*
X9405000Y-16302000D02*
X6865000Y-16302000D01*
X39540000Y-6942000D02*
X40500000Y-5982000D01*
X52058000Y-5318600D02*
X54077000Y-5318600D01*
X6831000Y-16268000D02*
X6831000Y-19302400D01*
X13538200Y-3733800D02*
X10541000Y-3733800D01*
X14470400Y-4666000D02*
X13538200Y-3733800D01*
X10541000Y-3733800D02*
X6834998Y-7439802D01*
X39540000Y-8636000D02*
X39540000Y-6942000D01*
X41406600Y-5986600D02*
X41402000Y-5982000D01*
X41402000Y-5982000D02*
X20206000Y-5982000D01*
X40500000Y-5982000D02*
X41402000Y-5982000D01*
X51390000Y-5986600D02*
X52058000Y-5318600D01*
X6832600Y-19304000D02*
X6832600Y-22098000D01*
X6834998Y-7439802D02*
X6834998Y-8870000D01*
X6865000Y-16302000D02*
X6831000Y-16268000D01*
X6831000Y-19302400D02*
X6832600Y-19304000D01*
%TO.N,/-12V*%
X51105000Y-12938600D02*
X49276000Y-14767600D01*
X24618000Y-11958000D02*
X24638000Y-11938000D01*
X24892000Y-12192000D02*
X37546000Y-12192000D01*
X48641000Y-18262600D02*
X40126600Y-18262600D01*
X20574000Y-11911000D02*
X17025000Y-8362000D01*
X49276000Y-17627600D02*
X48641000Y-18262600D01*
X24638000Y-11938000D02*
X24892000Y-12192000D01*
X37546000Y-12192000D02*
X39540000Y-14186000D01*
X54077000Y-12938600D02*
X51105000Y-12938600D01*
X49276000Y-14767600D02*
X49276000Y-17627600D01*
X20604800Y-11958000D02*
X24618000Y-11958000D01*
X20574000Y-11927200D02*
X20604800Y-11958000D01*
X17025000Y-8362000D02*
X17025000Y-8608400D01*
X40126600Y-18262600D02*
X39540000Y-17676000D01*
X20574000Y-11927200D02*
X20574000Y-11911000D01*
X39540000Y-14186000D02*
X39540000Y-16256000D01*
X39540000Y-17676000D02*
X39540000Y-16256000D01*
%TO.N,/Neg1_Feedback*%
X9405000Y-8362000D02*
X11945000Y-8362000D01*
X11945000Y-6531033D02*
X12710233Y-5765800D01*
X11945000Y-8362000D02*
X11945000Y-6531033D01*
%TO.N,/Neg2_FeedBack*%
X19090000Y-20285400D02*
X17068400Y-20285400D01*
X11945000Y-16302000D02*
X14485000Y-16302000D01*
X17068400Y-20285400D02*
X14485000Y-17702000D01*
X14485000Y-17702000D02*
X14485000Y-16302000D01*
%TD*%
%TA.AperFunction,Conductor*%
%TO.N,GND*%
G36*
X52483844Y-13868807D02*
G01*
X52553085Y-13924026D01*
X52591512Y-14003818D01*
X52594821Y-14033191D01*
X52595887Y-14033108D01*
X52596500Y-14040904D01*
X52611724Y-14137030D01*
X52616566Y-14151932D01*
X52614534Y-14152592D01*
X52631165Y-14218610D01*
X52623920Y-14267926D01*
X52624285Y-14267984D01*
X52607000Y-14377120D01*
X52607000Y-14978600D01*
X54041237Y-14978600D01*
X53934685Y-14993920D01*
X53803900Y-15053648D01*
X53695239Y-15147802D01*
X53617507Y-15268756D01*
X53577000Y-15406711D01*
X53577000Y-15550489D01*
X53617507Y-15688444D01*
X53695239Y-15809398D01*
X53803900Y-15903552D01*
X53934685Y-15963280D01*
X54041237Y-15978600D01*
X52607001Y-15978600D01*
X52607001Y-16580076D01*
X52624285Y-16689219D01*
X52622986Y-16689424D01*
X52629413Y-16760858D01*
X52615627Y-16804965D01*
X52616565Y-16805270D01*
X52611725Y-16820165D01*
X52596499Y-16916298D01*
X52596092Y-16921472D01*
X52569669Y-17006002D01*
X52509186Y-17070696D01*
X52426623Y-17102741D01*
X52408123Y-17104580D01*
X52355010Y-17107364D01*
X52346177Y-17107827D01*
X52335764Y-17108100D01*
X52317075Y-17108100D01*
X52298494Y-17110053D01*
X52288121Y-17110869D01*
X52221580Y-17114357D01*
X52213477Y-17116528D01*
X52182802Y-17122213D01*
X52174454Y-17123090D01*
X52111058Y-17143688D01*
X52101077Y-17146644D01*
X52036707Y-17163893D01*
X52029227Y-17167704D01*
X52000409Y-17179641D01*
X51992427Y-17182235D01*
X51992424Y-17182236D01*
X51934715Y-17215554D01*
X51925566Y-17220521D01*
X51866178Y-17250781D01*
X51866169Y-17250787D01*
X51859652Y-17256065D01*
X51833937Y-17273739D01*
X51826674Y-17277932D01*
X51826667Y-17277937D01*
X51777142Y-17322529D01*
X51769238Y-17329281D01*
X51754721Y-17341038D01*
X51754708Y-17341050D01*
X51741522Y-17354236D01*
X51733971Y-17361402D01*
X51684439Y-17406001D01*
X51684434Y-17406008D01*
X51679509Y-17412786D01*
X51659235Y-17436522D01*
X49186345Y-19909414D01*
X49111357Y-19956533D01*
X49045631Y-19967700D01*
X35231569Y-19967700D01*
X35145226Y-19947993D01*
X35090855Y-19909414D01*
X33257654Y-18076213D01*
X33210535Y-18001225D01*
X33200619Y-17913218D01*
X33229870Y-17829625D01*
X33292494Y-17767001D01*
X33376087Y-17737750D01*
X33398350Y-17736499D01*
X35562306Y-17736499D01*
X35658433Y-17721275D01*
X35658436Y-17721273D01*
X35673332Y-17716434D01*
X35673992Y-17718467D01*
X35739977Y-17701834D01*
X35789323Y-17709082D01*
X35789382Y-17708715D01*
X35898518Y-17725999D01*
X36499999Y-17725999D01*
X36500000Y-17725998D01*
X36500000Y-16327889D01*
X36540507Y-16465844D01*
X36618239Y-16586798D01*
X36726900Y-16680952D01*
X36857685Y-16740680D01*
X36964237Y-16756000D01*
X37035763Y-16756000D01*
X37142315Y-16740680D01*
X37273100Y-16680952D01*
X37381761Y-16586798D01*
X37459493Y-16465844D01*
X37500000Y-16327889D01*
X37500000Y-17725999D01*
X38101481Y-17725999D01*
X38210619Y-17708715D01*
X38210824Y-17710014D01*
X38282241Y-17703583D01*
X38326369Y-17717375D01*
X38326675Y-17716436D01*
X38341565Y-17721274D01*
X38341567Y-17721275D01*
X38437693Y-17736500D01*
X38457714Y-17736499D01*
X38544054Y-17756203D01*
X38613298Y-17811419D01*
X38646978Y-17874005D01*
X38665089Y-17929745D01*
X38668048Y-17939733D01*
X38685293Y-18004092D01*
X38689098Y-18011560D01*
X38701043Y-18040396D01*
X38703634Y-18048371D01*
X38703637Y-18048377D01*
X38736954Y-18106085D01*
X38741923Y-18115236D01*
X38772184Y-18174624D01*
X38772185Y-18174626D01*
X38777459Y-18181139D01*
X38795145Y-18206873D01*
X38799328Y-18214119D01*
X38799331Y-18214123D01*
X38799333Y-18214126D01*
X38822743Y-18240126D01*
X38843927Y-18263654D01*
X38850684Y-18271565D01*
X38862439Y-18286080D01*
X38875631Y-18299272D01*
X38882803Y-18306829D01*
X38927398Y-18356357D01*
X38927401Y-18356360D01*
X38934181Y-18361286D01*
X38957921Y-18381563D01*
X39421036Y-18844678D01*
X39441314Y-18868420D01*
X39446236Y-18875194D01*
X39446241Y-18875200D01*
X39495759Y-18919786D01*
X39503316Y-18926958D01*
X39516521Y-18940163D01*
X39531039Y-18951919D01*
X39538951Y-18958676D01*
X39588474Y-19003267D01*
X39595728Y-19007455D01*
X39621448Y-19025131D01*
X39627975Y-19030416D01*
X39687405Y-19060697D01*
X39696503Y-19065638D01*
X39711922Y-19074540D01*
X39754221Y-19098962D01*
X39754225Y-19098964D01*
X39754227Y-19098965D01*
X39762186Y-19101550D01*
X39791050Y-19113506D01*
X39798508Y-19117307D01*
X39862891Y-19134557D01*
X39872873Y-19137515D01*
X39936254Y-19158109D01*
X39944587Y-19158985D01*
X39975289Y-19164675D01*
X39980834Y-19166160D01*
X39983382Y-19166843D01*
X40049975Y-19170332D01*
X40060294Y-19171145D01*
X40078885Y-19173100D01*
X40097564Y-19173100D01*
X40107979Y-19173373D01*
X40174514Y-19176860D01*
X40182795Y-19175548D01*
X40213914Y-19173100D01*
X48553686Y-19173100D01*
X48584804Y-19175548D01*
X48593086Y-19176860D01*
X48659621Y-19173373D01*
X48670036Y-19173100D01*
X48688706Y-19173100D01*
X48688715Y-19173100D01*
X48707331Y-19171143D01*
X48717661Y-19170330D01*
X48784218Y-19166843D01*
X48792302Y-19164676D01*
X48823013Y-19158985D01*
X48831347Y-19158109D01*
X48894733Y-19137513D01*
X48904715Y-19134555D01*
X48969092Y-19117307D01*
X48976556Y-19113503D01*
X49005406Y-19101553D01*
X49013373Y-19098965D01*
X49071125Y-19065620D01*
X49080205Y-19060690D01*
X49139626Y-19030415D01*
X49146127Y-19025149D01*
X49171871Y-19007454D01*
X49179126Y-19003267D01*
X49228669Y-18958657D01*
X49236560Y-18951919D01*
X49251081Y-18940160D01*
X49264304Y-18926935D01*
X49271803Y-18919819D01*
X49321360Y-18875199D01*
X49326285Y-18868420D01*
X49346562Y-18844677D01*
X49858082Y-18333158D01*
X49881828Y-18312879D01*
X49888599Y-18307960D01*
X49933190Y-18258435D01*
X49940323Y-18250917D01*
X49953561Y-18237681D01*
X49965322Y-18223154D01*
X49972082Y-18215241D01*
X49973089Y-18214123D01*
X50016667Y-18165726D01*
X50020850Y-18158479D01*
X50038544Y-18132735D01*
X50043816Y-18126225D01*
X50074079Y-18066830D01*
X50079036Y-18057698D01*
X50112365Y-17999973D01*
X50114950Y-17992015D01*
X50126907Y-17963147D01*
X50130707Y-17955692D01*
X50147955Y-17891315D01*
X50150913Y-17881333D01*
X50162578Y-17845431D01*
X50171509Y-17817946D01*
X50172385Y-17809603D01*
X50178077Y-17778900D01*
X50180243Y-17770818D01*
X50183731Y-17704253D01*
X50184547Y-17693892D01*
X50185502Y-17684809D01*
X50186500Y-17675315D01*
X50186500Y-17656635D01*
X50186773Y-17646219D01*
X50190260Y-17579686D01*
X50190259Y-17579680D01*
X50188950Y-17571413D01*
X50186500Y-17540282D01*
X50186500Y-15227169D01*
X50206207Y-15140826D01*
X50244786Y-15086455D01*
X51423856Y-13907386D01*
X51498845Y-13860267D01*
X51564570Y-13849100D01*
X52397501Y-13849100D01*
X52483844Y-13868807D01*
G37*
%TD.AperFunction*%
%TA.AperFunction,Conductor*%
G36*
X37172774Y-13122207D02*
G01*
X37227145Y-13160786D01*
X38510431Y-14444072D01*
X38557550Y-14519060D01*
X38567466Y-14607067D01*
X38538215Y-14690660D01*
X38475591Y-14753284D01*
X38400848Y-14781336D01*
X38341567Y-14790725D01*
X38326668Y-14795566D01*
X38326007Y-14793534D01*
X38259990Y-14810165D01*
X38210675Y-14802920D01*
X38210618Y-14803285D01*
X38101481Y-14786000D01*
X37500000Y-14786000D01*
X37500000Y-16184111D01*
X37459493Y-16046156D01*
X37381761Y-15925202D01*
X37273100Y-15831048D01*
X37142315Y-15771320D01*
X37035763Y-15756000D01*
X36964237Y-15756000D01*
X36857685Y-15771320D01*
X36726900Y-15831048D01*
X36618239Y-15925202D01*
X36540507Y-16046156D01*
X36500000Y-16184111D01*
X36500000Y-14786000D01*
X35898523Y-14786000D01*
X35789381Y-14803285D01*
X35789175Y-14801987D01*
X35717736Y-14808412D01*
X35673629Y-14794626D01*
X35673325Y-14795564D01*
X35658431Y-14790724D01*
X35562304Y-14775499D01*
X35556988Y-14775081D01*
X35472458Y-14748657D01*
X35407765Y-14688173D01*
X35375721Y-14605610D01*
X35373882Y-14587108D01*
X35370773Y-14527776D01*
X35370500Y-14517363D01*
X35370500Y-14498693D01*
X35370500Y-14498685D01*
X35368545Y-14480094D01*
X35367732Y-14469775D01*
X35364243Y-14403182D01*
X35362075Y-14395089D01*
X35356385Y-14364387D01*
X35355509Y-14356054D01*
X35355508Y-14356052D01*
X35351865Y-14344841D01*
X35334912Y-14292664D01*
X35331961Y-14282705D01*
X35314707Y-14218308D01*
X35310900Y-14210836D01*
X35298955Y-14182001D01*
X35296365Y-14174027D01*
X35263036Y-14116300D01*
X35258080Y-14107173D01*
X35227815Y-14047774D01*
X35226126Y-14045688D01*
X35222541Y-14041261D01*
X35204856Y-14015528D01*
X35200669Y-14008277D01*
X35200668Y-14008275D01*
X35156066Y-13958739D01*
X35149300Y-13950816D01*
X35137567Y-13936327D01*
X35137560Y-13936319D01*
X35124367Y-13923126D01*
X35117195Y-13915569D01*
X35072600Y-13866041D01*
X35072596Y-13866038D01*
X35065818Y-13861113D01*
X35042075Y-13840834D01*
X34643455Y-13442214D01*
X34596336Y-13367226D01*
X34586420Y-13279219D01*
X34615671Y-13195626D01*
X34678295Y-13133002D01*
X34761888Y-13103751D01*
X34784169Y-13102500D01*
X37086431Y-13102500D01*
X37172774Y-13122207D01*
G37*
%TD.AperFunction*%
%TA.AperFunction,Conductor*%
G36*
X56460843Y-120207D02*
G01*
X56530084Y-175426D01*
X56568511Y-255218D01*
X56573500Y-299500D01*
X56573500Y-25608500D01*
X56553793Y-25694843D01*
X56498574Y-25764084D01*
X56418782Y-25802511D01*
X56374500Y-25807500D01*
X299500Y-25807500D01*
X213157Y-25787793D01*
X143916Y-25732574D01*
X105489Y-25652782D01*
X100500Y-25608500D01*
X100500Y-24697563D01*
X15822143Y-24697563D01*
X15865387Y-24720966D01*
X16100511Y-24801683D01*
X16345702Y-24842599D01*
X16345708Y-24842600D01*
X16594292Y-24842600D01*
X16594297Y-24842599D01*
X16839488Y-24801683D01*
X17074607Y-24720967D01*
X17074612Y-24720965D01*
X17117855Y-24697563D01*
X17117856Y-24697562D01*
X16470001Y-24049707D01*
X16470000Y-24049707D01*
X15822143Y-24697562D01*
X15822143Y-24697563D01*
X100500Y-24697563D01*
X100500Y-14564306D01*
X1599500Y-14564306D01*
X1614724Y-14660430D01*
X1614727Y-14660438D01*
X1673758Y-14776294D01*
X1765705Y-14868241D01*
X1819711Y-14895758D01*
X1881567Y-14927275D01*
X1977693Y-14942500D01*
X4182306Y-14942499D01*
X4278433Y-14927275D01*
X4394294Y-14868241D01*
X4486241Y-14776294D01*
X4545275Y-14660433D01*
X4560500Y-14564307D01*
X4560500Y-14564299D01*
X4561114Y-14556511D01*
X4563871Y-14556728D01*
X4580207Y-14485157D01*
X4635426Y-14415916D01*
X4715218Y-14377489D01*
X4759500Y-14372500D01*
X6598648Y-14372500D01*
X6684991Y-14392207D01*
X6754232Y-14447426D01*
X6792659Y-14527218D01*
X6792659Y-14615782D01*
X6754232Y-14695574D01*
X6684991Y-14750793D01*
X6614263Y-14769886D01*
X6593975Y-14771483D01*
X6593972Y-14771483D01*
X6593967Y-14771484D01*
X6362790Y-14826985D01*
X6362784Y-14826987D01*
X6143123Y-14917974D01*
X5940409Y-15042197D01*
X5940408Y-15042198D01*
X5759612Y-15196612D01*
X5605198Y-15377408D01*
X5605197Y-15377409D01*
X5480974Y-15580123D01*
X5389987Y-15799784D01*
X5389985Y-15799790D01*
X5334484Y-16030967D01*
X5334483Y-16030972D01*
X5334483Y-16030975D01*
X5315829Y-16268000D01*
X5334264Y-16502248D01*
X5334484Y-16505032D01*
X5389985Y-16736209D01*
X5389987Y-16736215D01*
X5480974Y-16955876D01*
X5605197Y-17158590D01*
X5605198Y-17158591D01*
X5605199Y-17158593D01*
X5605201Y-17158595D01*
X5759612Y-17339388D01*
X5850741Y-17417218D01*
X5903596Y-17488277D01*
X5920500Y-17568538D01*
X5920500Y-18004826D01*
X5900793Y-18091169D01*
X5850741Y-18156146D01*
X5761219Y-18232605D01*
X5761212Y-18232611D01*
X5606798Y-18413408D01*
X5606797Y-18413409D01*
X5482574Y-18616123D01*
X5391587Y-18835784D01*
X5391585Y-18835790D01*
X5336084Y-19066967D01*
X5336083Y-19066972D01*
X5336083Y-19066975D01*
X5317429Y-19304000D01*
X5324575Y-19394805D01*
X5336084Y-19541032D01*
X5391585Y-19772209D01*
X5391587Y-19772215D01*
X5482574Y-19991876D01*
X5606797Y-20194590D01*
X5606798Y-20194591D01*
X5606799Y-20194593D01*
X5606801Y-20194595D01*
X5761212Y-20375388D01*
X5852341Y-20453218D01*
X5905196Y-20524277D01*
X5922100Y-20604538D01*
X5922100Y-21051460D01*
X5902393Y-21137803D01*
X5852340Y-21202781D01*
X5761217Y-21280606D01*
X5761212Y-21280611D01*
X5606798Y-21461408D01*
X5606797Y-21461409D01*
X5482574Y-21664123D01*
X5391587Y-21883784D01*
X5391585Y-21883790D01*
X5336084Y-22114967D01*
X5336083Y-22114972D01*
X5336083Y-22114975D01*
X5317429Y-22352000D01*
X5325299Y-22452005D01*
X5336084Y-22589032D01*
X5391585Y-22820209D01*
X5391587Y-22820215D01*
X5482574Y-23039876D01*
X5606797Y-23242590D01*
X5606798Y-23242591D01*
X5606799Y-23242593D01*
X5606801Y-23242595D01*
X5761212Y-23423388D01*
X5942005Y-23577799D01*
X5942007Y-23577800D01*
X5942008Y-23577801D01*
X5942009Y-23577802D01*
X6144723Y-23702025D01*
X6144725Y-23702025D01*
X6144727Y-23702027D01*
X6364386Y-23793013D01*
X6595575Y-23848517D01*
X6832600Y-23867171D01*
X7069625Y-23848517D01*
X7300814Y-23793013D01*
X7508556Y-23706963D01*
X11184743Y-23706963D01*
X11227987Y-23730366D01*
X11463111Y-23811083D01*
X11708302Y-23851999D01*
X11708308Y-23852000D01*
X11956892Y-23852000D01*
X11956897Y-23851999D01*
X12202088Y-23811083D01*
X12437207Y-23730367D01*
X12437212Y-23730365D01*
X12480455Y-23706963D01*
X12480456Y-23706962D01*
X12116098Y-23342604D01*
X14964859Y-23342604D01*
X14985385Y-23590330D01*
X15046413Y-23831320D01*
X15115855Y-23989635D01*
X15115857Y-23989636D01*
X15691004Y-23414489D01*
X15970000Y-23414489D01*
X16010507Y-23552444D01*
X16088239Y-23673398D01*
X16196900Y-23767552D01*
X16327685Y-23827280D01*
X16434237Y-23842600D01*
X16505763Y-23842600D01*
X16612315Y-23827280D01*
X16743100Y-23767552D01*
X16851761Y-23673398D01*
X16929493Y-23552444D01*
X16970000Y-23414489D01*
X16970000Y-23342600D01*
X17177107Y-23342600D01*
X17824143Y-23989636D01*
X17893587Y-23831320D01*
X17954614Y-23590330D01*
X17975141Y-23342604D01*
X17975141Y-23342595D01*
X17954614Y-23094869D01*
X17893587Y-22853879D01*
X17824143Y-22695563D01*
X17177107Y-23342599D01*
X17177107Y-23342600D01*
X16970000Y-23342600D01*
X16970000Y-23270711D01*
X16929493Y-23132756D01*
X16851761Y-23011802D01*
X16743100Y-22917648D01*
X16612315Y-22857920D01*
X16505763Y-22842600D01*
X16434237Y-22842600D01*
X16327685Y-22857920D01*
X16196900Y-22917648D01*
X16088239Y-23011802D01*
X16010507Y-23132756D01*
X15970000Y-23270711D01*
X15970000Y-23414489D01*
X15691004Y-23414489D01*
X15762893Y-23342600D01*
X15762893Y-23342599D01*
X15115856Y-22695562D01*
X15115855Y-22695563D01*
X15046413Y-22853877D01*
X15046413Y-22853878D01*
X14985385Y-23094869D01*
X14964859Y-23342595D01*
X14964859Y-23342604D01*
X12116098Y-23342604D01*
X11832601Y-23059107D01*
X11832600Y-23059107D01*
X11184743Y-23706962D01*
X11184743Y-23706963D01*
X7508556Y-23706963D01*
X7520473Y-23702027D01*
X7723195Y-23577799D01*
X7903988Y-23423388D01*
X8058399Y-23242595D01*
X8182627Y-23039873D01*
X8273613Y-22820214D01*
X8329117Y-22589025D01*
X8347771Y-22352004D01*
X10327459Y-22352004D01*
X10347985Y-22599730D01*
X10409013Y-22840720D01*
X10478455Y-22999035D01*
X10478457Y-22999036D01*
X11053604Y-22423889D01*
X11332600Y-22423889D01*
X11373107Y-22561844D01*
X11450839Y-22682798D01*
X11559500Y-22776952D01*
X11690285Y-22836680D01*
X11796837Y-22852000D01*
X11868363Y-22852000D01*
X11974915Y-22836680D01*
X12105700Y-22776952D01*
X12214361Y-22682798D01*
X12292093Y-22561844D01*
X12332600Y-22423889D01*
X12332600Y-22352000D01*
X12539707Y-22352000D01*
X13186743Y-22999036D01*
X13256187Y-22840720D01*
X13317214Y-22599730D01*
X13337741Y-22352004D01*
X13337741Y-22351995D01*
X13317214Y-22104269D01*
X13287678Y-21987636D01*
X15822143Y-21987636D01*
X16470000Y-22635493D01*
X16470001Y-22635493D01*
X17117856Y-21987636D01*
X17117855Y-21987635D01*
X17074609Y-21964233D01*
X17074611Y-21964233D01*
X16839488Y-21883516D01*
X16594297Y-21842600D01*
X16345702Y-21842600D01*
X16100511Y-21883516D01*
X15865389Y-21964233D01*
X15865385Y-21964235D01*
X15822143Y-21987635D01*
X15822143Y-21987636D01*
X13287678Y-21987636D01*
X13256187Y-21863279D01*
X13186743Y-21704963D01*
X12539707Y-22351999D01*
X12539707Y-22352000D01*
X12332600Y-22352000D01*
X12332600Y-22280111D01*
X12292093Y-22142156D01*
X12214361Y-22021202D01*
X12105700Y-21927048D01*
X11974915Y-21867320D01*
X11868363Y-21852000D01*
X11796837Y-21852000D01*
X11690285Y-21867320D01*
X11559500Y-21927048D01*
X11450839Y-22021202D01*
X11373107Y-22142156D01*
X11332600Y-22280111D01*
X11332600Y-22423889D01*
X11053604Y-22423889D01*
X11125493Y-22352000D01*
X11125493Y-22351999D01*
X10478456Y-21704962D01*
X10478455Y-21704963D01*
X10409013Y-21863277D01*
X10409013Y-21863278D01*
X10347985Y-22104269D01*
X10327459Y-22351995D01*
X10327459Y-22352004D01*
X8347771Y-22352004D01*
X8347771Y-22352000D01*
X8329117Y-22114975D01*
X8273613Y-21883786D01*
X8182627Y-21664127D01*
X8180654Y-21660907D01*
X8058402Y-21461409D01*
X8058401Y-21461408D01*
X8058400Y-21461407D01*
X8058399Y-21461405D01*
X7903988Y-21280612D01*
X7903987Y-21280611D01*
X7903982Y-21280606D01*
X7812860Y-21202781D01*
X7760003Y-21131720D01*
X7743100Y-21051460D01*
X7743100Y-20997036D01*
X11184743Y-20997036D01*
X11832600Y-21644893D01*
X11832601Y-21644893D01*
X12480456Y-20997036D01*
X12479834Y-20992770D01*
X12424949Y-20944590D01*
X12390332Y-20863072D01*
X12394513Y-20774608D01*
X12436663Y-20696718D01*
X12479989Y-20662166D01*
X12480456Y-20658962D01*
X11832601Y-20011107D01*
X11832600Y-20011107D01*
X11184743Y-20658962D01*
X11185365Y-20663229D01*
X11240251Y-20711410D01*
X11274866Y-20792929D01*
X11270684Y-20881393D01*
X11228533Y-20959282D01*
X11185210Y-20993830D01*
X11184743Y-20997036D01*
X7743100Y-20997036D01*
X7743100Y-20604538D01*
X7762807Y-20518195D01*
X7812858Y-20453219D01*
X7903988Y-20375388D01*
X8058399Y-20194595D01*
X8182627Y-19991873D01*
X8273613Y-19772214D01*
X8329117Y-19541025D01*
X8347771Y-19304004D01*
X10327459Y-19304004D01*
X10347985Y-19551730D01*
X10409013Y-19792720D01*
X10478455Y-19951035D01*
X10478457Y-19951036D01*
X11053604Y-19375889D01*
X11332600Y-19375889D01*
X11373107Y-19513844D01*
X11450839Y-19634798D01*
X11559500Y-19728952D01*
X11690285Y-19788680D01*
X11796837Y-19804000D01*
X11868363Y-19804000D01*
X11974915Y-19788680D01*
X12105700Y-19728952D01*
X12214361Y-19634798D01*
X12292093Y-19513844D01*
X12332600Y-19375889D01*
X12332600Y-19304000D01*
X12539707Y-19304000D01*
X13186743Y-19951036D01*
X13256187Y-19792720D01*
X13317214Y-19551730D01*
X13337741Y-19304004D01*
X13337741Y-19303995D01*
X13317214Y-19056269D01*
X13256187Y-18815279D01*
X13186743Y-18656963D01*
X12539707Y-19303999D01*
X12539707Y-19304000D01*
X12332600Y-19304000D01*
X12332600Y-19232111D01*
X12292093Y-19094156D01*
X12214361Y-18973202D01*
X12105700Y-18879048D01*
X11974915Y-18819320D01*
X11868363Y-18804000D01*
X11796837Y-18804000D01*
X11690285Y-18819320D01*
X11559500Y-18879048D01*
X11450839Y-18973202D01*
X11373107Y-19094156D01*
X11332600Y-19232111D01*
X11332600Y-19375889D01*
X11053604Y-19375889D01*
X11125493Y-19304000D01*
X11125493Y-19303999D01*
X10478456Y-18656962D01*
X10478455Y-18656963D01*
X10409013Y-18815277D01*
X10409013Y-18815278D01*
X10347985Y-19056269D01*
X10327459Y-19303995D01*
X10327459Y-19304004D01*
X8347771Y-19304004D01*
X8347771Y-19304000D01*
X8329117Y-19066975D01*
X8273613Y-18835786D01*
X8182627Y-18616127D01*
X8182625Y-18616123D01*
X8058402Y-18413409D01*
X8058401Y-18413408D01*
X8058400Y-18413407D01*
X8058399Y-18413405D01*
X7903988Y-18232612D01*
X7888184Y-18219114D01*
X7811259Y-18153413D01*
X7758403Y-18082353D01*
X7741500Y-18002093D01*
X7741500Y-17839464D01*
X7761207Y-17753121D01*
X7816426Y-17683880D01*
X7896218Y-17645453D01*
X7984782Y-17645453D01*
X8064574Y-17683880D01*
X8081214Y-17698750D01*
X8090705Y-17708241D01*
X8167697Y-17747470D01*
X8206567Y-17767275D01*
X8302693Y-17782500D01*
X10507306Y-17782499D01*
X10603433Y-17767275D01*
X10603436Y-17767273D01*
X10613502Y-17764003D01*
X10701709Y-17756063D01*
X10736496Y-17764003D01*
X10746565Y-17767274D01*
X10746567Y-17767275D01*
X10842693Y-17782500D01*
X10978914Y-17782499D01*
X11065253Y-17802206D01*
X11134495Y-17857423D01*
X11172919Y-17937212D01*
X11832600Y-18596893D01*
X11832601Y-18596893D01*
X12495448Y-17934044D01*
X12496418Y-17921911D01*
X12541075Y-17845431D01*
X12614493Y-17795901D01*
X12686286Y-17782499D01*
X13047306Y-17782499D01*
X13143433Y-17767275D01*
X13143436Y-17767273D01*
X13153502Y-17764003D01*
X13241709Y-17756063D01*
X13276496Y-17764003D01*
X13286565Y-17767274D01*
X13286567Y-17767275D01*
X13382693Y-17782500D01*
X13409214Y-17782499D01*
X13495555Y-17802204D01*
X13564798Y-17857420D01*
X13598478Y-17920008D01*
X13610090Y-17955748D01*
X13613048Y-17965733D01*
X13630293Y-18030092D01*
X13634098Y-18037560D01*
X13646043Y-18066396D01*
X13648634Y-18074371D01*
X13648637Y-18074377D01*
X13681954Y-18132085D01*
X13686923Y-18141236D01*
X13717184Y-18200624D01*
X13717185Y-18200626D01*
X13722459Y-18207139D01*
X13740145Y-18232873D01*
X13744328Y-18240119D01*
X13744331Y-18240123D01*
X13744333Y-18240126D01*
X13755525Y-18252556D01*
X13788927Y-18289654D01*
X13795684Y-18297565D01*
X13807439Y-18312080D01*
X13820632Y-18325273D01*
X13827803Y-18332829D01*
X13872401Y-18382360D01*
X13877801Y-18386283D01*
X13879180Y-18387285D01*
X13902925Y-18407566D01*
X16362834Y-20867475D01*
X16383113Y-20891218D01*
X16388038Y-20897996D01*
X16388041Y-20898000D01*
X16437569Y-20942595D01*
X16445126Y-20949767D01*
X16458319Y-20962960D01*
X16458327Y-20962967D01*
X16472816Y-20974700D01*
X16480739Y-20981466D01*
X16530275Y-21026068D01*
X16530277Y-21026069D01*
X16537528Y-21030256D01*
X16563261Y-21047941D01*
X16569774Y-21053215D01*
X16629173Y-21083480D01*
X16638300Y-21088436D01*
X16696027Y-21121765D01*
X16704001Y-21124355D01*
X16732836Y-21136300D01*
X16740308Y-21140107D01*
X16804705Y-21157361D01*
X16814664Y-21160312D01*
X16878054Y-21180909D01*
X16886387Y-21181785D01*
X16917089Y-21187475D01*
X16922634Y-21188960D01*
X16925182Y-21189643D01*
X16991775Y-21193132D01*
X17002094Y-21193945D01*
X17020685Y-21195900D01*
X17039364Y-21195900D01*
X17049779Y-21196173D01*
X17116314Y-21199660D01*
X17124595Y-21198348D01*
X17155714Y-21195900D01*
X17789460Y-21195900D01*
X17875803Y-21215607D01*
X17940781Y-21265660D01*
X18018606Y-21356782D01*
X18018611Y-21356787D01*
X18018612Y-21356788D01*
X18199405Y-21511199D01*
X18199407Y-21511200D01*
X18199408Y-21511201D01*
X18199409Y-21511202D01*
X18402123Y-21635425D01*
X18402125Y-21635425D01*
X18402127Y-21635427D01*
X18621786Y-21726413D01*
X18852975Y-21781917D01*
X19090000Y-21800571D01*
X19327025Y-21781917D01*
X19558214Y-21726413D01*
X19777873Y-21635427D01*
X19980595Y-21511199D01*
X20161388Y-21356788D01*
X20315799Y-21175995D01*
X20440027Y-20973273D01*
X20531013Y-20753614D01*
X20586517Y-20522425D01*
X20605171Y-20285400D01*
X20586517Y-20048375D01*
X20531013Y-19817186D01*
X20440027Y-19597527D01*
X20405403Y-19541025D01*
X20315802Y-19394809D01*
X20315801Y-19394808D01*
X20315800Y-19394807D01*
X20315799Y-19394805D01*
X20161388Y-19214012D01*
X19980595Y-19059601D01*
X19980593Y-19059599D01*
X19980591Y-19059598D01*
X19980590Y-19059597D01*
X19777876Y-18935374D01*
X19558215Y-18844387D01*
X19558209Y-18844385D01*
X19327032Y-18788884D01*
X19327027Y-18788883D01*
X19327025Y-18788883D01*
X19090000Y-18770229D01*
X18852975Y-18788883D01*
X18852972Y-18788883D01*
X18852967Y-18788884D01*
X18621790Y-18844385D01*
X18621784Y-18844387D01*
X18402123Y-18935374D01*
X18199409Y-19059597D01*
X18199408Y-19059598D01*
X18018611Y-19214012D01*
X18018606Y-19214017D01*
X17940781Y-19305140D01*
X17869720Y-19357997D01*
X17789460Y-19374900D01*
X17527969Y-19374900D01*
X17441626Y-19355193D01*
X17387255Y-19316614D01*
X16352804Y-18282163D01*
X19926143Y-18282163D01*
X19969387Y-18305566D01*
X20204511Y-18386283D01*
X20449702Y-18427199D01*
X20449708Y-18427200D01*
X20698292Y-18427200D01*
X20698297Y-18427199D01*
X20943488Y-18386283D01*
X21178607Y-18305567D01*
X21178612Y-18305565D01*
X21201898Y-18292963D01*
X23990143Y-18292963D01*
X24033387Y-18316366D01*
X24246876Y-18389656D01*
X24322141Y-18436331D01*
X24369702Y-18511040D01*
X24373448Y-18542611D01*
X24424513Y-18480033D01*
X24504732Y-18442505D01*
X24546833Y-18438000D01*
X24762292Y-18438000D01*
X24762297Y-18437999D01*
X25007488Y-18397083D01*
X25242607Y-18316367D01*
X25242612Y-18316365D01*
X25285855Y-18292963D01*
X25285856Y-18292962D01*
X24638001Y-17645107D01*
X24638000Y-17645107D01*
X23990143Y-18292962D01*
X23990143Y-18292963D01*
X21201898Y-18292963D01*
X21221855Y-18282163D01*
X21221856Y-18282162D01*
X20574001Y-17634307D01*
X20574000Y-17634307D01*
X19926143Y-18282162D01*
X19926143Y-18282163D01*
X16352804Y-18282163D01*
X16192854Y-18122213D01*
X16145735Y-18047225D01*
X16135819Y-17959218D01*
X16165070Y-17875625D01*
X16227694Y-17813001D01*
X16311287Y-17783750D01*
X16333553Y-17782499D01*
X18127306Y-17782499D01*
X18223433Y-17767275D01*
X18339294Y-17708241D01*
X18431241Y-17616294D01*
X18490275Y-17500433D01*
X18505500Y-17404307D01*
X18505500Y-16927204D01*
X19068859Y-16927204D01*
X19089385Y-17174930D01*
X19150413Y-17415920D01*
X19219855Y-17574235D01*
X19219857Y-17574236D01*
X19795004Y-16999089D01*
X20074000Y-16999089D01*
X20114507Y-17137044D01*
X20192239Y-17257998D01*
X20300900Y-17352152D01*
X20431685Y-17411880D01*
X20538237Y-17427200D01*
X20609763Y-17427200D01*
X20716315Y-17411880D01*
X20847100Y-17352152D01*
X20955761Y-17257998D01*
X21033493Y-17137044D01*
X21074000Y-16999089D01*
X21074000Y-16927200D01*
X21281107Y-16927200D01*
X21928143Y-17574236D01*
X21997587Y-17415920D01*
X22058614Y-17174930D01*
X22078246Y-16938004D01*
X23132859Y-16938004D01*
X23153385Y-17185730D01*
X23214413Y-17426720D01*
X23283855Y-17585035D01*
X23283857Y-17585036D01*
X23859004Y-17009889D01*
X24138000Y-17009889D01*
X24178507Y-17147844D01*
X24256239Y-17268798D01*
X24364900Y-17362952D01*
X24495685Y-17422680D01*
X24602237Y-17438000D01*
X24673763Y-17438000D01*
X24780315Y-17422680D01*
X24911100Y-17362952D01*
X25019761Y-17268798D01*
X25097493Y-17147844D01*
X25138000Y-17009889D01*
X25138000Y-16938000D01*
X25345107Y-16938000D01*
X25992143Y-17585036D01*
X26061587Y-17426720D01*
X26122614Y-17185730D01*
X26143141Y-16938004D01*
X26143141Y-16937995D01*
X26122614Y-16690269D01*
X26061587Y-16449279D01*
X25992143Y-16290963D01*
X25345107Y-16937999D01*
X25345107Y-16938000D01*
X25138000Y-16938000D01*
X25138000Y-16866111D01*
X25097493Y-16728156D01*
X25019761Y-16607202D01*
X24911100Y-16513048D01*
X24780315Y-16453320D01*
X24673763Y-16438000D01*
X24602237Y-16438000D01*
X24495685Y-16453320D01*
X24364900Y-16513048D01*
X24256239Y-16607202D01*
X24178507Y-16728156D01*
X24138000Y-16866111D01*
X24138000Y-17009889D01*
X23859004Y-17009889D01*
X23930893Y-16938000D01*
X23930893Y-16937999D01*
X23283856Y-16290962D01*
X23283855Y-16290963D01*
X23214413Y-16449277D01*
X23214413Y-16449278D01*
X23153385Y-16690269D01*
X23132859Y-16937995D01*
X23132859Y-16938004D01*
X22078246Y-16938004D01*
X22079141Y-16927204D01*
X22079141Y-16927195D01*
X22058614Y-16679469D01*
X21997587Y-16438479D01*
X21928143Y-16280163D01*
X21281107Y-16927199D01*
X21281107Y-16927200D01*
X21074000Y-16927200D01*
X21074000Y-16855311D01*
X21033493Y-16717356D01*
X20955761Y-16596402D01*
X20847100Y-16502248D01*
X20716315Y-16442520D01*
X20609763Y-16427200D01*
X20538237Y-16427200D01*
X20431685Y-16442520D01*
X20300900Y-16502248D01*
X20192239Y-16596402D01*
X20114507Y-16717356D01*
X20074000Y-16855311D01*
X20074000Y-16999089D01*
X19795004Y-16999089D01*
X19866893Y-16927200D01*
X19866893Y-16927199D01*
X19219856Y-16280162D01*
X19219855Y-16280163D01*
X19150413Y-16438477D01*
X19150413Y-16438478D01*
X19089385Y-16679469D01*
X19068859Y-16927195D01*
X19068859Y-16927204D01*
X18505500Y-16927204D01*
X18505499Y-15572236D01*
X19926143Y-15572236D01*
X20574000Y-16220093D01*
X20574001Y-16220093D01*
X21211056Y-15583036D01*
X23990143Y-15583036D01*
X24638000Y-16230893D01*
X24638001Y-16230893D01*
X25285856Y-15583036D01*
X25285855Y-15583035D01*
X25242609Y-15559633D01*
X25242611Y-15559633D01*
X25007488Y-15478916D01*
X24762297Y-15438000D01*
X24513702Y-15438000D01*
X24268511Y-15478916D01*
X24033389Y-15559633D01*
X24033385Y-15559635D01*
X23990143Y-15583035D01*
X23990143Y-15583036D01*
X21211056Y-15583036D01*
X21221856Y-15572236D01*
X21221855Y-15572235D01*
X21178609Y-15548833D01*
X21178611Y-15548833D01*
X20943488Y-15468116D01*
X20698297Y-15427200D01*
X20449702Y-15427200D01*
X20204511Y-15468116D01*
X19969389Y-15548833D01*
X19969385Y-15548835D01*
X19926143Y-15572235D01*
X19926143Y-15572236D01*
X18505499Y-15572236D01*
X18505499Y-15199694D01*
X18490275Y-15103567D01*
X18489493Y-15098628D01*
X18495451Y-15010265D01*
X18539159Y-14933239D01*
X18611959Y-14882804D01*
X18686043Y-14868500D01*
X27711671Y-14868500D01*
X27798014Y-14888207D01*
X27867255Y-14943426D01*
X27905682Y-15023218D01*
X27908221Y-15098630D01*
X27899500Y-15153693D01*
X27899500Y-17358306D01*
X27914724Y-17454430D01*
X27914727Y-17454438D01*
X27973758Y-17570294D01*
X28065705Y-17662241D01*
X28157637Y-17709082D01*
X28181567Y-17721275D01*
X28277693Y-17736500D01*
X28277700Y-17736499D01*
X28285489Y-17737113D01*
X28285268Y-17739916D01*
X28356556Y-17756068D01*
X28425886Y-17811176D01*
X28464440Y-17890907D01*
X28469500Y-17935499D01*
X28469500Y-18238686D01*
X28467051Y-18269804D01*
X28465740Y-18278086D01*
X28465740Y-18278089D01*
X28465740Y-18278090D01*
X28469227Y-18344619D01*
X28469500Y-18355035D01*
X28469500Y-18373724D01*
X28471453Y-18392307D01*
X28472269Y-18402680D01*
X28475757Y-18469216D01*
X28475757Y-18469217D01*
X28477926Y-18477313D01*
X28483613Y-18507998D01*
X28484490Y-18516347D01*
X28505090Y-18579747D01*
X28508048Y-18589733D01*
X28525293Y-18654092D01*
X28529098Y-18661560D01*
X28541043Y-18690396D01*
X28543634Y-18698371D01*
X28543637Y-18698377D01*
X28576954Y-18756085D01*
X28581923Y-18765236D01*
X28612184Y-18824624D01*
X28612185Y-18824626D01*
X28617459Y-18831139D01*
X28635145Y-18856873D01*
X28639328Y-18864119D01*
X28639331Y-18864123D01*
X28639333Y-18864126D01*
X28649303Y-18875199D01*
X28683927Y-18913654D01*
X28690684Y-18921565D01*
X28702439Y-18936080D01*
X28715632Y-18949273D01*
X28722803Y-18956829D01*
X28767401Y-19006360D01*
X28774180Y-19011285D01*
X28797925Y-19031566D01*
X32214345Y-22447986D01*
X32261464Y-22522974D01*
X32271380Y-22610981D01*
X32242129Y-22694574D01*
X32179505Y-22757198D01*
X32095912Y-22786449D01*
X32073631Y-22787700D01*
X27962369Y-22787700D01*
X27876026Y-22767993D01*
X27821655Y-22729414D01*
X25653440Y-20561199D01*
X25606321Y-20486211D01*
X25595768Y-20404870D01*
X25605171Y-20285400D01*
X25586517Y-20048375D01*
X25531013Y-19817186D01*
X25440027Y-19597527D01*
X25405403Y-19541025D01*
X25315802Y-19394809D01*
X25315801Y-19394808D01*
X25315800Y-19394807D01*
X25315799Y-19394805D01*
X25161388Y-19214012D01*
X24980595Y-19059601D01*
X24980593Y-19059599D01*
X24980591Y-19059598D01*
X24980590Y-19059597D01*
X24777876Y-18935374D01*
X24558215Y-18844387D01*
X24558209Y-18844385D01*
X24500377Y-18830501D01*
X24421020Y-18791182D01*
X24366582Y-18721325D01*
X24355583Y-18670512D01*
X24351382Y-18682751D01*
X24289129Y-18745744D01*
X24205710Y-18775488D01*
X24166649Y-18776261D01*
X24090000Y-18770229D01*
X23852975Y-18788883D01*
X23852972Y-18788883D01*
X23852967Y-18788884D01*
X23621790Y-18844385D01*
X23621784Y-18844387D01*
X23402123Y-18935374D01*
X23199409Y-19059597D01*
X23199408Y-19059598D01*
X23018612Y-19214012D01*
X22864198Y-19394808D01*
X22864197Y-19394809D01*
X22739974Y-19597523D01*
X22648987Y-19817184D01*
X22648985Y-19817190D01*
X22593484Y-20048367D01*
X22593483Y-20048372D01*
X22593483Y-20048375D01*
X22574829Y-20285400D01*
X22593150Y-20518195D01*
X22593484Y-20522432D01*
X22648985Y-20753609D01*
X22648987Y-20753615D01*
X22739974Y-20973276D01*
X22864197Y-21175990D01*
X22864198Y-21175991D01*
X22864199Y-21175993D01*
X22864201Y-21175995D01*
X23018612Y-21356788D01*
X23124341Y-21447088D01*
X23177197Y-21518147D01*
X23194100Y-21598408D01*
X23194100Y-22029590D01*
X23174393Y-22115933D01*
X23124340Y-22180911D01*
X23018618Y-22271206D01*
X23018612Y-22271211D01*
X22864198Y-22452008D01*
X22864197Y-22452009D01*
X22739974Y-22654723D01*
X22648987Y-22874384D01*
X22648985Y-22874390D01*
X22593484Y-23105567D01*
X22593483Y-23105572D01*
X22593483Y-23105575D01*
X22574829Y-23342600D01*
X22593339Y-23577801D01*
X22593484Y-23579632D01*
X22648985Y-23810809D01*
X22648987Y-23810815D01*
X22739974Y-24030476D01*
X22864197Y-24233190D01*
X22864198Y-24233191D01*
X22864199Y-24233193D01*
X22864201Y-24233195D01*
X23018612Y-24413988D01*
X23199405Y-24568399D01*
X23199407Y-24568400D01*
X23199408Y-24568401D01*
X23199409Y-24568402D01*
X23402123Y-24692625D01*
X23402125Y-24692625D01*
X23402127Y-24692627D01*
X23621786Y-24783613D01*
X23852975Y-24839117D01*
X24090000Y-24857771D01*
X24327025Y-24839117D01*
X24558214Y-24783613D01*
X24777873Y-24692627D01*
X24980595Y-24568399D01*
X25161388Y-24413988D01*
X25315799Y-24233195D01*
X25440027Y-24030473D01*
X25531013Y-23810814D01*
X25583947Y-23590330D01*
X25586516Y-23579631D01*
X25586516Y-23579628D01*
X25586517Y-23579625D01*
X25589863Y-23537103D01*
X25616282Y-23452577D01*
X25676761Y-23387880D01*
X25759322Y-23355832D01*
X25847613Y-23362779D01*
X25924145Y-23407346D01*
X25928963Y-23412004D01*
X26797234Y-24280275D01*
X26817513Y-24304018D01*
X26822438Y-24310796D01*
X26822441Y-24310800D01*
X26871969Y-24355395D01*
X26879526Y-24362567D01*
X26892719Y-24375760D01*
X26892727Y-24375767D01*
X26907216Y-24387500D01*
X26915139Y-24394266D01*
X26964675Y-24438868D01*
X26964677Y-24438869D01*
X26971928Y-24443056D01*
X26997661Y-24460741D01*
X27004174Y-24466015D01*
X27063573Y-24496280D01*
X27072700Y-24501236D01*
X27130427Y-24534565D01*
X27138401Y-24537155D01*
X27167236Y-24549100D01*
X27174708Y-24552907D01*
X27239105Y-24570161D01*
X27249064Y-24573112D01*
X27312454Y-24593709D01*
X27320787Y-24594585D01*
X27351489Y-24600275D01*
X27357034Y-24601760D01*
X27359582Y-24602443D01*
X27426175Y-24605932D01*
X27436494Y-24606745D01*
X27455085Y-24608700D01*
X27473764Y-24608700D01*
X27484179Y-24608973D01*
X27550714Y-24612460D01*
X27558995Y-24611148D01*
X27590114Y-24608700D01*
X51677886Y-24608700D01*
X51709004Y-24611148D01*
X51717286Y-24612460D01*
X51783821Y-24608973D01*
X51794236Y-24608700D01*
X51812906Y-24608700D01*
X51812915Y-24608700D01*
X51831531Y-24606743D01*
X51841861Y-24605930D01*
X51908418Y-24602443D01*
X51916502Y-24600276D01*
X51947213Y-24594585D01*
X51955547Y-24593709D01*
X52018933Y-24573113D01*
X52028915Y-24570155D01*
X52093292Y-24552907D01*
X52100756Y-24549103D01*
X52129606Y-24537153D01*
X52137573Y-24534565D01*
X52195325Y-24501220D01*
X52204405Y-24496290D01*
X52263826Y-24466015D01*
X52270327Y-24460749D01*
X52296071Y-24443054D01*
X52303326Y-24438867D01*
X52352869Y-24394257D01*
X52360758Y-24387520D01*
X52375281Y-24375760D01*
X52375282Y-24375758D01*
X52379335Y-24372477D01*
X52380283Y-24373648D01*
X52450626Y-24334389D01*
X52539029Y-24329057D01*
X52620990Y-24362610D01*
X52667501Y-24408411D01*
X52670758Y-24412894D01*
X52762705Y-24504841D01*
X52826114Y-24537149D01*
X52878567Y-24563875D01*
X52974693Y-24579100D01*
X55179306Y-24579099D01*
X55275433Y-24563875D01*
X55391294Y-24504841D01*
X55483241Y-24412894D01*
X55542275Y-24297033D01*
X55557500Y-24200907D01*
X55557499Y-21996294D01*
X55542275Y-21900167D01*
X55542273Y-21900163D01*
X55539002Y-21890095D01*
X55531063Y-21801888D01*
X55539003Y-21767101D01*
X55542271Y-21757040D01*
X55542275Y-21757033D01*
X55557500Y-21660907D01*
X55557499Y-19456294D01*
X55542275Y-19360167D01*
X55542273Y-19360163D01*
X55539002Y-19350095D01*
X55531063Y-19261888D01*
X55539003Y-19227101D01*
X55542271Y-19217040D01*
X55542275Y-19217033D01*
X55557500Y-19120907D01*
X55557499Y-16916294D01*
X55542275Y-16820167D01*
X55542274Y-16820165D01*
X55537435Y-16805271D01*
X55539467Y-16804610D01*
X55522833Y-16738614D01*
X55530081Y-16689276D01*
X55529715Y-16689218D01*
X55547000Y-16580080D01*
X55547000Y-15978600D01*
X54112763Y-15978600D01*
X54219315Y-15963280D01*
X54350100Y-15903552D01*
X54458761Y-15809398D01*
X54536493Y-15688444D01*
X54577000Y-15550489D01*
X54577000Y-15406711D01*
X54536493Y-15268756D01*
X54458761Y-15147802D01*
X54350100Y-15053648D01*
X54219315Y-14993920D01*
X54112763Y-14978600D01*
X55546999Y-14978600D01*
X55546999Y-14377123D01*
X55529715Y-14267981D01*
X55531013Y-14267775D01*
X55524585Y-14196349D01*
X55538375Y-14152233D01*
X55537435Y-14151928D01*
X55542272Y-14137038D01*
X55542275Y-14137033D01*
X55557500Y-14040907D01*
X55557499Y-11836294D01*
X55557493Y-11836259D01*
X55550596Y-11792707D01*
X55542275Y-11740167D01*
X55542272Y-11740161D01*
X55539002Y-11730095D01*
X55531063Y-11641888D01*
X55539003Y-11607101D01*
X55542271Y-11597040D01*
X55542275Y-11597033D01*
X55557500Y-11500907D01*
X55557499Y-9296294D01*
X55542275Y-9200167D01*
X55542272Y-9200161D01*
X55539002Y-9190095D01*
X55531063Y-9101888D01*
X55539003Y-9067101D01*
X55542271Y-9057040D01*
X55542275Y-9057033D01*
X55557500Y-8960907D01*
X55557499Y-6756294D01*
X55557201Y-6754415D01*
X55552424Y-6724251D01*
X55542275Y-6660167D01*
X55542272Y-6660161D01*
X55539002Y-6650095D01*
X55531063Y-6561888D01*
X55539003Y-6527101D01*
X55542271Y-6517040D01*
X55542275Y-6517033D01*
X55557500Y-6420907D01*
X55557499Y-4216294D01*
X55542275Y-4120167D01*
X55542273Y-4120163D01*
X55539002Y-4110095D01*
X55531063Y-4021888D01*
X55539003Y-3987101D01*
X55542271Y-3977040D01*
X55542275Y-3977033D01*
X55557500Y-3880907D01*
X55557499Y-1676294D01*
X55542275Y-1580167D01*
X55523026Y-1542389D01*
X55483241Y-1464305D01*
X55391294Y-1372358D01*
X55275434Y-1313325D01*
X55243391Y-1308250D01*
X55179307Y-1298100D01*
X55179305Y-1298100D01*
X52974693Y-1298100D01*
X52878569Y-1313324D01*
X52878561Y-1313327D01*
X52762705Y-1372358D01*
X52670758Y-1464305D01*
X52611725Y-1580164D01*
X52611725Y-1580165D01*
X52596500Y-1676294D01*
X52596500Y-1684687D01*
X52576793Y-1771030D01*
X52521574Y-1840271D01*
X52441782Y-1878698D01*
X52418319Y-1882595D01*
X52413615Y-1883089D01*
X52350216Y-1903688D01*
X52340235Y-1906644D01*
X52275865Y-1923893D01*
X52268385Y-1927704D01*
X52239567Y-1939641D01*
X52231585Y-1942235D01*
X52231582Y-1942236D01*
X52173873Y-1975554D01*
X52164724Y-1980521D01*
X52105336Y-2010781D01*
X52105327Y-2010787D01*
X52098810Y-2016065D01*
X52073095Y-2033739D01*
X52065832Y-2037932D01*
X52065825Y-2037937D01*
X52016300Y-2082529D01*
X52008396Y-2089281D01*
X51993879Y-2101038D01*
X51993866Y-2101050D01*
X51980680Y-2114236D01*
X51973129Y-2121402D01*
X51923597Y-2166001D01*
X51923592Y-2166008D01*
X51918667Y-2172786D01*
X51898393Y-2196522D01*
X50491703Y-3603214D01*
X50416715Y-3650333D01*
X50350989Y-3661500D01*
X27293822Y-3661500D01*
X27207479Y-3641793D01*
X27153108Y-3603214D01*
X26517601Y-2967707D01*
X26517600Y-2967707D01*
X25882092Y-3603214D01*
X25807103Y-3650333D01*
X25741378Y-3661500D01*
X21668569Y-3661500D01*
X21582226Y-3641793D01*
X21527855Y-3603214D01*
X20461040Y-2536399D01*
X20413921Y-2461411D01*
X20403368Y-2380070D01*
X20407113Y-2332489D01*
X20412771Y-2260604D01*
X25012459Y-2260604D01*
X25032985Y-2508330D01*
X25094013Y-2749320D01*
X25163455Y-2907635D01*
X25163457Y-2907636D01*
X25738604Y-2332489D01*
X26017600Y-2332489D01*
X26058107Y-2470444D01*
X26135839Y-2591398D01*
X26244500Y-2685552D01*
X26375285Y-2745280D01*
X26481837Y-2760600D01*
X26553363Y-2760600D01*
X26659915Y-2745280D01*
X26790700Y-2685552D01*
X26899361Y-2591398D01*
X26977093Y-2470444D01*
X27017600Y-2332489D01*
X27017600Y-2260600D01*
X27224707Y-2260600D01*
X27871743Y-2907636D01*
X27941187Y-2749320D01*
X28002214Y-2508330D01*
X28022741Y-2260604D01*
X28022741Y-2260595D01*
X28002214Y-2012869D01*
X27941187Y-1771879D01*
X27871743Y-1613563D01*
X27224707Y-2260599D01*
X27224707Y-2260600D01*
X27017600Y-2260600D01*
X27017600Y-2188711D01*
X26977093Y-2050756D01*
X26899361Y-1929802D01*
X26790700Y-1835648D01*
X26659915Y-1775920D01*
X26553363Y-1760600D01*
X26481837Y-1760600D01*
X26375285Y-1775920D01*
X26244500Y-1835648D01*
X26135839Y-1929802D01*
X26058107Y-2050756D01*
X26017600Y-2188711D01*
X26017600Y-2332489D01*
X25738604Y-2332489D01*
X25810493Y-2260600D01*
X25810493Y-2260599D01*
X25163456Y-1613562D01*
X25163455Y-1613563D01*
X25094013Y-1771877D01*
X25094013Y-1771878D01*
X25032985Y-2012869D01*
X25012459Y-2260595D01*
X25012459Y-2260604D01*
X20412771Y-2260604D01*
X20412771Y-2260600D01*
X20394117Y-2023575D01*
X20338613Y-1792386D01*
X20247627Y-1572727D01*
X20247625Y-1572723D01*
X20123402Y-1370009D01*
X20123401Y-1370008D01*
X20123400Y-1370007D01*
X20123399Y-1370005D01*
X19968988Y-1189212D01*
X19788195Y-1034801D01*
X19788193Y-1034799D01*
X19788191Y-1034798D01*
X19788190Y-1034797D01*
X19585476Y-910574D01*
X19573555Y-905636D01*
X25869743Y-905636D01*
X26517600Y-1553493D01*
X26517601Y-1553493D01*
X27165456Y-905636D01*
X27165455Y-905635D01*
X27122209Y-882233D01*
X27122211Y-882233D01*
X26887088Y-801516D01*
X26641897Y-760600D01*
X26393302Y-760600D01*
X26148111Y-801516D01*
X25912989Y-882233D01*
X25912985Y-882235D01*
X25869743Y-905635D01*
X25869743Y-905636D01*
X19573555Y-905636D01*
X19365815Y-819587D01*
X19365809Y-819585D01*
X19134632Y-764084D01*
X19134627Y-764083D01*
X19134625Y-764083D01*
X18897600Y-745429D01*
X18660575Y-764083D01*
X18660572Y-764083D01*
X18660567Y-764084D01*
X18429390Y-819585D01*
X18429384Y-819587D01*
X18209723Y-910574D01*
X18007009Y-1034797D01*
X18007008Y-1034798D01*
X17826211Y-1189212D01*
X17826206Y-1189217D01*
X17752595Y-1275406D01*
X17681534Y-1328263D01*
X17601274Y-1345166D01*
X17567999Y-1345166D01*
X17481656Y-1325459D01*
X17416680Y-1275407D01*
X17317155Y-1158878D01*
X17136362Y-1004467D01*
X17136360Y-1004465D01*
X17136358Y-1004464D01*
X17136357Y-1004463D01*
X16933643Y-880240D01*
X16713982Y-789253D01*
X16713976Y-789251D01*
X16482799Y-733750D01*
X16482794Y-733749D01*
X16482792Y-733749D01*
X16245767Y-715095D01*
X16008742Y-733749D01*
X16008739Y-733749D01*
X16008734Y-733750D01*
X15777557Y-789251D01*
X15777551Y-789253D01*
X15557890Y-880240D01*
X15355176Y-1004463D01*
X15355175Y-1004464D01*
X15174379Y-1158878D01*
X15019965Y-1339674D01*
X15019964Y-1339675D01*
X14895741Y-1542389D01*
X14804754Y-1762050D01*
X14804752Y-1762056D01*
X14749251Y-1993233D01*
X14749250Y-1993238D01*
X14749250Y-1993241D01*
X14730596Y-2230266D01*
X14748787Y-2461411D01*
X14749251Y-2467298D01*
X14804752Y-2698475D01*
X14804754Y-2698481D01*
X14895741Y-2918142D01*
X15019964Y-3120856D01*
X15019965Y-3120857D01*
X15019966Y-3120859D01*
X15019968Y-3120861D01*
X15174379Y-3301654D01*
X15295592Y-3405179D01*
X15348449Y-3476240D01*
X15365239Y-3563197D01*
X15342638Y-3648828D01*
X15285120Y-3716172D01*
X15204080Y-3751891D01*
X15166352Y-3755500D01*
X14929969Y-3755500D01*
X14843626Y-3735793D01*
X14789255Y-3697214D01*
X14243766Y-3151725D01*
X14223485Y-3127980D01*
X14218560Y-3121201D01*
X14169028Y-3076602D01*
X14161473Y-3069432D01*
X14148280Y-3056239D01*
X14133765Y-3044484D01*
X14125854Y-3037727D01*
X14076330Y-2993137D01*
X14076326Y-2993133D01*
X14076323Y-2993131D01*
X14076319Y-2993128D01*
X14069073Y-2988945D01*
X14043339Y-2971259D01*
X14036826Y-2965985D01*
X14036824Y-2965984D01*
X13977436Y-2935723D01*
X13968285Y-2930754D01*
X13910577Y-2897437D01*
X13910571Y-2897434D01*
X13902596Y-2894843D01*
X13873760Y-2882898D01*
X13866292Y-2879093D01*
X13801933Y-2861848D01*
X13791947Y-2858890D01*
X13728547Y-2838290D01*
X13720198Y-2837413D01*
X13689516Y-2831726D01*
X13681418Y-2829557D01*
X13648332Y-2827822D01*
X13614880Y-2826069D01*
X13604507Y-2825253D01*
X13585924Y-2823300D01*
X13585915Y-2823300D01*
X13567236Y-2823300D01*
X13556821Y-2823027D01*
X13490290Y-2819540D01*
X13490289Y-2819540D01*
X13490286Y-2819540D01*
X13482004Y-2820851D01*
X13450886Y-2823300D01*
X10628314Y-2823300D01*
X10597195Y-2820851D01*
X10588914Y-2819540D01*
X10588910Y-2819540D01*
X10588909Y-2819540D01*
X10522379Y-2823027D01*
X10511964Y-2823300D01*
X10493275Y-2823300D01*
X10474694Y-2825253D01*
X10464321Y-2826069D01*
X10397780Y-2829557D01*
X10389677Y-2831728D01*
X10359002Y-2837413D01*
X10350654Y-2838290D01*
X10287258Y-2858888D01*
X10277277Y-2861844D01*
X10212907Y-2879093D01*
X10205427Y-2882904D01*
X10176609Y-2894841D01*
X10168627Y-2897435D01*
X10168624Y-2897436D01*
X10110915Y-2930754D01*
X10101766Y-2935721D01*
X10042378Y-2965981D01*
X10042369Y-2965987D01*
X10035852Y-2971265D01*
X10010137Y-2988939D01*
X10002874Y-2993132D01*
X10002867Y-2993137D01*
X9953342Y-3037729D01*
X9945438Y-3044481D01*
X9930921Y-3056238D01*
X9930908Y-3056250D01*
X9917722Y-3069436D01*
X9910171Y-3076602D01*
X9860639Y-3121201D01*
X9860634Y-3121208D01*
X9855709Y-3127986D01*
X9835435Y-3151722D01*
X6252920Y-6734237D01*
X6229184Y-6754511D01*
X6222406Y-6759436D01*
X6222399Y-6759441D01*
X6177800Y-6808973D01*
X6170634Y-6816524D01*
X6157448Y-6829710D01*
X6157436Y-6829723D01*
X6145679Y-6844240D01*
X6138927Y-6852144D01*
X6094335Y-6901669D01*
X6094330Y-6901676D01*
X6090137Y-6908939D01*
X6072463Y-6934654D01*
X6067185Y-6941171D01*
X6067179Y-6941180D01*
X6036919Y-7000568D01*
X6031952Y-7009717D01*
X5998634Y-7067426D01*
X5998633Y-7067429D01*
X5996039Y-7075411D01*
X5984102Y-7104229D01*
X5980291Y-7111709D01*
X5963042Y-7176079D01*
X5960086Y-7186060D01*
X5939488Y-7249456D01*
X5938611Y-7257804D01*
X5932926Y-7288479D01*
X5930755Y-7296582D01*
X5927267Y-7363123D01*
X5926451Y-7373496D01*
X5924498Y-7392077D01*
X5924498Y-7410765D01*
X5924225Y-7421180D01*
X5920738Y-7487712D01*
X5920738Y-7487716D01*
X5922048Y-7495987D01*
X5924498Y-7527115D01*
X5924498Y-7569460D01*
X5904791Y-7655803D01*
X5854738Y-7720781D01*
X5763615Y-7798606D01*
X5763610Y-7798611D01*
X5609196Y-7979408D01*
X5609195Y-7979409D01*
X5484972Y-8182123D01*
X5393985Y-8401784D01*
X5393983Y-8401790D01*
X5338482Y-8632967D01*
X5338481Y-8632972D01*
X5338481Y-8632975D01*
X5319827Y-8870000D01*
X5337072Y-9089128D01*
X5338482Y-9107032D01*
X5393983Y-9338209D01*
X5393985Y-9338215D01*
X5456070Y-9488100D01*
X5484971Y-9557873D01*
X5569396Y-9695643D01*
X5577289Y-9708522D01*
X5605600Y-9792439D01*
X5594698Y-9880328D01*
X5546741Y-9954784D01*
X5471229Y-10001058D01*
X5407614Y-10011500D01*
X4759499Y-10011500D01*
X4673156Y-9991793D01*
X4603915Y-9936574D01*
X4565488Y-9856782D01*
X4562178Y-9827408D01*
X4561113Y-9827492D01*
X4560499Y-9819695D01*
X4557904Y-9803311D01*
X4545275Y-9723567D01*
X4531047Y-9695643D01*
X4486241Y-9607705D01*
X4394294Y-9515758D01*
X4278434Y-9456725D01*
X4246391Y-9451650D01*
X4182307Y-9441500D01*
X4182305Y-9441500D01*
X1977693Y-9441500D01*
X1881569Y-9456724D01*
X1881561Y-9456727D01*
X1765705Y-9515758D01*
X1673758Y-9607705D01*
X1614725Y-9723564D01*
X1614725Y-9723565D01*
X1610536Y-9750014D01*
X1601305Y-9808300D01*
X1599500Y-9819694D01*
X1599500Y-12024306D01*
X1614724Y-12120430D01*
X1617999Y-12130509D01*
X1625935Y-12218716D01*
X1617999Y-12253487D01*
X1614725Y-12263561D01*
X1599500Y-12359694D01*
X1599500Y-14564306D01*
X100500Y-14564306D01*
X100500Y-299500D01*
X120207Y-213157D01*
X175426Y-143916D01*
X255218Y-105489D01*
X299500Y-100500D01*
X56374500Y-100500D01*
X56460843Y-120207D01*
G37*
%TD.AperFunction*%
%TD*%
M02*
